<?xml version="1.0" encoding="utf-8" standalone="no"?>
<!DOCTYPE svg PUBLIC "-//W3C//DTD SVG 1.1//EN"
  "http://www.w3.org/Graphics/SVG/1.1/DTD/svg11.dtd">
<!-- Created with matplotlib (https://matplotlib.org/) -->
<svg height="345.6pt" version="1.1" viewBox="0 0 460.8 345.6" width="460.8pt" xmlns="http://www.w3.org/2000/svg" xmlns:xlink="http://www.w3.org/1999/xlink">
 <defs>
  <style type="text/css">
*{stroke-linecap:butt;stroke-linejoin:round;}
  </style>
 </defs>
 <g id="figure_1">
  <g id="patch_1">
   <path d="M 0 345.6 
L 460.8 345.6 
L 460.8 0 
L 0 0 
z
" style="fill:#ffffff;"/>
  </g>
  <g id="axes_1">
   <g id="patch_2">
    <path d="M 57.6 307.584 
L 414.72 307.584 
L 414.72 41.472 
L 57.6 41.472 
z
" style="fill:#ffffff;"/>
   </g>
   <g id="matplotlib.axis_1">
    <g id="xtick_1">
     <g id="line2d_1">
      <defs>
       <path d="M 0 0 
L 0 3.5 
" id="mb19d8b7582" style="stroke:#000000;stroke-width:0.8;"/>
      </defs>
      <g>
       <use style="stroke:#000000;stroke-width:0.8;" x="73.832727" xlink:href="#mb19d8b7582" y="307.584"/>
      </g>
     </g>
     <g id="text_1">
      <!-- 0.0 -->
      <defs>
       <path d="M 31.78125 66.40625 
Q 24.171875 66.40625 20.328125 58.90625 
Q 16.5 51.421875 16.5 36.375 
Q 16.5 21.390625 20.328125 13.890625 
Q 24.171875 6.390625 31.78125 6.390625 
Q 39.453125 6.390625 43.28125 13.890625 
Q 47.125 21.390625 47.125 36.375 
Q 47.125 51.421875 43.28125 58.90625 
Q 39.453125 66.40625 31.78125 66.40625 
z
M 31.78125 74.21875 
Q 44.046875 74.21875 50.515625 64.515625 
Q 56.984375 54.828125 56.984375 36.375 
Q 56.984375 17.96875 50.515625 8.265625 
Q 44.046875 -1.421875 31.78125 -1.421875 
Q 19.53125 -1.421875 13.0625 8.265625 
Q 6.59375 17.96875 6.59375 36.375 
Q 6.59375 54.828125 13.0625 64.515625 
Q 19.53125 74.21875 31.78125 74.21875 
z
" id="DejaVuSans-48"/>
       <path d="M 10.6875 12.40625 
L 21 12.40625 
L 21 0 
L 10.6875 0 
z
" id="DejaVuSans-46"/>
      </defs>
      <g transform="translate(65.881165 322.182437)scale(0.1 -0.1)">
       <use xlink:href="#DejaVuSans-48"/>
       <use x="63.623047" xlink:href="#DejaVuSans-46"/>
       <use x="95.410156" xlink:href="#DejaVuSans-48"/>
      </g>
     </g>
    </g>
    <g id="xtick_2">
     <g id="line2d_2">
      <g>
       <use style="stroke:#000000;stroke-width:0.8;" x="138.763636" xlink:href="#mb19d8b7582" y="307.584"/>
      </g>
     </g>
     <g id="text_2">
      <!-- 0.2 -->
      <defs>
       <path d="M 19.1875 8.296875 
L 53.609375 8.296875 
L 53.609375 0 
L 7.328125 0 
L 7.328125 8.296875 
Q 12.9375 14.109375 22.625 23.890625 
Q 32.328125 33.6875 34.8125 36.53125 
Q 39.546875 41.84375 41.421875 45.53125 
Q 43.3125 49.21875 43.3125 52.78125 
Q 43.3125 58.59375 39.234375 62.25 
Q 35.15625 65.921875 28.609375 65.921875 
Q 23.96875 65.921875 18.8125 64.3125 
Q 13.671875 62.703125 7.8125 59.421875 
L 7.8125 69.390625 
Q 13.765625 71.78125 18.9375 73 
Q 24.125 74.21875 28.421875 74.21875 
Q 39.75 74.21875 46.484375 68.546875 
Q 53.21875 62.890625 53.21875 53.421875 
Q 53.21875 48.921875 51.53125 44.890625 
Q 49.859375 40.875 45.40625 35.40625 
Q 44.1875 33.984375 37.640625 27.21875 
Q 31.109375 20.453125 19.1875 8.296875 
z
" id="DejaVuSans-50"/>
      </defs>
      <g transform="translate(130.812074 322.182437)scale(0.1 -0.1)">
       <use xlink:href="#DejaVuSans-48"/>
       <use x="63.623047" xlink:href="#DejaVuSans-46"/>
       <use x="95.410156" xlink:href="#DejaVuSans-50"/>
      </g>
     </g>
    </g>
    <g id="xtick_3">
     <g id="line2d_3">
      <g>
       <use style="stroke:#000000;stroke-width:0.8;" x="203.694545" xlink:href="#mb19d8b7582" y="307.584"/>
      </g>
     </g>
     <g id="text_3">
      <!-- 0.4 -->
      <defs>
       <path d="M 37.796875 64.3125 
L 12.890625 25.390625 
L 37.796875 25.390625 
z
M 35.203125 72.90625 
L 47.609375 72.90625 
L 47.609375 25.390625 
L 58.015625 25.390625 
L 58.015625 17.1875 
L 47.609375 17.1875 
L 47.609375 0 
L 37.796875 0 
L 37.796875 17.1875 
L 4.890625 17.1875 
L 4.890625 26.703125 
z
" id="DejaVuSans-52"/>
      </defs>
      <g transform="translate(195.742983 322.182437)scale(0.1 -0.1)">
       <use xlink:href="#DejaVuSans-48"/>
       <use x="63.623047" xlink:href="#DejaVuSans-46"/>
       <use x="95.410156" xlink:href="#DejaVuSans-52"/>
      </g>
     </g>
    </g>
    <g id="xtick_4">
     <g id="line2d_4">
      <g>
       <use style="stroke:#000000;stroke-width:0.8;" x="268.625455" xlink:href="#mb19d8b7582" y="307.584"/>
      </g>
     </g>
     <g id="text_4">
      <!-- 0.6 -->
      <defs>
       <path d="M 33.015625 40.375 
Q 26.375 40.375 22.484375 35.828125 
Q 18.609375 31.296875 18.609375 23.390625 
Q 18.609375 15.53125 22.484375 10.953125 
Q 26.375 6.390625 33.015625 6.390625 
Q 39.65625 6.390625 43.53125 10.953125 
Q 47.40625 15.53125 47.40625 23.390625 
Q 47.40625 31.296875 43.53125 35.828125 
Q 39.65625 40.375 33.015625 40.375 
z
M 52.59375 71.296875 
L 52.59375 62.3125 
Q 48.875 64.0625 45.09375 64.984375 
Q 41.3125 65.921875 37.59375 65.921875 
Q 27.828125 65.921875 22.671875 59.328125 
Q 17.53125 52.734375 16.796875 39.40625 
Q 19.671875 43.65625 24.015625 45.921875 
Q 28.375 48.1875 33.59375 48.1875 
Q 44.578125 48.1875 50.953125 41.515625 
Q 57.328125 34.859375 57.328125 23.390625 
Q 57.328125 12.15625 50.6875 5.359375 
Q 44.046875 -1.421875 33.015625 -1.421875 
Q 20.359375 -1.421875 13.671875 8.265625 
Q 6.984375 17.96875 6.984375 36.375 
Q 6.984375 53.65625 15.1875 63.9375 
Q 23.390625 74.21875 37.203125 74.21875 
Q 40.921875 74.21875 44.703125 73.484375 
Q 48.484375 72.75 52.59375 71.296875 
z
" id="DejaVuSans-54"/>
      </defs>
      <g transform="translate(260.673892 322.182437)scale(0.1 -0.1)">
       <use xlink:href="#DejaVuSans-48"/>
       <use x="63.623047" xlink:href="#DejaVuSans-46"/>
       <use x="95.410156" xlink:href="#DejaVuSans-54"/>
      </g>
     </g>
    </g>
    <g id="xtick_5">
     <g id="line2d_5">
      <g>
       <use style="stroke:#000000;stroke-width:0.8;" x="333.556364" xlink:href="#mb19d8b7582" y="307.584"/>
      </g>
     </g>
     <g id="text_5">
      <!-- 0.8 -->
      <defs>
       <path d="M 31.78125 34.625 
Q 24.75 34.625 20.71875 30.859375 
Q 16.703125 27.09375 16.703125 20.515625 
Q 16.703125 13.921875 20.71875 10.15625 
Q 24.75 6.390625 31.78125 6.390625 
Q 38.8125 6.390625 42.859375 10.171875 
Q 46.921875 13.96875 46.921875 20.515625 
Q 46.921875 27.09375 42.890625 30.859375 
Q 38.875 34.625 31.78125 34.625 
z
M 21.921875 38.8125 
Q 15.578125 40.375 12.03125 44.71875 
Q 8.5 49.078125 8.5 55.328125 
Q 8.5 64.0625 14.71875 69.140625 
Q 20.953125 74.21875 31.78125 74.21875 
Q 42.671875 74.21875 48.875 69.140625 
Q 55.078125 64.0625 55.078125 55.328125 
Q 55.078125 49.078125 51.53125 44.71875 
Q 48 40.375 41.703125 38.8125 
Q 48.828125 37.15625 52.796875 32.3125 
Q 56.78125 27.484375 56.78125 20.515625 
Q 56.78125 9.90625 50.3125 4.234375 
Q 43.84375 -1.421875 31.78125 -1.421875 
Q 19.734375 -1.421875 13.25 4.234375 
Q 6.78125 9.90625 6.78125 20.515625 
Q 6.78125 27.484375 10.78125 32.3125 
Q 14.796875 37.15625 21.921875 38.8125 
z
M 18.3125 54.390625 
Q 18.3125 48.734375 21.84375 45.5625 
Q 25.390625 42.390625 31.78125 42.390625 
Q 38.140625 42.390625 41.71875 45.5625 
Q 45.3125 48.734375 45.3125 54.390625 
Q 45.3125 60.0625 41.71875 63.234375 
Q 38.140625 66.40625 31.78125 66.40625 
Q 25.390625 66.40625 21.84375 63.234375 
Q 18.3125 60.0625 18.3125 54.390625 
z
" id="DejaVuSans-56"/>
      </defs>
      <g transform="translate(325.604801 322.182437)scale(0.1 -0.1)">
       <use xlink:href="#DejaVuSans-48"/>
       <use x="63.623047" xlink:href="#DejaVuSans-46"/>
       <use x="95.410156" xlink:href="#DejaVuSans-56"/>
      </g>
     </g>
    </g>
    <g id="xtick_6">
     <g id="line2d_6">
      <g>
       <use style="stroke:#000000;stroke-width:0.8;" x="398.487273" xlink:href="#mb19d8b7582" y="307.584"/>
      </g>
     </g>
     <g id="text_6">
      <!-- 1.0 -->
      <defs>
       <path d="M 12.40625 8.296875 
L 28.515625 8.296875 
L 28.515625 63.921875 
L 10.984375 60.40625 
L 10.984375 69.390625 
L 28.421875 72.90625 
L 38.28125 72.90625 
L 38.28125 8.296875 
L 54.390625 8.296875 
L 54.390625 0 
L 12.40625 0 
z
" id="DejaVuSans-49"/>
      </defs>
      <g transform="translate(390.53571 322.182437)scale(0.1 -0.1)">
       <use xlink:href="#DejaVuSans-49"/>
       <use x="63.623047" xlink:href="#DejaVuSans-46"/>
       <use x="95.410156" xlink:href="#DejaVuSans-48"/>
      </g>
     </g>
    </g>
    <g id="text_7">
     <!-- False Positive Rate -->
     <defs>
      <path d="M 9.8125 72.90625 
L 51.703125 72.90625 
L 51.703125 64.59375 
L 19.671875 64.59375 
L 19.671875 43.109375 
L 48.578125 43.109375 
L 48.578125 34.8125 
L 19.671875 34.8125 
L 19.671875 0 
L 9.8125 0 
z
" id="DejaVuSans-70"/>
      <path d="M 34.28125 27.484375 
Q 23.390625 27.484375 19.1875 25 
Q 14.984375 22.515625 14.984375 16.5 
Q 14.984375 11.71875 18.140625 8.90625 
Q 21.296875 6.109375 26.703125 6.109375 
Q 34.1875 6.109375 38.703125 11.40625 
Q 43.21875 16.703125 43.21875 25.484375 
L 43.21875 27.484375 
z
M 52.203125 31.203125 
L 52.203125 0 
L 43.21875 0 
L 43.21875 8.296875 
Q 40.140625 3.328125 35.546875 0.953125 
Q 30.953125 -1.421875 24.3125 -1.421875 
Q 15.921875 -1.421875 10.953125 3.296875 
Q 6 8.015625 6 15.921875 
Q 6 25.140625 12.171875 29.828125 
Q 18.359375 34.515625 30.609375 34.515625 
L 43.21875 34.515625 
L 43.21875 35.40625 
Q 43.21875 41.609375 39.140625 45 
Q 35.0625 48.390625 27.6875 48.390625 
Q 23 48.390625 18.546875 47.265625 
Q 14.109375 46.140625 10.015625 43.890625 
L 10.015625 52.203125 
Q 14.9375 54.109375 19.578125 55.046875 
Q 24.21875 56 28.609375 56 
Q 40.484375 56 46.34375 49.84375 
Q 52.203125 43.703125 52.203125 31.203125 
z
" id="DejaVuSans-97"/>
      <path d="M 9.421875 75.984375 
L 18.40625 75.984375 
L 18.40625 0 
L 9.421875 0 
z
" id="DejaVuSans-108"/>
      <path d="M 44.28125 53.078125 
L 44.28125 44.578125 
Q 40.484375 46.53125 36.375 47.5 
Q 32.28125 48.484375 27.875 48.484375 
Q 21.1875 48.484375 17.84375 46.4375 
Q 14.5 44.390625 14.5 40.28125 
Q 14.5 37.15625 16.890625 35.375 
Q 19.28125 33.59375 26.515625 31.984375 
L 29.59375 31.296875 
Q 39.15625 29.25 43.1875 25.515625 
Q 47.21875 21.78125 47.21875 15.09375 
Q 47.21875 7.46875 41.1875 3.015625 
Q 35.15625 -1.421875 24.609375 -1.421875 
Q 20.21875 -1.421875 15.453125 -0.5625 
Q 10.6875 0.296875 5.421875 2 
L 5.421875 11.28125 
Q 10.40625 8.6875 15.234375 7.390625 
Q 20.0625 6.109375 24.8125 6.109375 
Q 31.15625 6.109375 34.5625 8.28125 
Q 37.984375 10.453125 37.984375 14.40625 
Q 37.984375 18.0625 35.515625 20.015625 
Q 33.0625 21.96875 24.703125 23.78125 
L 21.578125 24.515625 
Q 13.234375 26.265625 9.515625 29.90625 
Q 5.8125 33.546875 5.8125 39.890625 
Q 5.8125 47.609375 11.28125 51.796875 
Q 16.75 56 26.8125 56 
Q 31.78125 56 36.171875 55.265625 
Q 40.578125 54.546875 44.28125 53.078125 
z
" id="DejaVuSans-115"/>
      <path d="M 56.203125 29.59375 
L 56.203125 25.203125 
L 14.890625 25.203125 
Q 15.484375 15.921875 20.484375 11.0625 
Q 25.484375 6.203125 34.421875 6.203125 
Q 39.59375 6.203125 44.453125 7.46875 
Q 49.3125 8.734375 54.109375 11.28125 
L 54.109375 2.78125 
Q 49.265625 0.734375 44.1875 -0.34375 
Q 39.109375 -1.421875 33.890625 -1.421875 
Q 20.796875 -1.421875 13.15625 6.1875 
Q 5.515625 13.8125 5.515625 26.8125 
Q 5.515625 40.234375 12.765625 48.109375 
Q 20.015625 56 32.328125 56 
Q 43.359375 56 49.78125 48.890625 
Q 56.203125 41.796875 56.203125 29.59375 
z
M 47.21875 32.234375 
Q 47.125 39.59375 43.09375 43.984375 
Q 39.0625 48.390625 32.421875 48.390625 
Q 24.90625 48.390625 20.390625 44.140625 
Q 15.875 39.890625 15.1875 32.171875 
z
" id="DejaVuSans-101"/>
      <path id="DejaVuSans-32"/>
      <path d="M 19.671875 64.796875 
L 19.671875 37.40625 
L 32.078125 37.40625 
Q 38.96875 37.40625 42.71875 40.96875 
Q 46.484375 44.53125 46.484375 51.125 
Q 46.484375 57.671875 42.71875 61.234375 
Q 38.96875 64.796875 32.078125 64.796875 
z
M 9.8125 72.90625 
L 32.078125 72.90625 
Q 44.34375 72.90625 50.609375 67.359375 
Q 56.890625 61.8125 56.890625 51.125 
Q 56.890625 40.328125 50.609375 34.8125 
Q 44.34375 29.296875 32.078125 29.296875 
L 19.671875 29.296875 
L 19.671875 0 
L 9.8125 0 
z
" id="DejaVuSans-80"/>
      <path d="M 30.609375 48.390625 
Q 23.390625 48.390625 19.1875 42.75 
Q 14.984375 37.109375 14.984375 27.296875 
Q 14.984375 17.484375 19.15625 11.84375 
Q 23.34375 6.203125 30.609375 6.203125 
Q 37.796875 6.203125 41.984375 11.859375 
Q 46.1875 17.53125 46.1875 27.296875 
Q 46.1875 37.015625 41.984375 42.703125 
Q 37.796875 48.390625 30.609375 48.390625 
z
M 30.609375 56 
Q 42.328125 56 49.015625 48.375 
Q 55.71875 40.765625 55.71875 27.296875 
Q 55.71875 13.875 49.015625 6.21875 
Q 42.328125 -1.421875 30.609375 -1.421875 
Q 18.84375 -1.421875 12.171875 6.21875 
Q 5.515625 13.875 5.515625 27.296875 
Q 5.515625 40.765625 12.171875 48.375 
Q 18.84375 56 30.609375 56 
z
" id="DejaVuSans-111"/>
      <path d="M 9.421875 54.6875 
L 18.40625 54.6875 
L 18.40625 0 
L 9.421875 0 
z
M 9.421875 75.984375 
L 18.40625 75.984375 
L 18.40625 64.59375 
L 9.421875 64.59375 
z
" id="DejaVuSans-105"/>
      <path d="M 18.3125 70.21875 
L 18.3125 54.6875 
L 36.8125 54.6875 
L 36.8125 47.703125 
L 18.3125 47.703125 
L 18.3125 18.015625 
Q 18.3125 11.328125 20.140625 9.421875 
Q 21.96875 7.515625 27.59375 7.515625 
L 36.8125 7.515625 
L 36.8125 0 
L 27.59375 0 
Q 17.1875 0 13.234375 3.875 
Q 9.28125 7.765625 9.28125 18.015625 
L 9.28125 47.703125 
L 2.6875 47.703125 
L 2.6875 54.6875 
L 9.28125 54.6875 
L 9.28125 70.21875 
z
" id="DejaVuSans-116"/>
      <path d="M 2.984375 54.6875 
L 12.5 54.6875 
L 29.59375 8.796875 
L 46.6875 54.6875 
L 56.203125 54.6875 
L 35.6875 0 
L 23.484375 0 
z
" id="DejaVuSans-118"/>
      <path d="M 44.390625 34.1875 
Q 47.5625 33.109375 50.5625 29.59375 
Q 53.5625 26.078125 56.59375 19.921875 
L 66.609375 0 
L 56 0 
L 46.6875 18.703125 
Q 43.0625 26.03125 39.671875 28.421875 
Q 36.28125 30.8125 30.421875 30.8125 
L 19.671875 30.8125 
L 19.671875 0 
L 9.8125 0 
L 9.8125 72.90625 
L 32.078125 72.90625 
Q 44.578125 72.90625 50.734375 67.671875 
Q 56.890625 62.453125 56.890625 51.90625 
Q 56.890625 45.015625 53.6875 40.46875 
Q 50.484375 35.9375 44.390625 34.1875 
z
M 19.671875 64.796875 
L 19.671875 38.921875 
L 32.078125 38.921875 
Q 39.203125 38.921875 42.84375 42.21875 
Q 46.484375 45.515625 46.484375 51.90625 
Q 46.484375 58.296875 42.84375 61.546875 
Q 39.203125 64.796875 32.078125 64.796875 
z
" id="DejaVuSans-82"/>
     </defs>
     <g transform="translate(174.792891 338.140094)scale(0.13 -0.13)">
      <use xlink:href="#DejaVuSans-70"/>
      <use x="57.378906" xlink:href="#DejaVuSans-97"/>
      <use x="118.658203" xlink:href="#DejaVuSans-108"/>
      <use x="146.441406" xlink:href="#DejaVuSans-115"/>
      <use x="198.541016" xlink:href="#DejaVuSans-101"/>
      <use x="260.064453" xlink:href="#DejaVuSans-32"/>
      <use x="291.851562" xlink:href="#DejaVuSans-80"/>
      <use x="352.107422" xlink:href="#DejaVuSans-111"/>
      <use x="413.289062" xlink:href="#DejaVuSans-115"/>
      <use x="465.388672" xlink:href="#DejaVuSans-105"/>
      <use x="493.171875" xlink:href="#DejaVuSans-116"/>
      <use x="532.380859" xlink:href="#DejaVuSans-105"/>
      <use x="560.164062" xlink:href="#DejaVuSans-118"/>
      <use x="619.34375" xlink:href="#DejaVuSans-101"/>
      <use x="680.867188" xlink:href="#DejaVuSans-32"/>
      <use x="712.654297" xlink:href="#DejaVuSans-82"/>
      <use x="782.105469" xlink:href="#DejaVuSans-97"/>
      <use x="843.384766" xlink:href="#DejaVuSans-116"/>
      <use x="882.59375" xlink:href="#DejaVuSans-101"/>
     </g>
    </g>
   </g>
   <g id="matplotlib.axis_2">
    <g id="ytick_1">
     <g id="line2d_7">
      <defs>
       <path d="M 0 0 
L -3.5 0 
" id="m26a34acd13" style="stroke:#000000;stroke-width:0.8;"/>
      </defs>
      <g>
       <use style="stroke:#000000;stroke-width:0.8;" x="57.6" xlink:href="#m26a34acd13" y="295.488"/>
      </g>
     </g>
     <g id="text_8">
      <!-- 0.0 -->
      <g transform="translate(34.696875 299.287219)scale(0.1 -0.1)">
       <use xlink:href="#DejaVuSans-48"/>
       <use x="63.623047" xlink:href="#DejaVuSans-46"/>
       <use x="95.410156" xlink:href="#DejaVuSans-48"/>
      </g>
     </g>
    </g>
    <g id="ytick_2">
     <g id="line2d_8">
      <g>
       <use style="stroke:#000000;stroke-width:0.8;" x="57.6" xlink:href="#m26a34acd13" y="247.104"/>
      </g>
     </g>
     <g id="text_9">
      <!-- 0.2 -->
      <g transform="translate(34.696875 250.903219)scale(0.1 -0.1)">
       <use xlink:href="#DejaVuSans-48"/>
       <use x="63.623047" xlink:href="#DejaVuSans-46"/>
       <use x="95.410156" xlink:href="#DejaVuSans-50"/>
      </g>
     </g>
    </g>
    <g id="ytick_3">
     <g id="line2d_9">
      <g>
       <use style="stroke:#000000;stroke-width:0.8;" x="57.6" xlink:href="#m26a34acd13" y="198.72"/>
      </g>
     </g>
     <g id="text_10">
      <!-- 0.4 -->
      <g transform="translate(34.696875 202.519219)scale(0.1 -0.1)">
       <use xlink:href="#DejaVuSans-48"/>
       <use x="63.623047" xlink:href="#DejaVuSans-46"/>
       <use x="95.410156" xlink:href="#DejaVuSans-52"/>
      </g>
     </g>
    </g>
    <g id="ytick_4">
     <g id="line2d_10">
      <g>
       <use style="stroke:#000000;stroke-width:0.8;" x="57.6" xlink:href="#m26a34acd13" y="150.336"/>
      </g>
     </g>
     <g id="text_11">
      <!-- 0.6 -->
      <g transform="translate(34.696875 154.135219)scale(0.1 -0.1)">
       <use xlink:href="#DejaVuSans-48"/>
       <use x="63.623047" xlink:href="#DejaVuSans-46"/>
       <use x="95.410156" xlink:href="#DejaVuSans-54"/>
      </g>
     </g>
    </g>
    <g id="ytick_5">
     <g id="line2d_11">
      <g>
       <use style="stroke:#000000;stroke-width:0.8;" x="57.6" xlink:href="#m26a34acd13" y="101.952"/>
      </g>
     </g>
     <g id="text_12">
      <!-- 0.8 -->
      <g transform="translate(34.696875 105.751219)scale(0.1 -0.1)">
       <use xlink:href="#DejaVuSans-48"/>
       <use x="63.623047" xlink:href="#DejaVuSans-46"/>
       <use x="95.410156" xlink:href="#DejaVuSans-56"/>
      </g>
     </g>
    </g>
    <g id="ytick_6">
     <g id="line2d_12">
      <g>
       <use style="stroke:#000000;stroke-width:0.8;" x="57.6" xlink:href="#m26a34acd13" y="53.568"/>
      </g>
     </g>
     <g id="text_13">
      <!-- 1.0 -->
      <g transform="translate(34.696875 57.367219)scale(0.1 -0.1)">
       <use xlink:href="#DejaVuSans-49"/>
       <use x="63.623047" xlink:href="#DejaVuSans-46"/>
       <use x="95.410156" xlink:href="#DejaVuSans-48"/>
      </g>
     </g>
    </g>
    <g id="text_14">
     <!-- True Positive Rate -->
     <defs>
      <path d="M -0.296875 72.90625 
L 61.375 72.90625 
L 61.375 64.59375 
L 35.5 64.59375 
L 35.5 0 
L 25.59375 0 
L 25.59375 64.59375 
L -0.296875 64.59375 
z
" id="DejaVuSans-84"/>
      <path d="M 41.109375 46.296875 
Q 39.59375 47.171875 37.8125 47.578125 
Q 36.03125 48 33.890625 48 
Q 26.265625 48 22.1875 43.046875 
Q 18.109375 38.09375 18.109375 28.8125 
L 18.109375 0 
L 9.078125 0 
L 9.078125 54.6875 
L 18.109375 54.6875 
L 18.109375 46.1875 
Q 20.953125 51.171875 25.484375 53.578125 
Q 30.03125 56 36.53125 56 
Q 37.453125 56 38.578125 55.875 
Q 39.703125 55.765625 41.0625 55.515625 
z
" id="DejaVuSans-114"/>
      <path d="M 8.5 21.578125 
L 8.5 54.6875 
L 17.484375 54.6875 
L 17.484375 21.921875 
Q 17.484375 14.15625 20.5 10.265625 
Q 23.53125 6.390625 29.59375 6.390625 
Q 36.859375 6.390625 41.078125 11.03125 
Q 45.3125 15.671875 45.3125 23.6875 
L 45.3125 54.6875 
L 54.296875 54.6875 
L 54.296875 0 
L 45.3125 0 
L 45.3125 8.40625 
Q 42.046875 3.421875 37.71875 1 
Q 33.40625 -1.421875 27.6875 -1.421875 
Q 18.265625 -1.421875 13.375 4.4375 
Q 8.5 10.296875 8.5 21.578125 
z
M 31.109375 56 
z
" id="DejaVuSans-117"/>
     </defs>
     <g transform="translate(27.993281 233.737922)rotate(-90)scale(0.13 -0.13)">
      <use xlink:href="#DejaVuSans-84"/>
      <use x="60.865234" xlink:href="#DejaVuSans-114"/>
      <use x="101.978516" xlink:href="#DejaVuSans-117"/>
      <use x="165.357422" xlink:href="#DejaVuSans-101"/>
      <use x="226.880859" xlink:href="#DejaVuSans-32"/>
      <use x="258.667969" xlink:href="#DejaVuSans-80"/>
      <use x="318.923828" xlink:href="#DejaVuSans-111"/>
      <use x="380.105469" xlink:href="#DejaVuSans-115"/>
      <use x="432.205078" xlink:href="#DejaVuSans-105"/>
      <use x="459.988281" xlink:href="#DejaVuSans-116"/>
      <use x="499.197266" xlink:href="#DejaVuSans-105"/>
      <use x="526.980469" xlink:href="#DejaVuSans-118"/>
      <use x="586.160156" xlink:href="#DejaVuSans-101"/>
      <use x="647.683594" xlink:href="#DejaVuSans-32"/>
      <use x="679.470703" xlink:href="#DejaVuSans-82"/>
      <use x="748.921875" xlink:href="#DejaVuSans-97"/>
      <use x="810.201172" xlink:href="#DejaVuSans-116"/>
      <use x="849.410156" xlink:href="#DejaVuSans-101"/>
     </g>
    </g>
   </g>
   <g id="line2d_13">
    <path clip-path="url(#p9ddaaf999a)" d="M 73.832727 295.488 
L 73.832727 295.488 
L 109.745841 82.469947 
L 110.464103 82.469947 
L 110.464103 81.399504 
L 111.182365 81.399504 
L 111.182365 80.329062 
L 114.773677 80.329062 
L 114.773677 79.793841 
L 115.491939 79.793841 
L 115.491939 79.258619 
L 116.928463 79.258619 
L 116.928463 77.117735 
L 119.08325 77.117735 
L 119.08325 76.582513 
L 119.801512 76.582513 
L 119.801512 74.441628 
L 121.238037 74.441628 
L 121.238037 73.371186 
L 122.674562 73.371186 
L 122.674562 68.554195 
L 124.111086 68.554195 
L 124.111086 67.483752 
L 125.547611 67.483752 
L 125.547611 66.41331 
L 128.42066 66.41331 
L 128.42066 65.878088 
L 129.857184 65.878088 
L 129.857184 65.342867 
L 137.039807 65.342867 
L 137.039807 64.807646 
L 137.758069 64.807646 
L 137.758069 63.737204 
L 142.067643 63.737204 
L 142.067643 63.201982 
L 142.785905 63.201982 
L 142.785905 62.666761 
L 165.052035 62.666761 
L 165.052035 62.13154 
L 167.206822 62.13154 
L 167.206822 61.596319 
L 172.234658 61.596319 
L 172.234658 61.061097 
L 182.29033 61.061097 
L 183.726854 61.061097 
L 185.881641 61.061097 
L 185.881641 60.525876 
L 333.125406 60.525876 
L 334.561931 60.525876 
L 349.645438 60.525876 
L 349.645438 59.990655 
L 351.081963 59.990655 
L 351.081963 59.455434 
L 351.800225 59.455434 
L 351.800225 57.84977 
L 356.828061 57.84977 
L 356.828061 57.314549 
L 371.911569 57.314549 
L 371.911569 56.779327 
L 380.530716 56.779327 
L 380.530716 56.244106 
L 382.685503 56.244106 
L 382.685503 55.173664 
L 386.276814 55.173664 
L 386.276814 54.638442 
L 396.332486 54.638442 
L 398.487273 53.568 
" style="fill:none;stroke:#ff0000;stroke-linecap:square;stroke-opacity:0.8;stroke-width:1.5;"/>
   </g>
   <g id="line2d_14">
    <path clip-path="url(#p9ddaaf999a)" d="M 73.832727 295.488 
L 73.832727 295.488 
L 133.448496 79.258619 
L 134.88502 77.652956 
L 135.603282 77.652956 
L 135.603282 76.582513 
L 137.758069 76.582513 
L 137.758069 74.97685 
L 138.476331 74.97685 
L 138.476331 74.441628 
L 142.067643 74.441628 
L 142.067643 72.835965 
L 144.22243 72.835965 
L 144.22243 72.300743 
L 144.940692 72.300743 
L 144.940692 71.230301 
L 146.377216 71.230301 
L 146.377216 69.089416 
L 147.095479 69.089416 
L 147.095479 66.41331 
L 148.532003 66.41331 
L 148.532003 65.878088 
L 149.250265 65.878088 
L 149.250265 65.342867 
L 150.68679 65.342867 
L 150.68679 64.807646 
L 154.996364 64.807646 
L 154.996364 63.737204 
L 157.869413 63.737204 
L 157.869413 63.201982 
L 171.516396 63.201982 
L 171.516396 62.666761 
L 174.389445 62.666761 
L 174.389445 62.13154 
L 176.544232 62.13154 
L 176.544232 61.596319 
L 179.417281 61.596319 
L 179.417281 61.061097 
L 193.782526 61.061097 
L 193.782526 60.525876 
L 231.850426 60.525876 
L 231.850426 59.990655 
L 241.187836 59.990655 
L 241.187836 59.455434 
L 255.553081 59.455434 
L 255.553081 58.920212 
L 277.100949 58.920212 
L 277.100949 58.384991 
L 345.335865 58.384991 
L 345.335865 57.84977 
L 351.081963 57.84977 
L 351.081963 57.314549 
L 355.391537 57.314549 
L 355.391537 56.779327 
L 369.756782 56.779327 
L 369.756782 56.244106 
L 374.784618 56.244106 
L 374.784618 55.708885 
L 376.939405 55.708885 
L 376.939405 55.173664 
L 377.657667 55.173664 
L 377.657667 54.638442 
L 394.895961 54.638442 
L 398.487273 53.568 
" style="fill:none;stroke:#ff0000;stroke-linecap:square;stroke-opacity:0.8;stroke-width:1.5;"/>
   </g>
   <g id="line2d_15">
    <path clip-path="url(#p9ddaaf999a)" d="M 73.832727 295.488 
L 73.832727 295.488 
L 124.829348 85.681274 
L 126.265873 85.146053 
L 126.984135 85.146053 
L 126.984135 84.610832 
L 127.702397 84.610832 
L 127.702397 84.075611 
L 127.702397 83.005168 
L 127.702397 81.934726 
L 133.448496 81.934726 
L 133.448496 80.864283 
L 136.321545 80.864283 
L 136.321545 78.188177 
L 137.758069 78.188177 
L 137.758069 77.652956 
L 139.194594 77.652956 
L 139.194594 74.97685 
L 140.631118 74.97685 
L 140.631118 73.906407 
L 141.349381 73.906407 
L 141.349381 73.371186 
L 142.785905 73.371186 
L 142.785905 70.69508 
L 142.785905 69.624637 
L 142.785905 69.089416 
L 144.22243 69.089416 
L 144.22243 66.948531 
L 145.658954 66.948531 
L 149.968528 66.948531 
L 149.968528 66.41331 
L 150.68679 66.41331 
L 150.68679 65.878088 
L 152.841577 65.878088 
L 152.841577 65.342867 
L 155.714626 65.342867 
L 155.714626 64.272425 
L 157.15115 64.272425 
L 157.15115 63.737204 
L 173.671183 63.737204 
L 173.671183 62.666761 
L 182.29033 62.666761 
L 182.29033 62.13154 
L 183.008592 62.13154 
L 183.008592 61.596319 
L 186.599903 61.596319 
L 186.599903 61.061097 
L 188.036428 61.061097 
L 189.472953 61.061097 
L 196.655575 61.061097 
L 196.655575 60.525876 
L 227.540853 60.525876 
L 227.540853 59.990655 
L 235.441738 59.990655 
L 235.441738 59.455434 
L 327.379308 59.455434 
L 328.815833 59.455434 
L 341.026291 59.455434 
L 341.026291 58.920212 
L 356.828061 58.920212 
L 356.828061 58.384991 
L 358.264586 58.384991 
L 358.264586 57.84977 
L 360.419372 57.84977 
L 360.419372 57.314549 
L 363.292422 57.314549 
L 363.292422 56.779327 
L 364.728946 56.779327 
L 364.728946 56.244106 
L 374.066356 56.244106 
L 374.066356 55.708885 
L 379.094191 55.708885 
L 380.530716 55.708885 
L 386.995076 55.708885 
L 386.995076 55.173664 
L 392.022912 55.173664 
L 392.022912 54.638442 
L 396.332486 54.638442 
L 398.487273 53.568 
" style="fill:none;stroke:#ff0000;stroke-linecap:square;stroke-opacity:0.8;stroke-width:1.5;"/>
   </g>
   <g id="line2d_16">
    <path clip-path="url(#p9ddaaf999a)" d="M 73.832727 295.488 
L 73.832727 295.488 
L 120.519775 87.822159 
L 121.238037 87.286938 
L 121.238037 86.216496 
L 121.238037 85.681274 
L 121.956299 85.681274 
L 123.392824 85.681274 
L 124.829348 85.681274 
L 124.829348 84.610832 
L 128.42066 84.610832 
L 128.42066 83.005168 
L 129.138922 83.005168 
L 129.138922 81.934726 
L 130.575447 81.934726 
L 130.575447 78.723398 
L 131.293709 78.723398 
L 131.293709 77.652956 
L 131.293709 77.117735 
L 134.166758 77.117735 
L 134.166758 75.512071 
L 137.039807 75.512071 
L 137.039807 74.97685 
L 139.912856 74.97685 
L 139.912856 72.300743 
L 142.785905 72.300743 
L 142.785905 71.230301 
L 144.940692 71.230301 
L 144.940692 70.69508 
L 145.658954 70.69508 
L 145.658954 69.624637 
L 146.377216 69.624637 
L 146.377216 69.089416 
L 147.813741 69.089416 
L 147.813741 68.554195 
L 152.123315 68.554195 
L 152.123315 68.018973 
L 152.841577 68.018973 
L 152.841577 66.41331 
L 162.178986 66.41331 
L 162.178986 65.878088 
L 163.615511 65.878088 
L 163.615511 65.342867 
L 165.770298 65.342867 
L 165.770298 64.807646 
L 185.881641 64.807646 
L 185.881641 64.272425 
L 188.036428 64.272425 
L 188.036428 63.737204 
L 213.89387 63.737204 
L 213.89387 62.666761 
L 215.330394 62.666761 
L 215.330394 62.13154 
L 272.073113 62.13154 
L 273.509638 62.13154 
L 288.593146 62.13154 
L 288.593146 61.596319 
L 345.335865 61.596319 
L 345.335865 60.525876 
L 350.363701 60.525876 
L 350.363701 59.990655 
L 360.419372 59.990655 
L 360.419372 59.455434 
L 367.601995 59.455434 
L 367.601995 58.920212 
L 375.50288 58.920212 
L 375.50288 58.384991 
L 382.685503 58.384991 
L 382.685503 57.84977 
L 385.558552 57.84977 
L 385.558552 57.314549 
L 388.431601 57.314549 
L 388.431601 56.244106 
L 389.868126 56.244106 
L 389.868126 55.708885 
L 394.895961 55.708885 
L 398.487273 53.568 
" style="fill:none;stroke:#ff0000;stroke-linecap:square;stroke-opacity:0.8;stroke-width:1.5;"/>
   </g>
   <g id="line2d_17">
    <path clip-path="url(#p9ddaaf999a)" d="M 73.832727 295.488 
L 73.832727 295.488 
L 124.111086 92.63915 
L 124.829348 91.033487 
L 124.829348 89.963044 
L 125.547611 89.963044 
L 125.547611 88.892602 
L 126.265873 88.892602 
L 126.265873 85.681274 
L 127.702397 85.681274 
L 127.702397 84.610832 
L 129.138922 84.610832 
L 129.138922 83.005168 
L 129.857184 83.005168 
L 129.857184 82.469947 
L 130.575447 82.469947 
L 130.575447 81.934726 
L 131.293709 81.934726 
L 131.293709 79.793841 
L 133.448496 79.793841 
L 133.448496 78.188177 
L 134.88502 78.188177 
L 134.88502 76.047292 
L 135.603282 76.047292 
L 135.603282 74.441628 
L 135.603282 72.835965 
L 136.321545 72.835965 
L 136.321545 71.230301 
L 137.758069 71.230301 
L 137.758069 70.69508 
L 138.476331 70.69508 
L 138.476331 70.159858 
L 142.785905 70.159858 
L 142.785905 69.624637 
L 144.22243 69.624637 
L 144.22243 69.089416 
L 147.095479 69.089416 
L 147.095479 68.554195 
L 147.813741 68.554195 
L 147.813741 66.948531 
L 154.278101 66.948531 
L 154.278101 66.41331 
L 160.0242 66.41331 
L 160.0242 65.878088 
L 163.615511 65.878088 
L 163.615511 64.807646 
L 167.206822 64.807646 
L 167.206822 63.737204 
L 168.643347 63.737204 
L 168.643347 63.201982 
L 182.29033 63.201982 
L 182.29033 62.666761 
L 186.599903 62.666761 
L 186.599903 62.13154 
L 190.909477 62.13154 
L 190.909477 61.596319 
L 195.219051 61.596319 
L 195.219051 61.061097 
L 239.751311 61.061097 
L 241.187836 61.061097 
L 264.890491 61.061097 
L 266.327015 61.061097 
L 302.958391 61.061097 
L 302.958391 60.525876 
L 320.914948 60.525876 
L 320.914948 59.990655 
L 353.23675 59.990655 
L 353.23675 59.455434 
L 366.165471 59.455434 
L 366.165471 58.920212 
L 370.475044 58.920212 
L 370.475044 58.384991 
L 373.348093 58.384991 
L 373.348093 57.84977 
L 376.939405 57.84977 
L 376.939405 57.314549 
L 378.375929 57.314549 
L 378.375929 56.779327 
L 381.967241 56.779327 
L 381.967241 55.708885 
L 385.558552 55.708885 
L 385.558552 55.173664 
L 395.614224 55.173664 
L 395.614224 54.638442 
L 398.487273 53.568 
" style="fill:none;stroke:#ff0000;stroke-linecap:square;stroke-opacity:0.8;stroke-width:1.5;"/>
   </g>
   <g id="line2d_18">
    <path clip-path="url(#p9ddaaf999a)" d="M 73.832727 295.488 
L 73.832727 295.488 
L 120.519775 87.286938 
L 120.519775 85.681274 
L 121.238037 85.146053 
L 125.547611 85.146053 
L 125.547611 84.610832 
L 126.265873 84.610832 
L 126.265873 84.075611 
L 128.42066 84.075611 
L 128.42066 83.540389 
L 129.857184 83.540389 
L 129.857184 81.399504 
L 132.011971 81.399504 
L 132.011971 80.864283 
L 133.448496 80.864283 
L 133.448496 80.329062 
L 134.166758 80.329062 
L 134.166758 79.258619 
L 134.88502 79.258619 
L 134.88502 78.188177 
L 136.321545 78.188177 
L 136.321545 77.117735 
L 137.039807 77.117735 
L 137.039807 76.047292 
L 137.758069 76.047292 
L 137.758069 74.441628 
L 137.758069 72.300743 
L 137.758069 71.765522 
L 138.476331 71.765522 
L 138.476331 70.159858 
L 140.631118 70.159858 
L 140.631118 69.624637 
L 142.785905 69.624637 
L 142.785905 69.089416 
L 144.22243 69.089416 
L 144.22243 68.554195 
L 148.532003 68.554195 
L 148.532003 67.483752 
L 151.405052 67.483752 
L 151.405052 66.948531 
L 152.123315 66.948531 
L 152.123315 66.41331 
L 156.432888 66.41331 
L 156.432888 65.342867 
L 157.15115 65.342867 
L 157.15115 64.807646 
L 170.079871 64.807646 
L 170.079871 64.272425 
L 173.671183 64.272425 
L 173.671183 63.737204 
L 175.825969 63.737204 
L 175.825969 62.666761 
L 180.135543 62.666761 
L 180.135543 62.13154 
L 181.572068 62.13154 
L 181.572068 61.596319 
L 185.881641 61.596319 
L 185.881641 61.061097 
L 211.020821 61.061097 
L 211.020821 60.525876 
L 230.413902 60.525876 
L 230.413902 59.990655 
L 302.958391 59.990655 
L 304.394916 59.990655 
L 310.859276 59.990655 
L 310.859276 59.455434 
L 333.125406 59.455434 
L 333.125406 58.920212 
L 344.617603 58.920212 
L 344.617603 58.384991 
L 366.883733 58.384991 
L 366.883733 57.84977 
L 369.03852 57.84977 
L 369.03852 57.314549 
L 375.50288 57.314549 
L 375.50288 56.779327 
L 378.375929 56.779327 
L 378.375929 56.244106 
L 383.403765 56.244106 
L 383.403765 55.173664 
L 391.30465 55.173664 
L 392.741175 55.173664 
L 394.895961 55.173664 
L 394.895961 54.638442 
L 395.614224 54.638442 
L 398.487273 53.568 
" style="fill:none;stroke:#ff0000;stroke-linecap:square;stroke-opacity:0.8;stroke-width:1.5;"/>
   </g>
   <g id="line2d_19">
    <path clip-path="url(#p9ddaaf999a)" d="M 73.832727 295.488 
L 73.832727 295.488 
L 127.702397 84.075611 
L 129.138922 83.005168 
L 129.138922 82.469947 
L 129.857184 82.469947 
L 130.575447 81.934726 
L 130.575447 80.864283 
L 131.293709 80.864283 
L 131.293709 80.329062 
L 132.011971 80.329062 
L 132.011971 78.723398 
L 132.730233 78.723398 
L 132.730233 78.188177 
L 133.448496 78.188177 
L 133.448496 77.652956 
L 137.039807 77.652956 
L 137.039807 77.117735 
L 139.912856 77.117735 
L 139.912856 76.582513 
L 142.067643 76.582513 
L 142.067643 72.835965 
L 142.785905 72.835965 
L 142.785905 71.765522 
L 144.940692 71.765522 
L 144.940692 70.159858 
L 145.658954 70.159858 
L 145.658954 69.624637 
L 148.532003 69.624637 
L 148.532003 68.554195 
L 152.123315 68.554195 
L 152.123315 67.483752 
L 155.714626 67.483752 
L 155.714626 66.948531 
L 158.587675 66.948531 
L 158.587675 65.878088 
L 163.615511 65.878088 
L 163.615511 64.807646 
L 170.798134 64.807646 
L 170.798134 64.272425 
L 177.980756 64.272425 
L 177.980756 63.737204 
L 186.599903 63.737204 
L 186.599903 63.201982 
L 188.75469 63.201982 
L 188.75469 62.666761 
L 190.191215 62.666761 
L 190.191215 62.13154 
L 192.346002 62.13154 
L 192.346002 61.596319 
L 198.0921 61.596319 
L 198.0921 61.061097 
L 200.965149 61.061097 
L 200.965149 60.525876 
L 208.147772 60.525876 
L 208.147772 59.990655 
L 213.89387 59.990655 
L 213.89387 59.455434 
L 221.794755 59.455434 
L 221.794755 58.920212 
L 292.184457 58.920212 
L 292.184457 58.384991 
L 325.942784 58.384991 
L 327.379308 58.384991 
L 328.09757 58.384991 
L 329.534095 58.384991 
L 361.137635 58.384991 
L 361.137635 57.84977 
L 362.574159 57.84977 
L 362.574159 57.314549 
L 379.094191 57.314549 
L 379.094191 56.779327 
L 380.530716 56.779327 
L 380.530716 56.244106 
L 386.276814 56.244106 
L 386.276814 55.708885 
L 390.586388 55.708885 
L 390.586388 55.173664 
L 391.30465 55.173664 
L 391.30465 54.638442 
L 395.614224 54.638442 
L 398.487273 53.568 
" style="fill:none;stroke:#ff0000;stroke-linecap:square;stroke-opacity:0.8;stroke-width:1.5;"/>
   </g>
   <g id="line2d_20">
    <path clip-path="url(#p9ddaaf999a)" d="M 73.832727 295.488 
L 73.832727 295.488 
L 132.730233 83.005168 
L 134.166758 83.005168 
L 137.758069 83.005168 
L 137.758069 81.399504 
L 139.194594 81.399504 
L 139.194594 80.864283 
L 140.631118 80.864283 
L 140.631118 79.793841 
L 142.067643 79.793841 
L 142.067643 79.258619 
L 142.785905 79.258619 
L 142.785905 78.723398 
L 144.22243 78.723398 
L 144.22243 78.188177 
L 144.940692 78.188177 
L 144.940692 73.371186 
L 144.940692 72.300743 
L 144.940692 71.230301 
L 144.940692 70.159858 
L 144.940692 68.554195 
L 147.095479 68.554195 
L 147.095479 68.018973 
L 148.532003 68.018973 
L 148.532003 65.878088 
L 149.968528 65.878088 
L 149.968528 64.807646 
L 156.432888 64.807646 
L 156.432888 64.272425 
L 160.0242 64.272425 
L 160.0242 63.737204 
L 172.95292 63.737204 
L 172.95292 63.201982 
L 175.107707 63.201982 
L 175.107707 62.666761 
L 184.445117 62.666761 
L 184.445117 61.596319 
L 185.163379 61.596319 
L 185.163379 61.061097 
L 190.191215 61.061097 
L 190.191215 60.525876 
L 193.782526 60.525876 
L 193.782526 59.455434 
L 202.401673 59.455434 
L 202.401673 58.920212 
L 204.55646 58.920212 
L 204.55646 58.384991 
L 221.794755 58.384991 
L 221.794755 57.84977 
L 226.822591 57.84977 
L 226.822591 57.314549 
L 239.751311 57.314549 
L 239.751311 56.779327 
L 261.299179 56.779327 
L 263.453966 56.779327 
L 335.998455 56.779327 
L 337.43498 56.779327 
L 348.927176 56.779327 
L 348.927176 56.244106 
L 352.518488 56.244106 
L 352.518488 55.708885 
L 373.348093 55.708885 
L 373.348093 55.173664 
L 388.431601 55.173664 
L 388.431601 54.638442 
L 392.741175 54.638442 
L 392.741175 54.103221 
L 398.487273 54.103221 
L 398.487273 53.568 
" style="fill:none;stroke:#ff0000;stroke-linecap:square;stroke-opacity:0.8;stroke-width:1.5;"/>
   </g>
   <g id="line2d_21">
    <path clip-path="url(#p9ddaaf999a)" d="M 73.832727 295.488 
L 73.832727 295.488 
L 122.674562 85.681274 
L 122.674562 84.075611 
L 122.674562 83.540389 
L 122.674562 82.469947 
L 122.674562 81.399504 
L 123.392824 81.399504 
L 123.392824 80.329062 
L 124.111086 80.329062 
L 124.111086 79.258619 
L 125.547611 79.258619 
L 125.547611 78.723398 
L 129.857184 78.723398 
L 129.857184 77.652956 
L 130.575447 77.652956 
L 130.575447 76.582513 
L 132.011971 76.582513 
L 132.011971 74.441628 
L 132.730233 74.441628 
L 132.730233 72.835965 
L 136.321545 72.835965 
L 136.321545 71.765522 
L 137.758069 71.765522 
L 137.758069 69.624637 
L 139.912856 69.624637 
L 139.912856 69.089416 
L 140.631118 69.089416 
L 140.631118 68.018973 
L 141.349381 68.018973 
L 141.349381 67.483752 
L 142.785905 67.483752 
L 142.785905 66.41331 
L 144.940692 66.41331 
L 144.940692 65.878088 
L 172.234658 65.878088 
L 172.234658 65.342867 
L 179.417281 65.342867 
L 179.417281 64.272425 
L 186.599903 64.272425 
L 186.599903 63.737204 
L 187.318166 63.737204 
L 187.318166 63.201982 
L 194.500788 63.201982 
L 194.500788 62.666761 
L 285.720097 62.666761 
L 287.156621 62.666761 
L 320.196685 62.666761 
L 321.63321 62.666761 
L 330.970619 62.666761 
L 330.970619 62.13154 
L 341.744553 62.13154 
L 341.744553 61.596319 
L 343.181078 61.596319 
L 343.181078 61.061097 
L 343.89934 61.061097 
L 343.89934 60.525876 
L 346.054127 60.525876 
L 346.054127 59.990655 
L 348.927176 59.990655 
L 348.927176 59.455434 
L 359.70111 59.455434 
L 359.70111 58.920212 
L 364.010684 58.920212 
L 364.010684 58.384991 
L 364.728946 58.384991 
L 366.165471 58.384991 
L 367.601995 58.384991 
L 367.601995 57.314549 
L 378.375929 57.314549 
L 378.375929 56.244106 
L 379.094191 56.244106 
L 379.094191 55.173664 
L 385.558552 55.173664 
L 385.558552 54.638442 
L 396.332486 54.638442 
L 396.332486 54.103221 
L 397.76901 54.103221 
L 398.487273 53.568 
" style="fill:none;stroke:#ff0000;stroke-linecap:square;stroke-opacity:0.8;stroke-width:1.5;"/>
   </g>
   <g id="line2d_22">
    <path clip-path="url(#p9ddaaf999a)" d="M 73.832727 295.488 
L 73.832727 295.488 
L 116.398545 84.7488 
L 121.448727 84.7488 
L 121.448727 84.2112 
L 122.170182 84.2112 
L 122.170182 83.6736 
L 122.891636 83.6736 
L 122.891636 83.136 
L 122.891636 81.5232 
L 122.891636 79.9104 
L 124.334545 79.9104 
L 124.334545 78.8352 
L 127.220364 78.8352 
L 127.220364 78.2976 
L 130.827636 78.2976 
L 130.827636 77.2224 
L 130.827636 76.1472 
L 131.549091 76.1472 
L 131.549091 75.072 
L 131.549091 72.9216 
L 132.270545 71.8464 
L 132.270545 70.7712 
L 133.713455 70.7712 
L 133.713455 68.6208 
L 135.156364 68.6208 
L 135.156364 68.0832 
L 136.599273 68.0832 
L 136.599273 66.4704 
L 140.928 66.4704 
L 140.928 65.3952 
L 143.092364 65.3952 
L 143.092364 64.8576 
L 164.736 64.8576 
L 164.736 63.7824 
L 169.064727 63.7824 
L 169.064727 62.7072 
L 174.836364 62.7072 
L 174.836364 62.1696 
L 178.443636 62.1696 
L 178.443636 61.632 
L 187.822545 61.632 
L 187.822545 61.0944 
L 196.48 61.0944 
L 196.48 60.5568 
L 259.246545 60.5568 
L 260.689455 60.5568 
L 265.739636 60.5568 
L 265.739636 60.0192 
L 280.168727 60.0192 
L 281.611636 60.0192 
L 342.213818 60.0192 
L 342.213818 59.4816 
L 345.821091 59.4816 
L 345.821091 58.944 
L 357.364364 58.944 
L 357.364364 58.4064 
L 367.464727 58.4064 
L 367.464727 57.8688 
L 373.957818 57.8688 
L 373.957818 56.7936 
L 376.122182 56.7936 
L 376.122182 56.256 
L 377.565091 56.256 
L 377.565091 55.1808 
L 386.944 55.1808 
L 386.944 54.6432 
L 391.272727 54.6432 
L 391.272727 54.1056 
L 397.044364 54.1056 
L 398.487273 53.568 
" style="fill:none;stroke:#ff0000;stroke-linecap:square;stroke-opacity:0.8;stroke-width:1.5;"/>
   </g>
   <g id="line2d_23">
    <path clip-path="url(#p9ddaaf999a)" d="M 73.832727 295.488 
L 110.555414 136.508753 
L 118.029943 108.88721 
L 121.604717 97.375063 
L 122.579656 95.020105 
L 122.904636 93.065674 
L 123.879574 91.07623 
L 124.854513 88.806918 
L 125.504472 88.057397 
L 125.829451 87.361504 
L 126.154431 86.986744 
L 126.47941 86.245284 
L 127.454349 85.050045 
L 127.779328 84.337197 
L 128.104308 84.077867 
L 128.429287 83.550927 
L 129.079247 83.032267 
L 129.404226 82.471574 
L 129.729206 82.23646 
L 130.054185 81.55849 
L 130.379165 81.29916 
L 130.704144 80.460677 
L 131.029124 80.010523 
L 131.679083 78.770186 
L 132.004062 78.48664 
L 132.329042 77.676115 
L 133.30398 76.963674 
L 133.62896 76.516432 
L 134.278919 75.961133 
L 134.603898 75.924808 
L 134.928878 75.572253 
L 135.578837 75.518493 
L 135.903817 75.090316 
L 136.228796 75.090316 
L 136.553776 74.448051 
L 137.528714 74.01916 
L 137.853694 72.841674 
L 138.178673 72.841674 
L 138.503653 72.574063 
L 139.153612 72.574063 
L 139.478591 72.25293 
L 139.803571 72.25293 
L 140.12855 71.878275 
L 140.45353 71.878275 
L 140.778509 71.503621 
L 141.753448 71.289056 
L 142.078428 70.646791 
L 142.728387 70.646791 
L 143.053366 69.683393 
L 144.028305 69.629633 
L 144.353284 69.201456 
L 144.678264 69.201456 
L 145.003243 67.863402 
L 145.653202 67.863402 
L 145.978182 67.702836 
L 146.303161 67.702836 
L 146.628141 67.435225 
L 146.95312 67.435225 
L 147.2781 67.060571 
L 147.603079 67.060571 
L 147.928059 66.846482 
L 148.253038 66.846482 
L 148.578018 66.364783 
L 149.877936 66.311261 
L 150.202916 66.150695 
L 151.177854 66.04365 
L 152.802752 65.77604 
L 153.127731 65.561951 
L 154.752629 65.508429 
L 155.727568 65.240818 
L 156.377527 65.240818 
L 156.702506 65.080252 
L 157.677445 64.973208 
L 159.302342 64.812641 
L 161.902179 64.705597 
L 162.877117 64.652075 
L 163.527076 64.652075 
L 163.852056 64.384464 
L 164.826994 64.276944 
L 166.126912 64.1699 
L 167.101851 64.1699 
L 167.42683 64.009334 
L 169.051728 63.955812 
L 169.701687 63.848292 
L 171.326585 63.741247 
L 173.276462 63.527159 
L 173.601441 63.527159 
L 173.926421 63.366593 
L 174.90136 63.25931 
L 176.851237 63.045222 
L 179.126093 62.93794 
L 179.451073 62.777373 
L 182.050909 62.670329 
L 182.700868 62.563285 
L 183.675807 62.509763 
L 184.975725 62.402719 
L 186.275643 62.18863 
L 186.600622 61.974542 
L 187.900541 61.867259 
L 189.200459 61.760215 
L 190.825356 61.653171 
L 191.800295 61.599649 
L 193.750172 61.546127 
L 194.075152 61.38556 
L 196.350008 61.278516 
L 196.999967 61.171234 
L 202.19964 61.06419 
L 203.174578 61.010668 
L 210.974087 60.903623 
L 211.949025 60.850101 
L 213.573923 60.850101 
L 213.898903 60.689535 
L 221.698411 60.636013 
L 222.34837 60.528968 
L 230.147879 60.421924 
L 231.122817 60.368402 
L 239.572285 60.261358 
L 240.547224 60.207836 
L 265.570647 60.100792 
L 266.545586 60.047032 
L 291.893989 59.939987 
L 292.868927 59.886465 
L 320.817166 59.779421 
L 321.792105 59.725899 
L 340.965897 59.618855 
L 342.590794 59.45805 
L 344.540672 59.351006 
L 347.140508 59.029635 
L 349.415364 58.922591 
L 350.715283 58.815547 
L 351.690221 58.708503 
L 352.015201 58.547936 
L 355.264996 58.440892 
L 356.239934 58.38737 
L 357.214873 58.280326 
L 358.514791 58.173044 
L 360.139689 58.119521 
L 360.789648 58.012477 
L 363.064505 57.905433 
L 364.364423 57.798389 
L 366.639279 57.691344 
L 369.239115 57.369974 
L 371.838952 57.26293 
L 372.81389 57.209407 
L 373.788829 57.102363 
L 374.113808 56.941321 
L 375.413726 56.887799 
L 376.063686 56.780755 
L 378.988501 56.24482 
L 379.313481 56.084253 
L 381.913317 55.977209 
L 382.888256 55.709599 
L 385.488092 55.602554 
L 385.813071 55.441988 
L 386.78801 55.334944 
L 387.437969 55.227662 
L 388.412907 55.227662 
L 388.737887 55.067095 
L 391.012744 54.960051 
L 391.662703 54.852769 
L 394.587518 54.745725 
L 396.537396 54.314837 
L 398.162293 53.755519 
L 398.487273 53.568 
L 398.487273 53.568 
" style="fill:none;stroke:#000000;stroke-linecap:square;stroke-width:2;"/>
   </g>
   <g id="line2d_24">
    <path clip-path="url(#p9ddaaf999a)" d="M 73.832727 126.144 
L 73.832727 122.960842 
L 73.832727 119.777684 
L 73.832727 116.594526 
L 73.832727 113.411368 
L 73.832727 110.228211 
L 73.832727 107.045053 
L 73.832727 103.861895 
L 73.832727 100.678737 
L 73.832727 97.495579 
L 73.832727 94.312421 
L 73.832727 91.129263 
L 73.832727 87.946105 
L 73.832727 84.762947 
L 73.832727 81.579789 
L 73.832727 78.396632 
L 73.832727 75.213474 
L 73.832727 72.030316 
L 73.832727 68.847158 
L 73.832727 65.664 
" style="fill:none;stroke:#000000;stroke-dasharray:1,1.65;stroke-dashoffset:0;"/>
   </g>
   <g id="line2d_25">
    <path clip-path="url(#p9ddaaf999a)" d="M 73.832727 126.144 
L 78.104498 126.144 
L 82.376268 126.144 
L 86.648038 126.144 
L 90.919809 126.144 
L 95.191579 126.144 
L 99.463349 126.144 
L 103.73512 126.144 
L 108.00689 126.144 
L 112.27866 126.144 
L 116.550431 126.144 
L 120.822201 126.144 
L 125.093971 126.144 
L 129.365742 126.144 
L 133.637512 126.144 
L 137.909282 126.144 
L 142.181053 126.144 
L 146.452823 126.144 
L 150.724593 126.144 
L 154.996364 126.144 
" style="fill:none;stroke:#000000;stroke-dasharray:1,1.65;stroke-dashoffset:0;"/>
   </g>
   <g id="line2d_26">
    <path clip-path="url(#p9ddaaf999a)" d="M 154.996364 126.144 
L 154.996364 122.960842 
L 154.996364 119.777684 
L 154.996364 116.594526 
L 154.996364 113.411368 
L 154.996364 110.228211 
L 154.996364 107.045053 
L 154.996364 103.861895 
L 154.996364 100.678737 
L 154.996364 97.495579 
L 154.996364 94.312421 
L 154.996364 91.129263 
L 154.996364 87.946105 
L 154.996364 84.762947 
L 154.996364 81.579789 
L 154.996364 78.396632 
L 154.996364 75.213474 
L 154.996364 72.030316 
L 154.996364 68.847158 
L 154.996364 65.664 
" style="fill:none;stroke:#000000;stroke-dasharray:1,1.65;stroke-dashoffset:0;"/>
   </g>
   <g id="line2d_27">
    <path clip-path="url(#p9ddaaf999a)" d="M 73.832727 65.664 
L 78.104498 65.664 
L 82.376268 65.664 
L 86.648038 65.664 
L 90.919809 65.664 
L 95.191579 65.664 
L 99.463349 65.664 
L 103.73512 65.664 
L 108.00689 65.664 
L 112.27866 65.664 
L 116.550431 65.664 
L 120.822201 65.664 
L 125.093971 65.664 
L 129.365742 65.664 
L 133.637512 65.664 
L 137.909282 65.664 
L 142.181053 65.664 
L 146.452823 65.664 
L 150.724593 65.664 
L 154.996364 65.664 
" style="fill:none;stroke:#000000;stroke-dasharray:1,1.65;stroke-dashoffset:0;"/>
   </g>
   <g id="line2d_28">
    <path clip-path="url(#p9ddaaf999a)" d="M 236.16 295.488 
L 236.16 289.121684 
L 236.16 282.755368 
L 236.16 276.389053 
L 236.16 270.022737 
L 236.16 263.656421 
L 236.16 257.290105 
L 236.16 250.923789 
L 236.16 244.557474 
L 236.16 238.191158 
L 236.16 231.824842 
L 236.16 225.458526 
L 236.16 219.092211 
L 236.16 212.725895 
L 236.16 206.359579 
L 236.16 199.993263 
L 236.16 193.626947 
L 236.16 187.260632 
L 236.16 180.894316 
L 236.16 174.528 
" style="fill:none;stroke:#000000;stroke-dasharray:1,1.65;stroke-dashoffset:0;"/>
   </g>
   <g id="line2d_29">
    <path clip-path="url(#p9ddaaf999a)" d="M 236.16 295.488 
L 240.43177 295.488 
L 244.703541 295.488 
L 248.975311 295.488 
L 253.247081 295.488 
L 257.518852 295.488 
L 261.790622 295.488 
L 266.062392 295.488 
L 270.334163 295.488 
L 274.605933 295.488 
L 278.877703 295.488 
L 283.149474 295.488 
L 287.421244 295.488 
L 291.693014 295.488 
L 295.964785 295.488 
L 300.236555 295.488 
L 304.508325 295.488 
L 308.780096 295.488 
L 313.051866 295.488 
L 317.323636 295.488 
" style="fill:none;stroke:#000000;stroke-dasharray:1,1.65;stroke-dashoffset:0;"/>
   </g>
   <g id="line2d_30">
    <path clip-path="url(#p9ddaaf999a)" d="M 317.323636 295.488 
L 317.323636 289.121684 
L 317.323636 282.755368 
L 317.323636 276.389053 
L 317.323636 270.022737 
L 317.323636 263.656421 
L 317.323636 257.290105 
L 317.323636 250.923789 
L 317.323636 244.557474 
L 317.323636 238.191158 
L 317.323636 231.824842 
L 317.323636 225.458526 
L 317.323636 219.092211 
L 317.323636 212.725895 
L 317.323636 206.359579 
L 317.323636 199.993263 
L 317.323636 193.626947 
L 317.323636 187.260632 
L 317.323636 180.894316 
L 317.323636 174.528 
" style="fill:none;stroke:#000000;stroke-dasharray:1,1.65;stroke-dashoffset:0;"/>
   </g>
   <g id="line2d_31">
    <path clip-path="url(#p9ddaaf999a)" d="M 236.16 174.528 
L 240.43177 174.528 
L 244.703541 174.528 
L 248.975311 174.528 
L 253.247081 174.528 
L 257.518852 174.528 
L 261.790622 174.528 
L 266.062392 174.528 
L 270.334163 174.528 
L 274.605933 174.528 
L 278.877703 174.528 
L 283.149474 174.528 
L 287.421244 174.528 
L 291.693014 174.528 
L 295.964785 174.528 
L 300.236555 174.528 
L 304.508325 174.528 
L 308.780096 174.528 
L 313.051866 174.528 
L 317.323636 174.528 
" style="fill:none;stroke:#000000;stroke-dasharray:1,1.65;stroke-dashoffset:0;"/>
   </g>
   <g id="line2d_32">
    <path clip-path="url(#p9ddaaf999a)" d="M 154.996364 126.144 
L 159.268134 128.690526 
L 163.539904 131.237053 
L 167.811675 133.783579 
L 172.083445 136.330105 
L 176.355215 138.876632 
L 180.626986 141.423158 
L 184.898756 143.969684 
L 189.170526 146.516211 
L 193.442297 149.062737 
L 197.714067 151.609263 
L 201.985837 154.155789 
L 206.257608 156.702316 
L 210.529378 159.248842 
L 214.801148 161.795368 
L 219.072919 164.341895 
L 223.344689 166.888421 
L 227.616459 169.434947 
L 231.88823 171.981474 
L 236.16 174.528 
" style="fill:none;stroke:#000000;stroke-dasharray:1,1.65;stroke-dashoffset:0;"/>
   </g>
   <g id="line2d_33">
    <path clip-path="url(#p9ddaaf999a)" d="M 315.455004 294.089548 
L 316.104963 291.654674 
L 316.754922 289.219799 
L 317.404881 286.784925 
L 318.05484 284.243007 
L 318.704799 281.808132 
L 319.354758 279.373258 
L 320.004717 276.831339 
L 320.654676 274.396465 
L 321.304636 271.968027 
L 321.954595 269.854941 
L 322.604554 267.313678 
L 323.254513 265.200592 
L 323.904472 263.087506 
L 324.554431 260.97442 
L 325.20439 258.861334 
L 325.854349 256.748248 
L 326.504308 254.635162 
L 327.154267 252.415032 
L 327.804226 250.301946 
L 328.454185 247.760683 
L 329.104144 245.647597 
L 329.754103 243.376564 
L 330.404062 241.745567 
L 331.054021 239.591778 
L 331.70398 237.950126 
L 332.353939 236.415994 
L 333.003898 234.774342 
L 333.653857 233.24021 
L 334.303817 229.331348 
L 334.953776 228.076415 
L 335.603735 226.607393 
L 336.253694 225.35246 
L 336.903653 223.702979 
L 337.553612 222.349936 
L 338.203571 220.813837 
L 338.85353 220.064316 
L 339.503489 219.314795 
L 340.153448 217.923008 
L 340.803407 217.173487 
L 341.453366 215.690569 
L 342.103325 214.965264 
L 342.753284 214.132915 
L 343.403243 213.30009 
L 344.053202 211.874394 
L 344.703161 211.355734 
L 345.35312 210.301853 
L 346.003079 209.783194 
L 346.653038 209.264534 
L 347.302998 208.143148 
L 347.952957 207.672921 
L 348.602916 206.31698 
L 349.252875 205.79832 
L 349.902834 204.121354 
L 350.552793 203.221047 
L 351.202752 201.894465 
L 351.852711 200.740372 
L 352.50267 200.17328 
L 353.152629 198.55223 
L 353.802588 198.082002 
L 354.452547 197.363092 
L 355.102506 197.127349 
L 355.752465 196.232864 
L 356.402424 195.730135 
L 357.052383 195.122265 
L 357.702342 195.049617 
L 358.352301 194.344507 
L 359.00226 194.236987 
L 359.652219 194.236987 
L 360.302179 193.380633 
L 360.952138 193.380633 
L 361.602097 192.096102 
L 362.252056 191.773542 
L 362.902015 191.238321 
L 363.551974 191.238321 
L 364.201933 188.883347 
L 364.851892 188.883347 
L 365.501851 188.348126 
L 366.15181 188.348126 
L 366.801769 188.348126 
L 367.451728 187.705861 
L 368.101687 187.705861 
L 368.751646 186.956551 
L 369.401605 186.956551 
L 370.051564 186.207241 
L 370.701523 185.992201 
L 371.351482 185.778113 
L 372.001441 185.778113 
L 372.6514 184.493582 
L 373.30136 184.493582 
L 373.951319 184.493582 
L 374.601278 182.566785 
L 375.251237 182.459265 
L 375.901196 182.459265 
L 376.551155 182.459265 
L 377.201114 181.602911 
L 377.851073 181.602911 
L 378.501032 178.926805 
L 379.150991 178.926805 
L 379.80095 178.926805 
L 380.450909 178.605672 
L 381.100868 178.605672 
L 381.750827 178.070451 
L 382.400786 178.070451 
L 383.050745 177.321141 
L 383.700704 177.321141 
L 384.350663 176.892964 
L 385.000622 176.892964 
L 385.650581 175.929566 
L 386.300541 175.929566 
L 386.9505 175.929566 
L 387.600459 175.822522 
L 388.250418 175.822522 
L 388.900377 175.501389 
L 389.550336 175.501389 
L 390.200295 175.287301 
L 390.850254 175.287301 
L 391.500213 175.180256 
L 392.150172 175.180256 
L 392.800131 174.752079 
L 393.45009 174.752079 
L 394.100049 174.752079 
" style="fill:none;stroke:#000000;stroke-linecap:square;stroke-width:2;"/>
   </g>
   <g id="patch_3">
    <path d="M 57.6 307.584 
L 57.6 41.472 
" style="fill:none;stroke:#000000;stroke-linecap:square;stroke-linejoin:miter;stroke-width:0.8;"/>
   </g>
   <g id="patch_4">
    <path d="M 414.72 307.584 
L 414.72 41.472 
" style="fill:none;stroke:#000000;stroke-linecap:square;stroke-linejoin:miter;stroke-width:0.8;"/>
   </g>
   <g id="patch_5">
    <path d="M 57.6 307.584 
L 414.72 307.584 
" style="fill:none;stroke:#000000;stroke-linecap:square;stroke-linejoin:miter;stroke-width:0.8;"/>
   </g>
   <g id="patch_6">
    <path d="M 57.6 41.472 
L 414.72 41.472 
" style="fill:none;stroke:#000000;stroke-linecap:square;stroke-linejoin:miter;stroke-width:0.8;"/>
   </g>
   <g id="legend_1">
    <g id="patch_7">
     <path d="M 165.081875 256.757687 
L 307.238125 256.757687 
Q 309.238125 256.757687 309.238125 254.757687 
L 309.238125 94.298313 
Q 309.238125 92.298313 307.238125 92.298313 
L 165.081875 92.298313 
Q 163.081875 92.298313 163.081875 94.298313 
L 163.081875 254.757687 
Q 163.081875 256.757687 165.081875 256.757687 
z
" style="fill:#ffffff;opacity:0.8;stroke:#cccccc;stroke-linejoin:miter;"/>
    </g>
    <g id="line2d_34">
     <path d="M 167.081875 100.39675 
L 187.081875 100.39675 
" style="fill:none;stroke:#ff0000;stroke-linecap:square;stroke-opacity:0.8;stroke-width:1.5;"/>
    </g>
    <g id="line2d_35"/>
    <g id="text_15">
     <!-- fold 0 (AUC = 0.9100) -->
     <defs>
      <path d="M 37.109375 75.984375 
L 37.109375 68.5 
L 28.515625 68.5 
Q 23.6875 68.5 21.796875 66.546875 
Q 19.921875 64.59375 19.921875 59.515625 
L 19.921875 54.6875 
L 34.71875 54.6875 
L 34.71875 47.703125 
L 19.921875 47.703125 
L 19.921875 0 
L 10.890625 0 
L 10.890625 47.703125 
L 2.296875 47.703125 
L 2.296875 54.6875 
L 10.890625 54.6875 
L 10.890625 58.5 
Q 10.890625 67.625 15.140625 71.796875 
Q 19.390625 75.984375 28.609375 75.984375 
z
" id="DejaVuSans-102"/>
      <path d="M 45.40625 46.390625 
L 45.40625 75.984375 
L 54.390625 75.984375 
L 54.390625 0 
L 45.40625 0 
L 45.40625 8.203125 
Q 42.578125 3.328125 38.25 0.953125 
Q 33.9375 -1.421875 27.875 -1.421875 
Q 17.96875 -1.421875 11.734375 6.484375 
Q 5.515625 14.40625 5.515625 27.296875 
Q 5.515625 40.1875 11.734375 48.09375 
Q 17.96875 56 27.875 56 
Q 33.9375 56 38.25 53.625 
Q 42.578125 51.265625 45.40625 46.390625 
z
M 14.796875 27.296875 
Q 14.796875 17.390625 18.875 11.75 
Q 22.953125 6.109375 30.078125 6.109375 
Q 37.203125 6.109375 41.296875 11.75 
Q 45.40625 17.390625 45.40625 27.296875 
Q 45.40625 37.203125 41.296875 42.84375 
Q 37.203125 48.484375 30.078125 48.484375 
Q 22.953125 48.484375 18.875 42.84375 
Q 14.796875 37.203125 14.796875 27.296875 
z
" id="DejaVuSans-100"/>
      <path d="M 31 75.875 
Q 24.46875 64.65625 21.28125 53.65625 
Q 18.109375 42.671875 18.109375 31.390625 
Q 18.109375 20.125 21.3125 9.0625 
Q 24.515625 -2 31 -13.1875 
L 23.1875 -13.1875 
Q 15.875 -1.703125 12.234375 9.375 
Q 8.59375 20.453125 8.59375 31.390625 
Q 8.59375 42.28125 12.203125 53.3125 
Q 15.828125 64.359375 23.1875 75.875 
z
" id="DejaVuSans-40"/>
      <path d="M 34.1875 63.1875 
L 20.796875 26.90625 
L 47.609375 26.90625 
z
M 28.609375 72.90625 
L 39.796875 72.90625 
L 67.578125 0 
L 57.328125 0 
L 50.6875 18.703125 
L 17.828125 18.703125 
L 11.1875 0 
L 0.78125 0 
z
" id="DejaVuSans-65"/>
      <path d="M 8.6875 72.90625 
L 18.609375 72.90625 
L 18.609375 28.609375 
Q 18.609375 16.890625 22.84375 11.734375 
Q 27.09375 6.59375 36.625 6.59375 
Q 46.09375 6.59375 50.34375 11.734375 
Q 54.59375 16.890625 54.59375 28.609375 
L 54.59375 72.90625 
L 64.5 72.90625 
L 64.5 27.390625 
Q 64.5 13.140625 57.4375 5.859375 
Q 50.390625 -1.421875 36.625 -1.421875 
Q 22.796875 -1.421875 15.734375 5.859375 
Q 8.6875 13.140625 8.6875 27.390625 
z
" id="DejaVuSans-85"/>
      <path d="M 64.40625 67.28125 
L 64.40625 56.890625 
Q 59.421875 61.53125 53.78125 63.8125 
Q 48.140625 66.109375 41.796875 66.109375 
Q 29.296875 66.109375 22.65625 58.46875 
Q 16.015625 50.828125 16.015625 36.375 
Q 16.015625 21.96875 22.65625 14.328125 
Q 29.296875 6.6875 41.796875 6.6875 
Q 48.140625 6.6875 53.78125 8.984375 
Q 59.421875 11.28125 64.40625 15.921875 
L 64.40625 5.609375 
Q 59.234375 2.09375 53.4375 0.328125 
Q 47.65625 -1.421875 41.21875 -1.421875 
Q 24.65625 -1.421875 15.125 8.703125 
Q 5.609375 18.84375 5.609375 36.375 
Q 5.609375 53.953125 15.125 64.078125 
Q 24.65625 74.21875 41.21875 74.21875 
Q 47.75 74.21875 53.53125 72.484375 
Q 59.328125 70.75 64.40625 67.28125 
z
" id="DejaVuSans-67"/>
      <path d="M 10.59375 45.40625 
L 73.1875 45.40625 
L 73.1875 37.203125 
L 10.59375 37.203125 
z
M 10.59375 25.484375 
L 73.1875 25.484375 
L 73.1875 17.1875 
L 10.59375 17.1875 
z
" id="DejaVuSans-61"/>
      <path d="M 10.984375 1.515625 
L 10.984375 10.5 
Q 14.703125 8.734375 18.5 7.8125 
Q 22.3125 6.890625 25.984375 6.890625 
Q 35.75 6.890625 40.890625 13.453125 
Q 46.046875 20.015625 46.78125 33.40625 
Q 43.953125 29.203125 39.59375 26.953125 
Q 35.25 24.703125 29.984375 24.703125 
Q 19.046875 24.703125 12.671875 31.3125 
Q 6.296875 37.9375 6.296875 49.421875 
Q 6.296875 60.640625 12.9375 67.421875 
Q 19.578125 74.21875 30.609375 74.21875 
Q 43.265625 74.21875 49.921875 64.515625 
Q 56.59375 54.828125 56.59375 36.375 
Q 56.59375 19.140625 48.40625 8.859375 
Q 40.234375 -1.421875 26.421875 -1.421875 
Q 22.703125 -1.421875 18.890625 -0.6875 
Q 15.09375 0.046875 10.984375 1.515625 
z
M 30.609375 32.421875 
Q 37.25 32.421875 41.125 36.953125 
Q 45.015625 41.5 45.015625 49.421875 
Q 45.015625 57.28125 41.125 61.84375 
Q 37.25 66.40625 30.609375 66.40625 
Q 23.96875 66.40625 20.09375 61.84375 
Q 16.21875 57.28125 16.21875 49.421875 
Q 16.21875 41.5 20.09375 36.953125 
Q 23.96875 32.421875 30.609375 32.421875 
z
" id="DejaVuSans-57"/>
      <path d="M 8.015625 75.875 
L 15.828125 75.875 
Q 23.140625 64.359375 26.78125 53.3125 
Q 30.421875 42.28125 30.421875 31.390625 
Q 30.421875 20.453125 26.78125 9.375 
Q 23.140625 -1.703125 15.828125 -13.1875 
L 8.015625 -13.1875 
Q 14.5 -2 17.703125 9.0625 
Q 20.90625 20.125 20.90625 31.390625 
Q 20.90625 42.671875 17.703125 53.65625 
Q 14.5 64.65625 8.015625 75.875 
z
" id="DejaVuSans-41"/>
     </defs>
     <g transform="translate(195.081875 103.89675)scale(0.1 -0.1)">
      <use xlink:href="#DejaVuSans-102"/>
      <use x="35.205078" xlink:href="#DejaVuSans-111"/>
      <use x="96.386719" xlink:href="#DejaVuSans-108"/>
      <use x="124.169922" xlink:href="#DejaVuSans-100"/>
      <use x="187.646484" xlink:href="#DejaVuSans-32"/>
      <use x="219.433594" xlink:href="#DejaVuSans-48"/>
      <use x="283.056641" xlink:href="#DejaVuSans-32"/>
      <use x="314.84375" xlink:href="#DejaVuSans-40"/>
      <use x="353.857422" xlink:href="#DejaVuSans-65"/>
      <use x="422.265625" xlink:href="#DejaVuSans-85"/>
      <use x="495.458984" xlink:href="#DejaVuSans-67"/>
      <use x="565.283203" xlink:href="#DejaVuSans-32"/>
      <use x="597.070312" xlink:href="#DejaVuSans-61"/>
      <use x="680.859375" xlink:href="#DejaVuSans-32"/>
      <use x="712.646484" xlink:href="#DejaVuSans-48"/>
      <use x="776.269531" xlink:href="#DejaVuSans-46"/>
      <use x="808.056641" xlink:href="#DejaVuSans-57"/>
      <use x="871.679688" xlink:href="#DejaVuSans-49"/>
      <use x="935.302734" xlink:href="#DejaVuSans-48"/>
      <use x="998.925781" xlink:href="#DejaVuSans-48"/>
      <use x="1062.548828" xlink:href="#DejaVuSans-41"/>
     </g>
    </g>
    <g id="line2d_36">
     <path d="M 167.081875 115.074875 
L 187.081875 115.074875 
" style="fill:none;stroke:#ff0000;stroke-linecap:square;stroke-opacity:0.8;stroke-width:1.5;"/>
    </g>
    <g id="line2d_37"/>
    <g id="text_16">
     <!-- fold 1 (AUC = 0.8769) -->
     <defs>
      <path d="M 8.203125 72.90625 
L 55.078125 72.90625 
L 55.078125 68.703125 
L 28.609375 0 
L 18.3125 0 
L 43.21875 64.59375 
L 8.203125 64.59375 
z
" id="DejaVuSans-55"/>
     </defs>
     <g transform="translate(195.081875 118.574875)scale(0.1 -0.1)">
      <use xlink:href="#DejaVuSans-102"/>
      <use x="35.205078" xlink:href="#DejaVuSans-111"/>
      <use x="96.386719" xlink:href="#DejaVuSans-108"/>
      <use x="124.169922" xlink:href="#DejaVuSans-100"/>
      <use x="187.646484" xlink:href="#DejaVuSans-32"/>
      <use x="219.433594" xlink:href="#DejaVuSans-49"/>
      <use x="283.056641" xlink:href="#DejaVuSans-32"/>
      <use x="314.84375" xlink:href="#DejaVuSans-40"/>
      <use x="353.857422" xlink:href="#DejaVuSans-65"/>
      <use x="422.265625" xlink:href="#DejaVuSans-85"/>
      <use x="495.458984" xlink:href="#DejaVuSans-67"/>
      <use x="565.283203" xlink:href="#DejaVuSans-32"/>
      <use x="597.070312" xlink:href="#DejaVuSans-61"/>
      <use x="680.859375" xlink:href="#DejaVuSans-32"/>
      <use x="712.646484" xlink:href="#DejaVuSans-48"/>
      <use x="776.269531" xlink:href="#DejaVuSans-46"/>
      <use x="808.056641" xlink:href="#DejaVuSans-56"/>
      <use x="871.679688" xlink:href="#DejaVuSans-55"/>
      <use x="935.302734" xlink:href="#DejaVuSans-54"/>
      <use x="998.925781" xlink:href="#DejaVuSans-57"/>
      <use x="1062.548828" xlink:href="#DejaVuSans-41"/>
     </g>
    </g>
    <g id="line2d_38">
     <path d="M 167.081875 129.753 
L 187.081875 129.753 
" style="fill:none;stroke:#ff0000;stroke-linecap:square;stroke-opacity:0.8;stroke-width:1.5;"/>
    </g>
    <g id="line2d_39"/>
    <g id="text_17">
     <!-- fold 2 (AUC = 0.8845) -->
     <defs>
      <path d="M 10.796875 72.90625 
L 49.515625 72.90625 
L 49.515625 64.59375 
L 19.828125 64.59375 
L 19.828125 46.734375 
Q 21.96875 47.46875 24.109375 47.828125 
Q 26.265625 48.1875 28.421875 48.1875 
Q 40.625 48.1875 47.75 41.5 
Q 54.890625 34.8125 54.890625 23.390625 
Q 54.890625 11.625 47.5625 5.09375 
Q 40.234375 -1.421875 26.90625 -1.421875 
Q 22.3125 -1.421875 17.546875 -0.640625 
Q 12.796875 0.140625 7.71875 1.703125 
L 7.71875 11.625 
Q 12.109375 9.234375 16.796875 8.0625 
Q 21.484375 6.890625 26.703125 6.890625 
Q 35.15625 6.890625 40.078125 11.328125 
Q 45.015625 15.765625 45.015625 23.390625 
Q 45.015625 31 40.078125 35.4375 
Q 35.15625 39.890625 26.703125 39.890625 
Q 22.75 39.890625 18.8125 39.015625 
Q 14.890625 38.140625 10.796875 36.28125 
z
" id="DejaVuSans-53"/>
     </defs>
     <g transform="translate(195.081875 133.253)scale(0.1 -0.1)">
      <use xlink:href="#DejaVuSans-102"/>
      <use x="35.205078" xlink:href="#DejaVuSans-111"/>
      <use x="96.386719" xlink:href="#DejaVuSans-108"/>
      <use x="124.169922" xlink:href="#DejaVuSans-100"/>
      <use x="187.646484" xlink:href="#DejaVuSans-32"/>
      <use x="219.433594" xlink:href="#DejaVuSans-50"/>
      <use x="283.056641" xlink:href="#DejaVuSans-32"/>
      <use x="314.84375" xlink:href="#DejaVuSans-40"/>
      <use x="353.857422" xlink:href="#DejaVuSans-65"/>
      <use x="422.265625" xlink:href="#DejaVuSans-85"/>
      <use x="495.458984" xlink:href="#DejaVuSans-67"/>
      <use x="565.283203" xlink:href="#DejaVuSans-32"/>
      <use x="597.070312" xlink:href="#DejaVuSans-61"/>
      <use x="680.859375" xlink:href="#DejaVuSans-32"/>
      <use x="712.646484" xlink:href="#DejaVuSans-48"/>
      <use x="776.269531" xlink:href="#DejaVuSans-46"/>
      <use x="808.056641" xlink:href="#DejaVuSans-56"/>
      <use x="871.679688" xlink:href="#DejaVuSans-56"/>
      <use x="935.302734" xlink:href="#DejaVuSans-52"/>
      <use x="998.925781" xlink:href="#DejaVuSans-53"/>
      <use x="1062.548828" xlink:href="#DejaVuSans-41"/>
     </g>
    </g>
    <g id="line2d_40">
     <path d="M 167.081875 144.431125 
L 187.081875 144.431125 
" style="fill:none;stroke:#ff0000;stroke-linecap:square;stroke-opacity:0.8;stroke-width:1.5;"/>
    </g>
    <g id="line2d_41"/>
    <g id="text_18">
     <!-- fold 3 (AUC = 0.8827) -->
     <defs>
      <path d="M 40.578125 39.3125 
Q 47.65625 37.796875 51.625 33 
Q 55.609375 28.21875 55.609375 21.1875 
Q 55.609375 10.40625 48.1875 4.484375 
Q 40.765625 -1.421875 27.09375 -1.421875 
Q 22.515625 -1.421875 17.65625 -0.515625 
Q 12.796875 0.390625 7.625 2.203125 
L 7.625 11.71875 
Q 11.71875 9.328125 16.59375 8.109375 
Q 21.484375 6.890625 26.8125 6.890625 
Q 36.078125 6.890625 40.9375 10.546875 
Q 45.796875 14.203125 45.796875 21.1875 
Q 45.796875 27.640625 41.28125 31.265625 
Q 36.765625 34.90625 28.71875 34.90625 
L 20.21875 34.90625 
L 20.21875 43.015625 
L 29.109375 43.015625 
Q 36.375 43.015625 40.234375 45.921875 
Q 44.09375 48.828125 44.09375 54.296875 
Q 44.09375 59.90625 40.109375 62.90625 
Q 36.140625 65.921875 28.71875 65.921875 
Q 24.65625 65.921875 20.015625 65.03125 
Q 15.375 64.15625 9.8125 62.3125 
L 9.8125 71.09375 
Q 15.4375 72.65625 20.34375 73.4375 
Q 25.25 74.21875 29.59375 74.21875 
Q 40.828125 74.21875 47.359375 69.109375 
Q 53.90625 64.015625 53.90625 55.328125 
Q 53.90625 49.265625 50.4375 45.09375 
Q 46.96875 40.921875 40.578125 39.3125 
z
" id="DejaVuSans-51"/>
     </defs>
     <g transform="translate(195.081875 147.931125)scale(0.1 -0.1)">
      <use xlink:href="#DejaVuSans-102"/>
      <use x="35.205078" xlink:href="#DejaVuSans-111"/>
      <use x="96.386719" xlink:href="#DejaVuSans-108"/>
      <use x="124.169922" xlink:href="#DejaVuSans-100"/>
      <use x="187.646484" xlink:href="#DejaVuSans-32"/>
      <use x="219.433594" xlink:href="#DejaVuSans-51"/>
      <use x="283.056641" xlink:href="#DejaVuSans-32"/>
      <use x="314.84375" xlink:href="#DejaVuSans-40"/>
      <use x="353.857422" xlink:href="#DejaVuSans-65"/>
      <use x="422.265625" xlink:href="#DejaVuSans-85"/>
      <use x="495.458984" xlink:href="#DejaVuSans-67"/>
      <use x="565.283203" xlink:href="#DejaVuSans-32"/>
      <use x="597.070312" xlink:href="#DejaVuSans-61"/>
      <use x="680.859375" xlink:href="#DejaVuSans-32"/>
      <use x="712.646484" xlink:href="#DejaVuSans-48"/>
      <use x="776.269531" xlink:href="#DejaVuSans-46"/>
      <use x="808.056641" xlink:href="#DejaVuSans-56"/>
      <use x="871.679688" xlink:href="#DejaVuSans-56"/>
      <use x="935.302734" xlink:href="#DejaVuSans-50"/>
      <use x="998.925781" xlink:href="#DejaVuSans-55"/>
      <use x="1062.548828" xlink:href="#DejaVuSans-41"/>
     </g>
    </g>
    <g id="line2d_42">
     <path d="M 167.081875 159.10925 
L 187.081875 159.10925 
" style="fill:none;stroke:#ff0000;stroke-linecap:square;stroke-opacity:0.8;stroke-width:1.5;"/>
    </g>
    <g id="line2d_43"/>
    <g id="text_19">
     <!-- fold 4 (AUC = 0.8801) -->
     <g transform="translate(195.081875 162.60925)scale(0.1 -0.1)">
      <use xlink:href="#DejaVuSans-102"/>
      <use x="35.205078" xlink:href="#DejaVuSans-111"/>
      <use x="96.386719" xlink:href="#DejaVuSans-108"/>
      <use x="124.169922" xlink:href="#DejaVuSans-100"/>
      <use x="187.646484" xlink:href="#DejaVuSans-32"/>
      <use x="219.433594" xlink:href="#DejaVuSans-52"/>
      <use x="283.056641" xlink:href="#DejaVuSans-32"/>
      <use x="314.84375" xlink:href="#DejaVuSans-40"/>
      <use x="353.857422" xlink:href="#DejaVuSans-65"/>
      <use x="422.265625" xlink:href="#DejaVuSans-85"/>
      <use x="495.458984" xlink:href="#DejaVuSans-67"/>
      <use x="565.283203" xlink:href="#DejaVuSans-32"/>
      <use x="597.070312" xlink:href="#DejaVuSans-61"/>
      <use x="680.859375" xlink:href="#DejaVuSans-32"/>
      <use x="712.646484" xlink:href="#DejaVuSans-48"/>
      <use x="776.269531" xlink:href="#DejaVuSans-46"/>
      <use x="808.056641" xlink:href="#DejaVuSans-56"/>
      <use x="871.679688" xlink:href="#DejaVuSans-56"/>
      <use x="935.302734" xlink:href="#DejaVuSans-48"/>
      <use x="998.925781" xlink:href="#DejaVuSans-49"/>
      <use x="1062.548828" xlink:href="#DejaVuSans-41"/>
     </g>
    </g>
    <g id="line2d_44">
     <path d="M 167.081875 173.787375 
L 187.081875 173.787375 
" style="fill:none;stroke:#ff0000;stroke-linecap:square;stroke-opacity:0.8;stroke-width:1.5;"/>
    </g>
    <g id="line2d_45"/>
    <g id="text_20">
     <!-- fold 5 (AUC = 0.8889) -->
     <g transform="translate(195.081875 177.287375)scale(0.1 -0.1)">
      <use xlink:href="#DejaVuSans-102"/>
      <use x="35.205078" xlink:href="#DejaVuSans-111"/>
      <use x="96.386719" xlink:href="#DejaVuSans-108"/>
      <use x="124.169922" xlink:href="#DejaVuSans-100"/>
      <use x="187.646484" xlink:href="#DejaVuSans-32"/>
      <use x="219.433594" xlink:href="#DejaVuSans-53"/>
      <use x="283.056641" xlink:href="#DejaVuSans-32"/>
      <use x="314.84375" xlink:href="#DejaVuSans-40"/>
      <use x="353.857422" xlink:href="#DejaVuSans-65"/>
      <use x="422.265625" xlink:href="#DejaVuSans-85"/>
      <use x="495.458984" xlink:href="#DejaVuSans-67"/>
      <use x="565.283203" xlink:href="#DejaVuSans-32"/>
      <use x="597.070312" xlink:href="#DejaVuSans-61"/>
      <use x="680.859375" xlink:href="#DejaVuSans-32"/>
      <use x="712.646484" xlink:href="#DejaVuSans-48"/>
      <use x="776.269531" xlink:href="#DejaVuSans-46"/>
      <use x="808.056641" xlink:href="#DejaVuSans-56"/>
      <use x="871.679688" xlink:href="#DejaVuSans-56"/>
      <use x="935.302734" xlink:href="#DejaVuSans-56"/>
      <use x="998.925781" xlink:href="#DejaVuSans-57"/>
      <use x="1062.548828" xlink:href="#DejaVuSans-41"/>
     </g>
    </g>
    <g id="line2d_46">
     <path d="M 167.081875 188.4655 
L 187.081875 188.4655 
" style="fill:none;stroke:#ff0000;stroke-linecap:square;stroke-opacity:0.8;stroke-width:1.5;"/>
    </g>
    <g id="line2d_47"/>
    <g id="text_21">
     <!-- fold 6 (AUC = 0.8812) -->
     <g transform="translate(195.081875 191.9655)scale(0.1 -0.1)">
      <use xlink:href="#DejaVuSans-102"/>
      <use x="35.205078" xlink:href="#DejaVuSans-111"/>
      <use x="96.386719" xlink:href="#DejaVuSans-108"/>
      <use x="124.169922" xlink:href="#DejaVuSans-100"/>
      <use x="187.646484" xlink:href="#DejaVuSans-32"/>
      <use x="219.433594" xlink:href="#DejaVuSans-54"/>
      <use x="283.056641" xlink:href="#DejaVuSans-32"/>
      <use x="314.84375" xlink:href="#DejaVuSans-40"/>
      <use x="353.857422" xlink:href="#DejaVuSans-65"/>
      <use x="422.265625" xlink:href="#DejaVuSans-85"/>
      <use x="495.458984" xlink:href="#DejaVuSans-67"/>
      <use x="565.283203" xlink:href="#DejaVuSans-32"/>
      <use x="597.070312" xlink:href="#DejaVuSans-61"/>
      <use x="680.859375" xlink:href="#DejaVuSans-32"/>
      <use x="712.646484" xlink:href="#DejaVuSans-48"/>
      <use x="776.269531" xlink:href="#DejaVuSans-46"/>
      <use x="808.056641" xlink:href="#DejaVuSans-56"/>
      <use x="871.679688" xlink:href="#DejaVuSans-56"/>
      <use x="935.302734" xlink:href="#DejaVuSans-49"/>
      <use x="998.925781" xlink:href="#DejaVuSans-50"/>
      <use x="1062.548828" xlink:href="#DejaVuSans-41"/>
     </g>
    </g>
    <g id="line2d_48">
     <path d="M 167.081875 203.143625 
L 187.081875 203.143625 
" style="fill:none;stroke:#ff0000;stroke-linecap:square;stroke-opacity:0.8;stroke-width:1.5;"/>
    </g>
    <g id="line2d_49"/>
    <g id="text_22">
     <!-- fold 7 (AUC = 0.8795) -->
     <g transform="translate(195.081875 206.643625)scale(0.1 -0.1)">
      <use xlink:href="#DejaVuSans-102"/>
      <use x="35.205078" xlink:href="#DejaVuSans-111"/>
      <use x="96.386719" xlink:href="#DejaVuSans-108"/>
      <use x="124.169922" xlink:href="#DejaVuSans-100"/>
      <use x="187.646484" xlink:href="#DejaVuSans-32"/>
      <use x="219.433594" xlink:href="#DejaVuSans-55"/>
      <use x="283.056641" xlink:href="#DejaVuSans-32"/>
      <use x="314.84375" xlink:href="#DejaVuSans-40"/>
      <use x="353.857422" xlink:href="#DejaVuSans-65"/>
      <use x="422.265625" xlink:href="#DejaVuSans-85"/>
      <use x="495.458984" xlink:href="#DejaVuSans-67"/>
      <use x="565.283203" xlink:href="#DejaVuSans-32"/>
      <use x="597.070312" xlink:href="#DejaVuSans-61"/>
      <use x="680.859375" xlink:href="#DejaVuSans-32"/>
      <use x="712.646484" xlink:href="#DejaVuSans-48"/>
      <use x="776.269531" xlink:href="#DejaVuSans-46"/>
      <use x="808.056641" xlink:href="#DejaVuSans-56"/>
      <use x="871.679688" xlink:href="#DejaVuSans-55"/>
      <use x="935.302734" xlink:href="#DejaVuSans-57"/>
      <use x="998.925781" xlink:href="#DejaVuSans-53"/>
      <use x="1062.548828" xlink:href="#DejaVuSans-41"/>
     </g>
    </g>
    <g id="line2d_50">
     <path d="M 167.081875 217.82175 
L 187.081875 217.82175 
" style="fill:none;stroke:#ff0000;stroke-linecap:square;stroke-opacity:0.8;stroke-width:1.5;"/>
    </g>
    <g id="line2d_51"/>
    <g id="text_23">
     <!-- fold 8 (AUC = 0.8820) -->
     <g transform="translate(195.081875 221.32175)scale(0.1 -0.1)">
      <use xlink:href="#DejaVuSans-102"/>
      <use x="35.205078" xlink:href="#DejaVuSans-111"/>
      <use x="96.386719" xlink:href="#DejaVuSans-108"/>
      <use x="124.169922" xlink:href="#DejaVuSans-100"/>
      <use x="187.646484" xlink:href="#DejaVuSans-32"/>
      <use x="219.433594" xlink:href="#DejaVuSans-56"/>
      <use x="283.056641" xlink:href="#DejaVuSans-32"/>
      <use x="314.84375" xlink:href="#DejaVuSans-40"/>
      <use x="353.857422" xlink:href="#DejaVuSans-65"/>
      <use x="422.265625" xlink:href="#DejaVuSans-85"/>
      <use x="495.458984" xlink:href="#DejaVuSans-67"/>
      <use x="565.283203" xlink:href="#DejaVuSans-32"/>
      <use x="597.070312" xlink:href="#DejaVuSans-61"/>
      <use x="680.859375" xlink:href="#DejaVuSans-32"/>
      <use x="712.646484" xlink:href="#DejaVuSans-48"/>
      <use x="776.269531" xlink:href="#DejaVuSans-46"/>
      <use x="808.056641" xlink:href="#DejaVuSans-56"/>
      <use x="871.679688" xlink:href="#DejaVuSans-56"/>
      <use x="935.302734" xlink:href="#DejaVuSans-50"/>
      <use x="998.925781" xlink:href="#DejaVuSans-48"/>
      <use x="1062.548828" xlink:href="#DejaVuSans-41"/>
     </g>
    </g>
    <g id="line2d_52">
     <path d="M 167.081875 232.499875 
L 187.081875 232.499875 
" style="fill:none;stroke:#ff0000;stroke-linecap:square;stroke-opacity:0.8;stroke-width:1.5;"/>
    </g>
    <g id="line2d_53"/>
    <g id="text_24">
     <!-- fold 9 (AUC = 0.8972) -->
     <g transform="translate(195.081875 235.999875)scale(0.1 -0.1)">
      <use xlink:href="#DejaVuSans-102"/>
      <use x="35.205078" xlink:href="#DejaVuSans-111"/>
      <use x="96.386719" xlink:href="#DejaVuSans-108"/>
      <use x="124.169922" xlink:href="#DejaVuSans-100"/>
      <use x="187.646484" xlink:href="#DejaVuSans-32"/>
      <use x="219.433594" xlink:href="#DejaVuSans-57"/>
      <use x="283.056641" xlink:href="#DejaVuSans-32"/>
      <use x="314.84375" xlink:href="#DejaVuSans-40"/>
      <use x="353.857422" xlink:href="#DejaVuSans-65"/>
      <use x="422.265625" xlink:href="#DejaVuSans-85"/>
      <use x="495.458984" xlink:href="#DejaVuSans-67"/>
      <use x="565.283203" xlink:href="#DejaVuSans-32"/>
      <use x="597.070312" xlink:href="#DejaVuSans-61"/>
      <use x="680.859375" xlink:href="#DejaVuSans-32"/>
      <use x="712.646484" xlink:href="#DejaVuSans-48"/>
      <use x="776.269531" xlink:href="#DejaVuSans-46"/>
      <use x="808.056641" xlink:href="#DejaVuSans-56"/>
      <use x="871.679688" xlink:href="#DejaVuSans-57"/>
      <use x="935.302734" xlink:href="#DejaVuSans-55"/>
      <use x="998.925781" xlink:href="#DejaVuSans-50"/>
      <use x="1062.548828" xlink:href="#DejaVuSans-41"/>
     </g>
    </g>
    <g id="line2d_54">
     <path d="M 167.081875 247.178 
L 187.081875 247.178 
" style="fill:none;stroke:#000000;stroke-linecap:square;stroke-width:2;"/>
    </g>
    <g id="line2d_55"/>
    <g id="text_25">
     <!-- Mean (AUC = 0.8863) -->
     <defs>
      <path d="M 9.8125 72.90625 
L 24.515625 72.90625 
L 43.109375 23.296875 
L 61.8125 72.90625 
L 76.515625 72.90625 
L 76.515625 0 
L 66.890625 0 
L 66.890625 64.015625 
L 48.09375 14.015625 
L 38.1875 14.015625 
L 19.390625 64.015625 
L 19.390625 0 
L 9.8125 0 
z
" id="DejaVuSans-77"/>
      <path d="M 54.890625 33.015625 
L 54.890625 0 
L 45.90625 0 
L 45.90625 32.71875 
Q 45.90625 40.484375 42.875 44.328125 
Q 39.84375 48.1875 33.796875 48.1875 
Q 26.515625 48.1875 22.3125 43.546875 
Q 18.109375 38.921875 18.109375 30.90625 
L 18.109375 0 
L 9.078125 0 
L 9.078125 54.6875 
L 18.109375 54.6875 
L 18.109375 46.1875 
Q 21.34375 51.125 25.703125 53.5625 
Q 30.078125 56 35.796875 56 
Q 45.21875 56 50.046875 50.171875 
Q 54.890625 44.34375 54.890625 33.015625 
z
" id="DejaVuSans-110"/>
     </defs>
     <g transform="translate(195.081875 250.678)scale(0.1 -0.1)">
      <use xlink:href="#DejaVuSans-77"/>
      <use x="86.279297" xlink:href="#DejaVuSans-101"/>
      <use x="147.802734" xlink:href="#DejaVuSans-97"/>
      <use x="209.082031" xlink:href="#DejaVuSans-110"/>
      <use x="272.460938" xlink:href="#DejaVuSans-32"/>
      <use x="304.248047" xlink:href="#DejaVuSans-40"/>
      <use x="343.261719" xlink:href="#DejaVuSans-65"/>
      <use x="411.669922" xlink:href="#DejaVuSans-85"/>
      <use x="484.863281" xlink:href="#DejaVuSans-67"/>
      <use x="554.6875" xlink:href="#DejaVuSans-32"/>
      <use x="586.474609" xlink:href="#DejaVuSans-61"/>
      <use x="670.263672" xlink:href="#DejaVuSans-32"/>
      <use x="702.050781" xlink:href="#DejaVuSans-48"/>
      <use x="765.673828" xlink:href="#DejaVuSans-46"/>
      <use x="797.460938" xlink:href="#DejaVuSans-56"/>
      <use x="861.083984" xlink:href="#DejaVuSans-56"/>
      <use x="924.707031" xlink:href="#DejaVuSans-54"/>
      <use x="988.330078" xlink:href="#DejaVuSans-51"/>
      <use x="1051.953125" xlink:href="#DejaVuSans-41"/>
     </g>
    </g>
   </g>
  </g>
 </g>
 <defs>
  <clipPath id="p9ddaaf999a">
   <rect height="266.112" width="357.12" x="57.6" y="41.472"/>
  </clipPath>
 </defs>
</svg>
