<?xml version="1.0" encoding="utf-8" standalone="no"?>
<!DOCTYPE svg PUBLIC "-//W3C//DTD SVG 1.1//EN"
  "http://www.w3.org/Graphics/SVG/1.1/DTD/svg11.dtd">
<!-- Created with matplotlib (https://matplotlib.org/) -->
<svg height="345.6pt" version="1.1" viewBox="0 0 460.8 345.6" width="460.8pt" xmlns="http://www.w3.org/2000/svg" xmlns:xlink="http://www.w3.org/1999/xlink">
 <defs>
  <style type="text/css">
*{stroke-linecap:butt;stroke-linejoin:round;}
  </style>
 </defs>
 <g id="figure_1">
  <g id="patch_1">
   <path d="M 0 345.6 
L 460.8 345.6 
L 460.8 0 
L 0 0 
z
" style="fill:#ffffff;"/>
  </g>
  <g id="axes_1">
   <g id="patch_2">
    <path d="M 57.6 307.584 
L 414.72 307.584 
L 414.72 41.472 
L 57.6 41.472 
z
" style="fill:#ffffff;"/>
   </g>
   <g id="matplotlib.axis_1">
    <g id="xtick_1">
     <g id="line2d_1">
      <defs>
       <path d="M 0 0 
L 0 3.5 
" id="mc2e4bdf918" style="stroke:#000000;stroke-width:0.8;"/>
      </defs>
      <g>
       <use style="stroke:#000000;stroke-width:0.8;" x="73.832727" xlink:href="#mc2e4bdf918" y="307.584"/>
      </g>
     </g>
     <g id="text_1">
      <!-- 0.0 -->
      <defs>
       <path d="M 31.78125 66.40625 
Q 24.171875 66.40625 20.328125 58.90625 
Q 16.5 51.421875 16.5 36.375 
Q 16.5 21.390625 20.328125 13.890625 
Q 24.171875 6.390625 31.78125 6.390625 
Q 39.453125 6.390625 43.28125 13.890625 
Q 47.125 21.390625 47.125 36.375 
Q 47.125 51.421875 43.28125 58.90625 
Q 39.453125 66.40625 31.78125 66.40625 
z
M 31.78125 74.21875 
Q 44.046875 74.21875 50.515625 64.515625 
Q 56.984375 54.828125 56.984375 36.375 
Q 56.984375 17.96875 50.515625 8.265625 
Q 44.046875 -1.421875 31.78125 -1.421875 
Q 19.53125 -1.421875 13.0625 8.265625 
Q 6.59375 17.96875 6.59375 36.375 
Q 6.59375 54.828125 13.0625 64.515625 
Q 19.53125 74.21875 31.78125 74.21875 
z
" id="DejaVuSans-48"/>
       <path d="M 10.6875 12.40625 
L 21 12.40625 
L 21 0 
L 10.6875 0 
z
" id="DejaVuSans-46"/>
      </defs>
      <g transform="translate(65.881165 322.182437)scale(0.1 -0.1)">
       <use xlink:href="#DejaVuSans-48"/>
       <use x="63.623047" xlink:href="#DejaVuSans-46"/>
       <use x="95.410156" xlink:href="#DejaVuSans-48"/>
      </g>
     </g>
    </g>
    <g id="xtick_2">
     <g id="line2d_2">
      <g>
       <use style="stroke:#000000;stroke-width:0.8;" x="138.763636" xlink:href="#mc2e4bdf918" y="307.584"/>
      </g>
     </g>
     <g id="text_2">
      <!-- 0.2 -->
      <defs>
       <path d="M 19.1875 8.296875 
L 53.609375 8.296875 
L 53.609375 0 
L 7.328125 0 
L 7.328125 8.296875 
Q 12.9375 14.109375 22.625 23.890625 
Q 32.328125 33.6875 34.8125 36.53125 
Q 39.546875 41.84375 41.421875 45.53125 
Q 43.3125 49.21875 43.3125 52.78125 
Q 43.3125 58.59375 39.234375 62.25 
Q 35.15625 65.921875 28.609375 65.921875 
Q 23.96875 65.921875 18.8125 64.3125 
Q 13.671875 62.703125 7.8125 59.421875 
L 7.8125 69.390625 
Q 13.765625 71.78125 18.9375 73 
Q 24.125 74.21875 28.421875 74.21875 
Q 39.75 74.21875 46.484375 68.546875 
Q 53.21875 62.890625 53.21875 53.421875 
Q 53.21875 48.921875 51.53125 44.890625 
Q 49.859375 40.875 45.40625 35.40625 
Q 44.1875 33.984375 37.640625 27.21875 
Q 31.109375 20.453125 19.1875 8.296875 
z
" id="DejaVuSans-50"/>
      </defs>
      <g transform="translate(130.812074 322.182437)scale(0.1 -0.1)">
       <use xlink:href="#DejaVuSans-48"/>
       <use x="63.623047" xlink:href="#DejaVuSans-46"/>
       <use x="95.410156" xlink:href="#DejaVuSans-50"/>
      </g>
     </g>
    </g>
    <g id="xtick_3">
     <g id="line2d_3">
      <g>
       <use style="stroke:#000000;stroke-width:0.8;" x="203.694545" xlink:href="#mc2e4bdf918" y="307.584"/>
      </g>
     </g>
     <g id="text_3">
      <!-- 0.4 -->
      <defs>
       <path d="M 37.796875 64.3125 
L 12.890625 25.390625 
L 37.796875 25.390625 
z
M 35.203125 72.90625 
L 47.609375 72.90625 
L 47.609375 25.390625 
L 58.015625 25.390625 
L 58.015625 17.1875 
L 47.609375 17.1875 
L 47.609375 0 
L 37.796875 0 
L 37.796875 17.1875 
L 4.890625 17.1875 
L 4.890625 26.703125 
z
" id="DejaVuSans-52"/>
      </defs>
      <g transform="translate(195.742983 322.182437)scale(0.1 -0.1)">
       <use xlink:href="#DejaVuSans-48"/>
       <use x="63.623047" xlink:href="#DejaVuSans-46"/>
       <use x="95.410156" xlink:href="#DejaVuSans-52"/>
      </g>
     </g>
    </g>
    <g id="xtick_4">
     <g id="line2d_4">
      <g>
       <use style="stroke:#000000;stroke-width:0.8;" x="268.625455" xlink:href="#mc2e4bdf918" y="307.584"/>
      </g>
     </g>
     <g id="text_4">
      <!-- 0.6 -->
      <defs>
       <path d="M 33.015625 40.375 
Q 26.375 40.375 22.484375 35.828125 
Q 18.609375 31.296875 18.609375 23.390625 
Q 18.609375 15.53125 22.484375 10.953125 
Q 26.375 6.390625 33.015625 6.390625 
Q 39.65625 6.390625 43.53125 10.953125 
Q 47.40625 15.53125 47.40625 23.390625 
Q 47.40625 31.296875 43.53125 35.828125 
Q 39.65625 40.375 33.015625 40.375 
z
M 52.59375 71.296875 
L 52.59375 62.3125 
Q 48.875 64.0625 45.09375 64.984375 
Q 41.3125 65.921875 37.59375 65.921875 
Q 27.828125 65.921875 22.671875 59.328125 
Q 17.53125 52.734375 16.796875 39.40625 
Q 19.671875 43.65625 24.015625 45.921875 
Q 28.375 48.1875 33.59375 48.1875 
Q 44.578125 48.1875 50.953125 41.515625 
Q 57.328125 34.859375 57.328125 23.390625 
Q 57.328125 12.15625 50.6875 5.359375 
Q 44.046875 -1.421875 33.015625 -1.421875 
Q 20.359375 -1.421875 13.671875 8.265625 
Q 6.984375 17.96875 6.984375 36.375 
Q 6.984375 53.65625 15.1875 63.9375 
Q 23.390625 74.21875 37.203125 74.21875 
Q 40.921875 74.21875 44.703125 73.484375 
Q 48.484375 72.75 52.59375 71.296875 
z
" id="DejaVuSans-54"/>
      </defs>
      <g transform="translate(260.673892 322.182437)scale(0.1 -0.1)">
       <use xlink:href="#DejaVuSans-48"/>
       <use x="63.623047" xlink:href="#DejaVuSans-46"/>
       <use x="95.410156" xlink:href="#DejaVuSans-54"/>
      </g>
     </g>
    </g>
    <g id="xtick_5">
     <g id="line2d_5">
      <g>
       <use style="stroke:#000000;stroke-width:0.8;" x="333.556364" xlink:href="#mc2e4bdf918" y="307.584"/>
      </g>
     </g>
     <g id="text_5">
      <!-- 0.8 -->
      <defs>
       <path d="M 31.78125 34.625 
Q 24.75 34.625 20.71875 30.859375 
Q 16.703125 27.09375 16.703125 20.515625 
Q 16.703125 13.921875 20.71875 10.15625 
Q 24.75 6.390625 31.78125 6.390625 
Q 38.8125 6.390625 42.859375 10.171875 
Q 46.921875 13.96875 46.921875 20.515625 
Q 46.921875 27.09375 42.890625 30.859375 
Q 38.875 34.625 31.78125 34.625 
z
M 21.921875 38.8125 
Q 15.578125 40.375 12.03125 44.71875 
Q 8.5 49.078125 8.5 55.328125 
Q 8.5 64.0625 14.71875 69.140625 
Q 20.953125 74.21875 31.78125 74.21875 
Q 42.671875 74.21875 48.875 69.140625 
Q 55.078125 64.0625 55.078125 55.328125 
Q 55.078125 49.078125 51.53125 44.71875 
Q 48 40.375 41.703125 38.8125 
Q 48.828125 37.15625 52.796875 32.3125 
Q 56.78125 27.484375 56.78125 20.515625 
Q 56.78125 9.90625 50.3125 4.234375 
Q 43.84375 -1.421875 31.78125 -1.421875 
Q 19.734375 -1.421875 13.25 4.234375 
Q 6.78125 9.90625 6.78125 20.515625 
Q 6.78125 27.484375 10.78125 32.3125 
Q 14.796875 37.15625 21.921875 38.8125 
z
M 18.3125 54.390625 
Q 18.3125 48.734375 21.84375 45.5625 
Q 25.390625 42.390625 31.78125 42.390625 
Q 38.140625 42.390625 41.71875 45.5625 
Q 45.3125 48.734375 45.3125 54.390625 
Q 45.3125 60.0625 41.71875 63.234375 
Q 38.140625 66.40625 31.78125 66.40625 
Q 25.390625 66.40625 21.84375 63.234375 
Q 18.3125 60.0625 18.3125 54.390625 
z
" id="DejaVuSans-56"/>
      </defs>
      <g transform="translate(325.604801 322.182437)scale(0.1 -0.1)">
       <use xlink:href="#DejaVuSans-48"/>
       <use x="63.623047" xlink:href="#DejaVuSans-46"/>
       <use x="95.410156" xlink:href="#DejaVuSans-56"/>
      </g>
     </g>
    </g>
    <g id="xtick_6">
     <g id="line2d_6">
      <g>
       <use style="stroke:#000000;stroke-width:0.8;" x="398.487273" xlink:href="#mc2e4bdf918" y="307.584"/>
      </g>
     </g>
     <g id="text_6">
      <!-- 1.0 -->
      <defs>
       <path d="M 12.40625 8.296875 
L 28.515625 8.296875 
L 28.515625 63.921875 
L 10.984375 60.40625 
L 10.984375 69.390625 
L 28.421875 72.90625 
L 38.28125 72.90625 
L 38.28125 8.296875 
L 54.390625 8.296875 
L 54.390625 0 
L 12.40625 0 
z
" id="DejaVuSans-49"/>
      </defs>
      <g transform="translate(390.53571 322.182437)scale(0.1 -0.1)">
       <use xlink:href="#DejaVuSans-49"/>
       <use x="63.623047" xlink:href="#DejaVuSans-46"/>
       <use x="95.410156" xlink:href="#DejaVuSans-48"/>
      </g>
     </g>
    </g>
    <g id="text_7">
     <!-- False Positive Rate -->
     <defs>
      <path d="M 9.8125 72.90625 
L 51.703125 72.90625 
L 51.703125 64.59375 
L 19.671875 64.59375 
L 19.671875 43.109375 
L 48.578125 43.109375 
L 48.578125 34.8125 
L 19.671875 34.8125 
L 19.671875 0 
L 9.8125 0 
z
" id="DejaVuSans-70"/>
      <path d="M 34.28125 27.484375 
Q 23.390625 27.484375 19.1875 25 
Q 14.984375 22.515625 14.984375 16.5 
Q 14.984375 11.71875 18.140625 8.90625 
Q 21.296875 6.109375 26.703125 6.109375 
Q 34.1875 6.109375 38.703125 11.40625 
Q 43.21875 16.703125 43.21875 25.484375 
L 43.21875 27.484375 
z
M 52.203125 31.203125 
L 52.203125 0 
L 43.21875 0 
L 43.21875 8.296875 
Q 40.140625 3.328125 35.546875 0.953125 
Q 30.953125 -1.421875 24.3125 -1.421875 
Q 15.921875 -1.421875 10.953125 3.296875 
Q 6 8.015625 6 15.921875 
Q 6 25.140625 12.171875 29.828125 
Q 18.359375 34.515625 30.609375 34.515625 
L 43.21875 34.515625 
L 43.21875 35.40625 
Q 43.21875 41.609375 39.140625 45 
Q 35.0625 48.390625 27.6875 48.390625 
Q 23 48.390625 18.546875 47.265625 
Q 14.109375 46.140625 10.015625 43.890625 
L 10.015625 52.203125 
Q 14.9375 54.109375 19.578125 55.046875 
Q 24.21875 56 28.609375 56 
Q 40.484375 56 46.34375 49.84375 
Q 52.203125 43.703125 52.203125 31.203125 
z
" id="DejaVuSans-97"/>
      <path d="M 9.421875 75.984375 
L 18.40625 75.984375 
L 18.40625 0 
L 9.421875 0 
z
" id="DejaVuSans-108"/>
      <path d="M 44.28125 53.078125 
L 44.28125 44.578125 
Q 40.484375 46.53125 36.375 47.5 
Q 32.28125 48.484375 27.875 48.484375 
Q 21.1875 48.484375 17.84375 46.4375 
Q 14.5 44.390625 14.5 40.28125 
Q 14.5 37.15625 16.890625 35.375 
Q 19.28125 33.59375 26.515625 31.984375 
L 29.59375 31.296875 
Q 39.15625 29.25 43.1875 25.515625 
Q 47.21875 21.78125 47.21875 15.09375 
Q 47.21875 7.46875 41.1875 3.015625 
Q 35.15625 -1.421875 24.609375 -1.421875 
Q 20.21875 -1.421875 15.453125 -0.5625 
Q 10.6875 0.296875 5.421875 2 
L 5.421875 11.28125 
Q 10.40625 8.6875 15.234375 7.390625 
Q 20.0625 6.109375 24.8125 6.109375 
Q 31.15625 6.109375 34.5625 8.28125 
Q 37.984375 10.453125 37.984375 14.40625 
Q 37.984375 18.0625 35.515625 20.015625 
Q 33.0625 21.96875 24.703125 23.78125 
L 21.578125 24.515625 
Q 13.234375 26.265625 9.515625 29.90625 
Q 5.8125 33.546875 5.8125 39.890625 
Q 5.8125 47.609375 11.28125 51.796875 
Q 16.75 56 26.8125 56 
Q 31.78125 56 36.171875 55.265625 
Q 40.578125 54.546875 44.28125 53.078125 
z
" id="DejaVuSans-115"/>
      <path d="M 56.203125 29.59375 
L 56.203125 25.203125 
L 14.890625 25.203125 
Q 15.484375 15.921875 20.484375 11.0625 
Q 25.484375 6.203125 34.421875 6.203125 
Q 39.59375 6.203125 44.453125 7.46875 
Q 49.3125 8.734375 54.109375 11.28125 
L 54.109375 2.78125 
Q 49.265625 0.734375 44.1875 -0.34375 
Q 39.109375 -1.421875 33.890625 -1.421875 
Q 20.796875 -1.421875 13.15625 6.1875 
Q 5.515625 13.8125 5.515625 26.8125 
Q 5.515625 40.234375 12.765625 48.109375 
Q 20.015625 56 32.328125 56 
Q 43.359375 56 49.78125 48.890625 
Q 56.203125 41.796875 56.203125 29.59375 
z
M 47.21875 32.234375 
Q 47.125 39.59375 43.09375 43.984375 
Q 39.0625 48.390625 32.421875 48.390625 
Q 24.90625 48.390625 20.390625 44.140625 
Q 15.875 39.890625 15.1875 32.171875 
z
" id="DejaVuSans-101"/>
      <path id="DejaVuSans-32"/>
      <path d="M 19.671875 64.796875 
L 19.671875 37.40625 
L 32.078125 37.40625 
Q 38.96875 37.40625 42.71875 40.96875 
Q 46.484375 44.53125 46.484375 51.125 
Q 46.484375 57.671875 42.71875 61.234375 
Q 38.96875 64.796875 32.078125 64.796875 
z
M 9.8125 72.90625 
L 32.078125 72.90625 
Q 44.34375 72.90625 50.609375 67.359375 
Q 56.890625 61.8125 56.890625 51.125 
Q 56.890625 40.328125 50.609375 34.8125 
Q 44.34375 29.296875 32.078125 29.296875 
L 19.671875 29.296875 
L 19.671875 0 
L 9.8125 0 
z
" id="DejaVuSans-80"/>
      <path d="M 30.609375 48.390625 
Q 23.390625 48.390625 19.1875 42.75 
Q 14.984375 37.109375 14.984375 27.296875 
Q 14.984375 17.484375 19.15625 11.84375 
Q 23.34375 6.203125 30.609375 6.203125 
Q 37.796875 6.203125 41.984375 11.859375 
Q 46.1875 17.53125 46.1875 27.296875 
Q 46.1875 37.015625 41.984375 42.703125 
Q 37.796875 48.390625 30.609375 48.390625 
z
M 30.609375 56 
Q 42.328125 56 49.015625 48.375 
Q 55.71875 40.765625 55.71875 27.296875 
Q 55.71875 13.875 49.015625 6.21875 
Q 42.328125 -1.421875 30.609375 -1.421875 
Q 18.84375 -1.421875 12.171875 6.21875 
Q 5.515625 13.875 5.515625 27.296875 
Q 5.515625 40.765625 12.171875 48.375 
Q 18.84375 56 30.609375 56 
z
" id="DejaVuSans-111"/>
      <path d="M 9.421875 54.6875 
L 18.40625 54.6875 
L 18.40625 0 
L 9.421875 0 
z
M 9.421875 75.984375 
L 18.40625 75.984375 
L 18.40625 64.59375 
L 9.421875 64.59375 
z
" id="DejaVuSans-105"/>
      <path d="M 18.3125 70.21875 
L 18.3125 54.6875 
L 36.8125 54.6875 
L 36.8125 47.703125 
L 18.3125 47.703125 
L 18.3125 18.015625 
Q 18.3125 11.328125 20.140625 9.421875 
Q 21.96875 7.515625 27.59375 7.515625 
L 36.8125 7.515625 
L 36.8125 0 
L 27.59375 0 
Q 17.1875 0 13.234375 3.875 
Q 9.28125 7.765625 9.28125 18.015625 
L 9.28125 47.703125 
L 2.6875 47.703125 
L 2.6875 54.6875 
L 9.28125 54.6875 
L 9.28125 70.21875 
z
" id="DejaVuSans-116"/>
      <path d="M 2.984375 54.6875 
L 12.5 54.6875 
L 29.59375 8.796875 
L 46.6875 54.6875 
L 56.203125 54.6875 
L 35.6875 0 
L 23.484375 0 
z
" id="DejaVuSans-118"/>
      <path d="M 44.390625 34.1875 
Q 47.5625 33.109375 50.5625 29.59375 
Q 53.5625 26.078125 56.59375 19.921875 
L 66.609375 0 
L 56 0 
L 46.6875 18.703125 
Q 43.0625 26.03125 39.671875 28.421875 
Q 36.28125 30.8125 30.421875 30.8125 
L 19.671875 30.8125 
L 19.671875 0 
L 9.8125 0 
L 9.8125 72.90625 
L 32.078125 72.90625 
Q 44.578125 72.90625 50.734375 67.671875 
Q 56.890625 62.453125 56.890625 51.90625 
Q 56.890625 45.015625 53.6875 40.46875 
Q 50.484375 35.9375 44.390625 34.1875 
z
M 19.671875 64.796875 
L 19.671875 38.921875 
L 32.078125 38.921875 
Q 39.203125 38.921875 42.84375 42.21875 
Q 46.484375 45.515625 46.484375 51.90625 
Q 46.484375 58.296875 42.84375 61.546875 
Q 39.203125 64.796875 32.078125 64.796875 
z
" id="DejaVuSans-82"/>
     </defs>
     <g transform="translate(174.792891 338.140094)scale(0.13 -0.13)">
      <use xlink:href="#DejaVuSans-70"/>
      <use x="57.378906" xlink:href="#DejaVuSans-97"/>
      <use x="118.658203" xlink:href="#DejaVuSans-108"/>
      <use x="146.441406" xlink:href="#DejaVuSans-115"/>
      <use x="198.541016" xlink:href="#DejaVuSans-101"/>
      <use x="260.064453" xlink:href="#DejaVuSans-32"/>
      <use x="291.851562" xlink:href="#DejaVuSans-80"/>
      <use x="352.107422" xlink:href="#DejaVuSans-111"/>
      <use x="413.289062" xlink:href="#DejaVuSans-115"/>
      <use x="465.388672" xlink:href="#DejaVuSans-105"/>
      <use x="493.171875" xlink:href="#DejaVuSans-116"/>
      <use x="532.380859" xlink:href="#DejaVuSans-105"/>
      <use x="560.164062" xlink:href="#DejaVuSans-118"/>
      <use x="619.34375" xlink:href="#DejaVuSans-101"/>
      <use x="680.867188" xlink:href="#DejaVuSans-32"/>
      <use x="712.654297" xlink:href="#DejaVuSans-82"/>
      <use x="782.105469" xlink:href="#DejaVuSans-97"/>
      <use x="843.384766" xlink:href="#DejaVuSans-116"/>
      <use x="882.59375" xlink:href="#DejaVuSans-101"/>
     </g>
    </g>
   </g>
   <g id="matplotlib.axis_2">
    <g id="ytick_1">
     <g id="line2d_7">
      <defs>
       <path d="M 0 0 
L -3.5 0 
" id="m3dd72b6861" style="stroke:#000000;stroke-width:0.8;"/>
      </defs>
      <g>
       <use style="stroke:#000000;stroke-width:0.8;" x="57.6" xlink:href="#m3dd72b6861" y="295.488"/>
      </g>
     </g>
     <g id="text_8">
      <!-- 0.0 -->
      <g transform="translate(34.696875 299.287219)scale(0.1 -0.1)">
       <use xlink:href="#DejaVuSans-48"/>
       <use x="63.623047" xlink:href="#DejaVuSans-46"/>
       <use x="95.410156" xlink:href="#DejaVuSans-48"/>
      </g>
     </g>
    </g>
    <g id="ytick_2">
     <g id="line2d_8">
      <g>
       <use style="stroke:#000000;stroke-width:0.8;" x="57.6" xlink:href="#m3dd72b6861" y="247.104"/>
      </g>
     </g>
     <g id="text_9">
      <!-- 0.2 -->
      <g transform="translate(34.696875 250.903219)scale(0.1 -0.1)">
       <use xlink:href="#DejaVuSans-48"/>
       <use x="63.623047" xlink:href="#DejaVuSans-46"/>
       <use x="95.410156" xlink:href="#DejaVuSans-50"/>
      </g>
     </g>
    </g>
    <g id="ytick_3">
     <g id="line2d_9">
      <g>
       <use style="stroke:#000000;stroke-width:0.8;" x="57.6" xlink:href="#m3dd72b6861" y="198.72"/>
      </g>
     </g>
     <g id="text_10">
      <!-- 0.4 -->
      <g transform="translate(34.696875 202.519219)scale(0.1 -0.1)">
       <use xlink:href="#DejaVuSans-48"/>
       <use x="63.623047" xlink:href="#DejaVuSans-46"/>
       <use x="95.410156" xlink:href="#DejaVuSans-52"/>
      </g>
     </g>
    </g>
    <g id="ytick_4">
     <g id="line2d_10">
      <g>
       <use style="stroke:#000000;stroke-width:0.8;" x="57.6" xlink:href="#m3dd72b6861" y="150.336"/>
      </g>
     </g>
     <g id="text_11">
      <!-- 0.6 -->
      <g transform="translate(34.696875 154.135219)scale(0.1 -0.1)">
       <use xlink:href="#DejaVuSans-48"/>
       <use x="63.623047" xlink:href="#DejaVuSans-46"/>
       <use x="95.410156" xlink:href="#DejaVuSans-54"/>
      </g>
     </g>
    </g>
    <g id="ytick_5">
     <g id="line2d_11">
      <g>
       <use style="stroke:#000000;stroke-width:0.8;" x="57.6" xlink:href="#m3dd72b6861" y="101.952"/>
      </g>
     </g>
     <g id="text_12">
      <!-- 0.8 -->
      <g transform="translate(34.696875 105.751219)scale(0.1 -0.1)">
       <use xlink:href="#DejaVuSans-48"/>
       <use x="63.623047" xlink:href="#DejaVuSans-46"/>
       <use x="95.410156" xlink:href="#DejaVuSans-56"/>
      </g>
     </g>
    </g>
    <g id="ytick_6">
     <g id="line2d_12">
      <g>
       <use style="stroke:#000000;stroke-width:0.8;" x="57.6" xlink:href="#m3dd72b6861" y="53.568"/>
      </g>
     </g>
     <g id="text_13">
      <!-- 1.0 -->
      <g transform="translate(34.696875 57.367219)scale(0.1 -0.1)">
       <use xlink:href="#DejaVuSans-49"/>
       <use x="63.623047" xlink:href="#DejaVuSans-46"/>
       <use x="95.410156" xlink:href="#DejaVuSans-48"/>
      </g>
     </g>
    </g>
    <g id="text_14">
     <!-- True Positive Rate -->
     <defs>
      <path d="M -0.296875 72.90625 
L 61.375 72.90625 
L 61.375 64.59375 
L 35.5 64.59375 
L 35.5 0 
L 25.59375 0 
L 25.59375 64.59375 
L -0.296875 64.59375 
z
" id="DejaVuSans-84"/>
      <path d="M 41.109375 46.296875 
Q 39.59375 47.171875 37.8125 47.578125 
Q 36.03125 48 33.890625 48 
Q 26.265625 48 22.1875 43.046875 
Q 18.109375 38.09375 18.109375 28.8125 
L 18.109375 0 
L 9.078125 0 
L 9.078125 54.6875 
L 18.109375 54.6875 
L 18.109375 46.1875 
Q 20.953125 51.171875 25.484375 53.578125 
Q 30.03125 56 36.53125 56 
Q 37.453125 56 38.578125 55.875 
Q 39.703125 55.765625 41.0625 55.515625 
z
" id="DejaVuSans-114"/>
      <path d="M 8.5 21.578125 
L 8.5 54.6875 
L 17.484375 54.6875 
L 17.484375 21.921875 
Q 17.484375 14.15625 20.5 10.265625 
Q 23.53125 6.390625 29.59375 6.390625 
Q 36.859375 6.390625 41.078125 11.03125 
Q 45.3125 15.671875 45.3125 23.6875 
L 45.3125 54.6875 
L 54.296875 54.6875 
L 54.296875 0 
L 45.3125 0 
L 45.3125 8.40625 
Q 42.046875 3.421875 37.71875 1 
Q 33.40625 -1.421875 27.6875 -1.421875 
Q 18.265625 -1.421875 13.375 4.4375 
Q 8.5 10.296875 8.5 21.578125 
z
M 31.109375 56 
z
" id="DejaVuSans-117"/>
     </defs>
     <g transform="translate(27.993281 233.737922)rotate(-90)scale(0.13 -0.13)">
      <use xlink:href="#DejaVuSans-84"/>
      <use x="60.865234" xlink:href="#DejaVuSans-114"/>
      <use x="101.978516" xlink:href="#DejaVuSans-117"/>
      <use x="165.357422" xlink:href="#DejaVuSans-101"/>
      <use x="226.880859" xlink:href="#DejaVuSans-32"/>
      <use x="258.667969" xlink:href="#DejaVuSans-80"/>
      <use x="318.923828" xlink:href="#DejaVuSans-111"/>
      <use x="380.105469" xlink:href="#DejaVuSans-115"/>
      <use x="432.205078" xlink:href="#DejaVuSans-105"/>
      <use x="459.988281" xlink:href="#DejaVuSans-116"/>
      <use x="499.197266" xlink:href="#DejaVuSans-105"/>
      <use x="526.980469" xlink:href="#DejaVuSans-118"/>
      <use x="586.160156" xlink:href="#DejaVuSans-101"/>
      <use x="647.683594" xlink:href="#DejaVuSans-32"/>
      <use x="679.470703" xlink:href="#DejaVuSans-82"/>
      <use x="748.921875" xlink:href="#DejaVuSans-97"/>
      <use x="810.201172" xlink:href="#DejaVuSans-116"/>
      <use x="849.410156" xlink:href="#DejaVuSans-101"/>
     </g>
    </g>
   </g>
   <g id="line2d_13">
    <path clip-path="url(#pec51c26d33)" d="M 73.832727 295.488 
L 73.832727 266.586053 
L 74.55099 266.586053 
L 74.55099 264.445168 
L 75.269252 264.445168 
L 75.269252 257.487292 
L 75.987514 257.487292 
L 75.987514 230.191009 
L 76.705776 230.191009 
L 76.705776 198.612956 
L 77.424039 198.612956 
L 77.424039 174.528 
L 78.142301 173.992779 
L 78.142301 148.837381 
L 78.860563 148.837381 
L 78.860563 133.315965 
L 79.578825 133.315965 
L 79.578825 130.104637 
L 80.297088 130.104637 
L 80.297088 122.076319 
L 81.01535 122.076319 
L 81.01535 117.794549 
L 81.733612 117.794549 
L 81.733612 106.019681 
L 82.451874 106.019681 
L 82.451874 102.808354 
L 83.170137 102.808354 
L 83.170137 102.273133 
L 83.888399 102.273133 
L 83.888399 100.132248 
L 84.606661 100.132248 
L 84.606661 99.597027 
L 85.324924 99.597027 
L 85.324924 99.061805 
L 86.043186 99.061805 
L 86.043186 97.991363 
L 86.761448 97.991363 
L 86.761448 94.244814 
L 87.47971 94.244814 
L 87.47971 92.103929 
L 88.197973 92.103929 
L 88.197973 89.963044 
L 88.916235 89.963044 
L 88.916235 89.427823 
L 89.634497 89.427823 
L 89.634497 88.357381 
L 91.789284 88.357381 
L 91.789284 87.286938 
L 93.225809 87.286938 
L 93.225809 86.751717 
L 94.662333 86.751717 
L 94.662333 86.216496 
L 95.380595 86.216496 
L 95.380595 85.146053 
L 96.098858 85.146053 
L 96.098858 84.075611 
L 97.535382 84.075611 
L 97.535382 81.399504 
L 98.971907 81.399504 
L 98.971907 80.329062 
L 101.126693 80.329062 
L 101.126693 79.793841 
L 102.563218 79.793841 
L 102.563218 79.258619 
L 103.28148 79.258619 
L 103.28148 78.188177 
L 106.872792 78.188177 
L 106.872792 77.117735 
L 108.309316 77.117735 
L 108.309316 76.047292 
L 109.745841 76.047292 
L 109.745841 74.97685 
L 112.61889 74.97685 
L 112.61889 73.371186 
L 113.337152 73.371186 
L 113.337152 72.835965 
L 115.491939 72.835965 
L 115.491939 71.230301 
L 116.928463 71.230301 
L 116.928463 70.69508 
L 118.364988 70.69508 
L 118.364988 69.624637 
L 121.238037 69.624637 
L 121.238037 68.554195 
L 122.674562 68.554195 
L 122.674562 68.018973 
L 124.829348 68.018973 
L 124.829348 66.948531 
L 125.547611 66.948531 
L 125.547611 66.41331 
L 126.984135 66.41331 
L 126.984135 65.342867 
L 127.702397 65.342867 
L 127.702397 64.807646 
L 128.42066 64.807646 
L 128.42066 63.737204 
L 131.293709 63.737204 
L 131.293709 63.201982 
L 133.448496 63.201982 
L 133.448496 62.666761 
L 135.603282 62.666761 
L 135.603282 62.13154 
L 137.039807 62.13154 
L 137.039807 61.061097 
L 138.476331 61.061097 
L 138.476331 60.525876 
L 139.912856 60.525876 
L 139.912856 59.990655 
L 141.349381 59.990655 
L 141.349381 59.455434 
L 157.15115 59.455434 
L 157.15115 58.920212 
L 158.587675 58.920212 
L 158.587675 58.384991 
L 159.305937 58.384991 
L 159.305937 57.84977 
L 161.460724 57.84977 
L 161.460724 57.314549 
L 168.643347 57.314549 
L 168.643347 56.779327 
L 169.361609 56.779327 
L 169.361609 56.244106 
L 172.234658 56.244106 
L 172.234658 55.708885 
L 172.95292 55.708885 
L 172.95292 55.173664 
L 176.544232 55.173664 
L 176.544232 54.638442 
L 185.163379 54.638442 
L 185.163379 54.103221 
L 195.219051 54.103221 
L 195.219051 53.568 
L 398.487273 53.568 
L 398.487273 53.568 
" style="fill:none;stroke:#ff0000;stroke-linecap:square;stroke-opacity:0.8;stroke-width:1.5;"/>
   </g>
   <g id="line2d_14">
    <path clip-path="url(#pec51c26d33)" d="M 73.832727 295.488 
L 73.832727 282.64269 
L 74.55099 282.64269 
L 74.55099 195.401628 
L 75.269252 194.866407 
L 75.269252 153.11915 
L 75.987514 153.11915 
L 75.987514 148.302159 
L 76.705776 148.302159 
L 76.705776 142.949947 
L 77.424039 142.949947 
L 77.424039 141.344283 
L 78.142301 141.344283 
L 78.142301 136.527292 
L 78.860563 136.527292 
L 78.860563 122.61154 
L 79.578825 122.61154 
L 79.578825 115.118442 
L 80.297088 114.583221 
L 80.297088 105.48446 
L 81.01535 105.48446 
L 81.01535 102.808354 
L 82.451874 102.808354 
L 82.451874 99.597027 
L 83.170137 99.597027 
L 83.170137 92.63915 
L 83.888399 92.63915 
L 83.888399 92.103929 
L 84.606661 92.103929 
L 84.606661 82.469947 
L 85.324924 82.469947 
L 85.324924 80.329062 
L 86.761448 80.329062 
L 86.761448 77.117735 
L 88.197973 77.117735 
L 88.197973 72.300743 
L 89.634497 72.300743 
L 89.634497 71.765522 
L 90.352759 71.765522 
L 90.352759 71.230301 
L 91.789284 71.230301 
L 91.789284 69.089416 
L 92.507546 69.089416 
L 92.507546 68.018973 
L 95.380595 68.018973 
L 96.098858 67.483752 
L 96.81712 67.483752 
L 96.81712 66.948531 
L 102.563218 66.948531 
L 102.563218 65.342867 
L 103.28148 65.342867 
L 103.28148 64.807646 
L 103.999743 64.807646 
L 103.999743 64.272425 
L 105.436267 64.272425 
L 106.154529 63.737204 
L 108.309316 63.737204 
L 108.309316 63.201982 
L 110.464103 63.201982 
L 110.464103 62.666761 
L 111.182365 62.666761 
L 111.182365 61.596319 
L 112.61889 61.596319 
L 112.61889 61.061097 
L 113.337152 61.061097 
L 113.337152 59.455434 
L 116.210201 59.455434 
L 116.210201 58.920212 
L 116.928463 58.920212 
L 116.928463 58.384991 
L 120.519775 58.384991 
L 120.519775 57.84977 
L 121.238037 57.84977 
L 121.238037 57.314549 
L 131.293709 57.314549 
L 131.293709 56.779327 
L 141.349381 56.779327 
L 141.349381 55.708885 
L 155.714626 55.708885 
L 155.714626 55.173664 
L 162.897249 55.173664 
L 162.897249 54.638442 
L 167.206822 54.638442 
L 167.206822 54.103221 
L 194.500788 54.103221 
L 194.500788 53.568 
L 398.487273 53.568 
L 398.487273 53.568 
" style="fill:none;stroke:#ff0000;stroke-linecap:square;stroke-opacity:0.8;stroke-width:1.5;"/>
   </g>
   <g id="line2d_15">
    <path clip-path="url(#pec51c26d33)" d="M 73.832727 295.488 
L 73.832727 275.684814 
L 74.55099 275.684814 
L 74.55099 238.754549 
L 75.269252 238.219327 
L 75.269252 234.472779 
L 75.987514 234.472779 
L 75.987514 219.486584 
L 76.705776 219.486584 
L 76.705776 200.753841 
L 77.424039 200.753841 
L 77.424039 166.499681 
L 78.142301 166.499681 
L 78.142301 161.147469 
L 78.860563 161.147469 
L 78.860563 149.372602 
L 79.578825 148.837381 
L 79.578825 132.245522 
L 80.297088 132.245522 
L 80.297088 123.146761 
L 81.01535 123.146761 
L 81.01535 115.118442 
L 81.733612 115.118442 
L 81.733612 111.907115 
L 82.451874 111.907115 
L 82.451874 100.132248 
L 83.170137 100.132248 
L 83.170137 98.526584 
L 83.888399 98.526584 
L 83.888399 96.385699 
L 84.606661 96.385699 
L 84.606661 95.315257 
L 85.324924 95.315257 
L 85.324924 94.244814 
L 86.043186 94.244814 
L 86.043186 93.174372 
L 86.761448 93.174372 
L 86.761448 87.822159 
L 87.47971 87.822159 
L 87.47971 87.286938 
L 88.197973 87.286938 
L 88.197973 86.751717 
L 88.916235 86.751717 
L 88.916235 85.146053 
L 89.634497 84.610832 
L 90.352759 84.610832 
L 90.352759 84.075611 
L 92.507546 84.075611 
L 92.507546 81.934726 
L 93.225809 81.934726 
L 93.225809 79.793841 
L 94.662333 79.793841 
L 94.662333 79.258619 
L 96.81712 79.258619 
L 96.81712 78.723398 
L 98.253644 78.723398 
L 98.253644 76.582513 
L 101.126693 76.582513 
L 101.126693 75.512071 
L 103.28148 75.512071 
L 103.28148 73.906407 
L 103.999743 73.906407 
L 103.999743 72.835965 
L 104.718005 72.835965 
L 104.718005 71.230301 
L 106.154529 71.230301 
L 106.154529 70.69508 
L 108.309316 70.69508 
L 108.309316 68.554195 
L 109.027578 68.554195 
L 109.027578 68.018973 
L 111.182365 68.018973 
L 111.182365 67.483752 
L 113.337152 67.483752 
L 113.337152 66.41331 
L 114.055414 66.41331 
L 114.055414 65.878088 
L 115.491939 65.878088 
L 115.491939 64.807646 
L 119.801512 64.807646 
L 119.801512 64.272425 
L 122.674562 64.272425 
L 122.674562 63.737204 
L 124.829348 63.737204 
L 124.829348 63.201982 
L 130.575447 63.201982 
L 130.575447 62.666761 
L 135.603282 62.666761 
L 135.603282 62.13154 
L 140.631118 62.13154 
L 140.631118 61.596319 
L 141.349381 61.596319 
L 141.349381 61.061097 
L 149.968528 61.061097 
L 149.968528 60.525876 
L 154.996364 60.525876 
L 154.996364 59.990655 
L 157.15115 59.990655 
L 157.15115 59.455434 
L 159.305937 59.455434 
L 159.305937 58.384991 
L 160.0242 58.384991 
L 160.0242 57.84977 
L 162.178986 57.84977 
L 162.178986 56.779327 
L 170.079871 56.779327 
L 170.079871 56.244106 
L 172.95292 56.244106 
L 172.95292 55.708885 
L 178.699019 55.708885 
L 178.699019 55.173664 
L 179.417281 55.173664 
L 179.417281 54.638442 
L 184.445117 54.638442 
L 184.445117 54.103221 
L 190.909477 54.103221 
L 190.909477 53.568 
L 398.487273 53.568 
L 398.487273 53.568 
" style="fill:none;stroke:#ff0000;stroke-linecap:square;stroke-opacity:0.8;stroke-width:1.5;"/>
   </g>
   <g id="line2d_16">
    <path clip-path="url(#pec51c26d33)" d="M 73.832727 295.488 
L 73.832727 239.824991 
L 74.55099 239.824991 
L 74.55099 202.894726 
L 75.269252 202.894726 
L 75.269252 163.823575 
L 75.987514 163.823575 
L 75.987514 135.992071 
L 76.705776 135.992071 
L 76.705776 132.780743 
L 77.424039 132.780743 
L 77.424039 131.17508 
L 78.142301 131.17508 
L 78.142301 122.076319 
L 78.860563 122.076319 
L 78.860563 120.470655 
L 79.578825 120.470655 
L 79.578825 108.695788 
L 80.297088 108.695788 
L 80.297088 104.949239 
L 82.451874 104.949239 
L 82.451874 104.414018 
L 83.170137 104.414018 
L 83.170137 101.737912 
L 83.888399 101.737912 
L 83.888399 98.526584 
L 84.606661 98.526584 
L 84.606661 95.850478 
L 85.324924 95.850478 
L 85.324924 94.780035 
L 86.043186 94.780035 
L 86.043186 94.244814 
L 86.761448 94.244814 
L 86.761448 93.709593 
L 87.47971 93.709593 
L 87.47971 88.892602 
L 88.197973 88.892602 
L 88.197973 86.751717 
L 89.634497 86.751717 
L 89.634497 85.681274 
L 90.352759 85.681274 
L 90.352759 84.075611 
L 91.071022 84.075611 
L 91.071022 83.005168 
L 91.789284 83.005168 
L 91.789284 80.329062 
L 94.662333 80.329062 
L 94.662333 79.258619 
L 97.535382 79.258619 
L 97.535382 78.188177 
L 98.253644 78.188177 
L 98.253644 77.117735 
L 98.971907 77.117735 
L 98.971907 75.512071 
L 99.690169 75.512071 
L 99.690169 74.97685 
L 101.126693 74.97685 
L 101.126693 74.441628 
L 101.844956 74.441628 
L 101.844956 73.906407 
L 102.563218 73.906407 
L 102.563218 72.300743 
L 103.999743 72.300743 
L 103.999743 70.69508 
L 104.718005 70.69508 
L 104.718005 68.018973 
L 107.591054 68.018973 
L 107.591054 66.41331 
L 108.309316 66.41331 
L 108.309316 65.878088 
L 112.61889 65.878088 
L 112.61889 65.342867 
L 113.337152 65.342867 
L 113.337152 64.272425 
L 114.773677 64.272425 
L 114.773677 63.201982 
L 117.646726 63.201982 
L 117.646726 62.13154 
L 121.956299 62.13154 
L 121.956299 61.596319 
L 124.111086 61.596319 
L 124.111086 61.061097 
L 125.547611 61.061097 
L 125.547611 60.525876 
L 135.603282 60.525876 
L 135.603282 59.990655 
L 144.22243 59.990655 
L 144.22243 58.384991 
L 146.377216 58.384991 
L 146.377216 57.84977 
L 150.68679 57.84977 
L 150.68679 57.314549 
L 154.278101 57.314549 
L 154.278101 56.779327 
L 155.714626 56.779327 
L 155.714626 56.244106 
L 161.460724 56.244106 
L 161.460724 55.173664 
L 175.107707 55.173664 
L 175.107707 54.638442 
L 177.262494 54.638442 
L 177.262494 54.103221 
L 179.417281 54.103221 
L 179.417281 53.568 
L 398.487273 53.568 
L 398.487273 53.568 
" style="fill:none;stroke:#ff0000;stroke-linecap:square;stroke-opacity:0.8;stroke-width:1.5;"/>
   </g>
   <g id="line2d_17">
    <path clip-path="url(#pec51c26d33)" d="M 73.832727 295.488 
L 73.832727 281.572248 
L 74.55099 281.572248 
L 74.55099 277.825699 
L 75.269252 277.825699 
L 75.269252 253.205522 
L 75.987514 252.670301 
L 77.424039 252.670301 
L 77.424039 226.44446 
L 78.142301 226.44446 
L 78.142301 222.697912 
L 78.860563 222.16269 
L 78.860563 216.810478 
L 79.578825 216.810478 
L 79.578825 216.275257 
L 80.297088 216.275257 
L 80.297088 165.429239 
L 81.01535 165.429239 
L 81.01535 160.612248 
L 81.733612 160.612248 
L 81.733612 157.936142 
L 82.451874 157.936142 
L 82.451874 140.809062 
L 83.170137 140.809062 
L 83.170137 131.17508 
L 83.888399 131.17508 
L 83.888399 130.639858 
L 84.606661 130.104637 
L 84.606661 127.428531 
L 85.324924 127.428531 
L 85.324924 121.541097 
L 86.043186 121.541097 
L 86.043186 119.400212 
L 86.761448 119.400212 
L 86.761448 117.794549 
L 88.197973 117.794549 
L 88.197973 113.512779 
L 88.916235 113.512779 
L 88.916235 111.371894 
L 91.071022 111.371894 
L 91.071022 105.48446 
L 92.507546 105.48446 
L 92.507546 103.343575 
L 93.225809 103.343575 
L 93.225809 97.991363 
L 93.944071 97.991363 
L 93.944071 94.780035 
L 94.662333 94.780035 
L 94.662333 87.286938 
L 95.380595 87.286938 
L 95.380595 85.681274 
L 96.098858 85.681274 
L 96.098858 83.540389 
L 96.81712 83.540389 
L 96.81712 83.005168 
L 98.253644 83.005168 
L 98.253644 81.399504 
L 98.971907 81.399504 
L 98.971907 80.864283 
L 100.408431 80.864283 
L 100.408431 80.329062 
L 101.126693 80.329062 
L 101.126693 79.793841 
L 101.844956 79.793841 
L 101.844956 78.188177 
L 102.563218 78.188177 
L 102.563218 77.117735 
L 103.28148 77.117735 
L 103.28148 76.582513 
L 105.436267 76.582513 
L 105.436267 76.047292 
L 106.154529 76.047292 
L 106.154529 74.97685 
L 108.309316 74.97685 
L 108.309316 74.441628 
L 111.182365 74.441628 
L 111.182365 72.835965 
L 113.337152 72.835965 
L 113.337152 72.300743 
L 114.055414 72.300743 
L 114.055414 71.230301 
L 119.08325 71.230301 
L 119.801512 70.69508 
L 119.801512 69.089416 
L 121.238037 69.089416 
L 121.238037 68.554195 
L 122.674562 68.554195 
L 122.674562 68.018973 
L 123.392824 68.018973 
L 123.392824 67.483752 
L 124.111086 67.483752 
L 124.111086 66.41331 
L 131.293709 66.41331 
L 131.293709 65.878088 
L 132.011971 65.878088 
L 132.011971 65.342867 
L 132.730233 65.342867 
L 132.730233 64.807646 
L 135.603282 64.807646 
L 135.603282 63.201982 
L 137.039807 63.201982 
L 137.039807 62.666761 
L 138.476331 62.666761 
L 138.476331 62.13154 
L 144.940692 62.13154 
L 144.940692 61.596319 
L 145.658954 61.596319 
L 145.658954 61.061097 
L 147.095479 61.061097 
L 147.095479 60.525876 
L 148.532003 60.525876 
L 148.532003 59.990655 
L 150.68679 59.990655 
L 150.68679 59.455434 
L 155.714626 59.455434 
L 155.714626 58.920212 
L 158.587675 58.920212 
L 158.587675 58.384991 
L 165.052035 58.384991 
L 165.052035 57.314549 
L 167.206822 57.314549 
L 167.206822 56.779327 
L 168.643347 56.779327 
L 168.643347 56.244106 
L 169.361609 56.244106 
L 169.361609 55.173664 
L 170.798134 55.173664 
L 170.798134 54.638442 
L 173.671183 54.638442 
L 173.671183 54.103221 
L 186.599903 54.103221 
L 186.599903 53.568 
L 398.487273 53.568 
L 398.487273 53.568 
" style="fill:none;stroke:#ff0000;stroke-linecap:square;stroke-opacity:0.8;stroke-width:1.5;"/>
   </g>
   <g id="line2d_18">
    <path clip-path="url(#pec51c26d33)" d="M 73.832727 295.488 
L 73.832727 246.782867 
L 74.55099 246.782867 
L 74.55099 235.008 
L 75.269252 235.008 
L 75.269252 218.416142 
L 75.987514 218.416142 
L 75.987514 190.584637 
L 76.705776 190.584637 
L 76.705776 171.851894 
L 77.424039 170.781451 
L 78.142301 170.781451 
L 78.142301 151.513487 
L 78.860563 151.513487 
L 78.860563 150.978265 
L 79.578825 150.978265 
L 79.578825 147.231717 
L 80.297088 147.231717 
L 80.297088 137.062513 
L 81.01535 137.062513 
L 81.01535 135.992071 
L 81.733612 135.992071 
L 81.733612 119.400212 
L 82.451874 119.400212 
L 82.451874 106.019681 
L 83.170137 106.019681 
L 83.170137 101.737912 
L 84.606661 101.737912 
L 84.606661 100.132248 
L 85.324924 100.132248 
L 85.324924 97.991363 
L 86.761448 97.991363 
L 86.761448 96.385699 
L 87.47971 96.385699 
L 87.47971 92.103929 
L 88.197973 92.103929 
L 88.197973 86.751717 
L 89.634497 86.751717 
L 89.634497 85.681274 
L 90.352759 85.681274 
L 90.352759 85.146053 
L 91.071022 85.146053 
L 91.071022 84.075611 
L 93.944071 84.075611 
L 93.944071 79.258619 
L 94.662333 79.258619 
L 94.662333 76.047292 
L 96.098858 76.047292 
L 96.098858 75.512071 
L 97.535382 75.512071 
L 97.535382 74.97685 
L 98.971907 74.97685 
L 98.971907 72.835965 
L 99.690169 72.835965 
L 99.690169 71.230301 
L 100.408431 71.230301 
L 100.408431 69.624637 
L 101.126693 69.624637 
L 101.126693 68.554195 
L 104.718005 68.554195 
L 104.718005 67.483752 
L 106.872792 67.483752 
L 106.872792 66.948531 
L 108.309316 66.948531 
L 108.309316 66.41331 
L 111.182365 66.41331 
L 111.182365 65.878088 
L 114.055414 65.878088 
L 114.055414 65.342867 
L 117.646726 65.342867 
L 117.646726 64.807646 
L 121.956299 64.807646 
L 121.956299 64.272425 
L 125.547611 64.272425 
L 125.547611 63.737204 
L 132.011971 63.737204 
L 132.011971 63.201982 
L 132.730233 63.201982 
L 132.730233 62.666761 
L 134.166758 62.666761 
L 134.166758 62.13154 
L 138.476331 62.13154 
L 138.476331 61.596319 
L 139.194594 61.596319 
L 139.194594 61.061097 
L 142.785905 61.061097 
L 142.785905 60.525876 
L 145.658954 60.525876 
L 145.658954 59.990655 
L 150.68679 59.990655 
L 150.68679 58.384991 
L 152.123315 58.384991 
L 152.123315 57.84977 
L 158.587675 57.84977 
L 158.587675 56.779327 
L 165.052035 56.779327 
L 165.052035 56.244106 
L 170.798134 56.244106 
L 170.798134 55.708885 
L 177.262494 55.708885 
L 177.262494 55.173664 
L 181.572068 55.173664 
L 181.572068 54.638442 
L 195.219051 54.638442 
L 195.937313 54.103221 
L 207.429509 54.103221 
L 207.429509 53.568 
L 398.487273 53.568 
L 398.487273 53.568 
" style="fill:none;stroke:#ff0000;stroke-linecap:square;stroke-opacity:0.8;stroke-width:1.5;"/>
   </g>
   <g id="line2d_19">
    <path clip-path="url(#pec51c26d33)" d="M 73.832727 295.488 
L 73.832727 267.121274 
L 74.55099 267.121274 
L 74.55099 231.261451 
L 75.269252 231.261451 
L 75.269252 205.035611 
L 75.987514 205.035611 
L 75.987514 189.514195 
L 76.705776 189.514195 
L 76.705776 188.978973 
L 77.424039 188.978973 
L 77.424039 154.189593 
L 78.142301 154.189593 
L 78.142301 127.428531 
L 78.860563 127.428531 
L 78.860563 126.89331 
L 79.578825 126.89331 
L 79.578825 124.752425 
L 80.297088 124.752425 
L 80.297088 123.146761 
L 81.01535 123.146761 
L 81.01535 116.188885 
L 81.733612 116.188885 
L 81.733612 107.625345 
L 82.451874 107.625345 
L 82.451874 106.019681 
L 83.170137 106.019681 
L 83.170137 103.878796 
L 83.888399 103.878796 
L 83.888399 102.808354 
L 85.324924 102.808354 
L 85.324924 99.597027 
L 86.761448 99.597027 
L 86.761448 98.526584 
L 87.47971 98.526584 
L 87.47971 95.850478 
L 88.197973 95.850478 
L 88.197973 87.286938 
L 88.916235 87.286938 
L 88.916235 86.216496 
L 89.634497 86.216496 
L 89.634497 84.610832 
L 90.352759 84.610832 
L 90.352759 83.540389 
L 91.071022 83.540389 
L 91.071022 80.329062 
L 93.225809 80.329062 
L 93.225809 79.793841 
L 93.944071 79.793841 
L 93.944071 78.723398 
L 94.662333 78.723398 
L 94.662333 77.652956 
L 95.380595 77.652956 
L 95.380595 76.047292 
L 96.098858 76.047292 
L 96.098858 74.441628 
L 97.535382 74.441628 
L 97.535382 71.765522 
L 98.253644 71.765522 
L 98.253644 71.230301 
L 100.408431 71.230301 
L 100.408431 70.159858 
L 101.126693 70.159858 
L 101.126693 69.089416 
L 101.844956 69.089416 
L 101.844956 67.483752 
L 104.718005 67.483752 
L 104.718005 66.948531 
L 106.154529 66.948531 
L 106.154529 66.41331 
L 108.309316 66.41331 
L 108.309316 65.878088 
L 109.027578 65.878088 
L 109.027578 65.342867 
L 109.745841 65.342867 
L 109.745841 64.807646 
L 114.773677 64.807646 
L 114.773677 64.272425 
L 118.364988 64.272425 
L 118.364988 63.201982 
L 121.956299 63.201982 
L 121.956299 61.061097 
L 124.111086 61.061097 
L 124.111086 60.525876 
L 126.265873 60.525876 
L 126.265873 59.990655 
L 129.138922 59.990655 
L 129.138922 59.455434 
L 142.067643 59.455434 
L 142.067643 58.920212 
L 147.813741 58.920212 
L 147.813741 57.84977 
L 149.250265 57.84977 
L 149.250265 57.314549 
L 150.68679 57.314549 
L 150.68679 56.779327 
L 152.123315 56.779327 
L 152.123315 56.244106 
L 156.432888 56.244106 
L 156.432888 55.708885 
L 157.869413 55.708885 
L 157.869413 55.173664 
L 169.361609 55.173664 
L 169.361609 54.103221 
L 185.163379 54.103221 
L 185.163379 53.568 
L 398.487273 53.568 
L 398.487273 53.568 
" style="fill:none;stroke:#ff0000;stroke-linecap:square;stroke-opacity:0.8;stroke-width:1.5;"/>
   </g>
   <g id="line2d_20">
    <path clip-path="url(#pec51c26d33)" d="M 73.832727 295.488 
L 73.832727 244.106761 
L 74.55099 244.106761 
L 74.55099 232.867115 
L 75.269252 232.867115 
L 75.269252 182.021097 
L 75.987514 182.021097 
L 75.987514 172.387115 
L 76.705776 172.387115 
L 76.705776 157.936142 
L 77.424039 157.936142 
L 77.424039 152.583929 
L 78.142301 152.583929 
L 78.142301 149.372602 
L 78.860563 149.372602 
L 78.860563 136.527292 
L 79.578825 136.527292 
L 79.578825 118.864991 
L 80.297088 118.864991 
L 80.297088 116.188885 
L 81.01535 116.188885 
L 81.01535 115.118442 
L 82.451874 115.118442 
L 82.451874 107.625345 
L 83.170137 107.090124 
L 83.888399 107.090124 
L 83.888399 102.273133 
L 84.606661 102.273133 
L 84.606661 100.132248 
L 86.043186 100.132248 
L 86.043186 96.385699 
L 86.761448 96.385699 
L 86.761448 92.63915 
L 87.47971 92.63915 
L 87.47971 92.103929 
L 88.197973 92.103929 
L 88.197973 89.427823 
L 89.634497 89.427823 
L 89.634497 87.286938 
L 90.352759 87.286938 
L 90.352759 85.146053 
L 91.071022 85.146053 
L 91.071022 84.610832 
L 91.789284 84.610832 
L 91.789284 84.075611 
L 92.507546 84.075611 
L 92.507546 83.540389 
L 93.225809 83.540389 
L 93.225809 83.005168 
L 93.944071 83.005168 
L 93.944071 80.329062 
L 94.662333 80.329062 
L 94.662333 79.793841 
L 95.380595 79.793841 
L 95.380595 78.723398 
L 96.098858 78.723398 
L 96.098858 77.652956 
L 96.81712 77.652956 
L 96.81712 77.117735 
L 97.535382 77.117735 
L 97.535382 76.582513 
L 98.971907 76.582513 
L 98.971907 74.441628 
L 103.999743 74.441628 
L 103.999743 73.906407 
L 104.718005 73.906407 
L 104.718005 72.300743 
L 106.154529 72.300743 
L 106.154529 71.765522 
L 106.872792 71.765522 
L 106.872792 71.230301 
L 107.591054 71.230301 
L 107.591054 70.159858 
L 108.309316 70.159858 
L 108.309316 69.089416 
L 110.464103 69.089416 
L 110.464103 68.554195 
L 114.773677 68.554195 
L 114.773677 67.483752 
L 117.646726 67.483752 
L 117.646726 65.878088 
L 119.801512 65.878088 
L 119.801512 65.342867 
L 124.111086 65.342867 
L 124.111086 64.807646 
L 124.829348 64.807646 
L 124.829348 64.272425 
L 126.265873 64.272425 
L 126.265873 63.737204 
L 132.730233 63.737204 
L 132.730233 63.201982 
L 134.166758 63.201982 
L 134.166758 62.666761 
L 136.321545 62.666761 
L 136.321545 62.13154 
L 137.039807 62.13154 
L 137.039807 61.596319 
L 141.349381 61.596319 
L 141.349381 61.061097 
L 142.785905 61.061097 
L 142.785905 60.525876 
L 148.532003 60.525876 
L 148.532003 59.990655 
L 150.68679 59.990655 
L 150.68679 59.455434 
L 154.996364 59.455434 
L 154.996364 57.84977 
L 167.206822 57.84977 
L 167.206822 57.314549 
L 170.079871 57.314549 
L 170.079871 56.779327 
L 173.671183 56.779327 
L 173.671183 55.708885 
L 177.262494 55.708885 
L 177.262494 55.173664 
L 180.853805 55.173664 
L 180.853805 54.638442 
L 185.881641 54.638442 
L 185.881641 54.103221 
L 188.75469 54.103221 
L 188.75469 53.568 
L 398.487273 53.568 
L 398.487273 53.568 
" style="fill:none;stroke:#ff0000;stroke-linecap:square;stroke-opacity:0.8;stroke-width:1.5;"/>
   </g>
   <g id="line2d_21">
    <path clip-path="url(#pec51c26d33)" d="M 73.832727 295.488 
L 73.832727 263.909947 
L 74.55099 263.909947 
L 74.55099 261.233841 
L 75.269252 260.698619 
L 75.269252 218.951363 
L 75.987514 217.345699 
L 75.987514 192.190301 
L 76.705776 191.65508 
L 76.705776 160.077027 
L 77.424039 160.077027 
L 77.424039 156.865699 
L 78.142301 156.865699 
L 78.142301 149.372602 
L 78.860563 149.372602 
L 78.860563 145.626053 
L 79.578825 144.555611 
L 79.578825 144.020389 
L 80.297088 144.020389 
L 80.297088 132.245522 
L 81.01535 132.245522 
L 81.01535 131.710301 
L 81.733612 131.710301 
L 81.733612 125.822867 
L 82.451874 125.822867 
L 82.451874 124.217204 
L 83.170137 124.217204 
L 83.170137 121.541097 
L 83.888399 121.541097 
L 83.888399 117.259327 
L 84.606661 117.259327 
L 84.606661 115.118442 
L 85.324924 114.048 
L 85.324924 107.625345 
L 86.761448 107.625345 
L 86.761448 106.019681 
L 87.47971 105.48446 
L 87.47971 104.949239 
L 88.197973 104.949239 
L 88.197973 100.667469 
L 88.916235 100.132248 
L 88.916235 99.597027 
L 89.634497 99.597027 
L 89.634497 97.456142 
L 90.352759 97.456142 
L 90.352759 91.033487 
L 91.071022 91.033487 
L 91.071022 89.963044 
L 91.789284 89.963044 
L 91.789284 85.681274 
L 92.507546 85.681274 
L 92.507546 84.610832 
L 93.225809 84.610832 
L 93.225809 84.075611 
L 93.944071 83.005168 
L 93.944071 81.934726 
L 95.380595 81.934726 
L 96.098858 81.399504 
L 96.098858 80.864283 
L 96.81712 80.864283 
L 96.81712 80.329062 
L 97.535382 80.329062 
L 97.535382 79.793841 
L 98.253644 79.793841 
L 98.253644 78.188177 
L 98.971907 78.188177 
L 98.971907 77.117735 
L 100.408431 77.117735 
L 100.408431 74.441628 
L 101.126693 74.441628 
L 101.126693 72.300743 
L 102.563218 72.300743 
L 102.563218 71.765522 
L 104.718005 71.765522 
L 104.718005 70.69508 
L 106.872792 70.69508 
L 106.872792 70.159858 
L 107.591054 70.159858 
L 107.591054 69.624637 
L 109.745841 69.624637 
L 109.745841 68.018973 
L 111.182365 68.018973 
L 111.182365 66.948531 
L 114.055414 66.948531 
L 114.055414 66.41331 
L 116.210201 66.41331 
L 116.210201 65.878088 
L 116.928463 65.878088 
L 116.928463 64.807646 
L 121.238037 64.807646 
L 121.238037 64.272425 
L 122.674562 64.272425 
L 122.674562 63.737204 
L 123.392824 63.737204 
L 123.392824 62.666761 
L 129.138922 62.666761 
L 129.138922 62.13154 
L 131.293709 62.13154 
L 131.293709 61.596319 
L 132.730233 61.596319 
L 132.730233 60.525876 
L 135.603282 60.525876 
L 135.603282 59.990655 
L 141.349381 59.990655 
L 141.349381 58.920212 
L 143.504167 58.920212 
L 143.504167 58.384991 
L 149.968528 58.384991 
L 149.968528 57.84977 
L 161.460724 57.84977 
L 161.460724 57.314549 
L 162.897249 57.314549 
L 162.897249 56.779327 
L 165.052035 56.779327 
L 165.052035 56.244106 
L 166.48856 56.244106 
L 166.48856 55.173664 
L 175.825969 55.173664 
L 175.825969 54.638442 
L 181.572068 54.638442 
L 181.572068 54.103221 
L 183.008592 54.103221 
L 183.008592 53.568 
L 398.487273 53.568 
L 398.487273 53.568 
" style="fill:none;stroke:#ff0000;stroke-linecap:square;stroke-opacity:0.8;stroke-width:1.5;"/>
   </g>
   <g id="line2d_22">
    <path clip-path="url(#pec51c26d33)" d="M 73.832727 295.488 
L 73.832727 261.6192 
L 74.554182 261.6192 
L 74.554182 234.7392 
L 75.275636 234.7392 
L 75.275636 140.6592 
L 75.997091 140.6592 
L 75.997091 119.6928 
L 76.718545 119.6928 
L 76.718545 117.0048 
L 77.44 117.0048 
L 77.44 115.392 
L 78.161455 115.392 
L 78.161455 111.0912 
L 78.882909 111.0912 
L 78.882909 107.328 
L 79.604364 107.328 
L 79.604364 106.7904 
L 80.325818 106.7904 
L 80.325818 96.576 
L 81.047273 96.576 
L 81.047273 94.9632 
L 81.768727 94.9632 
L 81.768727 92.2752 
L 82.490182 92.2752 
L 82.490182 89.0496 
L 83.211636 89.0496 
L 83.211636 87.9744 
L 83.933091 87.9744 
L 83.933091 83.6736 
L 84.654545 83.6736 
L 84.654545 80.448 
L 86.818909 80.448 
L 86.818909 79.3728 
L 87.540364 79.3728 
L 87.540364 78.8352 
L 88.261818 78.8352 
L 88.261818 77.76 
L 88.983273 77.76 
L 88.983273 77.2224 
L 89.704727 77.2224 
L 89.704727 75.6096 
L 94.754909 75.6096 
L 94.754909 74.5344 
L 99.083636 74.5344 
L 99.083636 73.9968 
L 99.805091 73.9968 
L 99.805091 73.4592 
L 100.526545 73.4592 
L 100.526545 72.9216 
L 101.248 72.9216 
L 101.248 72.384 
L 101.969455 72.384 
L 101.969455 71.8464 
L 103.412364 71.8464 
L 103.412364 70.7712 
L 104.133818 70.7712 
L 104.133818 69.696 
L 107.741091 69.696 
L 107.741091 69.1584 
L 108.462545 69.1584 
L 108.462545 68.0832 
L 111.348364 68.0832 
L 111.348364 65.9328 
L 113.512727 65.9328 
L 113.512727 65.3952 
L 115.677091 65.3952 
L 115.677091 64.8576 
L 120.727273 64.8576 
L 120.727273 64.32 
L 126.498909 64.32 
L 126.498909 63.7824 
L 127.941818 63.7824 
L 127.941818 63.2448 
L 132.992 63.2448 
L 132.992 62.7072 
L 138.042182 62.7072 
L 138.042182 62.1696 
L 143.092364 62.1696 
L 143.092364 61.632 
L 147.421091 61.632 
L 147.421091 61.0944 
L 153.914182 61.0944 
L 153.914182 60.5568 
L 159.685818 60.5568 
L 159.685818 60.0192 
L 166.900364 60.0192 
L 166.900364 58.944 
L 169.064727 58.944 
L 169.064727 58.4064 
L 169.786182 58.4064 
L 169.786182 57.8688 
L 177.722182 57.8688 
L 177.722182 57.3312 
L 179.165091 57.3312 
L 179.165091 56.256 
L 184.936727 56.256 
L 184.936727 54.6432 
L 192.872727 54.6432 
L 192.872727 54.1056 
L 195.037091 54.1056 
L 195.037091 53.568 
L 398.487273 53.568 
L 398.487273 53.568 
" style="fill:none;stroke:#ff0000;stroke-linecap:square;stroke-opacity:0.8;stroke-width:1.5;"/>
   </g>
   <g id="line2d_23">
    <path clip-path="url(#pec51c26d33)" d="M 73.832727 295.488 
L 74.157707 262.985085 
L 74.482686 262.985085 
L 74.807666 237.385758 
L 75.132645 237.313109 
L 75.457625 202.663026 
L 75.782604 202.566161 
L 76.107584 185.09217 
L 76.432563 185.067954 
L 76.757543 172.353947 
L 77.407502 172.257083 
L 77.732482 158.957434 
L 78.057461 158.933218 
L 78.382441 147.988585 
L 78.70742 147.964369 
L 79.0324 140.955002 
L 79.357379 140.882354 
L 79.682359 134.402242 
L 80.007338 134.378026 
L 80.332318 122.63057 
L 80.982277 122.63057 
L 81.307256 119.525573 
L 81.632236 119.525573 
L 81.957215 114.38626 
L 82.282195 114.38626 
L 82.607174 108.05765 
L 82.932154 108.033433 
L 83.257133 104.857419 
L 83.582113 104.857419 
L 83.907093 102.982751 
L 84.232072 102.528455 
L 84.557052 102.504239 
L 84.882031 99.889014 
L 85.207011 99.840582 
L 85.53199 97.57508 
L 85.85697 97.57508 
L 86.181949 96.718726 
L 86.506929 96.718726 
L 86.831908 94.358026 
L 87.156888 94.33381 
L 87.481867 92.757613 
L 88.131826 92.703853 
L 88.456806 89.098107 
L 88.781785 89.073891 
L 89.106765 88.407172 
L 89.431744 88.382955 
L 89.756724 87.243169 
L 90.081704 87.243169 
L 90.406683 85.958638 
L 91.056642 85.958638 
L 91.381622 84.674107 
L 91.706601 84.674107 
L 92.031581 83.603664 
L 92.35656 83.603664 
L 92.68154 82.907877 
L 93.006519 82.907877 
L 93.331499 81.928727 
L 93.656478 81.880295 
L 93.981458 80.552903 
L 94.631417 80.552903 
L 94.956396 79.000286 
L 95.281376 79.000286 
L 95.606355 78.431419 
L 95.931335 78.382987 
L 96.256314 77.662233 
L 96.581294 77.662233 
L 96.906274 77.394622 
L 97.231253 77.394622 
L 97.556233 76.59179 
L 98.206192 76.59179 
L 98.531171 75.896003 
L 98.856151 75.896003 
L 99.18113 74.985889 
L 99.50611 74.985889 
L 99.831089 74.71804 
L 100.156069 74.71804 
L 100.481048 74.129297 
L 100.806028 74.075537 
L 101.131007 73.379749 
L 101.780966 73.325989 
L 102.105946 72.897575 
L 102.430925 72.897575 
L 102.755905 72.362353 
L 103.080885 72.362353 
L 103.405864 71.987698 
L 103.730844 71.880178 
L 104.055823 71.505524 
L 104.705782 71.398004 
L 105.030762 70.54165 
L 106.0057 70.445695 
L 106.33068 70.166995 
L 106.655659 70.166995 
L 106.980639 69.899384 
L 107.305618 69.899384 
L 107.630598 69.578251 
L 108.280557 69.524491 
L 108.605536 68.721184 
L 109.580475 68.614139 
L 109.905455 68.293007 
L 110.880393 68.185962 
L 111.205373 67.704263 
L 111.530352 67.489223 
L 112.505291 67.489223 
L 112.83027 67.221613 
L 113.15525 67.221613 
L 113.480229 66.739914 
L 113.805209 66.686154 
L 114.130188 66.418543 
L 114.455168 66.418543 
L 114.780147 66.150932 
L 115.430106 66.150932 
L 115.755086 65.829562 
L 116.730025 65.722518 
L 117.055004 65.508429 
L 117.379984 65.508429 
L 117.704963 65.187296 
L 118.354922 65.187296 
L 118.679902 64.973208 
L 119.65484 64.930615 
L 119.97982 64.652075 
L 120.954758 64.544793 
L 121.279738 64.277182 
L 121.929697 64.277182 
L 122.254676 63.95605 
L 122.579656 63.95605 
L 122.904636 63.741961 
L 123.229615 63.741961 
L 123.554595 63.581395 
L 123.879574 63.581395 
L 124.204554 63.313784 
L 124.529533 63.313784 
L 124.854513 63.099696 
L 125.504472 63.099696 
L 125.829451 62.939129 
L 126.47941 62.832085 
L 130.054185 62.34991 
L 131.029124 62.296388 
L 131.354103 62.082299 
L 132.654021 61.975255 
L 132.979001 61.707645 
L 134.928878 61.493318 
L 135.578837 61.493318 
L 135.903817 61.118663 
L 136.878755 61.065141 
L 137.203735 60.851053 
L 138.178673 60.797293 
L 138.503653 60.636726 
L 140.45353 60.529682 
L 141.103489 60.47616 
L 141.428468 60.101505 
L 142.728387 60.047983 
L 143.703325 59.833657 
L 144.028305 59.833657 
L 144.353284 59.67309 
L 145.653202 59.619568 
L 146.303161 59.512524 
L 149.552957 59.084109 
L 150.527895 58.977065 
L 150.852875 58.60241 
L 153.77769 58.495366 
L 155.402588 58.173995 
L 155.727568 58.013429 
L 157.027486 57.959907 
L 157.677445 57.852862 
L 164.177035 56.889226 
L 164.826994 56.889226 
L 165.151974 56.675138 
L 166.776871 56.568093 
L 167.75181 56.300007 
L 169.051728 56.192963 
L 169.376708 55.871592 
L 170.026667 55.817832 
L 171.001605 55.603744 
L 172.951482 55.550222 
L 173.926421 55.282611 
L 176.526257 55.175567 
L 180.426011 54.639632 
L 181.40095 54.58611 
L 182.050909 54.479065 
L 184.650745 54.372021 
L 185.300704 54.103697 
L 188.5505 53.996653 
L 189.525438 53.943131 
L 194.400131 53.835848 
L 196.350008 53.621522 
L 398.487273 53.568 
L 398.487273 53.568 
" style="fill:none;stroke:#000000;stroke-linecap:square;stroke-width:2;"/>
   </g>
   <g id="line2d_24">
    <path clip-path="url(#pec51c26d33)" d="M 73.832727 126.144 
L 73.832727 122.960842 
L 73.832727 119.777684 
L 73.832727 116.594526 
L 73.832727 113.411368 
L 73.832727 110.228211 
L 73.832727 107.045053 
L 73.832727 103.861895 
L 73.832727 100.678737 
L 73.832727 97.495579 
L 73.832727 94.312421 
L 73.832727 91.129263 
L 73.832727 87.946105 
L 73.832727 84.762947 
L 73.832727 81.579789 
L 73.832727 78.396632 
L 73.832727 75.213474 
L 73.832727 72.030316 
L 73.832727 68.847158 
L 73.832727 65.664 
" style="fill:none;stroke:#000000;stroke-dasharray:1,1.65;stroke-dashoffset:0;"/>
   </g>
   <g id="line2d_25">
    <path clip-path="url(#pec51c26d33)" d="M 73.832727 126.144 
L 78.104498 126.144 
L 82.376268 126.144 
L 86.648038 126.144 
L 90.919809 126.144 
L 95.191579 126.144 
L 99.463349 126.144 
L 103.73512 126.144 
L 108.00689 126.144 
L 112.27866 126.144 
L 116.550431 126.144 
L 120.822201 126.144 
L 125.093971 126.144 
L 129.365742 126.144 
L 133.637512 126.144 
L 137.909282 126.144 
L 142.181053 126.144 
L 146.452823 126.144 
L 150.724593 126.144 
L 154.996364 126.144 
" style="fill:none;stroke:#000000;stroke-dasharray:1,1.65;stroke-dashoffset:0;"/>
   </g>
   <g id="line2d_26">
    <path clip-path="url(#pec51c26d33)" d="M 154.996364 126.144 
L 154.996364 122.960842 
L 154.996364 119.777684 
L 154.996364 116.594526 
L 154.996364 113.411368 
L 154.996364 110.228211 
L 154.996364 107.045053 
L 154.996364 103.861895 
L 154.996364 100.678737 
L 154.996364 97.495579 
L 154.996364 94.312421 
L 154.996364 91.129263 
L 154.996364 87.946105 
L 154.996364 84.762947 
L 154.996364 81.579789 
L 154.996364 78.396632 
L 154.996364 75.213474 
L 154.996364 72.030316 
L 154.996364 68.847158 
L 154.996364 65.664 
" style="fill:none;stroke:#000000;stroke-dasharray:1,1.65;stroke-dashoffset:0;"/>
   </g>
   <g id="line2d_27">
    <path clip-path="url(#pec51c26d33)" d="M 73.832727 65.664 
L 78.104498 65.664 
L 82.376268 65.664 
L 86.648038 65.664 
L 90.919809 65.664 
L 95.191579 65.664 
L 99.463349 65.664 
L 103.73512 65.664 
L 108.00689 65.664 
L 112.27866 65.664 
L 116.550431 65.664 
L 120.822201 65.664 
L 125.093971 65.664 
L 129.365742 65.664 
L 133.637512 65.664 
L 137.909282 65.664 
L 142.181053 65.664 
L 146.452823 65.664 
L 150.724593 65.664 
L 154.996364 65.664 
" style="fill:none;stroke:#000000;stroke-dasharray:1,1.65;stroke-dashoffset:0;"/>
   </g>
   <g id="line2d_28">
    <path clip-path="url(#pec51c26d33)" d="M 236.16 295.488 
L 236.16 289.121684 
L 236.16 282.755368 
L 236.16 276.389053 
L 236.16 270.022737 
L 236.16 263.656421 
L 236.16 257.290105 
L 236.16 250.923789 
L 236.16 244.557474 
L 236.16 238.191158 
L 236.16 231.824842 
L 236.16 225.458526 
L 236.16 219.092211 
L 236.16 212.725895 
L 236.16 206.359579 
L 236.16 199.993263 
L 236.16 193.626947 
L 236.16 187.260632 
L 236.16 180.894316 
L 236.16 174.528 
" style="fill:none;stroke:#000000;stroke-dasharray:1,1.65;stroke-dashoffset:0;"/>
   </g>
   <g id="line2d_29">
    <path clip-path="url(#pec51c26d33)" d="M 236.16 295.488 
L 240.43177 295.488 
L 244.703541 295.488 
L 248.975311 295.488 
L 253.247081 295.488 
L 257.518852 295.488 
L 261.790622 295.488 
L 266.062392 295.488 
L 270.334163 295.488 
L 274.605933 295.488 
L 278.877703 295.488 
L 283.149474 295.488 
L 287.421244 295.488 
L 291.693014 295.488 
L 295.964785 295.488 
L 300.236555 295.488 
L 304.508325 295.488 
L 308.780096 295.488 
L 313.051866 295.488 
L 317.323636 295.488 
" style="fill:none;stroke:#000000;stroke-dasharray:1,1.65;stroke-dashoffset:0;"/>
   </g>
   <g id="line2d_30">
    <path clip-path="url(#pec51c26d33)" d="M 317.323636 295.488 
L 317.323636 289.121684 
L 317.323636 282.755368 
L 317.323636 276.389053 
L 317.323636 270.022737 
L 317.323636 263.656421 
L 317.323636 257.290105 
L 317.323636 250.923789 
L 317.323636 244.557474 
L 317.323636 238.191158 
L 317.323636 231.824842 
L 317.323636 225.458526 
L 317.323636 219.092211 
L 317.323636 212.725895 
L 317.323636 206.359579 
L 317.323636 199.993263 
L 317.323636 193.626947 
L 317.323636 187.260632 
L 317.323636 180.894316 
L 317.323636 174.528 
" style="fill:none;stroke:#000000;stroke-dasharray:1,1.65;stroke-dashoffset:0;"/>
   </g>
   <g id="line2d_31">
    <path clip-path="url(#pec51c26d33)" d="M 236.16 174.528 
L 240.43177 174.528 
L 244.703541 174.528 
L 248.975311 174.528 
L 253.247081 174.528 
L 257.518852 174.528 
L 261.790622 174.528 
L 266.062392 174.528 
L 270.334163 174.528 
L 274.605933 174.528 
L 278.877703 174.528 
L 283.149474 174.528 
L 287.421244 174.528 
L 291.693014 174.528 
L 295.964785 174.528 
L 300.236555 174.528 
L 304.508325 174.528 
L 308.780096 174.528 
L 313.051866 174.528 
L 317.323636 174.528 
" style="fill:none;stroke:#000000;stroke-dasharray:1,1.65;stroke-dashoffset:0;"/>
   </g>
   <g id="line2d_32">
    <path clip-path="url(#pec51c26d33)" d="M 154.996364 126.144 
L 159.268134 128.690526 
L 163.539904 131.237053 
L 167.811675 133.783579 
L 172.083445 136.330105 
L 176.355215 138.876632 
L 180.626986 141.423158 
L 184.898756 143.969684 
L 189.170526 146.516211 
L 193.442297 149.062737 
L 197.714067 151.609263 
L 201.985837 154.155789 
L 206.257608 156.702316 
L 210.529378 159.248842 
L 214.801148 161.795368 
L 219.072919 164.341895 
L 223.344689 166.888421 
L 227.616459 169.434947 
L 231.88823 171.981474 
L 236.16 174.528 
" style="fill:none;stroke:#000000;stroke-dasharray:1,1.65;stroke-dashoffset:0;"/>
   </g>
   <g id="line2d_33">
    <path clip-path="url(#pec51c26d33)" d="M 249.159181 288.46114 
L 249.80914 288.46114 
L 250.459099 288.46114 
L 251.109058 282.251146 
L 251.759017 282.251146 
L 252.408976 271.97252 
L 253.058935 271.97252 
L 253.708894 259.315299 
L 254.358853 259.266867 
L 255.008812 252.914838 
L 255.658771 252.914838 
L 256.308731 249.165503 
L 256.95869 248.25691 
L 257.608649 248.208478 
L 258.258608 242.978028 
L 258.908567 242.881163 
L 259.558526 238.350159 
L 260.208485 238.350159 
L 260.858444 236.637451 
L 261.508403 236.637451 
L 262.158362 231.916052 
L 262.808321 231.86762 
L 263.45828 228.715225 
L 264.108239 228.607705 
L 264.758198 228.607705 
L 265.408157 221.396215 
L 266.058116 221.347782 
L 266.708075 220.014343 
L 267.358034 219.965911 
L 268.007993 217.686338 
L 268.657952 217.686338 
L 269.307912 215.117276 
L 269.957871 215.117276 
L 270.60783 215.117276 
L 271.257789 212.548214 
L 271.907748 212.548214 
L 272.557707 210.407329 
L 273.207666 210.407329 
L 273.857625 209.015754 
L 274.507584 209.015754 
L 275.157543 207.057455 
L 275.807502 206.96059 
L 276.457461 204.305807 
L 277.10742 204.305807 
L 277.757379 204.305807 
L 278.407338 201.200572 
L 279.057297 201.200572 
L 279.707256 200.062838 
L 280.357215 199.965974 
L 281.007174 198.524466 
L 281.657133 198.524466 
L 282.307093 197.989245 
L 282.957052 197.989245 
L 283.607011 196.383581 
L 284.25697 196.383581 
L 284.906929 196.383581 
L 285.556888 194.992006 
L 286.206847 194.992006 
L 286.856806 193.171778 
L 287.506765 193.171778 
L 288.156724 192.636081 
L 288.806683 192.636081 
L 289.456642 191.458594 
L 290.106601 191.351074 
L 290.75656 189.959499 
L 291.406519 189.851979 
L 292.056478 189.851979 
L 292.706437 188.995149 
L 293.356396 188.995149 
L 294.006355 187.924707 
L 294.656314 187.924707 
L 295.306274 187.175397 
L 295.956233 186.960357 
L 296.606192 186.211047 
L 297.256151 185.996007 
L 297.90611 185.996007 
L 298.556069 184.283299 
L 299.206028 184.283299 
L 299.855987 184.139823 
L 300.505946 184.091391 
L 301.155905 183.533989 
L 301.805864 183.533989 
L 302.455823 182.998768 
L 303.105782 182.998768 
L 303.755741 182.356503 
L 304.4057 182.248983 
L 305.055659 182.248983 
L 305.705618 180.642367 
L 306.355577 180.642367 
L 307.005536 180.428279 
L 307.655495 180.428279 
L 308.305455 179.786013 
L 308.955414 179.786013 
L 309.605373 179.571925 
L 310.255332 179.571925 
L 310.905291 178.608527 
L 311.55525 178.178447 
L 312.205209 178.178447 
L 312.855168 178.178447 
L 313.505127 178.178447 
L 314.155086 177.643225 
L 314.805045 177.643225 
L 315.455004 176.679827 
L 316.104963 176.572307 
L 316.754922 176.037086 
L 317.404881 176.037086 
L 318.05484 175.501865 
L 318.704799 175.501865 
L 319.354758 175.501865 
L 320.004717 174.859124 
L 320.654676 174.859124 
L 321.304636 174.645035 
L 321.954595 174.645035 
" style="fill:none;stroke:#000000;stroke-linecap:square;stroke-width:2;"/>
   </g>
   <g id="patch_3">
    <path d="M 57.6 307.584 
L 57.6 41.472 
" style="fill:none;stroke:#000000;stroke-linecap:square;stroke-linejoin:miter;stroke-width:0.8;"/>
   </g>
   <g id="patch_4">
    <path d="M 414.72 307.584 
L 414.72 41.472 
" style="fill:none;stroke:#000000;stroke-linecap:square;stroke-linejoin:miter;stroke-width:0.8;"/>
   </g>
   <g id="patch_5">
    <path d="M 57.6 307.584 
L 414.72 307.584 
" style="fill:none;stroke:#000000;stroke-linecap:square;stroke-linejoin:miter;stroke-width:0.8;"/>
   </g>
   <g id="patch_6">
    <path d="M 57.6 41.472 
L 414.72 41.472 
" style="fill:none;stroke:#000000;stroke-linecap:square;stroke-linejoin:miter;stroke-width:0.8;"/>
   </g>
   <g id="legend_1">
    <g id="patch_7">
     <path d="M 265.56375 256.757687 
L 407.72 256.757687 
Q 409.72 256.757687 409.72 254.757687 
L 409.72 94.298313 
Q 409.72 92.298313 407.72 92.298313 
L 265.56375 92.298313 
Q 263.56375 92.298313 263.56375 94.298313 
L 263.56375 254.757687 
Q 263.56375 256.757687 265.56375 256.757687 
z
" style="fill:#ffffff;opacity:0.8;stroke:#cccccc;stroke-linejoin:miter;"/>
    </g>
    <g id="line2d_34">
     <path d="M 267.56375 100.39675 
L 287.56375 100.39675 
" style="fill:none;stroke:#ff0000;stroke-linecap:square;stroke-opacity:0.8;stroke-width:1.5;"/>
    </g>
    <g id="line2d_35"/>
    <g id="text_15">
     <!-- fold 0 (AUC = 0.9674) -->
     <defs>
      <path d="M 37.109375 75.984375 
L 37.109375 68.5 
L 28.515625 68.5 
Q 23.6875 68.5 21.796875 66.546875 
Q 19.921875 64.59375 19.921875 59.515625 
L 19.921875 54.6875 
L 34.71875 54.6875 
L 34.71875 47.703125 
L 19.921875 47.703125 
L 19.921875 0 
L 10.890625 0 
L 10.890625 47.703125 
L 2.296875 47.703125 
L 2.296875 54.6875 
L 10.890625 54.6875 
L 10.890625 58.5 
Q 10.890625 67.625 15.140625 71.796875 
Q 19.390625 75.984375 28.609375 75.984375 
z
" id="DejaVuSans-102"/>
      <path d="M 45.40625 46.390625 
L 45.40625 75.984375 
L 54.390625 75.984375 
L 54.390625 0 
L 45.40625 0 
L 45.40625 8.203125 
Q 42.578125 3.328125 38.25 0.953125 
Q 33.9375 -1.421875 27.875 -1.421875 
Q 17.96875 -1.421875 11.734375 6.484375 
Q 5.515625 14.40625 5.515625 27.296875 
Q 5.515625 40.1875 11.734375 48.09375 
Q 17.96875 56 27.875 56 
Q 33.9375 56 38.25 53.625 
Q 42.578125 51.265625 45.40625 46.390625 
z
M 14.796875 27.296875 
Q 14.796875 17.390625 18.875 11.75 
Q 22.953125 6.109375 30.078125 6.109375 
Q 37.203125 6.109375 41.296875 11.75 
Q 45.40625 17.390625 45.40625 27.296875 
Q 45.40625 37.203125 41.296875 42.84375 
Q 37.203125 48.484375 30.078125 48.484375 
Q 22.953125 48.484375 18.875 42.84375 
Q 14.796875 37.203125 14.796875 27.296875 
z
" id="DejaVuSans-100"/>
      <path d="M 31 75.875 
Q 24.46875 64.65625 21.28125 53.65625 
Q 18.109375 42.671875 18.109375 31.390625 
Q 18.109375 20.125 21.3125 9.0625 
Q 24.515625 -2 31 -13.1875 
L 23.1875 -13.1875 
Q 15.875 -1.703125 12.234375 9.375 
Q 8.59375 20.453125 8.59375 31.390625 
Q 8.59375 42.28125 12.203125 53.3125 
Q 15.828125 64.359375 23.1875 75.875 
z
" id="DejaVuSans-40"/>
      <path d="M 34.1875 63.1875 
L 20.796875 26.90625 
L 47.609375 26.90625 
z
M 28.609375 72.90625 
L 39.796875 72.90625 
L 67.578125 0 
L 57.328125 0 
L 50.6875 18.703125 
L 17.828125 18.703125 
L 11.1875 0 
L 0.78125 0 
z
" id="DejaVuSans-65"/>
      <path d="M 8.6875 72.90625 
L 18.609375 72.90625 
L 18.609375 28.609375 
Q 18.609375 16.890625 22.84375 11.734375 
Q 27.09375 6.59375 36.625 6.59375 
Q 46.09375 6.59375 50.34375 11.734375 
Q 54.59375 16.890625 54.59375 28.609375 
L 54.59375 72.90625 
L 64.5 72.90625 
L 64.5 27.390625 
Q 64.5 13.140625 57.4375 5.859375 
Q 50.390625 -1.421875 36.625 -1.421875 
Q 22.796875 -1.421875 15.734375 5.859375 
Q 8.6875 13.140625 8.6875 27.390625 
z
" id="DejaVuSans-85"/>
      <path d="M 64.40625 67.28125 
L 64.40625 56.890625 
Q 59.421875 61.53125 53.78125 63.8125 
Q 48.140625 66.109375 41.796875 66.109375 
Q 29.296875 66.109375 22.65625 58.46875 
Q 16.015625 50.828125 16.015625 36.375 
Q 16.015625 21.96875 22.65625 14.328125 
Q 29.296875 6.6875 41.796875 6.6875 
Q 48.140625 6.6875 53.78125 8.984375 
Q 59.421875 11.28125 64.40625 15.921875 
L 64.40625 5.609375 
Q 59.234375 2.09375 53.4375 0.328125 
Q 47.65625 -1.421875 41.21875 -1.421875 
Q 24.65625 -1.421875 15.125 8.703125 
Q 5.609375 18.84375 5.609375 36.375 
Q 5.609375 53.953125 15.125 64.078125 
Q 24.65625 74.21875 41.21875 74.21875 
Q 47.75 74.21875 53.53125 72.484375 
Q 59.328125 70.75 64.40625 67.28125 
z
" id="DejaVuSans-67"/>
      <path d="M 10.59375 45.40625 
L 73.1875 45.40625 
L 73.1875 37.203125 
L 10.59375 37.203125 
z
M 10.59375 25.484375 
L 73.1875 25.484375 
L 73.1875 17.1875 
L 10.59375 17.1875 
z
" id="DejaVuSans-61"/>
      <path d="M 10.984375 1.515625 
L 10.984375 10.5 
Q 14.703125 8.734375 18.5 7.8125 
Q 22.3125 6.890625 25.984375 6.890625 
Q 35.75 6.890625 40.890625 13.453125 
Q 46.046875 20.015625 46.78125 33.40625 
Q 43.953125 29.203125 39.59375 26.953125 
Q 35.25 24.703125 29.984375 24.703125 
Q 19.046875 24.703125 12.671875 31.3125 
Q 6.296875 37.9375 6.296875 49.421875 
Q 6.296875 60.640625 12.9375 67.421875 
Q 19.578125 74.21875 30.609375 74.21875 
Q 43.265625 74.21875 49.921875 64.515625 
Q 56.59375 54.828125 56.59375 36.375 
Q 56.59375 19.140625 48.40625 8.859375 
Q 40.234375 -1.421875 26.421875 -1.421875 
Q 22.703125 -1.421875 18.890625 -0.6875 
Q 15.09375 0.046875 10.984375 1.515625 
z
M 30.609375 32.421875 
Q 37.25 32.421875 41.125 36.953125 
Q 45.015625 41.5 45.015625 49.421875 
Q 45.015625 57.28125 41.125 61.84375 
Q 37.25 66.40625 30.609375 66.40625 
Q 23.96875 66.40625 20.09375 61.84375 
Q 16.21875 57.28125 16.21875 49.421875 
Q 16.21875 41.5 20.09375 36.953125 
Q 23.96875 32.421875 30.609375 32.421875 
z
" id="DejaVuSans-57"/>
      <path d="M 8.203125 72.90625 
L 55.078125 72.90625 
L 55.078125 68.703125 
L 28.609375 0 
L 18.3125 0 
L 43.21875 64.59375 
L 8.203125 64.59375 
z
" id="DejaVuSans-55"/>
      <path d="M 8.015625 75.875 
L 15.828125 75.875 
Q 23.140625 64.359375 26.78125 53.3125 
Q 30.421875 42.28125 30.421875 31.390625 
Q 30.421875 20.453125 26.78125 9.375 
Q 23.140625 -1.703125 15.828125 -13.1875 
L 8.015625 -13.1875 
Q 14.5 -2 17.703125 9.0625 
Q 20.90625 20.125 20.90625 31.390625 
Q 20.90625 42.671875 17.703125 53.65625 
Q 14.5 64.65625 8.015625 75.875 
z
" id="DejaVuSans-41"/>
     </defs>
     <g transform="translate(295.56375 103.89675)scale(0.1 -0.1)">
      <use xlink:href="#DejaVuSans-102"/>
      <use x="35.205078" xlink:href="#DejaVuSans-111"/>
      <use x="96.386719" xlink:href="#DejaVuSans-108"/>
      <use x="124.169922" xlink:href="#DejaVuSans-100"/>
      <use x="187.646484" xlink:href="#DejaVuSans-32"/>
      <use x="219.433594" xlink:href="#DejaVuSans-48"/>
      <use x="283.056641" xlink:href="#DejaVuSans-32"/>
      <use x="314.84375" xlink:href="#DejaVuSans-40"/>
      <use x="353.857422" xlink:href="#DejaVuSans-65"/>
      <use x="422.265625" xlink:href="#DejaVuSans-85"/>
      <use x="495.458984" xlink:href="#DejaVuSans-67"/>
      <use x="565.283203" xlink:href="#DejaVuSans-32"/>
      <use x="597.070312" xlink:href="#DejaVuSans-61"/>
      <use x="680.859375" xlink:href="#DejaVuSans-32"/>
      <use x="712.646484" xlink:href="#DejaVuSans-48"/>
      <use x="776.269531" xlink:href="#DejaVuSans-46"/>
      <use x="808.056641" xlink:href="#DejaVuSans-57"/>
      <use x="871.679688" xlink:href="#DejaVuSans-54"/>
      <use x="935.302734" xlink:href="#DejaVuSans-55"/>
      <use x="998.925781" xlink:href="#DejaVuSans-52"/>
      <use x="1062.548828" xlink:href="#DejaVuSans-41"/>
     </g>
    </g>
    <g id="line2d_36">
     <path d="M 267.56375 115.074875 
L 287.56375 115.074875 
" style="fill:none;stroke:#ff0000;stroke-linecap:square;stroke-opacity:0.8;stroke-width:1.5;"/>
    </g>
    <g id="line2d_37"/>
    <g id="text_16">
     <!-- fold 1 (AUC = 0.9813) -->
     <defs>
      <path d="M 40.578125 39.3125 
Q 47.65625 37.796875 51.625 33 
Q 55.609375 28.21875 55.609375 21.1875 
Q 55.609375 10.40625 48.1875 4.484375 
Q 40.765625 -1.421875 27.09375 -1.421875 
Q 22.515625 -1.421875 17.65625 -0.515625 
Q 12.796875 0.390625 7.625 2.203125 
L 7.625 11.71875 
Q 11.71875 9.328125 16.59375 8.109375 
Q 21.484375 6.890625 26.8125 6.890625 
Q 36.078125 6.890625 40.9375 10.546875 
Q 45.796875 14.203125 45.796875 21.1875 
Q 45.796875 27.640625 41.28125 31.265625 
Q 36.765625 34.90625 28.71875 34.90625 
L 20.21875 34.90625 
L 20.21875 43.015625 
L 29.109375 43.015625 
Q 36.375 43.015625 40.234375 45.921875 
Q 44.09375 48.828125 44.09375 54.296875 
Q 44.09375 59.90625 40.109375 62.90625 
Q 36.140625 65.921875 28.71875 65.921875 
Q 24.65625 65.921875 20.015625 65.03125 
Q 15.375 64.15625 9.8125 62.3125 
L 9.8125 71.09375 
Q 15.4375 72.65625 20.34375 73.4375 
Q 25.25 74.21875 29.59375 74.21875 
Q 40.828125 74.21875 47.359375 69.109375 
Q 53.90625 64.015625 53.90625 55.328125 
Q 53.90625 49.265625 50.4375 45.09375 
Q 46.96875 40.921875 40.578125 39.3125 
z
" id="DejaVuSans-51"/>
     </defs>
     <g transform="translate(295.56375 118.574875)scale(0.1 -0.1)">
      <use xlink:href="#DejaVuSans-102"/>
      <use x="35.205078" xlink:href="#DejaVuSans-111"/>
      <use x="96.386719" xlink:href="#DejaVuSans-108"/>
      <use x="124.169922" xlink:href="#DejaVuSans-100"/>
      <use x="187.646484" xlink:href="#DejaVuSans-32"/>
      <use x="219.433594" xlink:href="#DejaVuSans-49"/>
      <use x="283.056641" xlink:href="#DejaVuSans-32"/>
      <use x="314.84375" xlink:href="#DejaVuSans-40"/>
      <use x="353.857422" xlink:href="#DejaVuSans-65"/>
      <use x="422.265625" xlink:href="#DejaVuSans-85"/>
      <use x="495.458984" xlink:href="#DejaVuSans-67"/>
      <use x="565.283203" xlink:href="#DejaVuSans-32"/>
      <use x="597.070312" xlink:href="#DejaVuSans-61"/>
      <use x="680.859375" xlink:href="#DejaVuSans-32"/>
      <use x="712.646484" xlink:href="#DejaVuSans-48"/>
      <use x="776.269531" xlink:href="#DejaVuSans-46"/>
      <use x="808.056641" xlink:href="#DejaVuSans-57"/>
      <use x="871.679688" xlink:href="#DejaVuSans-56"/>
      <use x="935.302734" xlink:href="#DejaVuSans-49"/>
      <use x="998.925781" xlink:href="#DejaVuSans-51"/>
      <use x="1062.548828" xlink:href="#DejaVuSans-41"/>
     </g>
    </g>
    <g id="line2d_38">
     <path d="M 267.56375 129.753 
L 287.56375 129.753 
" style="fill:none;stroke:#ff0000;stroke-linecap:square;stroke-opacity:0.8;stroke-width:1.5;"/>
    </g>
    <g id="line2d_39"/>
    <g id="text_17">
     <!-- fold 2 (AUC = 0.9703) -->
     <g transform="translate(295.56375 133.253)scale(0.1 -0.1)">
      <use xlink:href="#DejaVuSans-102"/>
      <use x="35.205078" xlink:href="#DejaVuSans-111"/>
      <use x="96.386719" xlink:href="#DejaVuSans-108"/>
      <use x="124.169922" xlink:href="#DejaVuSans-100"/>
      <use x="187.646484" xlink:href="#DejaVuSans-32"/>
      <use x="219.433594" xlink:href="#DejaVuSans-50"/>
      <use x="283.056641" xlink:href="#DejaVuSans-32"/>
      <use x="314.84375" xlink:href="#DejaVuSans-40"/>
      <use x="353.857422" xlink:href="#DejaVuSans-65"/>
      <use x="422.265625" xlink:href="#DejaVuSans-85"/>
      <use x="495.458984" xlink:href="#DejaVuSans-67"/>
      <use x="565.283203" xlink:href="#DejaVuSans-32"/>
      <use x="597.070312" xlink:href="#DejaVuSans-61"/>
      <use x="680.859375" xlink:href="#DejaVuSans-32"/>
      <use x="712.646484" xlink:href="#DejaVuSans-48"/>
      <use x="776.269531" xlink:href="#DejaVuSans-46"/>
      <use x="808.056641" xlink:href="#DejaVuSans-57"/>
      <use x="871.679688" xlink:href="#DejaVuSans-55"/>
      <use x="935.302734" xlink:href="#DejaVuSans-48"/>
      <use x="998.925781" xlink:href="#DejaVuSans-51"/>
      <use x="1062.548828" xlink:href="#DejaVuSans-41"/>
     </g>
    </g>
    <g id="line2d_40">
     <path d="M 267.56375 144.431125 
L 287.56375 144.431125 
" style="fill:none;stroke:#ff0000;stroke-linecap:square;stroke-opacity:0.8;stroke-width:1.5;"/>
    </g>
    <g id="line2d_41"/>
    <g id="text_18">
     <!-- fold 3 (AUC = 0.9766) -->
     <g transform="translate(295.56375 147.931125)scale(0.1 -0.1)">
      <use xlink:href="#DejaVuSans-102"/>
      <use x="35.205078" xlink:href="#DejaVuSans-111"/>
      <use x="96.386719" xlink:href="#DejaVuSans-108"/>
      <use x="124.169922" xlink:href="#DejaVuSans-100"/>
      <use x="187.646484" xlink:href="#DejaVuSans-32"/>
      <use x="219.433594" xlink:href="#DejaVuSans-51"/>
      <use x="283.056641" xlink:href="#DejaVuSans-32"/>
      <use x="314.84375" xlink:href="#DejaVuSans-40"/>
      <use x="353.857422" xlink:href="#DejaVuSans-65"/>
      <use x="422.265625" xlink:href="#DejaVuSans-85"/>
      <use x="495.458984" xlink:href="#DejaVuSans-67"/>
      <use x="565.283203" xlink:href="#DejaVuSans-32"/>
      <use x="597.070312" xlink:href="#DejaVuSans-61"/>
      <use x="680.859375" xlink:href="#DejaVuSans-32"/>
      <use x="712.646484" xlink:href="#DejaVuSans-48"/>
      <use x="776.269531" xlink:href="#DejaVuSans-46"/>
      <use x="808.056641" xlink:href="#DejaVuSans-57"/>
      <use x="871.679688" xlink:href="#DejaVuSans-55"/>
      <use x="935.302734" xlink:href="#DejaVuSans-54"/>
      <use x="998.925781" xlink:href="#DejaVuSans-54"/>
      <use x="1062.548828" xlink:href="#DejaVuSans-41"/>
     </g>
    </g>
    <g id="line2d_42">
     <path d="M 267.56375 159.10925 
L 287.56375 159.10925 
" style="fill:none;stroke:#ff0000;stroke-linecap:square;stroke-opacity:0.8;stroke-width:1.5;"/>
    </g>
    <g id="line2d_43"/>
    <g id="text_19">
     <!-- fold 4 (AUC = 0.9590) -->
     <defs>
      <path d="M 10.796875 72.90625 
L 49.515625 72.90625 
L 49.515625 64.59375 
L 19.828125 64.59375 
L 19.828125 46.734375 
Q 21.96875 47.46875 24.109375 47.828125 
Q 26.265625 48.1875 28.421875 48.1875 
Q 40.625 48.1875 47.75 41.5 
Q 54.890625 34.8125 54.890625 23.390625 
Q 54.890625 11.625 47.5625 5.09375 
Q 40.234375 -1.421875 26.90625 -1.421875 
Q 22.3125 -1.421875 17.546875 -0.640625 
Q 12.796875 0.140625 7.71875 1.703125 
L 7.71875 11.625 
Q 12.109375 9.234375 16.796875 8.0625 
Q 21.484375 6.890625 26.703125 6.890625 
Q 35.15625 6.890625 40.078125 11.328125 
Q 45.015625 15.765625 45.015625 23.390625 
Q 45.015625 31 40.078125 35.4375 
Q 35.15625 39.890625 26.703125 39.890625 
Q 22.75 39.890625 18.8125 39.015625 
Q 14.890625 38.140625 10.796875 36.28125 
z
" id="DejaVuSans-53"/>
     </defs>
     <g transform="translate(295.56375 162.60925)scale(0.1 -0.1)">
      <use xlink:href="#DejaVuSans-102"/>
      <use x="35.205078" xlink:href="#DejaVuSans-111"/>
      <use x="96.386719" xlink:href="#DejaVuSans-108"/>
      <use x="124.169922" xlink:href="#DejaVuSans-100"/>
      <use x="187.646484" xlink:href="#DejaVuSans-32"/>
      <use x="219.433594" xlink:href="#DejaVuSans-52"/>
      <use x="283.056641" xlink:href="#DejaVuSans-32"/>
      <use x="314.84375" xlink:href="#DejaVuSans-40"/>
      <use x="353.857422" xlink:href="#DejaVuSans-65"/>
      <use x="422.265625" xlink:href="#DejaVuSans-85"/>
      <use x="495.458984" xlink:href="#DejaVuSans-67"/>
      <use x="565.283203" xlink:href="#DejaVuSans-32"/>
      <use x="597.070312" xlink:href="#DejaVuSans-61"/>
      <use x="680.859375" xlink:href="#DejaVuSans-32"/>
      <use x="712.646484" xlink:href="#DejaVuSans-48"/>
      <use x="776.269531" xlink:href="#DejaVuSans-46"/>
      <use x="808.056641" xlink:href="#DejaVuSans-57"/>
      <use x="871.679688" xlink:href="#DejaVuSans-53"/>
      <use x="935.302734" xlink:href="#DejaVuSans-57"/>
      <use x="998.925781" xlink:href="#DejaVuSans-48"/>
      <use x="1062.548828" xlink:href="#DejaVuSans-41"/>
     </g>
    </g>
    <g id="line2d_44">
     <path d="M 267.56375 173.787375 
L 287.56375 173.787375 
" style="fill:none;stroke:#ff0000;stroke-linecap:square;stroke-opacity:0.8;stroke-width:1.5;"/>
    </g>
    <g id="line2d_45"/>
    <g id="text_20">
     <!-- fold 5 (AUC = 0.9714) -->
     <g transform="translate(295.56375 177.287375)scale(0.1 -0.1)">
      <use xlink:href="#DejaVuSans-102"/>
      <use x="35.205078" xlink:href="#DejaVuSans-111"/>
      <use x="96.386719" xlink:href="#DejaVuSans-108"/>
      <use x="124.169922" xlink:href="#DejaVuSans-100"/>
      <use x="187.646484" xlink:href="#DejaVuSans-32"/>
      <use x="219.433594" xlink:href="#DejaVuSans-53"/>
      <use x="283.056641" xlink:href="#DejaVuSans-32"/>
      <use x="314.84375" xlink:href="#DejaVuSans-40"/>
      <use x="353.857422" xlink:href="#DejaVuSans-65"/>
      <use x="422.265625" xlink:href="#DejaVuSans-85"/>
      <use x="495.458984" xlink:href="#DejaVuSans-67"/>
      <use x="565.283203" xlink:href="#DejaVuSans-32"/>
      <use x="597.070312" xlink:href="#DejaVuSans-61"/>
      <use x="680.859375" xlink:href="#DejaVuSans-32"/>
      <use x="712.646484" xlink:href="#DejaVuSans-48"/>
      <use x="776.269531" xlink:href="#DejaVuSans-46"/>
      <use x="808.056641" xlink:href="#DejaVuSans-57"/>
      <use x="871.679688" xlink:href="#DejaVuSans-55"/>
      <use x="935.302734" xlink:href="#DejaVuSans-49"/>
      <use x="998.925781" xlink:href="#DejaVuSans-52"/>
      <use x="1062.548828" xlink:href="#DejaVuSans-41"/>
     </g>
    </g>
    <g id="line2d_46">
     <path d="M 267.56375 188.4655 
L 287.56375 188.4655 
" style="fill:none;stroke:#ff0000;stroke-linecap:square;stroke-opacity:0.8;stroke-width:1.5;"/>
    </g>
    <g id="line2d_47"/>
    <g id="text_21">
     <!-- fold 6 (AUC = 0.9746) -->
     <g transform="translate(295.56375 191.9655)scale(0.1 -0.1)">
      <use xlink:href="#DejaVuSans-102"/>
      <use x="35.205078" xlink:href="#DejaVuSans-111"/>
      <use x="96.386719" xlink:href="#DejaVuSans-108"/>
      <use x="124.169922" xlink:href="#DejaVuSans-100"/>
      <use x="187.646484" xlink:href="#DejaVuSans-32"/>
      <use x="219.433594" xlink:href="#DejaVuSans-54"/>
      <use x="283.056641" xlink:href="#DejaVuSans-32"/>
      <use x="314.84375" xlink:href="#DejaVuSans-40"/>
      <use x="353.857422" xlink:href="#DejaVuSans-65"/>
      <use x="422.265625" xlink:href="#DejaVuSans-85"/>
      <use x="495.458984" xlink:href="#DejaVuSans-67"/>
      <use x="565.283203" xlink:href="#DejaVuSans-32"/>
      <use x="597.070312" xlink:href="#DejaVuSans-61"/>
      <use x="680.859375" xlink:href="#DejaVuSans-32"/>
      <use x="712.646484" xlink:href="#DejaVuSans-48"/>
      <use x="776.269531" xlink:href="#DejaVuSans-46"/>
      <use x="808.056641" xlink:href="#DejaVuSans-57"/>
      <use x="871.679688" xlink:href="#DejaVuSans-55"/>
      <use x="935.302734" xlink:href="#DejaVuSans-52"/>
      <use x="998.925781" xlink:href="#DejaVuSans-54"/>
      <use x="1062.548828" xlink:href="#DejaVuSans-41"/>
     </g>
    </g>
    <g id="line2d_48">
     <path d="M 267.56375 203.143625 
L 287.56375 203.143625 
" style="fill:none;stroke:#ff0000;stroke-linecap:square;stroke-opacity:0.8;stroke-width:1.5;"/>
    </g>
    <g id="line2d_49"/>
    <g id="text_22">
     <!-- fold 7 (AUC = 0.9717) -->
     <g transform="translate(295.56375 206.643625)scale(0.1 -0.1)">
      <use xlink:href="#DejaVuSans-102"/>
      <use x="35.205078" xlink:href="#DejaVuSans-111"/>
      <use x="96.386719" xlink:href="#DejaVuSans-108"/>
      <use x="124.169922" xlink:href="#DejaVuSans-100"/>
      <use x="187.646484" xlink:href="#DejaVuSans-32"/>
      <use x="219.433594" xlink:href="#DejaVuSans-55"/>
      <use x="283.056641" xlink:href="#DejaVuSans-32"/>
      <use x="314.84375" xlink:href="#DejaVuSans-40"/>
      <use x="353.857422" xlink:href="#DejaVuSans-65"/>
      <use x="422.265625" xlink:href="#DejaVuSans-85"/>
      <use x="495.458984" xlink:href="#DejaVuSans-67"/>
      <use x="565.283203" xlink:href="#DejaVuSans-32"/>
      <use x="597.070312" xlink:href="#DejaVuSans-61"/>
      <use x="680.859375" xlink:href="#DejaVuSans-32"/>
      <use x="712.646484" xlink:href="#DejaVuSans-48"/>
      <use x="776.269531" xlink:href="#DejaVuSans-46"/>
      <use x="808.056641" xlink:href="#DejaVuSans-57"/>
      <use x="871.679688" xlink:href="#DejaVuSans-55"/>
      <use x="935.302734" xlink:href="#DejaVuSans-49"/>
      <use x="998.925781" xlink:href="#DejaVuSans-55"/>
      <use x="1062.548828" xlink:href="#DejaVuSans-41"/>
     </g>
    </g>
    <g id="line2d_50">
     <path d="M 267.56375 217.82175 
L 287.56375 217.82175 
" style="fill:none;stroke:#ff0000;stroke-linecap:square;stroke-opacity:0.8;stroke-width:1.5;"/>
    </g>
    <g id="line2d_51"/>
    <g id="text_23">
     <!-- fold 8 (AUC = 0.9699) -->
     <g transform="translate(295.56375 221.32175)scale(0.1 -0.1)">
      <use xlink:href="#DejaVuSans-102"/>
      <use x="35.205078" xlink:href="#DejaVuSans-111"/>
      <use x="96.386719" xlink:href="#DejaVuSans-108"/>
      <use x="124.169922" xlink:href="#DejaVuSans-100"/>
      <use x="187.646484" xlink:href="#DejaVuSans-32"/>
      <use x="219.433594" xlink:href="#DejaVuSans-56"/>
      <use x="283.056641" xlink:href="#DejaVuSans-32"/>
      <use x="314.84375" xlink:href="#DejaVuSans-40"/>
      <use x="353.857422" xlink:href="#DejaVuSans-65"/>
      <use x="422.265625" xlink:href="#DejaVuSans-85"/>
      <use x="495.458984" xlink:href="#DejaVuSans-67"/>
      <use x="565.283203" xlink:href="#DejaVuSans-32"/>
      <use x="597.070312" xlink:href="#DejaVuSans-61"/>
      <use x="680.859375" xlink:href="#DejaVuSans-32"/>
      <use x="712.646484" xlink:href="#DejaVuSans-48"/>
      <use x="776.269531" xlink:href="#DejaVuSans-46"/>
      <use x="808.056641" xlink:href="#DejaVuSans-57"/>
      <use x="871.679688" xlink:href="#DejaVuSans-54"/>
      <use x="935.302734" xlink:href="#DejaVuSans-57"/>
      <use x="998.925781" xlink:href="#DejaVuSans-57"/>
      <use x="1062.548828" xlink:href="#DejaVuSans-41"/>
     </g>
    </g>
    <g id="line2d_52">
     <path d="M 267.56375 232.499875 
L 287.56375 232.499875 
" style="fill:none;stroke:#ff0000;stroke-linecap:square;stroke-opacity:0.8;stroke-width:1.5;"/>
    </g>
    <g id="line2d_53"/>
    <g id="text_24">
     <!-- fold 9 (AUC = 0.9761) -->
     <g transform="translate(295.56375 235.999875)scale(0.1 -0.1)">
      <use xlink:href="#DejaVuSans-102"/>
      <use x="35.205078" xlink:href="#DejaVuSans-111"/>
      <use x="96.386719" xlink:href="#DejaVuSans-108"/>
      <use x="124.169922" xlink:href="#DejaVuSans-100"/>
      <use x="187.646484" xlink:href="#DejaVuSans-32"/>
      <use x="219.433594" xlink:href="#DejaVuSans-57"/>
      <use x="283.056641" xlink:href="#DejaVuSans-32"/>
      <use x="314.84375" xlink:href="#DejaVuSans-40"/>
      <use x="353.857422" xlink:href="#DejaVuSans-65"/>
      <use x="422.265625" xlink:href="#DejaVuSans-85"/>
      <use x="495.458984" xlink:href="#DejaVuSans-67"/>
      <use x="565.283203" xlink:href="#DejaVuSans-32"/>
      <use x="597.070312" xlink:href="#DejaVuSans-61"/>
      <use x="680.859375" xlink:href="#DejaVuSans-32"/>
      <use x="712.646484" xlink:href="#DejaVuSans-48"/>
      <use x="776.269531" xlink:href="#DejaVuSans-46"/>
      <use x="808.056641" xlink:href="#DejaVuSans-57"/>
      <use x="871.679688" xlink:href="#DejaVuSans-55"/>
      <use x="935.302734" xlink:href="#DejaVuSans-54"/>
      <use x="998.925781" xlink:href="#DejaVuSans-49"/>
      <use x="1062.548828" xlink:href="#DejaVuSans-41"/>
     </g>
    </g>
    <g id="line2d_54">
     <path d="M 267.56375 247.178 
L 287.56375 247.178 
" style="fill:none;stroke:#000000;stroke-linecap:square;stroke-width:2;"/>
    </g>
    <g id="line2d_55"/>
    <g id="text_25">
     <!-- Mean (AUC = 0.9717) -->
     <defs>
      <path d="M 9.8125 72.90625 
L 24.515625 72.90625 
L 43.109375 23.296875 
L 61.8125 72.90625 
L 76.515625 72.90625 
L 76.515625 0 
L 66.890625 0 
L 66.890625 64.015625 
L 48.09375 14.015625 
L 38.1875 14.015625 
L 19.390625 64.015625 
L 19.390625 0 
L 9.8125 0 
z
" id="DejaVuSans-77"/>
      <path d="M 54.890625 33.015625 
L 54.890625 0 
L 45.90625 0 
L 45.90625 32.71875 
Q 45.90625 40.484375 42.875 44.328125 
Q 39.84375 48.1875 33.796875 48.1875 
Q 26.515625 48.1875 22.3125 43.546875 
Q 18.109375 38.921875 18.109375 30.90625 
L 18.109375 0 
L 9.078125 0 
L 9.078125 54.6875 
L 18.109375 54.6875 
L 18.109375 46.1875 
Q 21.34375 51.125 25.703125 53.5625 
Q 30.078125 56 35.796875 56 
Q 45.21875 56 50.046875 50.171875 
Q 54.890625 44.34375 54.890625 33.015625 
z
" id="DejaVuSans-110"/>
     </defs>
     <g transform="translate(295.56375 250.678)scale(0.1 -0.1)">
      <use xlink:href="#DejaVuSans-77"/>
      <use x="86.279297" xlink:href="#DejaVuSans-101"/>
      <use x="147.802734" xlink:href="#DejaVuSans-97"/>
      <use x="209.082031" xlink:href="#DejaVuSans-110"/>
      <use x="272.460938" xlink:href="#DejaVuSans-32"/>
      <use x="304.248047" xlink:href="#DejaVuSans-40"/>
      <use x="343.261719" xlink:href="#DejaVuSans-65"/>
      <use x="411.669922" xlink:href="#DejaVuSans-85"/>
      <use x="484.863281" xlink:href="#DejaVuSans-67"/>
      <use x="554.6875" xlink:href="#DejaVuSans-32"/>
      <use x="586.474609" xlink:href="#DejaVuSans-61"/>
      <use x="670.263672" xlink:href="#DejaVuSans-32"/>
      <use x="702.050781" xlink:href="#DejaVuSans-48"/>
      <use x="765.673828" xlink:href="#DejaVuSans-46"/>
      <use x="797.460938" xlink:href="#DejaVuSans-57"/>
      <use x="861.083984" xlink:href="#DejaVuSans-55"/>
      <use x="924.707031" xlink:href="#DejaVuSans-49"/>
      <use x="988.330078" xlink:href="#DejaVuSans-55"/>
      <use x="1051.953125" xlink:href="#DejaVuSans-41"/>
     </g>
    </g>
   </g>
  </g>
 </g>
 <defs>
  <clipPath id="pec51c26d33">
   <rect height="266.112" width="357.12" x="57.6" y="41.472"/>
  </clipPath>
 </defs>
</svg>
