<?xml version="1.0" encoding="utf-8" standalone="no"?>
<!DOCTYPE svg PUBLIC "-//W3C//DTD SVG 1.1//EN"
  "http://www.w3.org/Graphics/SVG/1.1/DTD/svg11.dtd">
<!-- Created with matplotlib (https://matplotlib.org/) -->
<svg height="345.6pt" version="1.1" viewBox="0 0 460.8 345.6" width="460.8pt" xmlns="http://www.w3.org/2000/svg" xmlns:xlink="http://www.w3.org/1999/xlink">
 <defs>
  <style type="text/css">
*{stroke-linecap:butt;stroke-linejoin:round;}
  </style>
 </defs>
 <g id="figure_1">
  <g id="patch_1">
   <path d="M 0 345.6 
L 460.8 345.6 
L 460.8 0 
L 0 0 
z
" style="fill:#ffffff;"/>
  </g>
  <g id="axes_1">
   <g id="patch_2">
    <path d="M 57.6 307.584 
L 414.72 307.584 
L 414.72 41.472 
L 57.6 41.472 
z
" style="fill:#ffffff;"/>
   </g>
   <g id="matplotlib.axis_1">
    <g id="xtick_1">
     <g id="line2d_1">
      <defs>
       <path d="M 0 0 
L 0 3.5 
" id="m80ce42da17" style="stroke:#000000;stroke-width:0.8;"/>
      </defs>
      <g>
       <use style="stroke:#000000;stroke-width:0.8;" x="73.832727" xlink:href="#m80ce42da17" y="307.584"/>
      </g>
     </g>
     <g id="text_1">
      <!-- 0.0 -->
      <defs>
       <path d="M 31.78125 66.40625 
Q 24.171875 66.40625 20.328125 58.90625 
Q 16.5 51.421875 16.5 36.375 
Q 16.5 21.390625 20.328125 13.890625 
Q 24.171875 6.390625 31.78125 6.390625 
Q 39.453125 6.390625 43.28125 13.890625 
Q 47.125 21.390625 47.125 36.375 
Q 47.125 51.421875 43.28125 58.90625 
Q 39.453125 66.40625 31.78125 66.40625 
z
M 31.78125 74.21875 
Q 44.046875 74.21875 50.515625 64.515625 
Q 56.984375 54.828125 56.984375 36.375 
Q 56.984375 17.96875 50.515625 8.265625 
Q 44.046875 -1.421875 31.78125 -1.421875 
Q 19.53125 -1.421875 13.0625 8.265625 
Q 6.59375 17.96875 6.59375 36.375 
Q 6.59375 54.828125 13.0625 64.515625 
Q 19.53125 74.21875 31.78125 74.21875 
z
" id="DejaVuSans-48"/>
       <path d="M 10.6875 12.40625 
L 21 12.40625 
L 21 0 
L 10.6875 0 
z
" id="DejaVuSans-46"/>
      </defs>
      <g transform="translate(65.881165 322.182437)scale(0.1 -0.1)">
       <use xlink:href="#DejaVuSans-48"/>
       <use x="63.623047" xlink:href="#DejaVuSans-46"/>
       <use x="95.410156" xlink:href="#DejaVuSans-48"/>
      </g>
     </g>
    </g>
    <g id="xtick_2">
     <g id="line2d_2">
      <g>
       <use style="stroke:#000000;stroke-width:0.8;" x="138.763636" xlink:href="#m80ce42da17" y="307.584"/>
      </g>
     </g>
     <g id="text_2">
      <!-- 0.2 -->
      <defs>
       <path d="M 19.1875 8.296875 
L 53.609375 8.296875 
L 53.609375 0 
L 7.328125 0 
L 7.328125 8.296875 
Q 12.9375 14.109375 22.625 23.890625 
Q 32.328125 33.6875 34.8125 36.53125 
Q 39.546875 41.84375 41.421875 45.53125 
Q 43.3125 49.21875 43.3125 52.78125 
Q 43.3125 58.59375 39.234375 62.25 
Q 35.15625 65.921875 28.609375 65.921875 
Q 23.96875 65.921875 18.8125 64.3125 
Q 13.671875 62.703125 7.8125 59.421875 
L 7.8125 69.390625 
Q 13.765625 71.78125 18.9375 73 
Q 24.125 74.21875 28.421875 74.21875 
Q 39.75 74.21875 46.484375 68.546875 
Q 53.21875 62.890625 53.21875 53.421875 
Q 53.21875 48.921875 51.53125 44.890625 
Q 49.859375 40.875 45.40625 35.40625 
Q 44.1875 33.984375 37.640625 27.21875 
Q 31.109375 20.453125 19.1875 8.296875 
z
" id="DejaVuSans-50"/>
      </defs>
      <g transform="translate(130.812074 322.182437)scale(0.1 -0.1)">
       <use xlink:href="#DejaVuSans-48"/>
       <use x="63.623047" xlink:href="#DejaVuSans-46"/>
       <use x="95.410156" xlink:href="#DejaVuSans-50"/>
      </g>
     </g>
    </g>
    <g id="xtick_3">
     <g id="line2d_3">
      <g>
       <use style="stroke:#000000;stroke-width:0.8;" x="203.694545" xlink:href="#m80ce42da17" y="307.584"/>
      </g>
     </g>
     <g id="text_3">
      <!-- 0.4 -->
      <defs>
       <path d="M 37.796875 64.3125 
L 12.890625 25.390625 
L 37.796875 25.390625 
z
M 35.203125 72.90625 
L 47.609375 72.90625 
L 47.609375 25.390625 
L 58.015625 25.390625 
L 58.015625 17.1875 
L 47.609375 17.1875 
L 47.609375 0 
L 37.796875 0 
L 37.796875 17.1875 
L 4.890625 17.1875 
L 4.890625 26.703125 
z
" id="DejaVuSans-52"/>
      </defs>
      <g transform="translate(195.742983 322.182437)scale(0.1 -0.1)">
       <use xlink:href="#DejaVuSans-48"/>
       <use x="63.623047" xlink:href="#DejaVuSans-46"/>
       <use x="95.410156" xlink:href="#DejaVuSans-52"/>
      </g>
     </g>
    </g>
    <g id="xtick_4">
     <g id="line2d_4">
      <g>
       <use style="stroke:#000000;stroke-width:0.8;" x="268.625455" xlink:href="#m80ce42da17" y="307.584"/>
      </g>
     </g>
     <g id="text_4">
      <!-- 0.6 -->
      <defs>
       <path d="M 33.015625 40.375 
Q 26.375 40.375 22.484375 35.828125 
Q 18.609375 31.296875 18.609375 23.390625 
Q 18.609375 15.53125 22.484375 10.953125 
Q 26.375 6.390625 33.015625 6.390625 
Q 39.65625 6.390625 43.53125 10.953125 
Q 47.40625 15.53125 47.40625 23.390625 
Q 47.40625 31.296875 43.53125 35.828125 
Q 39.65625 40.375 33.015625 40.375 
z
M 52.59375 71.296875 
L 52.59375 62.3125 
Q 48.875 64.0625 45.09375 64.984375 
Q 41.3125 65.921875 37.59375 65.921875 
Q 27.828125 65.921875 22.671875 59.328125 
Q 17.53125 52.734375 16.796875 39.40625 
Q 19.671875 43.65625 24.015625 45.921875 
Q 28.375 48.1875 33.59375 48.1875 
Q 44.578125 48.1875 50.953125 41.515625 
Q 57.328125 34.859375 57.328125 23.390625 
Q 57.328125 12.15625 50.6875 5.359375 
Q 44.046875 -1.421875 33.015625 -1.421875 
Q 20.359375 -1.421875 13.671875 8.265625 
Q 6.984375 17.96875 6.984375 36.375 
Q 6.984375 53.65625 15.1875 63.9375 
Q 23.390625 74.21875 37.203125 74.21875 
Q 40.921875 74.21875 44.703125 73.484375 
Q 48.484375 72.75 52.59375 71.296875 
z
" id="DejaVuSans-54"/>
      </defs>
      <g transform="translate(260.673892 322.182437)scale(0.1 -0.1)">
       <use xlink:href="#DejaVuSans-48"/>
       <use x="63.623047" xlink:href="#DejaVuSans-46"/>
       <use x="95.410156" xlink:href="#DejaVuSans-54"/>
      </g>
     </g>
    </g>
    <g id="xtick_5">
     <g id="line2d_5">
      <g>
       <use style="stroke:#000000;stroke-width:0.8;" x="333.556364" xlink:href="#m80ce42da17" y="307.584"/>
      </g>
     </g>
     <g id="text_5">
      <!-- 0.8 -->
      <defs>
       <path d="M 31.78125 34.625 
Q 24.75 34.625 20.71875 30.859375 
Q 16.703125 27.09375 16.703125 20.515625 
Q 16.703125 13.921875 20.71875 10.15625 
Q 24.75 6.390625 31.78125 6.390625 
Q 38.8125 6.390625 42.859375 10.171875 
Q 46.921875 13.96875 46.921875 20.515625 
Q 46.921875 27.09375 42.890625 30.859375 
Q 38.875 34.625 31.78125 34.625 
z
M 21.921875 38.8125 
Q 15.578125 40.375 12.03125 44.71875 
Q 8.5 49.078125 8.5 55.328125 
Q 8.5 64.0625 14.71875 69.140625 
Q 20.953125 74.21875 31.78125 74.21875 
Q 42.671875 74.21875 48.875 69.140625 
Q 55.078125 64.0625 55.078125 55.328125 
Q 55.078125 49.078125 51.53125 44.71875 
Q 48 40.375 41.703125 38.8125 
Q 48.828125 37.15625 52.796875 32.3125 
Q 56.78125 27.484375 56.78125 20.515625 
Q 56.78125 9.90625 50.3125 4.234375 
Q 43.84375 -1.421875 31.78125 -1.421875 
Q 19.734375 -1.421875 13.25 4.234375 
Q 6.78125 9.90625 6.78125 20.515625 
Q 6.78125 27.484375 10.78125 32.3125 
Q 14.796875 37.15625 21.921875 38.8125 
z
M 18.3125 54.390625 
Q 18.3125 48.734375 21.84375 45.5625 
Q 25.390625 42.390625 31.78125 42.390625 
Q 38.140625 42.390625 41.71875 45.5625 
Q 45.3125 48.734375 45.3125 54.390625 
Q 45.3125 60.0625 41.71875 63.234375 
Q 38.140625 66.40625 31.78125 66.40625 
Q 25.390625 66.40625 21.84375 63.234375 
Q 18.3125 60.0625 18.3125 54.390625 
z
" id="DejaVuSans-56"/>
      </defs>
      <g transform="translate(325.604801 322.182437)scale(0.1 -0.1)">
       <use xlink:href="#DejaVuSans-48"/>
       <use x="63.623047" xlink:href="#DejaVuSans-46"/>
       <use x="95.410156" xlink:href="#DejaVuSans-56"/>
      </g>
     </g>
    </g>
    <g id="xtick_6">
     <g id="line2d_6">
      <g>
       <use style="stroke:#000000;stroke-width:0.8;" x="398.487273" xlink:href="#m80ce42da17" y="307.584"/>
      </g>
     </g>
     <g id="text_6">
      <!-- 1.0 -->
      <defs>
       <path d="M 12.40625 8.296875 
L 28.515625 8.296875 
L 28.515625 63.921875 
L 10.984375 60.40625 
L 10.984375 69.390625 
L 28.421875 72.90625 
L 38.28125 72.90625 
L 38.28125 8.296875 
L 54.390625 8.296875 
L 54.390625 0 
L 12.40625 0 
z
" id="DejaVuSans-49"/>
      </defs>
      <g transform="translate(390.53571 322.182437)scale(0.1 -0.1)">
       <use xlink:href="#DejaVuSans-49"/>
       <use x="63.623047" xlink:href="#DejaVuSans-46"/>
       <use x="95.410156" xlink:href="#DejaVuSans-48"/>
      </g>
     </g>
    </g>
    <g id="text_7">
     <!-- False Positive Rate -->
     <defs>
      <path d="M 9.8125 72.90625 
L 51.703125 72.90625 
L 51.703125 64.59375 
L 19.671875 64.59375 
L 19.671875 43.109375 
L 48.578125 43.109375 
L 48.578125 34.8125 
L 19.671875 34.8125 
L 19.671875 0 
L 9.8125 0 
z
" id="DejaVuSans-70"/>
      <path d="M 34.28125 27.484375 
Q 23.390625 27.484375 19.1875 25 
Q 14.984375 22.515625 14.984375 16.5 
Q 14.984375 11.71875 18.140625 8.90625 
Q 21.296875 6.109375 26.703125 6.109375 
Q 34.1875 6.109375 38.703125 11.40625 
Q 43.21875 16.703125 43.21875 25.484375 
L 43.21875 27.484375 
z
M 52.203125 31.203125 
L 52.203125 0 
L 43.21875 0 
L 43.21875 8.296875 
Q 40.140625 3.328125 35.546875 0.953125 
Q 30.953125 -1.421875 24.3125 -1.421875 
Q 15.921875 -1.421875 10.953125 3.296875 
Q 6 8.015625 6 15.921875 
Q 6 25.140625 12.171875 29.828125 
Q 18.359375 34.515625 30.609375 34.515625 
L 43.21875 34.515625 
L 43.21875 35.40625 
Q 43.21875 41.609375 39.140625 45 
Q 35.0625 48.390625 27.6875 48.390625 
Q 23 48.390625 18.546875 47.265625 
Q 14.109375 46.140625 10.015625 43.890625 
L 10.015625 52.203125 
Q 14.9375 54.109375 19.578125 55.046875 
Q 24.21875 56 28.609375 56 
Q 40.484375 56 46.34375 49.84375 
Q 52.203125 43.703125 52.203125 31.203125 
z
" id="DejaVuSans-97"/>
      <path d="M 9.421875 75.984375 
L 18.40625 75.984375 
L 18.40625 0 
L 9.421875 0 
z
" id="DejaVuSans-108"/>
      <path d="M 44.28125 53.078125 
L 44.28125 44.578125 
Q 40.484375 46.53125 36.375 47.5 
Q 32.28125 48.484375 27.875 48.484375 
Q 21.1875 48.484375 17.84375 46.4375 
Q 14.5 44.390625 14.5 40.28125 
Q 14.5 37.15625 16.890625 35.375 
Q 19.28125 33.59375 26.515625 31.984375 
L 29.59375 31.296875 
Q 39.15625 29.25 43.1875 25.515625 
Q 47.21875 21.78125 47.21875 15.09375 
Q 47.21875 7.46875 41.1875 3.015625 
Q 35.15625 -1.421875 24.609375 -1.421875 
Q 20.21875 -1.421875 15.453125 -0.5625 
Q 10.6875 0.296875 5.421875 2 
L 5.421875 11.28125 
Q 10.40625 8.6875 15.234375 7.390625 
Q 20.0625 6.109375 24.8125 6.109375 
Q 31.15625 6.109375 34.5625 8.28125 
Q 37.984375 10.453125 37.984375 14.40625 
Q 37.984375 18.0625 35.515625 20.015625 
Q 33.0625 21.96875 24.703125 23.78125 
L 21.578125 24.515625 
Q 13.234375 26.265625 9.515625 29.90625 
Q 5.8125 33.546875 5.8125 39.890625 
Q 5.8125 47.609375 11.28125 51.796875 
Q 16.75 56 26.8125 56 
Q 31.78125 56 36.171875 55.265625 
Q 40.578125 54.546875 44.28125 53.078125 
z
" id="DejaVuSans-115"/>
      <path d="M 56.203125 29.59375 
L 56.203125 25.203125 
L 14.890625 25.203125 
Q 15.484375 15.921875 20.484375 11.0625 
Q 25.484375 6.203125 34.421875 6.203125 
Q 39.59375 6.203125 44.453125 7.46875 
Q 49.3125 8.734375 54.109375 11.28125 
L 54.109375 2.78125 
Q 49.265625 0.734375 44.1875 -0.34375 
Q 39.109375 -1.421875 33.890625 -1.421875 
Q 20.796875 -1.421875 13.15625 6.1875 
Q 5.515625 13.8125 5.515625 26.8125 
Q 5.515625 40.234375 12.765625 48.109375 
Q 20.015625 56 32.328125 56 
Q 43.359375 56 49.78125 48.890625 
Q 56.203125 41.796875 56.203125 29.59375 
z
M 47.21875 32.234375 
Q 47.125 39.59375 43.09375 43.984375 
Q 39.0625 48.390625 32.421875 48.390625 
Q 24.90625 48.390625 20.390625 44.140625 
Q 15.875 39.890625 15.1875 32.171875 
z
" id="DejaVuSans-101"/>
      <path id="DejaVuSans-32"/>
      <path d="M 19.671875 64.796875 
L 19.671875 37.40625 
L 32.078125 37.40625 
Q 38.96875 37.40625 42.71875 40.96875 
Q 46.484375 44.53125 46.484375 51.125 
Q 46.484375 57.671875 42.71875 61.234375 
Q 38.96875 64.796875 32.078125 64.796875 
z
M 9.8125 72.90625 
L 32.078125 72.90625 
Q 44.34375 72.90625 50.609375 67.359375 
Q 56.890625 61.8125 56.890625 51.125 
Q 56.890625 40.328125 50.609375 34.8125 
Q 44.34375 29.296875 32.078125 29.296875 
L 19.671875 29.296875 
L 19.671875 0 
L 9.8125 0 
z
" id="DejaVuSans-80"/>
      <path d="M 30.609375 48.390625 
Q 23.390625 48.390625 19.1875 42.75 
Q 14.984375 37.109375 14.984375 27.296875 
Q 14.984375 17.484375 19.15625 11.84375 
Q 23.34375 6.203125 30.609375 6.203125 
Q 37.796875 6.203125 41.984375 11.859375 
Q 46.1875 17.53125 46.1875 27.296875 
Q 46.1875 37.015625 41.984375 42.703125 
Q 37.796875 48.390625 30.609375 48.390625 
z
M 30.609375 56 
Q 42.328125 56 49.015625 48.375 
Q 55.71875 40.765625 55.71875 27.296875 
Q 55.71875 13.875 49.015625 6.21875 
Q 42.328125 -1.421875 30.609375 -1.421875 
Q 18.84375 -1.421875 12.171875 6.21875 
Q 5.515625 13.875 5.515625 27.296875 
Q 5.515625 40.765625 12.171875 48.375 
Q 18.84375 56 30.609375 56 
z
" id="DejaVuSans-111"/>
      <path d="M 9.421875 54.6875 
L 18.40625 54.6875 
L 18.40625 0 
L 9.421875 0 
z
M 9.421875 75.984375 
L 18.40625 75.984375 
L 18.40625 64.59375 
L 9.421875 64.59375 
z
" id="DejaVuSans-105"/>
      <path d="M 18.3125 70.21875 
L 18.3125 54.6875 
L 36.8125 54.6875 
L 36.8125 47.703125 
L 18.3125 47.703125 
L 18.3125 18.015625 
Q 18.3125 11.328125 20.140625 9.421875 
Q 21.96875 7.515625 27.59375 7.515625 
L 36.8125 7.515625 
L 36.8125 0 
L 27.59375 0 
Q 17.1875 0 13.234375 3.875 
Q 9.28125 7.765625 9.28125 18.015625 
L 9.28125 47.703125 
L 2.6875 47.703125 
L 2.6875 54.6875 
L 9.28125 54.6875 
L 9.28125 70.21875 
z
" id="DejaVuSans-116"/>
      <path d="M 2.984375 54.6875 
L 12.5 54.6875 
L 29.59375 8.796875 
L 46.6875 54.6875 
L 56.203125 54.6875 
L 35.6875 0 
L 23.484375 0 
z
" id="DejaVuSans-118"/>
      <path d="M 44.390625 34.1875 
Q 47.5625 33.109375 50.5625 29.59375 
Q 53.5625 26.078125 56.59375 19.921875 
L 66.609375 0 
L 56 0 
L 46.6875 18.703125 
Q 43.0625 26.03125 39.671875 28.421875 
Q 36.28125 30.8125 30.421875 30.8125 
L 19.671875 30.8125 
L 19.671875 0 
L 9.8125 0 
L 9.8125 72.90625 
L 32.078125 72.90625 
Q 44.578125 72.90625 50.734375 67.671875 
Q 56.890625 62.453125 56.890625 51.90625 
Q 56.890625 45.015625 53.6875 40.46875 
Q 50.484375 35.9375 44.390625 34.1875 
z
M 19.671875 64.796875 
L 19.671875 38.921875 
L 32.078125 38.921875 
Q 39.203125 38.921875 42.84375 42.21875 
Q 46.484375 45.515625 46.484375 51.90625 
Q 46.484375 58.296875 42.84375 61.546875 
Q 39.203125 64.796875 32.078125 64.796875 
z
" id="DejaVuSans-82"/>
     </defs>
     <g transform="translate(174.792891 338.140094)scale(0.13 -0.13)">
      <use xlink:href="#DejaVuSans-70"/>
      <use x="57.378906" xlink:href="#DejaVuSans-97"/>
      <use x="118.658203" xlink:href="#DejaVuSans-108"/>
      <use x="146.441406" xlink:href="#DejaVuSans-115"/>
      <use x="198.541016" xlink:href="#DejaVuSans-101"/>
      <use x="260.064453" xlink:href="#DejaVuSans-32"/>
      <use x="291.851562" xlink:href="#DejaVuSans-80"/>
      <use x="352.107422" xlink:href="#DejaVuSans-111"/>
      <use x="413.289062" xlink:href="#DejaVuSans-115"/>
      <use x="465.388672" xlink:href="#DejaVuSans-105"/>
      <use x="493.171875" xlink:href="#DejaVuSans-116"/>
      <use x="532.380859" xlink:href="#DejaVuSans-105"/>
      <use x="560.164062" xlink:href="#DejaVuSans-118"/>
      <use x="619.34375" xlink:href="#DejaVuSans-101"/>
      <use x="680.867188" xlink:href="#DejaVuSans-32"/>
      <use x="712.654297" xlink:href="#DejaVuSans-82"/>
      <use x="782.105469" xlink:href="#DejaVuSans-97"/>
      <use x="843.384766" xlink:href="#DejaVuSans-116"/>
      <use x="882.59375" xlink:href="#DejaVuSans-101"/>
     </g>
    </g>
   </g>
   <g id="matplotlib.axis_2">
    <g id="ytick_1">
     <g id="line2d_7">
      <defs>
       <path d="M 0 0 
L -3.5 0 
" id="m71261f2173" style="stroke:#000000;stroke-width:0.8;"/>
      </defs>
      <g>
       <use style="stroke:#000000;stroke-width:0.8;" x="57.6" xlink:href="#m71261f2173" y="295.488"/>
      </g>
     </g>
     <g id="text_8">
      <!-- 0.0 -->
      <g transform="translate(34.696875 299.287219)scale(0.1 -0.1)">
       <use xlink:href="#DejaVuSans-48"/>
       <use x="63.623047" xlink:href="#DejaVuSans-46"/>
       <use x="95.410156" xlink:href="#DejaVuSans-48"/>
      </g>
     </g>
    </g>
    <g id="ytick_2">
     <g id="line2d_8">
      <g>
       <use style="stroke:#000000;stroke-width:0.8;" x="57.6" xlink:href="#m71261f2173" y="247.104"/>
      </g>
     </g>
     <g id="text_9">
      <!-- 0.2 -->
      <g transform="translate(34.696875 250.903219)scale(0.1 -0.1)">
       <use xlink:href="#DejaVuSans-48"/>
       <use x="63.623047" xlink:href="#DejaVuSans-46"/>
       <use x="95.410156" xlink:href="#DejaVuSans-50"/>
      </g>
     </g>
    </g>
    <g id="ytick_3">
     <g id="line2d_9">
      <g>
       <use style="stroke:#000000;stroke-width:0.8;" x="57.6" xlink:href="#m71261f2173" y="198.72"/>
      </g>
     </g>
     <g id="text_10">
      <!-- 0.4 -->
      <g transform="translate(34.696875 202.519219)scale(0.1 -0.1)">
       <use xlink:href="#DejaVuSans-48"/>
       <use x="63.623047" xlink:href="#DejaVuSans-46"/>
       <use x="95.410156" xlink:href="#DejaVuSans-52"/>
      </g>
     </g>
    </g>
    <g id="ytick_4">
     <g id="line2d_10">
      <g>
       <use style="stroke:#000000;stroke-width:0.8;" x="57.6" xlink:href="#m71261f2173" y="150.336"/>
      </g>
     </g>
     <g id="text_11">
      <!-- 0.6 -->
      <g transform="translate(34.696875 154.135219)scale(0.1 -0.1)">
       <use xlink:href="#DejaVuSans-48"/>
       <use x="63.623047" xlink:href="#DejaVuSans-46"/>
       <use x="95.410156" xlink:href="#DejaVuSans-54"/>
      </g>
     </g>
    </g>
    <g id="ytick_5">
     <g id="line2d_11">
      <g>
       <use style="stroke:#000000;stroke-width:0.8;" x="57.6" xlink:href="#m71261f2173" y="101.952"/>
      </g>
     </g>
     <g id="text_12">
      <!-- 0.8 -->
      <g transform="translate(34.696875 105.751219)scale(0.1 -0.1)">
       <use xlink:href="#DejaVuSans-48"/>
       <use x="63.623047" xlink:href="#DejaVuSans-46"/>
       <use x="95.410156" xlink:href="#DejaVuSans-56"/>
      </g>
     </g>
    </g>
    <g id="ytick_6">
     <g id="line2d_12">
      <g>
       <use style="stroke:#000000;stroke-width:0.8;" x="57.6" xlink:href="#m71261f2173" y="53.568"/>
      </g>
     </g>
     <g id="text_13">
      <!-- 1.0 -->
      <g transform="translate(34.696875 57.367219)scale(0.1 -0.1)">
       <use xlink:href="#DejaVuSans-49"/>
       <use x="63.623047" xlink:href="#DejaVuSans-46"/>
       <use x="95.410156" xlink:href="#DejaVuSans-48"/>
      </g>
     </g>
    </g>
    <g id="text_14">
     <!-- True Positive Rate -->
     <defs>
      <path d="M -0.296875 72.90625 
L 61.375 72.90625 
L 61.375 64.59375 
L 35.5 64.59375 
L 35.5 0 
L 25.59375 0 
L 25.59375 64.59375 
L -0.296875 64.59375 
z
" id="DejaVuSans-84"/>
      <path d="M 41.109375 46.296875 
Q 39.59375 47.171875 37.8125 47.578125 
Q 36.03125 48 33.890625 48 
Q 26.265625 48 22.1875 43.046875 
Q 18.109375 38.09375 18.109375 28.8125 
L 18.109375 0 
L 9.078125 0 
L 9.078125 54.6875 
L 18.109375 54.6875 
L 18.109375 46.1875 
Q 20.953125 51.171875 25.484375 53.578125 
Q 30.03125 56 36.53125 56 
Q 37.453125 56 38.578125 55.875 
Q 39.703125 55.765625 41.0625 55.515625 
z
" id="DejaVuSans-114"/>
      <path d="M 8.5 21.578125 
L 8.5 54.6875 
L 17.484375 54.6875 
L 17.484375 21.921875 
Q 17.484375 14.15625 20.5 10.265625 
Q 23.53125 6.390625 29.59375 6.390625 
Q 36.859375 6.390625 41.078125 11.03125 
Q 45.3125 15.671875 45.3125 23.6875 
L 45.3125 54.6875 
L 54.296875 54.6875 
L 54.296875 0 
L 45.3125 0 
L 45.3125 8.40625 
Q 42.046875 3.421875 37.71875 1 
Q 33.40625 -1.421875 27.6875 -1.421875 
Q 18.265625 -1.421875 13.375 4.4375 
Q 8.5 10.296875 8.5 21.578125 
z
M 31.109375 56 
z
" id="DejaVuSans-117"/>
     </defs>
     <g transform="translate(27.993281 233.737922)rotate(-90)scale(0.13 -0.13)">
      <use xlink:href="#DejaVuSans-84"/>
      <use x="60.865234" xlink:href="#DejaVuSans-114"/>
      <use x="101.978516" xlink:href="#DejaVuSans-117"/>
      <use x="165.357422" xlink:href="#DejaVuSans-101"/>
      <use x="226.880859" xlink:href="#DejaVuSans-32"/>
      <use x="258.667969" xlink:href="#DejaVuSans-80"/>
      <use x="318.923828" xlink:href="#DejaVuSans-111"/>
      <use x="380.105469" xlink:href="#DejaVuSans-115"/>
      <use x="432.205078" xlink:href="#DejaVuSans-105"/>
      <use x="459.988281" xlink:href="#DejaVuSans-116"/>
      <use x="499.197266" xlink:href="#DejaVuSans-105"/>
      <use x="526.980469" xlink:href="#DejaVuSans-118"/>
      <use x="586.160156" xlink:href="#DejaVuSans-101"/>
      <use x="647.683594" xlink:href="#DejaVuSans-32"/>
      <use x="679.470703" xlink:href="#DejaVuSans-82"/>
      <use x="748.921875" xlink:href="#DejaVuSans-97"/>
      <use x="810.201172" xlink:href="#DejaVuSans-116"/>
      <use x="849.410156" xlink:href="#DejaVuSans-101"/>
     </g>
    </g>
   </g>
   <g id="line2d_13">
    <path clip-path="url(#p259ee235bd)" d="M 73.832727 295.488 
L 73.832727 295.488 
L 73.832727 294.952779 
L 73.832727 288.530124 
L 74.55099 288.530124 
L 74.55099 262.839504 
L 75.269252 262.839504 
L 75.269252 247.85331 
L 75.987514 247.85331 
L 75.987514 197.007292 
L 76.705776 197.007292 
L 76.705776 182.556319 
L 77.424039 182.556319 
L 77.424039 182.021097 
L 78.142301 182.021097 
L 78.142301 171.851894 
L 78.860563 171.851894 
L 78.860563 171.316673 
L 79.578825 171.316673 
L 79.578825 167.034903 
L 80.297088 167.034903 
L 80.297088 163.288354 
L 81.733612 163.288354 
L 81.733612 154.189593 
L 82.451874 154.189593 
L 82.451874 145.626053 
L 83.170137 145.626053 
L 83.170137 122.61154 
L 83.888399 122.61154 
L 83.888399 116.724106 
L 84.606661 116.724106 
L 84.606661 115.118442 
L 85.324924 115.118442 
L 85.324924 106.554903 
L 86.043186 106.554903 
L 86.043186 102.273133 
L 86.761448 102.273133 
L 86.761448 94.244814 
L 87.47971 94.244814 
L 87.47971 92.63915 
L 88.197973 92.63915 
L 88.197973 91.568708 
L 88.916235 91.568708 
L 88.916235 89.963044 
L 89.634497 89.963044 
L 89.634497 88.357381 
L 90.352759 88.357381 
L 90.352759 86.751717 
L 91.071022 86.751717 
L 91.071022 84.610832 
L 91.789284 84.610832 
L 91.789284 82.469947 
L 93.225809 82.469947 
L 93.225809 81.934726 
L 93.944071 81.934726 
L 93.944071 79.793841 
L 97.535382 79.793841 
L 97.535382 76.047292 
L 98.971907 76.047292 
L 98.971907 74.441628 
L 100.408431 74.441628 
L 100.408431 73.906407 
L 103.999743 73.906407 
L 103.999743 72.835965 
L 106.154529 72.835965 
L 106.154529 72.300743 
L 110.464103 72.300743 
L 110.464103 71.765522 
L 111.900628 71.765522 
L 111.900628 70.159858 
L 112.61889 70.159858 
L 112.61889 69.624637 
L 113.337152 69.624637 
L 113.337152 69.089416 
L 116.928463 69.089416 
L 116.928463 68.018973 
L 120.519775 68.018973 
L 120.519775 66.948531 
L 121.238037 66.948531 
L 121.238037 66.41331 
L 122.674562 66.41331 
L 122.674562 65.878088 
L 125.547611 65.878088 
L 125.547611 65.342867 
L 126.984135 65.342867 
L 126.984135 64.807646 
L 127.702397 64.807646 
L 127.702397 62.666761 
L 128.42066 62.666761 
L 128.42066 62.13154 
L 129.138922 62.13154 
L 129.138922 61.596319 
L 131.293709 61.596319 
L 131.293709 61.061097 
L 132.011971 61.061097 
L 132.011971 60.525876 
L 137.758069 60.525876 
L 137.758069 59.990655 
L 140.631118 59.990655 
L 140.631118 59.455434 
L 141.349381 59.455434 
L 141.349381 58.920212 
L 143.504167 58.920212 
L 143.504167 58.384991 
L 145.658954 58.384991 
L 145.658954 57.84977 
L 157.869413 57.84977 
L 157.869413 57.314549 
L 177.262494 57.314549 
L 177.262494 56.779327 
L 178.699019 56.779327 
L 178.699019 56.244106 
L 182.29033 56.244106 
L 182.29033 55.708885 
L 190.909477 55.708885 
L 190.909477 55.173664 
L 192.346002 55.173664 
L 192.346002 54.638442 
L 195.219051 54.638442 
L 195.219051 54.103221 
L 198.0921 54.103221 
L 198.0921 53.568 
L 398.487273 53.568 
" style="fill:none;stroke:#ff0000;stroke-linecap:square;stroke-opacity:0.8;stroke-width:1.5;"/>
   </g>
   <g id="line2d_14">
    <path clip-path="url(#p259ee235bd)" d="M 73.832727 295.488 
L 73.832727 295.488 
L 73.832727 294.952779 
L 73.832727 278.36092 
L 74.55099 278.36092 
L 74.55099 206.641274 
L 75.269252 206.641274 
L 75.269252 169.711009 
L 75.987514 169.711009 
L 75.987514 159.006584 
L 76.705776 159.006584 
L 76.705776 155.260035 
L 77.424039 155.260035 
L 77.424039 146.161274 
L 78.142301 146.161274 
L 78.142301 130.104637 
L 78.860563 130.104637 
L 78.860563 121.005876 
L 79.578825 121.005876 
L 79.578825 114.583221 
L 80.297088 114.583221 
L 80.297088 113.512779 
L 81.01535 113.512779 
L 81.01535 111.371894 
L 81.733612 111.371894 
L 81.733612 104.949239 
L 82.451874 104.949239 
L 82.451874 97.456142 
L 83.170137 97.456142 
L 83.170137 93.709593 
L 83.888399 93.709593 
L 83.888399 91.568708 
L 84.606661 91.568708 
L 84.606661 87.822159 
L 85.324924 87.822159 
L 85.324924 87.286938 
L 86.043186 87.286938 
L 86.043186 84.610832 
L 86.761448 84.610832 
L 86.761448 83.005168 
L 87.47971 83.005168 
L 87.47971 82.469947 
L 88.916235 82.469947 
L 88.916235 81.399504 
L 89.634497 81.399504 
L 89.634497 79.793841 
L 90.352759 79.793841 
L 90.352759 78.188177 
L 91.071022 78.188177 
L 91.071022 77.117735 
L 92.507546 77.117735 
L 92.507546 76.047292 
L 95.380595 76.047292 
L 95.380595 74.97685 
L 96.81712 74.97685 
L 96.81712 72.300743 
L 97.535382 72.300743 
L 97.535382 70.69508 
L 98.971907 70.69508 
L 98.971907 69.624637 
L 99.690169 69.624637 
L 99.690169 69.089416 
L 101.126693 69.089416 
L 101.126693 68.554195 
L 101.844956 68.554195 
L 101.844956 67.483752 
L 103.28148 67.483752 
L 103.28148 65.878088 
L 109.745841 65.878088 
L 109.745841 65.342867 
L 111.182365 65.342867 
L 111.182365 64.807646 
L 112.61889 64.807646 
L 112.61889 63.737204 
L 117.646726 63.737204 
L 117.646726 63.201982 
L 118.364988 63.201982 
L 118.364988 62.666761 
L 122.674562 62.666761 
L 122.674562 62.13154 
L 124.111086 62.13154 
L 124.111086 61.596319 
L 130.575447 61.596319 
L 130.575447 61.061097 
L 137.039807 61.061097 
L 137.039807 60.525876 
L 140.631118 60.525876 
L 140.631118 59.990655 
L 141.349381 59.990655 
L 141.349381 59.455434 
L 144.940692 59.455434 
L 144.940692 58.920212 
L 154.996364 58.920212 
L 154.996364 58.384991 
L 160.0242 58.384991 
L 160.0242 57.84977 
L 165.052035 57.84977 
L 165.052035 57.314549 
L 170.798134 57.314549 
L 170.798134 56.779327 
L 172.95292 56.779327 
L 172.95292 55.708885 
L 190.909477 55.708885 
L 190.909477 55.173664 
L 195.219051 55.173664 
L 195.219051 54.638442 
L 209.584296 54.638442 
L 209.584296 54.103221 
L 246.215672 54.103221 
L 246.215672 53.568 
L 398.487273 53.568 
" style="fill:none;stroke:#ff0000;stroke-linecap:square;stroke-opacity:0.8;stroke-width:1.5;"/>
   </g>
   <g id="line2d_15">
    <path clip-path="url(#p259ee235bd)" d="M 73.832727 295.488 
L 73.832727 269.262159 
L 74.55099 268.726938 
L 74.55099 267.656496 
L 75.269252 267.121274 
L 75.269252 266.586053 
L 75.987514 266.586053 
L 75.987514 245.712425 
L 76.705776 245.712425 
L 76.705776 219.486584 
L 77.424039 219.486584 
L 77.424039 155.260035 
L 78.142301 155.260035 
L 78.142301 147.231717 
L 78.860563 147.231717 
L 78.860563 142.414726 
L 79.578825 142.414726 
L 79.578825 117.259327 
L 81.01535 117.259327 
L 81.01535 113.512779 
L 81.733612 113.512779 
L 81.733612 109.231009 
L 82.451874 109.231009 
L 82.451874 106.554903 
L 83.170137 106.554903 
L 83.170137 98.526584 
L 83.888399 98.526584 
L 83.888399 96.92092 
L 84.606661 96.92092 
L 84.606661 94.780035 
L 85.324924 94.780035 
L 85.324924 93.709593 
L 86.043186 93.709593 
L 86.043186 92.63915 
L 86.761448 92.63915 
L 86.761448 91.568708 
L 87.47971 91.568708 
L 87.47971 90.498265 
L 88.197973 90.498265 
L 88.197973 89.963044 
L 89.634497 89.963044 
L 89.634497 89.427823 
L 90.352759 89.427823 
L 90.352759 88.357381 
L 91.789284 88.357381 
L 91.789284 86.751717 
L 93.225809 86.751717 
L 93.225809 84.075611 
L 93.944071 84.075611 
L 93.944071 83.540389 
L 94.662333 83.540389 
L 94.662333 83.005168 
L 98.971907 83.005168 
L 98.971907 81.399504 
L 100.408431 81.399504 
L 100.408431 80.864283 
L 104.718005 80.864283 
L 104.718005 79.793841 
L 106.154529 79.793841 
L 106.154529 79.258619 
L 107.591054 79.258619 
L 107.591054 78.188177 
L 109.745841 78.188177 
L 109.745841 77.117735 
L 110.464103 77.117735 
L 110.464103 76.047292 
L 111.182365 76.047292 
L 111.182365 75.512071 
L 111.900628 75.512071 
L 111.900628 74.441628 
L 114.773677 74.441628 
L 114.773677 73.906407 
L 116.210201 73.906407 
L 116.210201 72.835965 
L 116.928463 72.835965 
L 116.928463 71.765522 
L 117.646726 71.765522 
L 117.646726 70.69508 
L 118.364988 70.69508 
L 118.364988 70.159858 
L 121.956299 70.159858 
L 121.956299 68.018973 
L 122.674562 68.018973 
L 122.674562 66.41331 
L 124.829348 66.41331 
L 124.829348 65.878088 
L 125.547611 65.878088 
L 125.547611 64.807646 
L 126.265873 64.807646 
L 126.265873 64.272425 
L 126.984135 64.272425 
L 126.984135 63.737204 
L 128.42066 63.737204 
L 128.42066 63.201982 
L 129.138922 63.201982 
L 129.138922 62.666761 
L 130.575447 62.666761 
L 130.575447 62.13154 
L 132.011971 62.13154 
L 132.011971 61.596319 
L 135.603282 61.596319 
L 135.603282 60.525876 
L 141.349381 60.525876 
L 141.349381 59.990655 
L 146.377216 59.990655 
L 146.377216 58.920212 
L 156.432888 58.920212 
L 156.432888 58.384991 
L 157.15115 58.384991 
L 157.15115 57.84977 
L 163.615511 57.84977 
L 163.615511 57.314549 
L 170.798134 57.314549 
L 170.798134 56.779327 
L 177.980756 56.779327 
L 177.980756 56.244106 
L 180.135543 56.244106 
L 180.135543 55.708885 
L 187.318166 55.708885 
L 187.318166 55.173664 
L 206.711247 55.173664 
L 206.711247 54.638442 
L 217.485181 54.638442 
L 217.485181 54.103221 
L 394.177699 54.103221 
L 394.177699 53.568 
L 398.487273 53.568 
L 398.487273 53.568 
" style="fill:none;stroke:#ff0000;stroke-linecap:square;stroke-opacity:0.8;stroke-width:1.5;"/>
   </g>
   <g id="line2d_16">
    <path clip-path="url(#p259ee235bd)" d="M 73.832727 295.488 
L 73.832727 246.782867 
L 74.55099 246.782867 
L 74.55099 186.302867 
L 75.269252 186.302867 
L 75.269252 175.598442 
L 75.987514 175.598442 
L 75.987514 172.387115 
L 76.705776 172.387115 
L 76.705776 161.68269 
L 77.424039 161.68269 
L 77.424039 158.471363 
L 78.142301 158.471363 
L 78.142301 155.795257 
L 78.860563 155.795257 
L 78.860563 140.273841 
L 79.578825 140.273841 
L 79.578825 133.851186 
L 80.297088 133.851186 
L 80.297088 119.935434 
L 81.01535 119.935434 
L 81.01535 119.400212 
L 81.733612 119.400212 
L 81.733612 116.724106 
L 82.451874 116.724106 
L 82.451874 116.188885 
L 83.170137 116.188885 
L 83.170137 115.118442 
L 83.888399 115.118442 
L 83.888399 114.583221 
L 84.606661 114.583221 
L 84.606661 110.836673 
L 85.324924 110.836673 
L 85.324924 107.625345 
L 86.043186 107.625345 
L 86.043186 105.48446 
L 86.761448 105.48446 
L 86.761448 101.737912 
L 87.47971 101.737912 
L 87.47971 96.92092 
L 89.634497 96.92092 
L 89.634497 96.385699 
L 90.352759 96.385699 
L 90.352759 95.850478 
L 91.071022 95.850478 
L 91.071022 93.174372 
L 91.789284 93.174372 
L 91.789284 90.498265 
L 92.507546 90.498265 
L 92.507546 88.892602 
L 94.662333 88.892602 
L 94.662333 87.822159 
L 95.380595 87.822159 
L 95.380595 84.075611 
L 96.81712 84.075611 
L 96.81712 83.540389 
L 97.535382 83.540389 
L 97.535382 81.934726 
L 98.253644 81.934726 
L 98.253644 78.723398 
L 99.690169 78.723398 
L 99.690169 77.652956 
L 105.436267 77.652956 
L 105.436267 76.582513 
L 106.154529 76.582513 
L 106.154529 76.047292 
L 106.872792 76.047292 
L 106.872792 75.512071 
L 108.309316 75.512071 
L 108.309316 74.97685 
L 109.745841 74.97685 
L 109.745841 73.371186 
L 110.464103 73.371186 
L 110.464103 72.300743 
L 111.182365 72.300743 
L 111.182365 71.765522 
L 114.055414 71.765522 
L 114.055414 71.230301 
L 116.928463 71.230301 
L 116.928463 70.159858 
L 118.364988 70.159858 
L 118.364988 69.624637 
L 120.519775 69.624637 
L 120.519775 69.089416 
L 121.238037 69.089416 
L 121.238037 68.554195 
L 121.956299 68.554195 
L 121.956299 67.483752 
L 124.111086 67.483752 
L 124.111086 66.948531 
L 124.829348 66.948531 
L 124.829348 66.41331 
L 125.547611 66.41331 
L 125.547611 65.878088 
L 126.265873 65.878088 
L 126.265873 65.342867 
L 129.857184 65.342867 
L 129.857184 64.807646 
L 130.575447 64.807646 
L 130.575447 64.272425 
L 131.293709 64.272425 
L 131.293709 63.737204 
L 132.730233 63.737204 
L 132.730233 63.201982 
L 138.476331 63.201982 
L 138.476331 62.666761 
L 140.631118 62.666761 
L 140.631118 62.13154 
L 141.349381 62.13154 
L 141.349381 61.596319 
L 142.067643 61.596319 
L 142.067643 61.061097 
L 151.405052 61.061097 
L 151.405052 60.525876 
L 154.278101 60.525876 
L 154.278101 59.990655 
L 156.432888 59.990655 
L 156.432888 59.455434 
L 159.305937 59.455434 
L 159.305937 58.920212 
L 166.48856 58.920212 
L 166.48856 58.384991 
L 167.925084 58.384991 
L 167.925084 57.314549 
L 168.643347 57.314549 
L 168.643347 56.244106 
L 177.262494 56.244106 
L 177.262494 55.708885 
L 178.699019 55.708885 
L 178.699019 55.173664 
L 181.572068 55.173664 
L 181.572068 54.638442 
L 183.726854 54.638442 
L 183.726854 54.103221 
L 241.906098 54.103221 
L 241.906098 53.568 
L 398.487273 53.568 
L 398.487273 53.568 
" style="fill:none;stroke:#ff0000;stroke-linecap:square;stroke-opacity:0.8;stroke-width:1.5;"/>
   </g>
   <g id="line2d_17">
    <path clip-path="url(#p259ee235bd)" d="M 73.832727 295.488 
L 73.832727 286.92446 
L 74.55099 286.92446 
L 74.55099 274.07915 
L 75.269252 274.07915 
L 75.269252 261.233841 
L 75.987514 261.233841 
L 75.987514 253.740743 
L 76.705776 253.740743 
L 76.705776 222.697912 
L 77.424039 222.697912 
L 77.424039 219.486584 
L 78.142301 219.486584 
L 78.142301 215.204814 
L 78.860563 215.204814 
L 78.860563 205.570832 
L 79.578825 205.570832 
L 79.578825 198.077735 
L 80.297088 198.077735 
L 80.297088 193.260743 
L 81.01535 193.260743 
L 81.01535 188.443752 
L 81.733612 188.443752 
L 81.733612 169.175788 
L 82.451874 169.175788 
L 82.451874 166.499681 
L 83.170137 165.96446 
L 83.170137 165.429239 
L 83.888399 165.429239 
L 83.888399 159.541805 
L 84.606661 159.541805 
L 84.606661 140.809062 
L 85.324924 140.809062 
L 85.324924 133.851186 
L 86.043186 133.851186 
L 86.043186 122.076319 
L 86.761448 122.076319 
L 86.761448 117.259327 
L 87.47971 117.259327 
L 87.47971 113.512779 
L 88.916235 113.512779 
L 88.916235 106.554903 
L 89.634497 106.554903 
L 89.634497 103.878796 
L 90.352759 103.878796 
L 90.352759 101.20269 
L 91.071022 101.20269 
L 91.071022 99.061805 
L 91.789284 99.061805 
L 91.789284 91.033487 
L 92.507546 91.033487 
L 92.507546 90.498265 
L 93.944071 90.498265 
L 93.944071 88.892602 
L 94.662333 88.892602 
L 94.662333 88.357381 
L 95.380595 88.357381 
L 95.380595 85.146053 
L 96.098858 85.146053 
L 96.098858 84.610832 
L 97.535382 84.610832 
L 97.535382 84.075611 
L 98.253644 84.075611 
L 98.253644 80.864283 
L 100.408431 80.864283 
L 100.408431 80.329062 
L 103.28148 80.329062 
L 103.28148 79.258619 
L 103.999743 79.258619 
L 103.999743 78.188177 
L 104.718005 78.188177 
L 104.718005 76.582513 
L 105.436267 76.582513 
L 105.436267 76.047292 
L 106.872792 76.047292 
L 106.872792 72.300743 
L 108.309316 72.300743 
L 108.309316 70.69508 
L 109.027578 70.69508 
L 109.027578 69.624637 
L 110.464103 69.624637 
L 110.464103 68.554195 
L 111.182365 68.554195 
L 111.182365 66.41331 
L 111.900628 66.41331 
L 111.900628 65.878088 
L 114.773677 65.878088 
L 114.773677 65.342867 
L 115.491939 65.342867 
L 115.491939 64.272425 
L 119.801512 64.272425 
L 119.801512 63.737204 
L 131.293709 63.737204 
L 131.293709 63.201982 
L 132.011971 63.201982 
L 132.011971 62.666761 
L 132.730233 62.666761 
L 132.730233 62.13154 
L 134.166758 62.13154 
L 134.166758 61.596319 
L 139.912856 61.596319 
L 139.912856 61.061097 
L 154.278101 61.061097 
L 154.278101 60.525876 
L 155.714626 60.525876 
L 155.714626 59.990655 
L 156.432888 59.990655 
L 156.432888 59.455434 
L 159.305937 59.455434 
L 159.305937 58.920212 
L 165.770298 58.920212 
L 165.770298 57.84977 
L 179.417281 57.84977 
L 179.417281 57.314549 
L 183.008592 57.314549 
L 183.008592 56.779327 
L 183.726854 56.779327 
L 183.726854 56.244106 
L 190.909477 56.244106 
L 190.909477 55.708885 
L 211.020821 55.708885 
L 211.020821 55.173664 
L 227.540853 55.173664 
L 227.540853 54.638442 
L 261.299179 54.638442 
L 261.299179 54.103221 
L 281.410523 54.103221 
L 281.410523 53.568 
L 398.487273 53.568 
L 398.487273 53.568 
" style="fill:none;stroke:#ff0000;stroke-linecap:square;stroke-opacity:0.8;stroke-width:1.5;"/>
   </g>
   <g id="line2d_18">
    <path clip-path="url(#p259ee235bd)" d="M 73.832727 295.488 
L 73.832727 237.148885 
L 74.55099 237.148885 
L 74.55099 201.824283 
L 75.269252 201.824283 
L 75.269252 187.908531 
L 75.987514 187.908531 
L 75.987514 186.838088 
L 76.705776 186.838088 
L 76.705776 183.09154 
L 77.424039 183.09154 
L 77.424039 179.880212 
L 78.142301 179.880212 
L 78.142301 168.640566 
L 78.860563 168.640566 
L 78.860563 164.894018 
L 79.578825 164.894018 
L 79.578825 160.077027 
L 80.297088 160.077027 
L 80.297088 157.936142 
L 81.01535 157.936142 
L 81.01535 138.668177 
L 81.733612 138.668177 
L 81.733612 136.527292 
L 82.451874 136.527292 
L 82.451874 129.569416 
L 83.170137 129.569416 
L 83.170137 115.653664 
L 83.888399 115.653664 
L 83.888399 109.231009 
L 85.324924 109.231009 
L 85.324924 108.160566 
L 86.043186 108.160566 
L 86.043186 104.949239 
L 86.761448 104.949239 
L 86.761448 101.20269 
L 87.47971 101.20269 
L 87.47971 95.850478 
L 88.197973 95.850478 
L 88.197973 95.315257 
L 88.916235 95.315257 
L 88.916235 94.244814 
L 89.634497 94.244814 
L 89.634497 91.568708 
L 90.352759 91.568708 
L 90.352759 91.033487 
L 91.071022 91.033487 
L 91.071022 90.498265 
L 91.789284 90.498265 
L 91.789284 88.357381 
L 93.225809 88.357381 
L 93.225809 87.286938 
L 94.662333 87.286938 
L 94.662333 84.075611 
L 96.81712 84.075611 
L 96.81712 81.934726 
L 98.253644 81.934726 
L 98.253644 80.329062 
L 99.690169 80.329062 
L 99.690169 79.793841 
L 100.408431 79.793841 
L 100.408431 79.258619 
L 101.126693 79.258619 
L 101.126693 78.723398 
L 102.563218 78.723398 
L 102.563218 75.512071 
L 106.872792 75.512071 
L 106.872792 72.300743 
L 107.591054 72.300743 
L 107.591054 71.765522 
L 109.027578 71.765522 
L 109.027578 70.159858 
L 119.08325 70.159858 
L 119.08325 69.624637 
L 119.801512 69.624637 
L 119.801512 69.089416 
L 120.519775 69.089416 
L 120.519775 68.554195 
L 121.238037 68.554195 
L 121.238037 68.018973 
L 121.956299 68.018973 
L 121.956299 67.483752 
L 123.392824 67.483752 
L 123.392824 66.948531 
L 124.111086 66.948531 
L 124.111086 65.878088 
L 128.42066 65.878088 
L 128.42066 65.342867 
L 130.575447 65.342867 
L 130.575447 64.807646 
L 132.730233 64.807646 
L 132.730233 64.272425 
L 139.194594 64.272425 
L 139.194594 63.201982 
L 139.912856 63.201982 
L 139.912856 62.666761 
L 140.631118 62.666761 
L 140.631118 62.13154 
L 142.067643 62.13154 
L 142.067643 61.596319 
L 149.250265 61.596319 
L 149.250265 61.061097 
L 155.714626 61.061097 
L 155.714626 59.990655 
L 158.587675 59.990655 
L 158.587675 59.455434 
L 160.742462 59.455434 
L 160.742462 58.384991 
L 166.48856 58.384991 
L 166.48856 57.84977 
L 175.107707 57.84977 
L 175.107707 57.314549 
L 177.262494 57.314549 
L 177.262494 56.779327 
L 192.346002 56.779327 
L 192.346002 56.244106 
L 195.937313 56.244106 
L 195.937313 55.708885 
L 198.810362 55.708885 
L 198.810362 55.173664 
L 295.057506 55.173664 
L 295.057506 54.638442 
L 313.014063 54.638442 
L 313.014063 54.103221 
L 376.221142 54.103221 
L 376.221142 53.568 
L 398.487273 53.568 
L 398.487273 53.568 
" style="fill:none;stroke:#ff0000;stroke-linecap:square;stroke-opacity:0.8;stroke-width:1.5;"/>
   </g>
   <g id="line2d_19">
    <path clip-path="url(#p259ee235bd)" d="M 73.832727 295.488 
L 73.832727 295.488 
L 73.832727 294.952779 
L 73.832727 273.008708 
L 74.55099 273.008708 
L 74.55099 254.811186 
L 75.269252 254.811186 
L 75.269252 220.021805 
L 75.987514 220.021805 
L 75.987514 204.500389 
L 76.705776 204.500389 
L 76.705776 192.190301 
L 77.424039 192.190301 
L 77.424039 188.443752 
L 78.142301 188.443752 
L 78.142301 164.358796 
L 78.860563 164.358796 
L 78.860563 159.006584 
L 79.578825 159.006584 
L 79.578825 157.40092 
L 80.297088 157.40092 
L 80.297088 152.048708 
L 81.01535 152.048708 
L 81.01535 136.527292 
L 81.733612 136.527292 
L 81.733612 130.104637 
L 82.451874 130.104637 
L 82.451874 127.963752 
L 83.170137 127.963752 
L 83.170137 126.358088 
L 83.888399 126.358088 
L 83.888399 122.076319 
L 84.606661 122.076319 
L 84.606661 121.541097 
L 85.324924 121.541097 
L 85.324924 115.118442 
L 86.043186 115.118442 
L 86.043186 114.583221 
L 86.761448 114.583221 
L 86.761448 111.371894 
L 87.47971 111.371894 
L 87.47971 110.301451 
L 88.197973 110.301451 
L 88.197973 107.090124 
L 88.916235 107.090124 
L 88.916235 95.315257 
L 89.634497 95.315257 
L 89.634497 92.63915 
L 90.352759 92.63915 
L 90.352759 84.075611 
L 91.071022 84.075611 
L 91.071022 83.540389 
L 91.789284 83.540389 
L 91.789284 82.469947 
L 93.225809 82.469947 
L 93.225809 78.723398 
L 97.535382 78.723398 
L 97.535382 76.582513 
L 98.253644 76.582513 
L 98.253644 75.512071 
L 101.126693 75.512071 
L 101.126693 74.97685 
L 102.563218 74.97685 
L 102.563218 71.765522 
L 103.28148 71.765522 
L 103.28148 70.69508 
L 104.718005 70.69508 
L 104.718005 69.089416 
L 105.436267 69.089416 
L 105.436267 68.554195 
L 108.309316 68.554195 
L 108.309316 67.483752 
L 109.027578 67.483752 
L 109.027578 66.948531 
L 111.900628 66.948531 
L 111.900628 66.41331 
L 113.337152 66.41331 
L 113.337152 64.807646 
L 116.210201 64.807646 
L 116.210201 64.272425 
L 125.547611 64.272425 
L 125.547611 63.737204 
L 133.448496 63.737204 
L 133.448496 63.201982 
L 135.603282 63.201982 
L 135.603282 61.061097 
L 136.321545 61.061097 
L 136.321545 60.525876 
L 142.785905 60.525876 
L 142.785905 59.990655 
L 143.504167 59.990655 
L 143.504167 59.455434 
L 150.68679 59.455434 
L 150.68679 58.920212 
L 154.996364 58.920212 
L 154.996364 57.84977 
L 156.432888 57.84977 
L 156.432888 57.314549 
L 160.742462 57.314549 
L 160.742462 56.779327 
L 161.460724 56.779327 
L 161.460724 56.244106 
L 162.897249 56.244106 
L 162.897249 55.708885 
L 163.615511 55.708885 
L 163.615511 55.173664 
L 174.389445 55.173664 
L 174.389445 54.103221 
L 205.274722 54.103221 
L 205.274722 53.568 
L 398.487273 53.568 
" style="fill:none;stroke:#ff0000;stroke-linecap:square;stroke-opacity:0.8;stroke-width:1.5;"/>
   </g>
   <g id="line2d_20">
    <path clip-path="url(#p259ee235bd)" d="M 73.832727 295.488 
L 73.832727 262.839504 
L 74.55099 262.839504 
L 74.55099 224.303575 
L 75.269252 224.303575 
L 75.269252 215.740035 
L 75.987514 215.740035 
L 75.987514 195.93685 
L 76.705776 195.93685 
L 76.705776 190.584637 
L 77.424039 190.584637 
L 77.424039 173.992779 
L 78.142301 173.992779 
L 78.142301 173.457558 
L 78.860563 173.457558 
L 78.860563 163.823575 
L 79.578825 163.823575 
L 79.578825 152.048708 
L 80.297088 152.048708 
L 80.297088 147.231717 
L 81.01535 147.231717 
L 81.01535 138.132956 
L 81.733612 138.132956 
L 81.733612 127.963752 
L 82.451874 127.963752 
L 82.451874 124.217204 
L 83.170137 124.217204 
L 83.170137 122.61154 
L 83.888399 122.61154 
L 83.888399 119.400212 
L 84.606661 119.400212 
L 84.606661 110.301451 
L 86.761448 110.301451 
L 86.761448 107.090124 
L 88.197973 107.090124 
L 88.197973 104.414018 
L 90.352759 104.414018 
L 90.352759 103.343575 
L 91.071022 103.343575 
L 91.071022 102.808354 
L 91.789284 102.808354 
L 91.789284 101.737912 
L 93.944071 101.737912 
L 93.944071 101.20269 
L 94.662333 101.20269 
L 94.662333 97.991363 
L 95.380595 97.991363 
L 95.380595 97.456142 
L 97.535382 97.456142 
L 97.535382 93.709593 
L 98.253644 93.709593 
L 98.253644 90.498265 
L 98.971907 90.498265 
L 98.971907 88.357381 
L 99.690169 88.357381 
L 99.690169 86.216496 
L 101.126693 86.216496 
L 101.126693 85.681274 
L 103.28148 85.681274 
L 103.28148 85.146053 
L 103.999743 85.146053 
L 103.999743 84.610832 
L 106.154529 84.610832 
L 106.154529 84.075611 
L 107.591054 84.075611 
L 107.591054 81.934726 
L 108.309316 81.934726 
L 108.309316 81.399504 
L 109.027578 81.399504 
L 109.027578 80.864283 
L 110.464103 80.864283 
L 110.464103 79.793841 
L 111.182365 79.793841 
L 111.182365 77.117735 
L 112.61889 77.117735 
L 112.61889 76.582513 
L 113.337152 76.582513 
L 113.337152 74.441628 
L 114.773677 74.441628 
L 114.773677 73.906407 
L 115.491939 73.906407 
L 115.491939 72.835965 
L 116.210201 72.835965 
L 116.210201 72.300743 
L 117.646726 72.300743 
L 117.646726 71.765522 
L 122.674562 71.765522 
L 122.674562 71.230301 
L 124.829348 71.230301 
L 124.829348 70.69508 
L 126.265873 70.69508 
L 126.265873 70.159858 
L 128.42066 70.159858 
L 128.42066 69.624637 
L 130.575447 69.624637 
L 130.575447 69.089416 
L 131.293709 69.089416 
L 131.293709 68.554195 
L 134.166758 68.554195 
L 134.166758 68.018973 
L 134.88502 68.018973 
L 134.88502 67.483752 
L 135.603282 67.483752 
L 135.603282 66.948531 
L 136.321545 66.948531 
L 136.321545 66.41331 
L 138.476331 66.41331 
L 138.476331 64.807646 
L 139.912856 64.807646 
L 139.912856 64.272425 
L 142.785905 64.272425 
L 142.785905 63.737204 
L 143.504167 63.737204 
L 143.504167 62.666761 
L 144.22243 62.666761 
L 144.22243 61.596319 
L 146.377216 61.596319 
L 146.377216 61.061097 
L 147.095479 61.061097 
L 147.095479 60.525876 
L 148.532003 60.525876 
L 148.532003 59.990655 
L 149.968528 59.990655 
L 149.968528 58.920212 
L 154.278101 58.920212 
L 154.278101 58.384991 
L 154.996364 58.384991 
L 154.996364 57.84977 
L 159.305937 57.84977 
L 159.305937 57.314549 
L 160.742462 57.314549 
L 160.742462 56.779327 
L 162.178986 56.779327 
L 162.178986 56.244106 
L 172.234658 56.244106 
L 172.234658 55.708885 
L 182.29033 55.708885 
L 182.29033 55.173664 
L 197.373837 55.173664 
L 197.373837 54.638442 
L 283.56531 54.638442 
L 283.56531 54.103221 
L 289.311408 54.103221 
L 289.311408 53.568 
L 398.487273 53.568 
L 398.487273 53.568 
" style="fill:none;stroke:#ff0000;stroke-linecap:square;stroke-opacity:0.8;stroke-width:1.5;"/>
   </g>
   <g id="line2d_21">
    <path clip-path="url(#p259ee235bd)" d="M 73.832727 295.488 
L 73.832727 243.57154 
L 74.55099 243.57154 
L 74.55099 225.909239 
L 75.269252 225.909239 
L 75.269252 217.88092 
L 75.987514 217.88092 
L 75.987514 215.204814 
L 76.705776 215.204814 
L 76.705776 198.077735 
L 77.424039 198.077735 
L 77.424039 183.09154 
L 78.142301 183.09154 
L 78.142301 178.274549 
L 78.860563 178.274549 
L 78.860563 173.992779 
L 80.297088 173.992779 
L 80.297088 172.922336 
L 81.01535 172.922336 
L 81.01535 165.429239 
L 81.733612 165.429239 
L 81.733612 160.612248 
L 82.451874 160.612248 
L 82.451874 153.654372 
L 83.170137 153.654372 
L 83.170137 141.879504 
L 83.888399 141.879504 
L 83.888399 127.963752 
L 84.606661 127.963752 
L 84.606661 127.428531 
L 85.324924 127.428531 
L 85.324924 116.724106 
L 86.043186 116.724106 
L 86.043186 108.695788 
L 86.761448 108.695788 
L 86.761448 107.625345 
L 88.916235 107.625345 
L 88.916235 104.414018 
L 90.352759 104.414018 
L 90.352759 103.343575 
L 91.071022 103.343575 
L 91.071022 102.808354 
L 93.225809 102.808354 
L 93.225809 95.850478 
L 94.662333 95.850478 
L 94.662333 92.103929 
L 96.098858 92.103929 
L 96.098858 91.033487 
L 96.81712 91.033487 
L 96.81712 90.498265 
L 97.535382 90.498265 
L 97.535382 89.963044 
L 98.253644 89.963044 
L 98.253644 89.427823 
L 98.971907 89.427823 
L 98.971907 87.822159 
L 100.408431 87.822159 
L 100.408431 87.286938 
L 101.126693 87.286938 
L 101.126693 86.751717 
L 101.844956 86.751717 
L 101.844956 85.681274 
L 102.563218 85.681274 
L 102.563218 85.146053 
L 104.718005 85.146053 
L 104.718005 84.610832 
L 105.436267 84.610832 
L 105.436267 81.934726 
L 106.154529 81.934726 
L 106.154529 79.793841 
L 108.309316 79.793841 
L 108.309316 79.258619 
L 109.027578 79.258619 
L 109.027578 78.723398 
L 109.745841 78.723398 
L 109.745841 78.188177 
L 111.182365 78.188177 
L 111.182365 77.117735 
L 111.900628 77.117735 
L 111.900628 76.582513 
L 112.61889 76.582513 
L 112.61889 76.047292 
L 114.773677 76.047292 
L 114.773677 75.512071 
L 115.491939 75.512071 
L 115.491939 73.906407 
L 117.646726 73.906407 
L 117.646726 72.300743 
L 121.238037 72.300743 
L 121.238037 71.765522 
L 123.392824 71.765522 
L 123.392824 71.230301 
L 124.111086 71.230301 
L 124.111086 70.69508 
L 124.829348 70.69508 
L 124.829348 69.624637 
L 125.547611 69.624637 
L 125.547611 69.089416 
L 126.265873 69.089416 
L 126.265873 68.554195 
L 130.575447 68.554195 
L 130.575447 68.018973 
L 134.166758 68.018973 
L 134.166758 67.483752 
L 135.603282 67.483752 
L 135.603282 65.878088 
L 136.321545 65.878088 
L 136.321545 65.342867 
L 137.039807 65.342867 
L 137.039807 64.807646 
L 138.476331 64.807646 
L 139.194594 64.272425 
L 141.349381 64.272425 
L 141.349381 63.737204 
L 142.067643 63.737204 
L 142.067643 63.201982 
L 143.504167 63.201982 
L 143.504167 62.666761 
L 144.940692 62.666761 
L 144.940692 62.13154 
L 146.377216 62.13154 
L 146.377216 61.596319 
L 147.095479 61.596319 
L 147.095479 61.061097 
L 152.123315 61.061097 
L 152.123315 60.525876 
L 154.996364 60.525876 
L 154.996364 59.990655 
L 156.432888 59.990655 
L 156.432888 58.920212 
L 158.587675 58.920212 
L 158.587675 58.384991 
L 159.305937 58.384991 
L 159.305937 57.84977 
L 162.897249 57.84977 
L 162.897249 57.314549 
L 165.770298 57.314549 
L 165.770298 56.779327 
L 167.206822 56.779327 
L 167.206822 56.244106 
L 170.079871 56.244106 
L 170.079871 55.708885 
L 171.516396 55.708885 
L 171.516396 55.173664 
L 190.191215 55.173664 
L 190.191215 54.638442 
L 219.639968 54.638442 
L 219.639968 54.103221 
L 221.794755 54.103221 
L 221.794755 53.568 
L 398.487273 53.568 
L 398.487273 53.568 
" style="fill:none;stroke:#ff0000;stroke-linecap:square;stroke-opacity:0.8;stroke-width:1.5;"/>
   </g>
   <g id="line2d_22">
    <path clip-path="url(#p259ee235bd)" d="M 73.832727 295.488 
L 73.832727 255.168 
L 74.554182 255.168 
L 74.554182 208.9344 
L 75.275636 208.9344 
L 75.275636 198.72 
L 75.997091 198.72 
L 75.997091 191.1936 
L 76.718545 191.1936 
L 76.718545 164.3136 
L 77.44 164.3136 
L 77.44 163.2384 
L 78.161455 163.2384 
L 78.161455 155.712 
L 78.882909 155.712 
L 78.882909 148.1856 
L 79.604364 148.1856 
L 79.604364 146.5728 
L 80.325818 146.5728 
L 80.325818 144.4224 
L 81.047273 144.4224 
L 81.047273 135.8208 
L 81.768727 135.8208 
L 81.768727 132.5952 
L 82.490182 132.5952 
L 82.490182 123.9936 
L 83.211636 123.9936 
L 83.211636 108.9408 
L 83.933091 108.9408 
L 83.933091 107.328 
L 84.654545 107.328 
L 84.654545 103.5648 
L 85.376 103.5648 
L 85.376 103.0272 
L 86.818909 103.0272 
L 86.818909 98.7264 
L 87.540364 98.7264 
L 87.540364 98.1888 
L 88.261818 98.1888 
L 88.261818 97.1136 
L 88.983273 97.1136 
L 88.983273 94.4256 
L 89.704727 94.4256 
L 89.704727 92.8128 
L 90.426182 92.8128 
L 90.426182 92.2752 
L 91.147636 92.2752 
L 91.147636 90.6624 
L 91.869091 90.6624 
L 91.869091 89.5872 
L 92.590545 89.5872 
L 92.590545 89.0496 
L 93.312 89.0496 
L 93.312 88.512 
L 94.754909 88.512 
L 94.754909 85.2864 
L 95.476364 85.2864 
L 95.476364 84.7488 
L 97.640727 84.7488 
L 97.640727 84.2112 
L 99.083636 84.2112 
L 99.083636 83.6736 
L 101.969455 83.6736 
L 101.969455 82.0608 
L 103.412364 82.0608 
L 103.412364 81.5232 
L 104.855273 81.5232 
L 104.855273 80.9856 
L 109.184 80.9856 
L 109.184 79.9104 
L 112.069818 79.9104 
L 112.069818 79.3728 
L 113.512727 79.3728 
L 113.512727 77.2224 
L 115.677091 77.2224 
L 115.677091 76.6848 
L 117.12 76.6848 
L 117.12 76.1472 
L 119.284364 76.1472 
L 119.284364 75.072 
L 120.005818 75.072 
L 120.005818 74.5344 
L 124.334545 74.5344 
L 124.334545 73.9968 
L 127.220364 73.9968 
L 127.220364 73.4592 
L 129.384727 73.4592 
L 129.384727 72.9216 
L 130.106182 72.9216 
L 130.106182 72.384 
L 131.549091 72.384 
L 131.549091 71.8464 
L 132.270545 71.8464 
L 132.270545 71.3088 
L 133.713455 71.3088 
L 133.713455 70.7712 
L 134.434909 70.7712 
L 134.434909 69.696 
L 135.156364 69.696 
L 135.156364 69.1584 
L 135.877818 69.1584 
L 135.877818 68.6208 
L 142.370909 68.6208 
L 142.370909 67.5456 
L 144.535273 67.5456 
L 144.535273 65.9328 
L 145.978182 65.9328 
L 145.978182 65.3952 
L 150.306909 65.3952 
L 150.306909 64.8576 
L 151.028364 64.8576 
L 151.028364 64.32 
L 152.471273 64.32 
L 152.471273 63.7824 
L 155.357091 63.7824 
L 155.357091 63.2448 
L 156.078545 63.2448 
L 156.078545 62.1696 
L 158.242909 62.1696 
L 158.242909 61.0944 
L 166.178909 61.0944 
L 166.178909 60.5568 
L 166.900364 60.5568 
L 166.900364 59.4816 
L 172.672 59.4816 
L 172.672 58.944 
L 175.557818 58.944 
L 175.557818 58.4064 
L 178.443636 58.4064 
L 178.443636 57.8688 
L 186.379636 57.8688 
L 186.379636 57.3312 
L 187.822545 57.3312 
L 187.822545 56.7936 
L 197.201455 56.7936 
L 197.201455 56.256 
L 200.087273 56.256 
L 200.087273 55.7184 
L 207.301818 55.7184 
L 207.301818 55.1808 
L 223.895273 55.1808 
L 223.895273 54.6432 
L 247.703273 54.6432 
L 247.703273 54.1056 
L 386.222545 54.1056 
L 386.222545 53.568 
L 398.487273 53.568 
L 398.487273 53.568 
" style="fill:none;stroke:#ff0000;stroke-linecap:square;stroke-opacity:0.8;stroke-width:1.5;"/>
   </g>
   <g id="line2d_23">
    <path clip-path="url(#p259ee235bd)" d="M 73.832727 295.488 
L 74.157707 264.135501 
L 74.482686 264.111284 
L 74.807666 231.311071 
L 75.132645 231.286855 
L 75.457625 216.125395 
L 75.782604 216.125395 
L 76.107584 202.15279 
L 76.432563 202.15279 
L 76.757543 186.994135 
L 77.407502 186.994135 
L 77.732482 175.004704 
L 78.057461 175.004704 
L 78.382441 166.063179 
L 78.70742 166.063179 
L 79.0324 159.04845 
L 79.357379 159.04845 
L 79.682359 152.089861 
L 80.007338 152.089861 
L 80.332318 148.181794 
L 80.982277 148.181794 
L 81.307256 141.059545 
L 81.632236 141.059545 
L 81.957215 134.207286 
L 82.282195 134.207286 
L 82.607174 129.160828 
L 82.932154 129.136612 
L 83.257133 121.083899 
L 83.582113 121.083899 
L 83.907093 116.695085 
L 84.232072 116.533805 
L 84.557052 116.533805 
L 84.882031 112.143326 
L 85.207011 112.143326 
L 85.53199 108.235973 
L 85.85697 108.235973 
L 86.181949 104.864079 
L 86.506929 104.864079 
L 86.831908 101.383238 
L 87.156888 101.383238 
L 87.481867 99.563486 
L 88.131826 99.509726 
L 88.456806 98.599374 
L 88.781785 98.599374 
L 89.106765 95.761512 
L 89.431744 95.761512 
L 89.756724 94.369223 
L 90.081704 94.369223 
L 90.406683 92.495949 
L 91.056642 92.442189 
L 91.381622 91.263989 
L 91.706601 91.263989 
L 92.031581 89.283194 
L 92.35656 89.283194 
L 92.68154 88.908302 
L 93.006519 88.908302 
L 93.331499 87.355922 
L 93.656478 87.355922 
L 93.981458 86.874223 
L 94.631417 86.874223 
L 94.956396 85.320654 
L 95.281376 85.320654 
L 95.606355 84.41054 
L 95.931335 84.41054 
L 96.256314 84.249974 
L 96.581294 84.249974 
L 96.906274 83.66123 
L 97.231253 83.66123 
L 97.556233 82.269655 
L 98.206192 82.215895 
L 98.531171 80.931364 
L 98.856151 80.931364 
L 99.18113 80.074772 
L 99.50611 80.074772 
L 99.831089 79.646595 
L 100.156069 79.646595 
L 100.481048 79.378985 
L 100.806028 79.378985 
L 101.131007 79.111374 
L 101.780966 79.111374 
L 102.105946 78.736006 
L 102.430925 78.736006 
L 102.755905 78.040218 
L 103.080885 78.040218 
L 103.405864 77.612041 
L 103.730844 77.558281 
L 104.055823 77.29067 
L 104.705782 77.29067 
L 105.030762 76.755211 
L 105.355741 76.755211 
L 105.680721 76.273512 
L 106.0057 76.273512 
L 106.33068 75.845335 
L 106.655659 75.845335 
L 106.980639 75.096025 
L 107.305618 75.096025 
L 107.630598 74.721371 
L 108.280557 74.721371 
L 108.605536 74.293194 
L 108.930516 74.293194 
L 109.255495 73.757497 
L 109.580475 73.757497 
L 109.905455 73.382842 
L 110.230434 73.382842 
L 110.555414 72.901143 
L 110.880393 72.901143 
L 111.205373 72.151833 
L 111.855332 72.151833 
L 112.180311 71.669896 
L 112.505291 71.669896 
L 112.83027 71.402285 
L 113.15525 71.402285 
L 113.480229 70.974108 
L 113.805209 70.759068 
L 115.430106 70.491458 
L 115.755086 70.063043 
L 116.080066 70.063043 
L 116.405045 69.848954 
L 116.730025 69.848954 
L 117.055004 69.527822 
L 117.379984 69.474062 
L 117.704963 69.099407 
L 118.354922 69.099407 
L 118.679902 68.93884 
L 119.004881 68.93884 
L 119.329861 68.777798 
L 119.97982 68.670754 
L 120.304799 68.616994 
L 120.629779 68.402905 
L 120.954758 68.402905 
L 121.279738 68.188817 
L 121.929697 68.188817 
L 122.254676 67.814162 
L 122.579656 67.814162 
L 122.904636 67.493029 
L 123.879574 67.385985 
L 124.204554 67.118375 
L 124.529533 67.064615 
L 124.854513 66.797004 
L 125.504472 66.797004 
L 125.829451 66.475871 
L 126.154431 66.475871 
L 126.47941 66.261783 
L 127.129369 66.154738 
L 127.454349 66.100978 
L 127.779328 65.88689 
L 128.104308 65.88689 
L 128.429287 65.672801 
L 129.079247 65.672801 
L 129.404226 65.511997 
L 130.379165 65.404715 
L 130.704144 65.083582 
L 131.029124 65.083582 
L 131.354103 64.869494 
L 132.654021 64.601407 
L 132.979001 64.440841 
L 133.953939 64.333559 
L 134.603898 64.065473 
L 135.578837 63.95819 
L 135.903817 63.369209 
L 136.228796 63.369209 
L 136.553776 63.208643 
L 137.528714 63.101599 
L 139.803571 62.673422 
L 140.12855 62.512855 
L 140.45353 62.512855 
L 140.778509 62.298767 
L 141.103489 62.298767 
L 141.428468 62.031156 
L 141.753448 62.031156 
L 142.403407 61.76307 
L 143.378346 61.656025 
L 143.703325 61.388415 
L 144.353284 61.281371 
L 145.003243 61.013046 
L 146.303161 60.905764 
L 146.628141 60.691676 
L 148.253038 60.584632 
L 149.552957 60.477587 
L 150.202916 60.370543 
L 152.802752 60.048697 
L 154.10267 60.048697 
L 154.427649 59.88813 
L 154.752629 59.88813 
L 155.077609 59.62052 
L 156.377527 59.298673 
L 156.702506 58.977541 
L 158.002424 58.870496 
L 158.977363 58.655932 
L 159.302342 58.655932 
L 159.627322 58.441844 
L 160.60226 58.388321 
L 160.92724 58.174233 
L 162.877117 58.067189 
L 163.852056 57.8531 
L 165.476953 57.799578 
L 165.801933 57.639012 
L 166.451892 57.585252 
L 167.42683 57.317165 
L 168.401769 57.210121 
L 169.051728 57.103077 
L 170.676626 57.049555 
L 171.326585 56.94251 
L 173.601441 56.674662 
L 174.90136 56.567618 
L 176.201278 56.460336 
L 177.176216 56.460336 
L 177.501196 56.299769 
L 178.476134 56.192487 
L 179.126093 56.085443 
L 180.426011 55.978399 
L 182.050909 55.924876 
L 182.700868 55.817832 
L 184.325766 55.657266 
L 187.575561 55.549984 
L 188.5505 55.496224 
L 190.825356 55.442702 
L 191.150336 55.282135 
L 195.05009 55.175091 
L 195.700049 55.068047 
L 196.674988 55.014525 
L 197.974906 54.907242 
L 199.274824 54.800198 
L 206.424373 54.692916 
L 207.724292 54.585634 
L 217.473677 54.47859 
L 218.448616 54.425068 
L 223.648288 54.318023 
L 224.623227 54.264263 
L 246.071876 54.157219 
L 247.046814 54.103697 
L 281.169664 53.996415 
L 282.144603 53.942893 
L 294.818804 53.835848 
L 295.793743 53.782326 
L 386.138051 53.675282 
L 387.112989 53.621522 
L 398.487273 53.568 
L 398.487273 53.568 
" style="fill:none;stroke:#000000;stroke-linecap:square;stroke-width:2;"/>
   </g>
   <g id="line2d_24">
    <path clip-path="url(#p259ee235bd)" d="M 73.832727 126.144 
L 73.832727 122.960842 
L 73.832727 119.777684 
L 73.832727 116.594526 
L 73.832727 113.411368 
L 73.832727 110.228211 
L 73.832727 107.045053 
L 73.832727 103.861895 
L 73.832727 100.678737 
L 73.832727 97.495579 
L 73.832727 94.312421 
L 73.832727 91.129263 
L 73.832727 87.946105 
L 73.832727 84.762947 
L 73.832727 81.579789 
L 73.832727 78.396632 
L 73.832727 75.213474 
L 73.832727 72.030316 
L 73.832727 68.847158 
L 73.832727 65.664 
" style="fill:none;stroke:#000000;stroke-dasharray:1,1.65;stroke-dashoffset:0;"/>
   </g>
   <g id="line2d_25">
    <path clip-path="url(#p259ee235bd)" d="M 73.832727 126.144 
L 78.104498 126.144 
L 82.376268 126.144 
L 86.648038 126.144 
L 90.919809 126.144 
L 95.191579 126.144 
L 99.463349 126.144 
L 103.73512 126.144 
L 108.00689 126.144 
L 112.27866 126.144 
L 116.550431 126.144 
L 120.822201 126.144 
L 125.093971 126.144 
L 129.365742 126.144 
L 133.637512 126.144 
L 137.909282 126.144 
L 142.181053 126.144 
L 146.452823 126.144 
L 150.724593 126.144 
L 154.996364 126.144 
" style="fill:none;stroke:#000000;stroke-dasharray:1,1.65;stroke-dashoffset:0;"/>
   </g>
   <g id="line2d_26">
    <path clip-path="url(#p259ee235bd)" d="M 154.996364 126.144 
L 154.996364 122.960842 
L 154.996364 119.777684 
L 154.996364 116.594526 
L 154.996364 113.411368 
L 154.996364 110.228211 
L 154.996364 107.045053 
L 154.996364 103.861895 
L 154.996364 100.678737 
L 154.996364 97.495579 
L 154.996364 94.312421 
L 154.996364 91.129263 
L 154.996364 87.946105 
L 154.996364 84.762947 
L 154.996364 81.579789 
L 154.996364 78.396632 
L 154.996364 75.213474 
L 154.996364 72.030316 
L 154.996364 68.847158 
L 154.996364 65.664 
" style="fill:none;stroke:#000000;stroke-dasharray:1,1.65;stroke-dashoffset:0;"/>
   </g>
   <g id="line2d_27">
    <path clip-path="url(#p259ee235bd)" d="M 73.832727 65.664 
L 78.104498 65.664 
L 82.376268 65.664 
L 86.648038 65.664 
L 90.919809 65.664 
L 95.191579 65.664 
L 99.463349 65.664 
L 103.73512 65.664 
L 108.00689 65.664 
L 112.27866 65.664 
L 116.550431 65.664 
L 120.822201 65.664 
L 125.093971 65.664 
L 129.365742 65.664 
L 133.637512 65.664 
L 137.909282 65.664 
L 142.181053 65.664 
L 146.452823 65.664 
L 150.724593 65.664 
L 154.996364 65.664 
" style="fill:none;stroke:#000000;stroke-dasharray:1,1.65;stroke-dashoffset:0;"/>
   </g>
   <g id="line2d_28">
    <path clip-path="url(#p259ee235bd)" d="M 236.16 295.488 
L 236.16 289.121684 
L 236.16 282.755368 
L 236.16 276.389053 
L 236.16 270.022737 
L 236.16 263.656421 
L 236.16 257.290105 
L 236.16 250.923789 
L 236.16 244.557474 
L 236.16 238.191158 
L 236.16 231.824842 
L 236.16 225.458526 
L 236.16 219.092211 
L 236.16 212.725895 
L 236.16 206.359579 
L 236.16 199.993263 
L 236.16 193.626947 
L 236.16 187.260632 
L 236.16 180.894316 
L 236.16 174.528 
" style="fill:none;stroke:#000000;stroke-dasharray:1,1.65;stroke-dashoffset:0;"/>
   </g>
   <g id="line2d_29">
    <path clip-path="url(#p259ee235bd)" d="M 236.16 295.488 
L 240.43177 295.488 
L 244.703541 295.488 
L 248.975311 295.488 
L 253.247081 295.488 
L 257.518852 295.488 
L 261.790622 295.488 
L 266.062392 295.488 
L 270.334163 295.488 
L 274.605933 295.488 
L 278.877703 295.488 
L 283.149474 295.488 
L 287.421244 295.488 
L 291.693014 295.488 
L 295.964785 295.488 
L 300.236555 295.488 
L 304.508325 295.488 
L 308.780096 295.488 
L 313.051866 295.488 
L 317.323636 295.488 
" style="fill:none;stroke:#000000;stroke-dasharray:1,1.65;stroke-dashoffset:0;"/>
   </g>
   <g id="line2d_30">
    <path clip-path="url(#p259ee235bd)" d="M 317.323636 295.488 
L 317.323636 289.121684 
L 317.323636 282.755368 
L 317.323636 276.389053 
L 317.323636 270.022737 
L 317.323636 263.656421 
L 317.323636 257.290105 
L 317.323636 250.923789 
L 317.323636 244.557474 
L 317.323636 238.191158 
L 317.323636 231.824842 
L 317.323636 225.458526 
L 317.323636 219.092211 
L 317.323636 212.725895 
L 317.323636 206.359579 
L 317.323636 199.993263 
L 317.323636 193.626947 
L 317.323636 187.260632 
L 317.323636 180.894316 
L 317.323636 174.528 
" style="fill:none;stroke:#000000;stroke-dasharray:1,1.65;stroke-dashoffset:0;"/>
   </g>
   <g id="line2d_31">
    <path clip-path="url(#p259ee235bd)" d="M 236.16 174.528 
L 240.43177 174.528 
L 244.703541 174.528 
L 248.975311 174.528 
L 253.247081 174.528 
L 257.518852 174.528 
L 261.790622 174.528 
L 266.062392 174.528 
L 270.334163 174.528 
L 274.605933 174.528 
L 278.877703 174.528 
L 283.149474 174.528 
L 287.421244 174.528 
L 291.693014 174.528 
L 295.964785 174.528 
L 300.236555 174.528 
L 304.508325 174.528 
L 308.780096 174.528 
L 313.051866 174.528 
L 317.323636 174.528 
" style="fill:none;stroke:#000000;stroke-dasharray:1,1.65;stroke-dashoffset:0;"/>
   </g>
   <g id="line2d_32">
    <path clip-path="url(#p259ee235bd)" d="M 154.996364 126.144 
L 159.268134 128.690526 
L 163.539904 131.237053 
L 167.811675 133.783579 
L 172.083445 136.330105 
L 176.355215 138.876632 
L 180.626986 141.423158 
L 184.898756 143.969684 
L 189.170526 146.516211 
L 193.442297 149.062737 
L 197.714067 151.609263 
L 201.985837 154.155789 
L 206.257608 156.702316 
L 210.529378 159.248842 
L 214.801148 161.795368 
L 219.072919 164.341895 
L 223.344689 166.888421 
L 227.616459 169.434947 
L 231.88823 171.981474 
L 236.16 174.528 
" style="fill:none;stroke:#000000;stroke-dasharray:1,1.65;stroke-dashoffset:0;"/>
   </g>
   <g id="line2d_33">
    <path clip-path="url(#p259ee235bd)" d="M 255.008812 285.367799 
L 255.658771 285.367799 
L 256.308731 276.590171 
L 256.95869 276.267611 
L 257.608649 276.267611 
L 258.258608 267.486652 
L 258.908567 267.486652 
L 259.558526 259.671946 
L 260.208485 259.671946 
L 260.858444 252.928159 
L 261.508403 252.928159 
L 262.158362 245.966476 
L 262.808321 245.966476 
L 263.45828 242.326972 
L 264.758198 242.219452 
L 265.408157 240.398748 
L 266.058116 240.398748 
L 266.708075 234.723024 
L 267.358034 234.723024 
L 268.007993 231.938447 
L 268.657952 231.938447 
L 269.307912 228.191898 
L 270.60783 228.084378 
L 271.257789 225.727977 
L 271.907748 225.727977 
L 272.557707 221.766389 
L 273.207666 221.766389 
L 273.857625 221.016603 
L 274.507584 221.016603 
L 275.157543 217.911844 
L 275.807502 217.911844 
L 276.457461 216.948446 
L 277.757379 216.948446 
L 278.407338 213.841308 
L 279.057297 213.841308 
L 279.707256 212.02108 
L 280.357215 212.02108 
L 281.007174 211.699948 
L 281.657133 211.699948 
L 282.307093 210.522461 
L 282.957052 210.522461 
L 283.607011 207.73931 
L 284.906929 207.63179 
L 285.556888 205.062728 
L 286.206847 205.062728 
L 286.856806 203.349545 
L 287.506765 203.349545 
L 288.156724 202.493191 
L 288.806683 202.493191 
L 289.456642 201.95797 
L 290.106601 201.95797 
L 290.75656 201.422748 
L 292.056478 201.422748 
L 292.706437 200.672011 
L 293.356396 200.672011 
L 294.006355 199.280436 
L 294.656314 199.280436 
L 295.306274 198.424082 
L 295.956233 198.316562 
L 296.606192 197.781341 
L 297.90611 197.781341 
L 298.556069 196.710423 
L 299.206028 196.710423 
L 299.855987 195.747024 
L 300.505946 195.747024 
L 301.155905 194.89067 
L 301.805864 194.89067 
L 302.455823 193.392051 
L 303.105782 193.392051 
L 303.755741 192.642741 
L 305.055659 192.642741 
L 305.705618 191.786387 
L 306.355577 191.786387 
L 307.005536 190.714993 
L 307.655495 190.714993 
L 308.305455 189.965684 
L 308.955414 189.965684 
L 309.605373 189.002285 
L 310.255332 189.002285 
L 310.905291 187.503666 
L 312.205209 187.503666 
L 312.855168 186.539792 
L 313.505127 186.539792 
L 314.155086 186.004571 
L 314.805045 186.004571 
L 315.455004 185.148217 
L 316.104963 184.718137 
L 317.404881 184.611092 
L 318.05484 184.182915 
L 319.354758 184.182915 
L 320.004717 183.326086 
L 320.654676 183.326086 
L 321.304636 182.897909 
L 321.954595 182.897909 
L 322.604554 182.255643 
L 323.254513 182.148123 
L 323.904472 181.398813 
L 325.20439 181.398813 
L 325.854349 181.077681 
L 326.504308 181.077681 
L 327.154267 180.755596 
L 327.804226 180.755596 
L 331.70398 179.577634 
L 332.353939 179.577634 
L 333.003898 178.828324 
L 333.653857 178.828324 
L 334.303817 178.186059 
L 334.953776 178.186059 
L 335.603735 177.97197 
L 336.253694 177.97197 
L 336.903653 177.436749 
L 337.553612 177.329229 
L 338.203571 176.794008 
L 339.503489 176.794008 
L 340.153448 176.151742 
L 340.803407 176.151742 
L 341.453366 175.723565 
L 342.103325 175.723565 
L 346.003079 174.545603 
L 346.653038 174.545603 
L 346.653038 174.545603 
" style="fill:none;stroke:#000000;stroke-linecap:square;stroke-width:2;"/>
   </g>
   <g id="patch_3">
    <path d="M 57.6 307.584 
L 57.6 41.472 
" style="fill:none;stroke:#000000;stroke-linecap:square;stroke-linejoin:miter;stroke-width:0.8;"/>
   </g>
   <g id="patch_4">
    <path d="M 414.72 307.584 
L 414.72 41.472 
" style="fill:none;stroke:#000000;stroke-linecap:square;stroke-linejoin:miter;stroke-width:0.8;"/>
   </g>
   <g id="patch_5">
    <path d="M 57.6 307.584 
L 414.72 307.584 
" style="fill:none;stroke:#000000;stroke-linecap:square;stroke-linejoin:miter;stroke-width:0.8;"/>
   </g>
   <g id="patch_6">
    <path d="M 57.6 41.472 
L 414.72 41.472 
" style="fill:none;stroke:#000000;stroke-linecap:square;stroke-linejoin:miter;stroke-width:0.8;"/>
   </g>
   <g id="legend_1">
    <g id="patch_7">
     <path d="M 165.081875 256.757687 
L 307.238125 256.757687 
Q 309.238125 256.757687 309.238125 254.757687 
L 309.238125 94.298313 
Q 309.238125 92.298313 307.238125 92.298313 
L 165.081875 92.298313 
Q 163.081875 92.298313 163.081875 94.298313 
L 163.081875 254.757687 
Q 163.081875 256.757687 165.081875 256.757687 
z
" style="fill:#ffffff;opacity:0.8;stroke:#cccccc;stroke-linejoin:miter;"/>
    </g>
    <g id="line2d_34">
     <path d="M 167.081875 100.39675 
L 187.081875 100.39675 
" style="fill:none;stroke:#ff0000;stroke-linecap:square;stroke-opacity:0.8;stroke-width:1.5;"/>
    </g>
    <g id="line2d_35"/>
    <g id="text_15">
     <!-- fold 0 (AUC = 0.9665) -->
     <defs>
      <path d="M 37.109375 75.984375 
L 37.109375 68.5 
L 28.515625 68.5 
Q 23.6875 68.5 21.796875 66.546875 
Q 19.921875 64.59375 19.921875 59.515625 
L 19.921875 54.6875 
L 34.71875 54.6875 
L 34.71875 47.703125 
L 19.921875 47.703125 
L 19.921875 0 
L 10.890625 0 
L 10.890625 47.703125 
L 2.296875 47.703125 
L 2.296875 54.6875 
L 10.890625 54.6875 
L 10.890625 58.5 
Q 10.890625 67.625 15.140625 71.796875 
Q 19.390625 75.984375 28.609375 75.984375 
z
" id="DejaVuSans-102"/>
      <path d="M 45.40625 46.390625 
L 45.40625 75.984375 
L 54.390625 75.984375 
L 54.390625 0 
L 45.40625 0 
L 45.40625 8.203125 
Q 42.578125 3.328125 38.25 0.953125 
Q 33.9375 -1.421875 27.875 -1.421875 
Q 17.96875 -1.421875 11.734375 6.484375 
Q 5.515625 14.40625 5.515625 27.296875 
Q 5.515625 40.1875 11.734375 48.09375 
Q 17.96875 56 27.875 56 
Q 33.9375 56 38.25 53.625 
Q 42.578125 51.265625 45.40625 46.390625 
z
M 14.796875 27.296875 
Q 14.796875 17.390625 18.875 11.75 
Q 22.953125 6.109375 30.078125 6.109375 
Q 37.203125 6.109375 41.296875 11.75 
Q 45.40625 17.390625 45.40625 27.296875 
Q 45.40625 37.203125 41.296875 42.84375 
Q 37.203125 48.484375 30.078125 48.484375 
Q 22.953125 48.484375 18.875 42.84375 
Q 14.796875 37.203125 14.796875 27.296875 
z
" id="DejaVuSans-100"/>
      <path d="M 31 75.875 
Q 24.46875 64.65625 21.28125 53.65625 
Q 18.109375 42.671875 18.109375 31.390625 
Q 18.109375 20.125 21.3125 9.0625 
Q 24.515625 -2 31 -13.1875 
L 23.1875 -13.1875 
Q 15.875 -1.703125 12.234375 9.375 
Q 8.59375 20.453125 8.59375 31.390625 
Q 8.59375 42.28125 12.203125 53.3125 
Q 15.828125 64.359375 23.1875 75.875 
z
" id="DejaVuSans-40"/>
      <path d="M 34.1875 63.1875 
L 20.796875 26.90625 
L 47.609375 26.90625 
z
M 28.609375 72.90625 
L 39.796875 72.90625 
L 67.578125 0 
L 57.328125 0 
L 50.6875 18.703125 
L 17.828125 18.703125 
L 11.1875 0 
L 0.78125 0 
z
" id="DejaVuSans-65"/>
      <path d="M 8.6875 72.90625 
L 18.609375 72.90625 
L 18.609375 28.609375 
Q 18.609375 16.890625 22.84375 11.734375 
Q 27.09375 6.59375 36.625 6.59375 
Q 46.09375 6.59375 50.34375 11.734375 
Q 54.59375 16.890625 54.59375 28.609375 
L 54.59375 72.90625 
L 64.5 72.90625 
L 64.5 27.390625 
Q 64.5 13.140625 57.4375 5.859375 
Q 50.390625 -1.421875 36.625 -1.421875 
Q 22.796875 -1.421875 15.734375 5.859375 
Q 8.6875 13.140625 8.6875 27.390625 
z
" id="DejaVuSans-85"/>
      <path d="M 64.40625 67.28125 
L 64.40625 56.890625 
Q 59.421875 61.53125 53.78125 63.8125 
Q 48.140625 66.109375 41.796875 66.109375 
Q 29.296875 66.109375 22.65625 58.46875 
Q 16.015625 50.828125 16.015625 36.375 
Q 16.015625 21.96875 22.65625 14.328125 
Q 29.296875 6.6875 41.796875 6.6875 
Q 48.140625 6.6875 53.78125 8.984375 
Q 59.421875 11.28125 64.40625 15.921875 
L 64.40625 5.609375 
Q 59.234375 2.09375 53.4375 0.328125 
Q 47.65625 -1.421875 41.21875 -1.421875 
Q 24.65625 -1.421875 15.125 8.703125 
Q 5.609375 18.84375 5.609375 36.375 
Q 5.609375 53.953125 15.125 64.078125 
Q 24.65625 74.21875 41.21875 74.21875 
Q 47.75 74.21875 53.53125 72.484375 
Q 59.328125 70.75 64.40625 67.28125 
z
" id="DejaVuSans-67"/>
      <path d="M 10.59375 45.40625 
L 73.1875 45.40625 
L 73.1875 37.203125 
L 10.59375 37.203125 
z
M 10.59375 25.484375 
L 73.1875 25.484375 
L 73.1875 17.1875 
L 10.59375 17.1875 
z
" id="DejaVuSans-61"/>
      <path d="M 10.984375 1.515625 
L 10.984375 10.5 
Q 14.703125 8.734375 18.5 7.8125 
Q 22.3125 6.890625 25.984375 6.890625 
Q 35.75 6.890625 40.890625 13.453125 
Q 46.046875 20.015625 46.78125 33.40625 
Q 43.953125 29.203125 39.59375 26.953125 
Q 35.25 24.703125 29.984375 24.703125 
Q 19.046875 24.703125 12.671875 31.3125 
Q 6.296875 37.9375 6.296875 49.421875 
Q 6.296875 60.640625 12.9375 67.421875 
Q 19.578125 74.21875 30.609375 74.21875 
Q 43.265625 74.21875 49.921875 64.515625 
Q 56.59375 54.828125 56.59375 36.375 
Q 56.59375 19.140625 48.40625 8.859375 
Q 40.234375 -1.421875 26.421875 -1.421875 
Q 22.703125 -1.421875 18.890625 -0.6875 
Q 15.09375 0.046875 10.984375 1.515625 
z
M 30.609375 32.421875 
Q 37.25 32.421875 41.125 36.953125 
Q 45.015625 41.5 45.015625 49.421875 
Q 45.015625 57.28125 41.125 61.84375 
Q 37.25 66.40625 30.609375 66.40625 
Q 23.96875 66.40625 20.09375 61.84375 
Q 16.21875 57.28125 16.21875 49.421875 
Q 16.21875 41.5 20.09375 36.953125 
Q 23.96875 32.421875 30.609375 32.421875 
z
" id="DejaVuSans-57"/>
      <path d="M 10.796875 72.90625 
L 49.515625 72.90625 
L 49.515625 64.59375 
L 19.828125 64.59375 
L 19.828125 46.734375 
Q 21.96875 47.46875 24.109375 47.828125 
Q 26.265625 48.1875 28.421875 48.1875 
Q 40.625 48.1875 47.75 41.5 
Q 54.890625 34.8125 54.890625 23.390625 
Q 54.890625 11.625 47.5625 5.09375 
Q 40.234375 -1.421875 26.90625 -1.421875 
Q 22.3125 -1.421875 17.546875 -0.640625 
Q 12.796875 0.140625 7.71875 1.703125 
L 7.71875 11.625 
Q 12.109375 9.234375 16.796875 8.0625 
Q 21.484375 6.890625 26.703125 6.890625 
Q 35.15625 6.890625 40.078125 11.328125 
Q 45.015625 15.765625 45.015625 23.390625 
Q 45.015625 31 40.078125 35.4375 
Q 35.15625 39.890625 26.703125 39.890625 
Q 22.75 39.890625 18.8125 39.015625 
Q 14.890625 38.140625 10.796875 36.28125 
z
" id="DejaVuSans-53"/>
      <path d="M 8.015625 75.875 
L 15.828125 75.875 
Q 23.140625 64.359375 26.78125 53.3125 
Q 30.421875 42.28125 30.421875 31.390625 
Q 30.421875 20.453125 26.78125 9.375 
Q 23.140625 -1.703125 15.828125 -13.1875 
L 8.015625 -13.1875 
Q 14.5 -2 17.703125 9.0625 
Q 20.90625 20.125 20.90625 31.390625 
Q 20.90625 42.671875 17.703125 53.65625 
Q 14.5 64.65625 8.015625 75.875 
z
" id="DejaVuSans-41"/>
     </defs>
     <g transform="translate(195.081875 103.89675)scale(0.1 -0.1)">
      <use xlink:href="#DejaVuSans-102"/>
      <use x="35.205078" xlink:href="#DejaVuSans-111"/>
      <use x="96.386719" xlink:href="#DejaVuSans-108"/>
      <use x="124.169922" xlink:href="#DejaVuSans-100"/>
      <use x="187.646484" xlink:href="#DejaVuSans-32"/>
      <use x="219.433594" xlink:href="#DejaVuSans-48"/>
      <use x="283.056641" xlink:href="#DejaVuSans-32"/>
      <use x="314.84375" xlink:href="#DejaVuSans-40"/>
      <use x="353.857422" xlink:href="#DejaVuSans-65"/>
      <use x="422.265625" xlink:href="#DejaVuSans-85"/>
      <use x="495.458984" xlink:href="#DejaVuSans-67"/>
      <use x="565.283203" xlink:href="#DejaVuSans-32"/>
      <use x="597.070312" xlink:href="#DejaVuSans-61"/>
      <use x="680.859375" xlink:href="#DejaVuSans-32"/>
      <use x="712.646484" xlink:href="#DejaVuSans-48"/>
      <use x="776.269531" xlink:href="#DejaVuSans-46"/>
      <use x="808.056641" xlink:href="#DejaVuSans-57"/>
      <use x="871.679688" xlink:href="#DejaVuSans-54"/>
      <use x="935.302734" xlink:href="#DejaVuSans-54"/>
      <use x="998.925781" xlink:href="#DejaVuSans-53"/>
      <use x="1062.548828" xlink:href="#DejaVuSans-41"/>
     </g>
    </g>
    <g id="line2d_36">
     <path d="M 167.081875 115.074875 
L 187.081875 115.074875 
" style="fill:none;stroke:#ff0000;stroke-linecap:square;stroke-opacity:0.8;stroke-width:1.5;"/>
    </g>
    <g id="line2d_37"/>
    <g id="text_16">
     <!-- fold 1 (AUC = 0.9754) -->
     <defs>
      <path d="M 8.203125 72.90625 
L 55.078125 72.90625 
L 55.078125 68.703125 
L 28.609375 0 
L 18.3125 0 
L 43.21875 64.59375 
L 8.203125 64.59375 
z
" id="DejaVuSans-55"/>
     </defs>
     <g transform="translate(195.081875 118.574875)scale(0.1 -0.1)">
      <use xlink:href="#DejaVuSans-102"/>
      <use x="35.205078" xlink:href="#DejaVuSans-111"/>
      <use x="96.386719" xlink:href="#DejaVuSans-108"/>
      <use x="124.169922" xlink:href="#DejaVuSans-100"/>
      <use x="187.646484" xlink:href="#DejaVuSans-32"/>
      <use x="219.433594" xlink:href="#DejaVuSans-49"/>
      <use x="283.056641" xlink:href="#DejaVuSans-32"/>
      <use x="314.84375" xlink:href="#DejaVuSans-40"/>
      <use x="353.857422" xlink:href="#DejaVuSans-65"/>
      <use x="422.265625" xlink:href="#DejaVuSans-85"/>
      <use x="495.458984" xlink:href="#DejaVuSans-67"/>
      <use x="565.283203" xlink:href="#DejaVuSans-32"/>
      <use x="597.070312" xlink:href="#DejaVuSans-61"/>
      <use x="680.859375" xlink:href="#DejaVuSans-32"/>
      <use x="712.646484" xlink:href="#DejaVuSans-48"/>
      <use x="776.269531" xlink:href="#DejaVuSans-46"/>
      <use x="808.056641" xlink:href="#DejaVuSans-57"/>
      <use x="871.679688" xlink:href="#DejaVuSans-55"/>
      <use x="935.302734" xlink:href="#DejaVuSans-53"/>
      <use x="998.925781" xlink:href="#DejaVuSans-52"/>
      <use x="1062.548828" xlink:href="#DejaVuSans-41"/>
     </g>
    </g>
    <g id="line2d_38">
     <path d="M 167.081875 129.753 
L 187.081875 129.753 
" style="fill:none;stroke:#ff0000;stroke-linecap:square;stroke-opacity:0.8;stroke-width:1.5;"/>
    </g>
    <g id="line2d_39"/>
    <g id="text_17">
     <!-- fold 2 (AUC = 0.9655) -->
     <g transform="translate(195.081875 133.253)scale(0.1 -0.1)">
      <use xlink:href="#DejaVuSans-102"/>
      <use x="35.205078" xlink:href="#DejaVuSans-111"/>
      <use x="96.386719" xlink:href="#DejaVuSans-108"/>
      <use x="124.169922" xlink:href="#DejaVuSans-100"/>
      <use x="187.646484" xlink:href="#DejaVuSans-32"/>
      <use x="219.433594" xlink:href="#DejaVuSans-50"/>
      <use x="283.056641" xlink:href="#DejaVuSans-32"/>
      <use x="314.84375" xlink:href="#DejaVuSans-40"/>
      <use x="353.857422" xlink:href="#DejaVuSans-65"/>
      <use x="422.265625" xlink:href="#DejaVuSans-85"/>
      <use x="495.458984" xlink:href="#DejaVuSans-67"/>
      <use x="565.283203" xlink:href="#DejaVuSans-32"/>
      <use x="597.070312" xlink:href="#DejaVuSans-61"/>
      <use x="680.859375" xlink:href="#DejaVuSans-32"/>
      <use x="712.646484" xlink:href="#DejaVuSans-48"/>
      <use x="776.269531" xlink:href="#DejaVuSans-46"/>
      <use x="808.056641" xlink:href="#DejaVuSans-57"/>
      <use x="871.679688" xlink:href="#DejaVuSans-54"/>
      <use x="935.302734" xlink:href="#DejaVuSans-53"/>
      <use x="998.925781" xlink:href="#DejaVuSans-53"/>
      <use x="1062.548828" xlink:href="#DejaVuSans-41"/>
     </g>
    </g>
    <g id="line2d_40">
     <path d="M 167.081875 144.431125 
L 187.081875 144.431125 
" style="fill:none;stroke:#ff0000;stroke-linecap:square;stroke-opacity:0.8;stroke-width:1.5;"/>
    </g>
    <g id="line2d_41"/>
    <g id="text_18">
     <!-- fold 3 (AUC = 0.9681) -->
     <defs>
      <path d="M 40.578125 39.3125 
Q 47.65625 37.796875 51.625 33 
Q 55.609375 28.21875 55.609375 21.1875 
Q 55.609375 10.40625 48.1875 4.484375 
Q 40.765625 -1.421875 27.09375 -1.421875 
Q 22.515625 -1.421875 17.65625 -0.515625 
Q 12.796875 0.390625 7.625 2.203125 
L 7.625 11.71875 
Q 11.71875 9.328125 16.59375 8.109375 
Q 21.484375 6.890625 26.8125 6.890625 
Q 36.078125 6.890625 40.9375 10.546875 
Q 45.796875 14.203125 45.796875 21.1875 
Q 45.796875 27.640625 41.28125 31.265625 
Q 36.765625 34.90625 28.71875 34.90625 
L 20.21875 34.90625 
L 20.21875 43.015625 
L 29.109375 43.015625 
Q 36.375 43.015625 40.234375 45.921875 
Q 44.09375 48.828125 44.09375 54.296875 
Q 44.09375 59.90625 40.109375 62.90625 
Q 36.140625 65.921875 28.71875 65.921875 
Q 24.65625 65.921875 20.015625 65.03125 
Q 15.375 64.15625 9.8125 62.3125 
L 9.8125 71.09375 
Q 15.4375 72.65625 20.34375 73.4375 
Q 25.25 74.21875 29.59375 74.21875 
Q 40.828125 74.21875 47.359375 69.109375 
Q 53.90625 64.015625 53.90625 55.328125 
Q 53.90625 49.265625 50.4375 45.09375 
Q 46.96875 40.921875 40.578125 39.3125 
z
" id="DejaVuSans-51"/>
     </defs>
     <g transform="translate(195.081875 147.931125)scale(0.1 -0.1)">
      <use xlink:href="#DejaVuSans-102"/>
      <use x="35.205078" xlink:href="#DejaVuSans-111"/>
      <use x="96.386719" xlink:href="#DejaVuSans-108"/>
      <use x="124.169922" xlink:href="#DejaVuSans-100"/>
      <use x="187.646484" xlink:href="#DejaVuSans-32"/>
      <use x="219.433594" xlink:href="#DejaVuSans-51"/>
      <use x="283.056641" xlink:href="#DejaVuSans-32"/>
      <use x="314.84375" xlink:href="#DejaVuSans-40"/>
      <use x="353.857422" xlink:href="#DejaVuSans-65"/>
      <use x="422.265625" xlink:href="#DejaVuSans-85"/>
      <use x="495.458984" xlink:href="#DejaVuSans-67"/>
      <use x="565.283203" xlink:href="#DejaVuSans-32"/>
      <use x="597.070312" xlink:href="#DejaVuSans-61"/>
      <use x="680.859375" xlink:href="#DejaVuSans-32"/>
      <use x="712.646484" xlink:href="#DejaVuSans-48"/>
      <use x="776.269531" xlink:href="#DejaVuSans-46"/>
      <use x="808.056641" xlink:href="#DejaVuSans-57"/>
      <use x="871.679688" xlink:href="#DejaVuSans-54"/>
      <use x="935.302734" xlink:href="#DejaVuSans-56"/>
      <use x="998.925781" xlink:href="#DejaVuSans-49"/>
      <use x="1062.548828" xlink:href="#DejaVuSans-41"/>
     </g>
    </g>
    <g id="line2d_42">
     <path d="M 167.081875 159.10925 
L 187.081875 159.10925 
" style="fill:none;stroke:#ff0000;stroke-linecap:square;stroke-opacity:0.8;stroke-width:1.5;"/>
    </g>
    <g id="line2d_43"/>
    <g id="text_19">
     <!-- fold 4 (AUC = 0.9576) -->
     <g transform="translate(195.081875 162.60925)scale(0.1 -0.1)">
      <use xlink:href="#DejaVuSans-102"/>
      <use x="35.205078" xlink:href="#DejaVuSans-111"/>
      <use x="96.386719" xlink:href="#DejaVuSans-108"/>
      <use x="124.169922" xlink:href="#DejaVuSans-100"/>
      <use x="187.646484" xlink:href="#DejaVuSans-32"/>
      <use x="219.433594" xlink:href="#DejaVuSans-52"/>
      <use x="283.056641" xlink:href="#DejaVuSans-32"/>
      <use x="314.84375" xlink:href="#DejaVuSans-40"/>
      <use x="353.857422" xlink:href="#DejaVuSans-65"/>
      <use x="422.265625" xlink:href="#DejaVuSans-85"/>
      <use x="495.458984" xlink:href="#DejaVuSans-67"/>
      <use x="565.283203" xlink:href="#DejaVuSans-32"/>
      <use x="597.070312" xlink:href="#DejaVuSans-61"/>
      <use x="680.859375" xlink:href="#DejaVuSans-32"/>
      <use x="712.646484" xlink:href="#DejaVuSans-48"/>
      <use x="776.269531" xlink:href="#DejaVuSans-46"/>
      <use x="808.056641" xlink:href="#DejaVuSans-57"/>
      <use x="871.679688" xlink:href="#DejaVuSans-53"/>
      <use x="935.302734" xlink:href="#DejaVuSans-55"/>
      <use x="998.925781" xlink:href="#DejaVuSans-54"/>
      <use x="1062.548828" xlink:href="#DejaVuSans-41"/>
     </g>
    </g>
    <g id="line2d_44">
     <path d="M 167.081875 173.787375 
L 187.081875 173.787375 
" style="fill:none;stroke:#ff0000;stroke-linecap:square;stroke-opacity:0.8;stroke-width:1.5;"/>
    </g>
    <g id="line2d_45"/>
    <g id="text_20">
     <!-- fold 5 (AUC = 0.9633) -->
     <g transform="translate(195.081875 177.287375)scale(0.1 -0.1)">
      <use xlink:href="#DejaVuSans-102"/>
      <use x="35.205078" xlink:href="#DejaVuSans-111"/>
      <use x="96.386719" xlink:href="#DejaVuSans-108"/>
      <use x="124.169922" xlink:href="#DejaVuSans-100"/>
      <use x="187.646484" xlink:href="#DejaVuSans-32"/>
      <use x="219.433594" xlink:href="#DejaVuSans-53"/>
      <use x="283.056641" xlink:href="#DejaVuSans-32"/>
      <use x="314.84375" xlink:href="#DejaVuSans-40"/>
      <use x="353.857422" xlink:href="#DejaVuSans-65"/>
      <use x="422.265625" xlink:href="#DejaVuSans-85"/>
      <use x="495.458984" xlink:href="#DejaVuSans-67"/>
      <use x="565.283203" xlink:href="#DejaVuSans-32"/>
      <use x="597.070312" xlink:href="#DejaVuSans-61"/>
      <use x="680.859375" xlink:href="#DejaVuSans-32"/>
      <use x="712.646484" xlink:href="#DejaVuSans-48"/>
      <use x="776.269531" xlink:href="#DejaVuSans-46"/>
      <use x="808.056641" xlink:href="#DejaVuSans-57"/>
      <use x="871.679688" xlink:href="#DejaVuSans-54"/>
      <use x="935.302734" xlink:href="#DejaVuSans-51"/>
      <use x="998.925781" xlink:href="#DejaVuSans-51"/>
      <use x="1062.548828" xlink:href="#DejaVuSans-41"/>
     </g>
    </g>
    <g id="line2d_46">
     <path d="M 167.081875 188.4655 
L 187.081875 188.4655 
" style="fill:none;stroke:#ff0000;stroke-linecap:square;stroke-opacity:0.8;stroke-width:1.5;"/>
    </g>
    <g id="line2d_47"/>
    <g id="text_21">
     <!-- fold 6 (AUC = 0.9683) -->
     <g transform="translate(195.081875 191.9655)scale(0.1 -0.1)">
      <use xlink:href="#DejaVuSans-102"/>
      <use x="35.205078" xlink:href="#DejaVuSans-111"/>
      <use x="96.386719" xlink:href="#DejaVuSans-108"/>
      <use x="124.169922" xlink:href="#DejaVuSans-100"/>
      <use x="187.646484" xlink:href="#DejaVuSans-32"/>
      <use x="219.433594" xlink:href="#DejaVuSans-54"/>
      <use x="283.056641" xlink:href="#DejaVuSans-32"/>
      <use x="314.84375" xlink:href="#DejaVuSans-40"/>
      <use x="353.857422" xlink:href="#DejaVuSans-65"/>
      <use x="422.265625" xlink:href="#DejaVuSans-85"/>
      <use x="495.458984" xlink:href="#DejaVuSans-67"/>
      <use x="565.283203" xlink:href="#DejaVuSans-32"/>
      <use x="597.070312" xlink:href="#DejaVuSans-61"/>
      <use x="680.859375" xlink:href="#DejaVuSans-32"/>
      <use x="712.646484" xlink:href="#DejaVuSans-48"/>
      <use x="776.269531" xlink:href="#DejaVuSans-46"/>
      <use x="808.056641" xlink:href="#DejaVuSans-57"/>
      <use x="871.679688" xlink:href="#DejaVuSans-54"/>
      <use x="935.302734" xlink:href="#DejaVuSans-56"/>
      <use x="998.925781" xlink:href="#DejaVuSans-51"/>
      <use x="1062.548828" xlink:href="#DejaVuSans-41"/>
     </g>
    </g>
    <g id="line2d_48">
     <path d="M 167.081875 203.143625 
L 187.081875 203.143625 
" style="fill:none;stroke:#ff0000;stroke-linecap:square;stroke-opacity:0.8;stroke-width:1.5;"/>
    </g>
    <g id="line2d_49"/>
    <g id="text_22">
     <!-- fold 7 (AUC = 0.9604) -->
     <g transform="translate(195.081875 206.643625)scale(0.1 -0.1)">
      <use xlink:href="#DejaVuSans-102"/>
      <use x="35.205078" xlink:href="#DejaVuSans-111"/>
      <use x="96.386719" xlink:href="#DejaVuSans-108"/>
      <use x="124.169922" xlink:href="#DejaVuSans-100"/>
      <use x="187.646484" xlink:href="#DejaVuSans-32"/>
      <use x="219.433594" xlink:href="#DejaVuSans-55"/>
      <use x="283.056641" xlink:href="#DejaVuSans-32"/>
      <use x="314.84375" xlink:href="#DejaVuSans-40"/>
      <use x="353.857422" xlink:href="#DejaVuSans-65"/>
      <use x="422.265625" xlink:href="#DejaVuSans-85"/>
      <use x="495.458984" xlink:href="#DejaVuSans-67"/>
      <use x="565.283203" xlink:href="#DejaVuSans-32"/>
      <use x="597.070312" xlink:href="#DejaVuSans-61"/>
      <use x="680.859375" xlink:href="#DejaVuSans-32"/>
      <use x="712.646484" xlink:href="#DejaVuSans-48"/>
      <use x="776.269531" xlink:href="#DejaVuSans-46"/>
      <use x="808.056641" xlink:href="#DejaVuSans-57"/>
      <use x="871.679688" xlink:href="#DejaVuSans-54"/>
      <use x="935.302734" xlink:href="#DejaVuSans-48"/>
      <use x="998.925781" xlink:href="#DejaVuSans-52"/>
      <use x="1062.548828" xlink:href="#DejaVuSans-41"/>
     </g>
    </g>
    <g id="line2d_50">
     <path d="M 167.081875 217.82175 
L 187.081875 217.82175 
" style="fill:none;stroke:#ff0000;stroke-linecap:square;stroke-opacity:0.8;stroke-width:1.5;"/>
    </g>
    <g id="line2d_51"/>
    <g id="text_23">
     <!-- fold 8 (AUC = 0.9596) -->
     <g transform="translate(195.081875 221.32175)scale(0.1 -0.1)">
      <use xlink:href="#DejaVuSans-102"/>
      <use x="35.205078" xlink:href="#DejaVuSans-111"/>
      <use x="96.386719" xlink:href="#DejaVuSans-108"/>
      <use x="124.169922" xlink:href="#DejaVuSans-100"/>
      <use x="187.646484" xlink:href="#DejaVuSans-32"/>
      <use x="219.433594" xlink:href="#DejaVuSans-56"/>
      <use x="283.056641" xlink:href="#DejaVuSans-32"/>
      <use x="314.84375" xlink:href="#DejaVuSans-40"/>
      <use x="353.857422" xlink:href="#DejaVuSans-65"/>
      <use x="422.265625" xlink:href="#DejaVuSans-85"/>
      <use x="495.458984" xlink:href="#DejaVuSans-67"/>
      <use x="565.283203" xlink:href="#DejaVuSans-32"/>
      <use x="597.070312" xlink:href="#DejaVuSans-61"/>
      <use x="680.859375" xlink:href="#DejaVuSans-32"/>
      <use x="712.646484" xlink:href="#DejaVuSans-48"/>
      <use x="776.269531" xlink:href="#DejaVuSans-46"/>
      <use x="808.056641" xlink:href="#DejaVuSans-57"/>
      <use x="871.679688" xlink:href="#DejaVuSans-53"/>
      <use x="935.302734" xlink:href="#DejaVuSans-57"/>
      <use x="998.925781" xlink:href="#DejaVuSans-54"/>
      <use x="1062.548828" xlink:href="#DejaVuSans-41"/>
     </g>
    </g>
    <g id="line2d_52">
     <path d="M 167.081875 232.499875 
L 187.081875 232.499875 
" style="fill:none;stroke:#ff0000;stroke-linecap:square;stroke-opacity:0.8;stroke-width:1.5;"/>
    </g>
    <g id="line2d_53"/>
    <g id="text_24">
     <!-- fold 9 (AUC = 0.9596) -->
     <g transform="translate(195.081875 235.999875)scale(0.1 -0.1)">
      <use xlink:href="#DejaVuSans-102"/>
      <use x="35.205078" xlink:href="#DejaVuSans-111"/>
      <use x="96.386719" xlink:href="#DejaVuSans-108"/>
      <use x="124.169922" xlink:href="#DejaVuSans-100"/>
      <use x="187.646484" xlink:href="#DejaVuSans-32"/>
      <use x="219.433594" xlink:href="#DejaVuSans-57"/>
      <use x="283.056641" xlink:href="#DejaVuSans-32"/>
      <use x="314.84375" xlink:href="#DejaVuSans-40"/>
      <use x="353.857422" xlink:href="#DejaVuSans-65"/>
      <use x="422.265625" xlink:href="#DejaVuSans-85"/>
      <use x="495.458984" xlink:href="#DejaVuSans-67"/>
      <use x="565.283203" xlink:href="#DejaVuSans-32"/>
      <use x="597.070312" xlink:href="#DejaVuSans-61"/>
      <use x="680.859375" xlink:href="#DejaVuSans-32"/>
      <use x="712.646484" xlink:href="#DejaVuSans-48"/>
      <use x="776.269531" xlink:href="#DejaVuSans-46"/>
      <use x="808.056641" xlink:href="#DejaVuSans-57"/>
      <use x="871.679688" xlink:href="#DejaVuSans-53"/>
      <use x="935.302734" xlink:href="#DejaVuSans-57"/>
      <use x="998.925781" xlink:href="#DejaVuSans-54"/>
      <use x="1062.548828" xlink:href="#DejaVuSans-41"/>
     </g>
    </g>
    <g id="line2d_54">
     <path d="M 167.081875 247.178 
L 187.081875 247.178 
" style="fill:none;stroke:#000000;stroke-linecap:square;stroke-width:2;"/>
    </g>
    <g id="line2d_55"/>
    <g id="text_25">
     <!-- Mean (AUC = 0.9643) -->
     <defs>
      <path d="M 9.8125 72.90625 
L 24.515625 72.90625 
L 43.109375 23.296875 
L 61.8125 72.90625 
L 76.515625 72.90625 
L 76.515625 0 
L 66.890625 0 
L 66.890625 64.015625 
L 48.09375 14.015625 
L 38.1875 14.015625 
L 19.390625 64.015625 
L 19.390625 0 
L 9.8125 0 
z
" id="DejaVuSans-77"/>
      <path d="M 54.890625 33.015625 
L 54.890625 0 
L 45.90625 0 
L 45.90625 32.71875 
Q 45.90625 40.484375 42.875 44.328125 
Q 39.84375 48.1875 33.796875 48.1875 
Q 26.515625 48.1875 22.3125 43.546875 
Q 18.109375 38.921875 18.109375 30.90625 
L 18.109375 0 
L 9.078125 0 
L 9.078125 54.6875 
L 18.109375 54.6875 
L 18.109375 46.1875 
Q 21.34375 51.125 25.703125 53.5625 
Q 30.078125 56 35.796875 56 
Q 45.21875 56 50.046875 50.171875 
Q 54.890625 44.34375 54.890625 33.015625 
z
" id="DejaVuSans-110"/>
     </defs>
     <g transform="translate(195.081875 250.678)scale(0.1 -0.1)">
      <use xlink:href="#DejaVuSans-77"/>
      <use x="86.279297" xlink:href="#DejaVuSans-101"/>
      <use x="147.802734" xlink:href="#DejaVuSans-97"/>
      <use x="209.082031" xlink:href="#DejaVuSans-110"/>
      <use x="272.460938" xlink:href="#DejaVuSans-32"/>
      <use x="304.248047" xlink:href="#DejaVuSans-40"/>
      <use x="343.261719" xlink:href="#DejaVuSans-65"/>
      <use x="411.669922" xlink:href="#DejaVuSans-85"/>
      <use x="484.863281" xlink:href="#DejaVuSans-67"/>
      <use x="554.6875" xlink:href="#DejaVuSans-32"/>
      <use x="586.474609" xlink:href="#DejaVuSans-61"/>
      <use x="670.263672" xlink:href="#DejaVuSans-32"/>
      <use x="702.050781" xlink:href="#DejaVuSans-48"/>
      <use x="765.673828" xlink:href="#DejaVuSans-46"/>
      <use x="797.460938" xlink:href="#DejaVuSans-57"/>
      <use x="861.083984" xlink:href="#DejaVuSans-54"/>
      <use x="924.707031" xlink:href="#DejaVuSans-52"/>
      <use x="988.330078" xlink:href="#DejaVuSans-51"/>
      <use x="1051.953125" xlink:href="#DejaVuSans-41"/>
     </g>
    </g>
   </g>
  </g>
 </g>
 <defs>
  <clipPath id="p259ee235bd">
   <rect height="266.112" width="357.12" x="57.6" y="41.472"/>
  </clipPath>
 </defs>
</svg>
