<?xml version="1.0" encoding="utf-8" standalone="no"?>
<!DOCTYPE svg PUBLIC "-//W3C//DTD SVG 1.1//EN"
  "http://www.w3.org/Graphics/SVG/1.1/DTD/svg11.dtd">
<!-- Created with matplotlib (https://matplotlib.org/) -->
<svg height="345.6pt" version="1.1" viewBox="0 0 460.8 345.6" width="460.8pt" xmlns="http://www.w3.org/2000/svg" xmlns:xlink="http://www.w3.org/1999/xlink">
 <defs>
  <style type="text/css">
*{stroke-linecap:butt;stroke-linejoin:round;}
  </style>
 </defs>
 <g id="figure_1">
  <g id="patch_1">
   <path d="M 0 345.6 
L 460.8 345.6 
L 460.8 0 
L 0 0 
z
" style="fill:#ffffff;"/>
  </g>
  <g id="axes_1">
   <g id="patch_2">
    <path d="M 57.6 307.584 
L 414.72 307.584 
L 414.72 41.472 
L 57.6 41.472 
z
" style="fill:#ffffff;"/>
   </g>
   <g id="matplotlib.axis_1">
    <g id="xtick_1">
     <g id="line2d_1">
      <defs>
       <path d="M 0 0 
L 0 3.5 
" id="m6ea8b94393" style="stroke:#000000;stroke-width:0.8;"/>
      </defs>
      <g>
       <use style="stroke:#000000;stroke-width:0.8;" x="73.832727" xlink:href="#m6ea8b94393" y="307.584"/>
      </g>
     </g>
     <g id="text_1">
      <!-- 0.0 -->
      <defs>
       <path d="M 31.78125 66.40625 
Q 24.171875 66.40625 20.328125 58.90625 
Q 16.5 51.421875 16.5 36.375 
Q 16.5 21.390625 20.328125 13.890625 
Q 24.171875 6.390625 31.78125 6.390625 
Q 39.453125 6.390625 43.28125 13.890625 
Q 47.125 21.390625 47.125 36.375 
Q 47.125 51.421875 43.28125 58.90625 
Q 39.453125 66.40625 31.78125 66.40625 
z
M 31.78125 74.21875 
Q 44.046875 74.21875 50.515625 64.515625 
Q 56.984375 54.828125 56.984375 36.375 
Q 56.984375 17.96875 50.515625 8.265625 
Q 44.046875 -1.421875 31.78125 -1.421875 
Q 19.53125 -1.421875 13.0625 8.265625 
Q 6.59375 17.96875 6.59375 36.375 
Q 6.59375 54.828125 13.0625 64.515625 
Q 19.53125 74.21875 31.78125 74.21875 
z
" id="DejaVuSans-48"/>
       <path d="M 10.6875 12.40625 
L 21 12.40625 
L 21 0 
L 10.6875 0 
z
" id="DejaVuSans-46"/>
      </defs>
      <g transform="translate(65.881165 322.182437)scale(0.1 -0.1)">
       <use xlink:href="#DejaVuSans-48"/>
       <use x="63.623047" xlink:href="#DejaVuSans-46"/>
       <use x="95.410156" xlink:href="#DejaVuSans-48"/>
      </g>
     </g>
    </g>
    <g id="xtick_2">
     <g id="line2d_2">
      <g>
       <use style="stroke:#000000;stroke-width:0.8;" x="138.763636" xlink:href="#m6ea8b94393" y="307.584"/>
      </g>
     </g>
     <g id="text_2">
      <!-- 0.2 -->
      <defs>
       <path d="M 19.1875 8.296875 
L 53.609375 8.296875 
L 53.609375 0 
L 7.328125 0 
L 7.328125 8.296875 
Q 12.9375 14.109375 22.625 23.890625 
Q 32.328125 33.6875 34.8125 36.53125 
Q 39.546875 41.84375 41.421875 45.53125 
Q 43.3125 49.21875 43.3125 52.78125 
Q 43.3125 58.59375 39.234375 62.25 
Q 35.15625 65.921875 28.609375 65.921875 
Q 23.96875 65.921875 18.8125 64.3125 
Q 13.671875 62.703125 7.8125 59.421875 
L 7.8125 69.390625 
Q 13.765625 71.78125 18.9375 73 
Q 24.125 74.21875 28.421875 74.21875 
Q 39.75 74.21875 46.484375 68.546875 
Q 53.21875 62.890625 53.21875 53.421875 
Q 53.21875 48.921875 51.53125 44.890625 
Q 49.859375 40.875 45.40625 35.40625 
Q 44.1875 33.984375 37.640625 27.21875 
Q 31.109375 20.453125 19.1875 8.296875 
z
" id="DejaVuSans-50"/>
      </defs>
      <g transform="translate(130.812074 322.182437)scale(0.1 -0.1)">
       <use xlink:href="#DejaVuSans-48"/>
       <use x="63.623047" xlink:href="#DejaVuSans-46"/>
       <use x="95.410156" xlink:href="#DejaVuSans-50"/>
      </g>
     </g>
    </g>
    <g id="xtick_3">
     <g id="line2d_3">
      <g>
       <use style="stroke:#000000;stroke-width:0.8;" x="203.694545" xlink:href="#m6ea8b94393" y="307.584"/>
      </g>
     </g>
     <g id="text_3">
      <!-- 0.4 -->
      <defs>
       <path d="M 37.796875 64.3125 
L 12.890625 25.390625 
L 37.796875 25.390625 
z
M 35.203125 72.90625 
L 47.609375 72.90625 
L 47.609375 25.390625 
L 58.015625 25.390625 
L 58.015625 17.1875 
L 47.609375 17.1875 
L 47.609375 0 
L 37.796875 0 
L 37.796875 17.1875 
L 4.890625 17.1875 
L 4.890625 26.703125 
z
" id="DejaVuSans-52"/>
      </defs>
      <g transform="translate(195.742983 322.182437)scale(0.1 -0.1)">
       <use xlink:href="#DejaVuSans-48"/>
       <use x="63.623047" xlink:href="#DejaVuSans-46"/>
       <use x="95.410156" xlink:href="#DejaVuSans-52"/>
      </g>
     </g>
    </g>
    <g id="xtick_4">
     <g id="line2d_4">
      <g>
       <use style="stroke:#000000;stroke-width:0.8;" x="268.625455" xlink:href="#m6ea8b94393" y="307.584"/>
      </g>
     </g>
     <g id="text_4">
      <!-- 0.6 -->
      <defs>
       <path d="M 33.015625 40.375 
Q 26.375 40.375 22.484375 35.828125 
Q 18.609375 31.296875 18.609375 23.390625 
Q 18.609375 15.53125 22.484375 10.953125 
Q 26.375 6.390625 33.015625 6.390625 
Q 39.65625 6.390625 43.53125 10.953125 
Q 47.40625 15.53125 47.40625 23.390625 
Q 47.40625 31.296875 43.53125 35.828125 
Q 39.65625 40.375 33.015625 40.375 
z
M 52.59375 71.296875 
L 52.59375 62.3125 
Q 48.875 64.0625 45.09375 64.984375 
Q 41.3125 65.921875 37.59375 65.921875 
Q 27.828125 65.921875 22.671875 59.328125 
Q 17.53125 52.734375 16.796875 39.40625 
Q 19.671875 43.65625 24.015625 45.921875 
Q 28.375 48.1875 33.59375 48.1875 
Q 44.578125 48.1875 50.953125 41.515625 
Q 57.328125 34.859375 57.328125 23.390625 
Q 57.328125 12.15625 50.6875 5.359375 
Q 44.046875 -1.421875 33.015625 -1.421875 
Q 20.359375 -1.421875 13.671875 8.265625 
Q 6.984375 17.96875 6.984375 36.375 
Q 6.984375 53.65625 15.1875 63.9375 
Q 23.390625 74.21875 37.203125 74.21875 
Q 40.921875 74.21875 44.703125 73.484375 
Q 48.484375 72.75 52.59375 71.296875 
z
" id="DejaVuSans-54"/>
      </defs>
      <g transform="translate(260.673892 322.182437)scale(0.1 -0.1)">
       <use xlink:href="#DejaVuSans-48"/>
       <use x="63.623047" xlink:href="#DejaVuSans-46"/>
       <use x="95.410156" xlink:href="#DejaVuSans-54"/>
      </g>
     </g>
    </g>
    <g id="xtick_5">
     <g id="line2d_5">
      <g>
       <use style="stroke:#000000;stroke-width:0.8;" x="333.556364" xlink:href="#m6ea8b94393" y="307.584"/>
      </g>
     </g>
     <g id="text_5">
      <!-- 0.8 -->
      <defs>
       <path d="M 31.78125 34.625 
Q 24.75 34.625 20.71875 30.859375 
Q 16.703125 27.09375 16.703125 20.515625 
Q 16.703125 13.921875 20.71875 10.15625 
Q 24.75 6.390625 31.78125 6.390625 
Q 38.8125 6.390625 42.859375 10.171875 
Q 46.921875 13.96875 46.921875 20.515625 
Q 46.921875 27.09375 42.890625 30.859375 
Q 38.875 34.625 31.78125 34.625 
z
M 21.921875 38.8125 
Q 15.578125 40.375 12.03125 44.71875 
Q 8.5 49.078125 8.5 55.328125 
Q 8.5 64.0625 14.71875 69.140625 
Q 20.953125 74.21875 31.78125 74.21875 
Q 42.671875 74.21875 48.875 69.140625 
Q 55.078125 64.0625 55.078125 55.328125 
Q 55.078125 49.078125 51.53125 44.71875 
Q 48 40.375 41.703125 38.8125 
Q 48.828125 37.15625 52.796875 32.3125 
Q 56.78125 27.484375 56.78125 20.515625 
Q 56.78125 9.90625 50.3125 4.234375 
Q 43.84375 -1.421875 31.78125 -1.421875 
Q 19.734375 -1.421875 13.25 4.234375 
Q 6.78125 9.90625 6.78125 20.515625 
Q 6.78125 27.484375 10.78125 32.3125 
Q 14.796875 37.15625 21.921875 38.8125 
z
M 18.3125 54.390625 
Q 18.3125 48.734375 21.84375 45.5625 
Q 25.390625 42.390625 31.78125 42.390625 
Q 38.140625 42.390625 41.71875 45.5625 
Q 45.3125 48.734375 45.3125 54.390625 
Q 45.3125 60.0625 41.71875 63.234375 
Q 38.140625 66.40625 31.78125 66.40625 
Q 25.390625 66.40625 21.84375 63.234375 
Q 18.3125 60.0625 18.3125 54.390625 
z
" id="DejaVuSans-56"/>
      </defs>
      <g transform="translate(325.604801 322.182437)scale(0.1 -0.1)">
       <use xlink:href="#DejaVuSans-48"/>
       <use x="63.623047" xlink:href="#DejaVuSans-46"/>
       <use x="95.410156" xlink:href="#DejaVuSans-56"/>
      </g>
     </g>
    </g>
    <g id="xtick_6">
     <g id="line2d_6">
      <g>
       <use style="stroke:#000000;stroke-width:0.8;" x="398.487273" xlink:href="#m6ea8b94393" y="307.584"/>
      </g>
     </g>
     <g id="text_6">
      <!-- 1.0 -->
      <defs>
       <path d="M 12.40625 8.296875 
L 28.515625 8.296875 
L 28.515625 63.921875 
L 10.984375 60.40625 
L 10.984375 69.390625 
L 28.421875 72.90625 
L 38.28125 72.90625 
L 38.28125 8.296875 
L 54.390625 8.296875 
L 54.390625 0 
L 12.40625 0 
z
" id="DejaVuSans-49"/>
      </defs>
      <g transform="translate(390.53571 322.182437)scale(0.1 -0.1)">
       <use xlink:href="#DejaVuSans-49"/>
       <use x="63.623047" xlink:href="#DejaVuSans-46"/>
       <use x="95.410156" xlink:href="#DejaVuSans-48"/>
      </g>
     </g>
    </g>
    <g id="text_7">
     <!-- False Positive Rate -->
     <defs>
      <path d="M 9.8125 72.90625 
L 51.703125 72.90625 
L 51.703125 64.59375 
L 19.671875 64.59375 
L 19.671875 43.109375 
L 48.578125 43.109375 
L 48.578125 34.8125 
L 19.671875 34.8125 
L 19.671875 0 
L 9.8125 0 
z
" id="DejaVuSans-70"/>
      <path d="M 34.28125 27.484375 
Q 23.390625 27.484375 19.1875 25 
Q 14.984375 22.515625 14.984375 16.5 
Q 14.984375 11.71875 18.140625 8.90625 
Q 21.296875 6.109375 26.703125 6.109375 
Q 34.1875 6.109375 38.703125 11.40625 
Q 43.21875 16.703125 43.21875 25.484375 
L 43.21875 27.484375 
z
M 52.203125 31.203125 
L 52.203125 0 
L 43.21875 0 
L 43.21875 8.296875 
Q 40.140625 3.328125 35.546875 0.953125 
Q 30.953125 -1.421875 24.3125 -1.421875 
Q 15.921875 -1.421875 10.953125 3.296875 
Q 6 8.015625 6 15.921875 
Q 6 25.140625 12.171875 29.828125 
Q 18.359375 34.515625 30.609375 34.515625 
L 43.21875 34.515625 
L 43.21875 35.40625 
Q 43.21875 41.609375 39.140625 45 
Q 35.0625 48.390625 27.6875 48.390625 
Q 23 48.390625 18.546875 47.265625 
Q 14.109375 46.140625 10.015625 43.890625 
L 10.015625 52.203125 
Q 14.9375 54.109375 19.578125 55.046875 
Q 24.21875 56 28.609375 56 
Q 40.484375 56 46.34375 49.84375 
Q 52.203125 43.703125 52.203125 31.203125 
z
" id="DejaVuSans-97"/>
      <path d="M 9.421875 75.984375 
L 18.40625 75.984375 
L 18.40625 0 
L 9.421875 0 
z
" id="DejaVuSans-108"/>
      <path d="M 44.28125 53.078125 
L 44.28125 44.578125 
Q 40.484375 46.53125 36.375 47.5 
Q 32.28125 48.484375 27.875 48.484375 
Q 21.1875 48.484375 17.84375 46.4375 
Q 14.5 44.390625 14.5 40.28125 
Q 14.5 37.15625 16.890625 35.375 
Q 19.28125 33.59375 26.515625 31.984375 
L 29.59375 31.296875 
Q 39.15625 29.25 43.1875 25.515625 
Q 47.21875 21.78125 47.21875 15.09375 
Q 47.21875 7.46875 41.1875 3.015625 
Q 35.15625 -1.421875 24.609375 -1.421875 
Q 20.21875 -1.421875 15.453125 -0.5625 
Q 10.6875 0.296875 5.421875 2 
L 5.421875 11.28125 
Q 10.40625 8.6875 15.234375 7.390625 
Q 20.0625 6.109375 24.8125 6.109375 
Q 31.15625 6.109375 34.5625 8.28125 
Q 37.984375 10.453125 37.984375 14.40625 
Q 37.984375 18.0625 35.515625 20.015625 
Q 33.0625 21.96875 24.703125 23.78125 
L 21.578125 24.515625 
Q 13.234375 26.265625 9.515625 29.90625 
Q 5.8125 33.546875 5.8125 39.890625 
Q 5.8125 47.609375 11.28125 51.796875 
Q 16.75 56 26.8125 56 
Q 31.78125 56 36.171875 55.265625 
Q 40.578125 54.546875 44.28125 53.078125 
z
" id="DejaVuSans-115"/>
      <path d="M 56.203125 29.59375 
L 56.203125 25.203125 
L 14.890625 25.203125 
Q 15.484375 15.921875 20.484375 11.0625 
Q 25.484375 6.203125 34.421875 6.203125 
Q 39.59375 6.203125 44.453125 7.46875 
Q 49.3125 8.734375 54.109375 11.28125 
L 54.109375 2.78125 
Q 49.265625 0.734375 44.1875 -0.34375 
Q 39.109375 -1.421875 33.890625 -1.421875 
Q 20.796875 -1.421875 13.15625 6.1875 
Q 5.515625 13.8125 5.515625 26.8125 
Q 5.515625 40.234375 12.765625 48.109375 
Q 20.015625 56 32.328125 56 
Q 43.359375 56 49.78125 48.890625 
Q 56.203125 41.796875 56.203125 29.59375 
z
M 47.21875 32.234375 
Q 47.125 39.59375 43.09375 43.984375 
Q 39.0625 48.390625 32.421875 48.390625 
Q 24.90625 48.390625 20.390625 44.140625 
Q 15.875 39.890625 15.1875 32.171875 
z
" id="DejaVuSans-101"/>
      <path id="DejaVuSans-32"/>
      <path d="M 19.671875 64.796875 
L 19.671875 37.40625 
L 32.078125 37.40625 
Q 38.96875 37.40625 42.71875 40.96875 
Q 46.484375 44.53125 46.484375 51.125 
Q 46.484375 57.671875 42.71875 61.234375 
Q 38.96875 64.796875 32.078125 64.796875 
z
M 9.8125 72.90625 
L 32.078125 72.90625 
Q 44.34375 72.90625 50.609375 67.359375 
Q 56.890625 61.8125 56.890625 51.125 
Q 56.890625 40.328125 50.609375 34.8125 
Q 44.34375 29.296875 32.078125 29.296875 
L 19.671875 29.296875 
L 19.671875 0 
L 9.8125 0 
z
" id="DejaVuSans-80"/>
      <path d="M 30.609375 48.390625 
Q 23.390625 48.390625 19.1875 42.75 
Q 14.984375 37.109375 14.984375 27.296875 
Q 14.984375 17.484375 19.15625 11.84375 
Q 23.34375 6.203125 30.609375 6.203125 
Q 37.796875 6.203125 41.984375 11.859375 
Q 46.1875 17.53125 46.1875 27.296875 
Q 46.1875 37.015625 41.984375 42.703125 
Q 37.796875 48.390625 30.609375 48.390625 
z
M 30.609375 56 
Q 42.328125 56 49.015625 48.375 
Q 55.71875 40.765625 55.71875 27.296875 
Q 55.71875 13.875 49.015625 6.21875 
Q 42.328125 -1.421875 30.609375 -1.421875 
Q 18.84375 -1.421875 12.171875 6.21875 
Q 5.515625 13.875 5.515625 27.296875 
Q 5.515625 40.765625 12.171875 48.375 
Q 18.84375 56 30.609375 56 
z
" id="DejaVuSans-111"/>
      <path d="M 9.421875 54.6875 
L 18.40625 54.6875 
L 18.40625 0 
L 9.421875 0 
z
M 9.421875 75.984375 
L 18.40625 75.984375 
L 18.40625 64.59375 
L 9.421875 64.59375 
z
" id="DejaVuSans-105"/>
      <path d="M 18.3125 70.21875 
L 18.3125 54.6875 
L 36.8125 54.6875 
L 36.8125 47.703125 
L 18.3125 47.703125 
L 18.3125 18.015625 
Q 18.3125 11.328125 20.140625 9.421875 
Q 21.96875 7.515625 27.59375 7.515625 
L 36.8125 7.515625 
L 36.8125 0 
L 27.59375 0 
Q 17.1875 0 13.234375 3.875 
Q 9.28125 7.765625 9.28125 18.015625 
L 9.28125 47.703125 
L 2.6875 47.703125 
L 2.6875 54.6875 
L 9.28125 54.6875 
L 9.28125 70.21875 
z
" id="DejaVuSans-116"/>
      <path d="M 2.984375 54.6875 
L 12.5 54.6875 
L 29.59375 8.796875 
L 46.6875 54.6875 
L 56.203125 54.6875 
L 35.6875 0 
L 23.484375 0 
z
" id="DejaVuSans-118"/>
      <path d="M 44.390625 34.1875 
Q 47.5625 33.109375 50.5625 29.59375 
Q 53.5625 26.078125 56.59375 19.921875 
L 66.609375 0 
L 56 0 
L 46.6875 18.703125 
Q 43.0625 26.03125 39.671875 28.421875 
Q 36.28125 30.8125 30.421875 30.8125 
L 19.671875 30.8125 
L 19.671875 0 
L 9.8125 0 
L 9.8125 72.90625 
L 32.078125 72.90625 
Q 44.578125 72.90625 50.734375 67.671875 
Q 56.890625 62.453125 56.890625 51.90625 
Q 56.890625 45.015625 53.6875 40.46875 
Q 50.484375 35.9375 44.390625 34.1875 
z
M 19.671875 64.796875 
L 19.671875 38.921875 
L 32.078125 38.921875 
Q 39.203125 38.921875 42.84375 42.21875 
Q 46.484375 45.515625 46.484375 51.90625 
Q 46.484375 58.296875 42.84375 61.546875 
Q 39.203125 64.796875 32.078125 64.796875 
z
" id="DejaVuSans-82"/>
     </defs>
     <g transform="translate(174.792891 338.140094)scale(0.13 -0.13)">
      <use xlink:href="#DejaVuSans-70"/>
      <use x="57.378906" xlink:href="#DejaVuSans-97"/>
      <use x="118.658203" xlink:href="#DejaVuSans-108"/>
      <use x="146.441406" xlink:href="#DejaVuSans-115"/>
      <use x="198.541016" xlink:href="#DejaVuSans-101"/>
      <use x="260.064453" xlink:href="#DejaVuSans-32"/>
      <use x="291.851562" xlink:href="#DejaVuSans-80"/>
      <use x="352.107422" xlink:href="#DejaVuSans-111"/>
      <use x="413.289062" xlink:href="#DejaVuSans-115"/>
      <use x="465.388672" xlink:href="#DejaVuSans-105"/>
      <use x="493.171875" xlink:href="#DejaVuSans-116"/>
      <use x="532.380859" xlink:href="#DejaVuSans-105"/>
      <use x="560.164062" xlink:href="#DejaVuSans-118"/>
      <use x="619.34375" xlink:href="#DejaVuSans-101"/>
      <use x="680.867188" xlink:href="#DejaVuSans-32"/>
      <use x="712.654297" xlink:href="#DejaVuSans-82"/>
      <use x="782.105469" xlink:href="#DejaVuSans-97"/>
      <use x="843.384766" xlink:href="#DejaVuSans-116"/>
      <use x="882.59375" xlink:href="#DejaVuSans-101"/>
     </g>
    </g>
   </g>
   <g id="matplotlib.axis_2">
    <g id="ytick_1">
     <g id="line2d_7">
      <defs>
       <path d="M 0 0 
L -3.5 0 
" id="m4b3cce50a9" style="stroke:#000000;stroke-width:0.8;"/>
      </defs>
      <g>
       <use style="stroke:#000000;stroke-width:0.8;" x="57.6" xlink:href="#m4b3cce50a9" y="295.488"/>
      </g>
     </g>
     <g id="text_8">
      <!-- 0.0 -->
      <g transform="translate(34.696875 299.287219)scale(0.1 -0.1)">
       <use xlink:href="#DejaVuSans-48"/>
       <use x="63.623047" xlink:href="#DejaVuSans-46"/>
       <use x="95.410156" xlink:href="#DejaVuSans-48"/>
      </g>
     </g>
    </g>
    <g id="ytick_2">
     <g id="line2d_8">
      <g>
       <use style="stroke:#000000;stroke-width:0.8;" x="57.6" xlink:href="#m4b3cce50a9" y="247.104"/>
      </g>
     </g>
     <g id="text_9">
      <!-- 0.2 -->
      <g transform="translate(34.696875 250.903219)scale(0.1 -0.1)">
       <use xlink:href="#DejaVuSans-48"/>
       <use x="63.623047" xlink:href="#DejaVuSans-46"/>
       <use x="95.410156" xlink:href="#DejaVuSans-50"/>
      </g>
     </g>
    </g>
    <g id="ytick_3">
     <g id="line2d_9">
      <g>
       <use style="stroke:#000000;stroke-width:0.8;" x="57.6" xlink:href="#m4b3cce50a9" y="198.72"/>
      </g>
     </g>
     <g id="text_10">
      <!-- 0.4 -->
      <g transform="translate(34.696875 202.519219)scale(0.1 -0.1)">
       <use xlink:href="#DejaVuSans-48"/>
       <use x="63.623047" xlink:href="#DejaVuSans-46"/>
       <use x="95.410156" xlink:href="#DejaVuSans-52"/>
      </g>
     </g>
    </g>
    <g id="ytick_4">
     <g id="line2d_10">
      <g>
       <use style="stroke:#000000;stroke-width:0.8;" x="57.6" xlink:href="#m4b3cce50a9" y="150.336"/>
      </g>
     </g>
     <g id="text_11">
      <!-- 0.6 -->
      <g transform="translate(34.696875 154.135219)scale(0.1 -0.1)">
       <use xlink:href="#DejaVuSans-48"/>
       <use x="63.623047" xlink:href="#DejaVuSans-46"/>
       <use x="95.410156" xlink:href="#DejaVuSans-54"/>
      </g>
     </g>
    </g>
    <g id="ytick_5">
     <g id="line2d_11">
      <g>
       <use style="stroke:#000000;stroke-width:0.8;" x="57.6" xlink:href="#m4b3cce50a9" y="101.952"/>
      </g>
     </g>
     <g id="text_12">
      <!-- 0.8 -->
      <g transform="translate(34.696875 105.751219)scale(0.1 -0.1)">
       <use xlink:href="#DejaVuSans-48"/>
       <use x="63.623047" xlink:href="#DejaVuSans-46"/>
       <use x="95.410156" xlink:href="#DejaVuSans-56"/>
      </g>
     </g>
    </g>
    <g id="ytick_6">
     <g id="line2d_12">
      <g>
       <use style="stroke:#000000;stroke-width:0.8;" x="57.6" xlink:href="#m4b3cce50a9" y="53.568"/>
      </g>
     </g>
     <g id="text_13">
      <!-- 1.0 -->
      <g transform="translate(34.696875 57.367219)scale(0.1 -0.1)">
       <use xlink:href="#DejaVuSans-49"/>
       <use x="63.623047" xlink:href="#DejaVuSans-46"/>
       <use x="95.410156" xlink:href="#DejaVuSans-48"/>
      </g>
     </g>
    </g>
    <g id="text_14">
     <!-- True Positive Rate -->
     <defs>
      <path d="M -0.296875 72.90625 
L 61.375 72.90625 
L 61.375 64.59375 
L 35.5 64.59375 
L 35.5 0 
L 25.59375 0 
L 25.59375 64.59375 
L -0.296875 64.59375 
z
" id="DejaVuSans-84"/>
      <path d="M 41.109375 46.296875 
Q 39.59375 47.171875 37.8125 47.578125 
Q 36.03125 48 33.890625 48 
Q 26.265625 48 22.1875 43.046875 
Q 18.109375 38.09375 18.109375 28.8125 
L 18.109375 0 
L 9.078125 0 
L 9.078125 54.6875 
L 18.109375 54.6875 
L 18.109375 46.1875 
Q 20.953125 51.171875 25.484375 53.578125 
Q 30.03125 56 36.53125 56 
Q 37.453125 56 38.578125 55.875 
Q 39.703125 55.765625 41.0625 55.515625 
z
" id="DejaVuSans-114"/>
      <path d="M 8.5 21.578125 
L 8.5 54.6875 
L 17.484375 54.6875 
L 17.484375 21.921875 
Q 17.484375 14.15625 20.5 10.265625 
Q 23.53125 6.390625 29.59375 6.390625 
Q 36.859375 6.390625 41.078125 11.03125 
Q 45.3125 15.671875 45.3125 23.6875 
L 45.3125 54.6875 
L 54.296875 54.6875 
L 54.296875 0 
L 45.3125 0 
L 45.3125 8.40625 
Q 42.046875 3.421875 37.71875 1 
Q 33.40625 -1.421875 27.6875 -1.421875 
Q 18.265625 -1.421875 13.375 4.4375 
Q 8.5 10.296875 8.5 21.578125 
z
M 31.109375 56 
z
" id="DejaVuSans-117"/>
     </defs>
     <g transform="translate(27.993281 233.737922)rotate(-90)scale(0.13 -0.13)">
      <use xlink:href="#DejaVuSans-84"/>
      <use x="60.865234" xlink:href="#DejaVuSans-114"/>
      <use x="101.978516" xlink:href="#DejaVuSans-117"/>
      <use x="165.357422" xlink:href="#DejaVuSans-101"/>
      <use x="226.880859" xlink:href="#DejaVuSans-32"/>
      <use x="258.667969" xlink:href="#DejaVuSans-80"/>
      <use x="318.923828" xlink:href="#DejaVuSans-111"/>
      <use x="380.105469" xlink:href="#DejaVuSans-115"/>
      <use x="432.205078" xlink:href="#DejaVuSans-105"/>
      <use x="459.988281" xlink:href="#DejaVuSans-116"/>
      <use x="499.197266" xlink:href="#DejaVuSans-105"/>
      <use x="526.980469" xlink:href="#DejaVuSans-118"/>
      <use x="586.160156" xlink:href="#DejaVuSans-101"/>
      <use x="647.683594" xlink:href="#DejaVuSans-32"/>
      <use x="679.470703" xlink:href="#DejaVuSans-82"/>
      <use x="748.921875" xlink:href="#DejaVuSans-97"/>
      <use x="810.201172" xlink:href="#DejaVuSans-116"/>
      <use x="849.410156" xlink:href="#DejaVuSans-101"/>
     </g>
    </g>
   </g>
   <g id="line2d_13">
    <path clip-path="url(#pa735665dda)" d="M 73.832727 295.488 
L 73.832727 290.671009 
L 74.55099 290.671009 
L 74.55099 279.966584 
L 75.269252 279.966584 
L 75.269252 241.965876 
L 75.987514 241.965876 
L 75.987514 205.570832 
L 76.705776 205.570832 
L 76.705776 191.119858 
L 77.424039 190.584637 
L 77.424039 139.203398 
L 78.142301 139.203398 
L 78.142301 134.386407 
L 78.860563 134.386407 
L 78.860563 127.963752 
L 79.578825 127.963752 
L 79.578825 119.935434 
L 81.01535 119.935434 
L 81.01535 110.836673 
L 81.733612 110.836673 
L 81.733612 107.090124 
L 82.451874 107.090124 
L 82.451874 100.667469 
L 83.170137 100.132248 
L 83.170137 92.63915 
L 83.888399 92.63915 
L 83.888399 86.216496 
L 84.606661 86.216496 
L 84.606661 85.146053 
L 86.761448 85.146053 
L 86.761448 83.540389 
L 87.47971 83.540389 
L 87.47971 83.005168 
L 88.916235 83.005168 
L 88.916235 81.934726 
L 91.789284 81.934726 
L 91.789284 79.793841 
L 94.662333 79.793841 
L 94.662333 79.258619 
L 96.81712 79.258619 
L 96.81712 78.723398 
L 99.690169 78.723398 
L 99.690169 77.652956 
L 102.563218 77.652956 
L 102.563218 76.582513 
L 106.872792 76.582513 
L 106.872792 74.97685 
L 107.591054 74.97685 
L 107.591054 74.441628 
L 109.745841 74.441628 
L 109.745841 73.371186 
L 111.182365 73.371186 
L 111.182365 72.835965 
L 111.900628 72.835965 
L 111.900628 72.300743 
L 112.61889 72.300743 
L 112.61889 71.230301 
L 113.337152 71.230301 
L 113.337152 70.69508 
L 114.055414 70.69508 
L 114.055414 70.159858 
L 117.646726 70.159858 
L 117.646726 69.089416 
L 121.238037 69.089416 
L 121.238037 68.554195 
L 122.674562 68.554195 
L 122.674562 68.018973 
L 123.392824 68.018973 
L 123.392824 67.483752 
L 125.547611 67.483752 
L 125.547611 66.948531 
L 130.575447 66.948531 
L 130.575447 66.41331 
L 136.321545 66.41331 
L 136.321545 65.342867 
L 143.504167 65.342867 
L 143.504167 64.807646 
L 148.532003 64.807646 
L 148.532003 64.272425 
L 154.278101 64.272425 
L 154.278101 63.737204 
L 157.869413 63.737204 
L 157.869413 63.201982 
L 159.305937 63.201982 
L 159.305937 62.13154 
L 160.742462 62.13154 
L 160.742462 61.596319 
L 161.460724 61.596319 
L 161.460724 60.525876 
L 166.48856 60.525876 
L 166.48856 59.990655 
L 167.206822 59.990655 
L 167.206822 59.455434 
L 174.389445 59.455434 
L 174.389445 57.84977 
L 177.980756 57.84977 
L 177.980756 57.314549 
L 179.417281 57.314549 
L 179.417281 56.779327 
L 188.036428 56.779327 
L 188.036428 56.244106 
L 191.627739 56.244106 
L 191.627739 55.708885 
L 196.655575 55.708885 
L 196.655575 55.173664 
L 199.528624 55.173664 
L 199.528624 54.638442 
L 212.457345 54.638442 
L 212.457345 54.103221 
L 267.76354 54.103221 
L 267.76354 53.568 
L 398.487273 53.568 
L 398.487273 53.568 
" style="fill:none;stroke:#ff0000;stroke-linecap:square;stroke-opacity:0.8;stroke-width:1.5;"/>
   </g>
   <g id="line2d_14">
    <path clip-path="url(#pa735665dda)" d="M 73.832727 295.488 
L 73.832727 237.684106 
L 74.55099 237.684106 
L 74.55099 224.838796 
L 75.269252 224.838796 
L 75.269252 206.106053 
L 75.987514 206.106053 
L 75.987514 116.188885 
L 76.705776 116.188885 
L 76.705776 106.019681 
L 77.424039 106.019681 
L 77.424039 97.991363 
L 78.142301 97.991363 
L 78.142301 97.456142 
L 78.860563 96.92092 
L 78.860563 90.498265 
L 79.578825 90.498265 
L 79.578825 88.357381 
L 80.297088 88.357381 
L 80.297088 86.216496 
L 81.01535 86.216496 
L 81.01535 85.681274 
L 81.733612 85.681274 
L 81.733612 82.469947 
L 82.451874 82.469947 
L 82.451874 78.188177 
L 83.170137 78.188177 
L 83.170137 77.652956 
L 83.888399 77.652956 
L 83.888399 75.512071 
L 84.606661 75.512071 
L 84.606661 73.906407 
L 86.761448 73.906407 
L 86.761448 73.371186 
L 90.352759 73.371186 
L 90.352759 72.835965 
L 91.071022 72.835965 
L 91.071022 72.300743 
L 93.225809 72.300743 
L 93.225809 70.159858 
L 94.662333 70.159858 
L 94.662333 69.624637 
L 95.380595 69.624637 
L 95.380595 69.089416 
L 98.971907 69.089416 
L 98.971907 68.554195 
L 101.126693 68.554195 
L 101.126693 67.483752 
L 101.844956 67.483752 
L 101.844956 66.948531 
L 102.563218 66.948531 
L 102.563218 66.41331 
L 105.436267 66.41331 
L 105.436267 65.878088 
L 108.309316 65.878088 
L 108.309316 65.342867 
L 109.745841 65.342867 
L 109.745841 64.807646 
L 112.61889 64.807646 
L 112.61889 64.272425 
L 113.337152 64.272425 
L 113.337152 63.737204 
L 114.055414 63.737204 
L 114.055414 63.201982 
L 120.519775 63.201982 
L 120.519775 62.13154 
L 121.238037 62.13154 
L 121.238037 61.596319 
L 124.111086 61.596319 
L 124.111086 61.061097 
L 126.265873 61.061097 
L 126.265873 60.525876 
L 130.575447 60.525876 
L 130.575447 59.990655 
L 132.730233 59.990655 
L 132.730233 59.455434 
L 134.88502 59.455434 
L 134.88502 58.384991 
L 142.067643 58.384991 
L 142.067643 57.84977 
L 151.405052 57.84977 
L 151.405052 57.314549 
L 152.123315 57.314549 
L 152.123315 56.779327 
L 158.587675 56.779327 
L 158.587675 56.244106 
L 170.079871 56.244106 
L 170.079871 55.708885 
L 183.008592 55.708885 
L 183.008592 55.173664 
L 221.794755 55.173664 
L 221.794755 54.638442 
L 222.513017 54.638442 
L 222.513017 54.103221 
L 266.327015 54.103221 
L 266.327015 53.568 
L 398.487273 53.568 
L 398.487273 53.568 
" style="fill:none;stroke:#ff0000;stroke-linecap:square;stroke-opacity:0.8;stroke-width:1.5;"/>
   </g>
   <g id="line2d_15">
    <path clip-path="url(#pa735665dda)" d="M 73.832727 295.488 
L 73.832727 295.488 
L 73.832727 294.952779 
L 73.832727 278.36092 
L 74.55099 277.825699 
L 74.55099 277.290478 
L 75.269252 276.755257 
L 75.269252 254.275965 
L 75.987514 254.275965 
L 75.987514 238.754549 
L 76.705776 238.754549 
L 76.705776 221.627469 
L 77.424039 221.627469 
L 77.424039 209.317381 
L 77.424039 208.246938 
L 77.424039 186.838088 
L 77.424039 185.232425 
L 77.424039 168.640566 
L 78.860563 168.640566 
L 78.860563 158.471363 
L 78.860563 155.795257 
L 78.860563 146.161274 
L 79.578825 145.626053 
L 79.578825 142.414726 
L 79.578825 141.344283 
L 79.578825 138.132956 
L 79.578825 137.062513 
L 79.578825 123.146761 
L 80.297088 123.146761 
L 80.297088 106.554903 
L 81.01535 106.019681 
L 81.01535 100.667469 
L 81.733612 100.667469 
L 81.733612 99.061805 
L 81.733612 97.456142 
L 81.733612 96.385699 
L 82.451874 96.385699 
L 82.451874 95.315257 
L 82.451874 93.709593 
L 82.451874 92.63915 
L 82.451874 91.033487 
L 82.451874 89.963044 
L 83.170137 89.963044 
L 83.170137 89.427823 
L 83.888399 89.427823 
L 83.888399 87.822159 
L 84.606661 87.822159 
L 84.606661 86.216496 
L 84.606661 85.146053 
L 85.324924 85.146053 
L 85.324924 82.469947 
L 86.043186 82.469947 
L 86.043186 81.934726 
L 86.761448 81.934726 
L 86.761448 81.399504 
L 87.47971 81.399504 
L 87.47971 79.793841 
L 89.634497 79.793841 
L 89.634497 79.258619 
L 90.352759 79.258619 
L 90.352759 78.723398 
L 91.071022 78.723398 
L 91.071022 78.188177 
L 91.789284 78.188177 
L 92.507546 77.652956 
L 100.408431 77.652956 
L 100.408431 77.117735 
L 106.872792 77.117735 
L 106.872792 72.835965 
L 107.591054 72.835965 
L 107.591054 72.300743 
L 109.745841 72.300743 
L 109.745841 69.624637 
L 110.464103 69.624637 
L 110.464103 69.089416 
L 111.182365 69.089416 
L 111.182365 68.554195 
L 114.055414 68.554195 
L 114.055414 68.018973 
L 116.210201 68.018973 
L 116.210201 67.483752 
L 116.928463 67.483752 
L 116.928463 66.948531 
L 120.519775 66.948531 
L 120.519775 66.41331 
L 122.674562 66.41331 
L 122.674562 65.342867 
L 123.392824 65.342867 
L 123.392824 62.666761 
L 128.42066 62.666761 
L 128.42066 62.13154 
L 129.138922 62.13154 
L 129.138922 61.596319 
L 134.88502 61.596319 
L 134.88502 60.525876 
L 140.631118 60.525876 
L 140.631118 59.990655 
L 147.813741 59.990655 
L 147.813741 59.455434 
L 149.968528 59.455434 
L 149.968528 58.920212 
L 161.460724 58.920212 
L 161.460724 57.84977 
L 162.897249 57.84977 
L 162.897249 56.779327 
L 164.333773 56.779327 
L 164.333773 56.244106 
L 167.206822 56.244106 
L 167.206822 55.708885 
L 196.655575 55.708885 
L 196.655575 55.173664 
L 229.69564 55.173664 
L 229.69564 54.638442 
L 246.215672 54.638442 
L 246.215672 54.103221 
L 254.116557 54.103221 
L 254.116557 53.568 
L 333.125406 53.568 
L 334.561931 53.568 
L 398.487273 53.568 
" style="fill:none;stroke:#ff0000;stroke-linecap:square;stroke-opacity:0.8;stroke-width:1.5;"/>
   </g>
   <g id="line2d_16">
    <path clip-path="url(#pa735665dda)" d="M 73.832727 295.488 
L 73.832727 295.488 
L 73.832727 294.952779 
L 73.832727 258.557735 
L 73.832727 257.487292 
L 73.832727 234.472779 
L 74.55099 234.472779 
L 74.55099 230.191009 
L 75.269252 230.191009 
L 75.269252 209.852602 
L 75.269252 208.782159 
L 75.269252 198.612956 
L 75.987514 198.612956 
L 75.987514 192.190301 
L 76.705776 192.190301 
L 76.705776 159.006584 
L 77.424039 159.006584 
L 77.424039 155.260035 
L 77.424039 153.11915 
L 77.424039 152.048708 
L 78.142301 150.978265 
L 78.142301 142.949947 
L 78.142301 141.879504 
L 78.142301 134.921628 
L 78.860563 134.921628 
L 78.860563 128.498973 
L 78.860563 127.428531 
L 78.860563 123.681982 
L 79.578825 123.681982 
L 79.578825 121.541097 
L 79.578825 120.470655 
L 79.578825 117.259327 
L 80.297088 117.259327 
L 80.297088 116.188885 
L 81.01535 116.188885 
L 81.01535 115.653664 
L 81.733612 115.653664 
L 81.733612 109.76623 
L 81.733612 108.160566 
L 81.733612 104.414018 
L 83.888399 104.414018 
L 83.888399 103.878796 
L 83.888399 102.808354 
L 83.888399 102.273133 
L 84.606661 102.273133 
L 84.606661 100.132248 
L 84.606661 98.526584 
L 85.324924 98.526584 
L 85.324924 94.780035 
L 86.043186 94.780035 
L 86.043186 94.244814 
L 86.761448 94.244814 
L 86.761448 91.568708 
L 86.761448 90.498265 
L 86.761448 87.286938 
L 88.197973 87.286938 
L 88.197973 83.005168 
L 88.916235 83.005168 
L 88.916235 81.934726 
L 88.916235 80.329062 
L 88.916235 77.652956 
L 90.352759 77.652956 
L 90.352759 77.117735 
L 93.225809 77.117735 
L 93.944071 76.582513 
L 93.944071 76.047292 
L 94.662333 76.047292 
L 94.662333 75.512071 
L 95.380595 75.512071 
L 95.380595 74.97685 
L 101.126693 74.97685 
L 101.126693 73.906407 
L 104.718005 73.906407 
L 104.718005 73.371186 
L 105.436267 73.371186 
L 105.436267 70.159858 
L 106.154529 70.159858 
L 106.154529 69.624637 
L 107.591054 69.624637 
L 107.591054 68.554195 
L 110.464103 68.554195 
L 110.464103 68.018973 
L 113.337152 68.018973 
L 113.337152 67.483752 
L 116.928463 67.483752 
L 116.928463 66.948531 
L 119.08325 66.948531 
L 119.08325 66.41331 
L 121.238037 66.41331 
L 121.238037 65.878088 
L 123.392824 65.878088 
L 123.392824 64.807646 
L 126.265873 64.807646 
L 126.265873 63.737204 
L 132.011971 63.737204 
L 132.011971 63.201982 
L 132.730233 63.201982 
L 132.730233 62.13154 
L 134.166758 62.13154 
L 134.166758 61.596319 
L 134.88502 61.596319 
L 134.88502 60.525876 
L 144.940692 60.525876 
L 144.940692 59.990655 
L 149.250265 59.990655 
L 149.250265 59.455434 
L 150.68679 59.455434 
L 150.68679 58.920212 
L 160.0242 58.920212 
L 160.0242 57.84977 
L 161.460724 57.84977 
L 161.460724 57.314549 
L 165.770298 57.314549 
L 165.770298 56.779327 
L 167.925084 56.779327 
L 167.925084 56.244106 
L 192.346002 56.244106 
L 192.346002 55.173664 
L 194.500788 55.173664 
L 195.937313 55.173664 
L 220.35823 55.173664 
L 220.35823 54.638442 
L 221.076492 54.638442 
L 221.076492 54.103221 
L 313.014063 54.103221 
L 313.014063 53.568 
L 398.487273 53.568 
" style="fill:none;stroke:#ff0000;stroke-linecap:square;stroke-opacity:0.8;stroke-width:1.5;"/>
   </g>
   <g id="line2d_17">
    <path clip-path="url(#pa735665dda)" d="M 73.832727 295.488 
L 73.832727 273.008708 
L 75.269252 273.008708 
L 75.269252 263.374726 
L 75.987514 263.374726 
L 75.987514 211.458265 
L 76.705776 211.458265 
L 76.705776 210.387823 
L 77.424039 210.387823 
L 77.424039 207.176496 
L 78.142301 207.176496 
L 78.142301 190.049416 
L 78.860563 190.049416 
L 78.860563 180.415434 
L 79.578825 180.415434 
L 79.578825 179.344991 
L 80.297088 179.344991 
L 80.297088 158.471363 
L 81.01535 158.471363 
L 81.01535 153.11915 
L 81.733612 153.11915 
L 81.733612 139.203398 
L 82.451874 139.203398 
L 82.451874 129.034195 
L 83.170137 128.498973 
L 83.170137 117.259327 
L 83.888399 117.259327 
L 83.888399 115.118442 
L 85.324924 115.118442 
L 85.324924 104.949239 
L 86.761448 104.949239 
L 86.761448 98.526584 
L 87.47971 98.526584 
L 87.47971 85.681274 
L 88.916235 85.681274 
L 88.916235 85.146053 
L 89.634497 85.146053 
L 89.634497 84.075611 
L 91.071022 84.075611 
L 91.071022 81.934726 
L 92.507546 81.934726 
L 93.225809 80.864283 
L 93.225809 80.329062 
L 94.662333 80.329062 
L 94.662333 79.258619 
L 96.098858 79.258619 
L 96.098858 78.723398 
L 96.81712 78.188177 
L 96.81712 77.117735 
L 98.971907 77.117735 
L 98.971907 76.582513 
L 99.690169 76.582513 
L 99.690169 75.512071 
L 100.408431 75.512071 
L 100.408431 74.97685 
L 101.126693 74.97685 
L 101.126693 73.906407 
L 101.844956 73.906407 
L 101.844956 72.835965 
L 103.28148 72.835965 
L 103.28148 72.300743 
L 103.999743 72.300743 
L 103.999743 70.69508 
L 106.872792 70.69508 
L 106.872792 69.624637 
L 111.900628 69.624637 
L 111.900628 69.089416 
L 112.61889 69.089416 
L 112.61889 68.018973 
L 113.337152 68.018973 
L 113.337152 66.41331 
L 116.928463 66.41331 
L 116.928463 65.878088 
L 121.956299 65.878088 
L 121.956299 64.807646 
L 124.829348 64.807646 
L 124.829348 64.272425 
L 127.702397 64.272425 
L 127.702397 63.737204 
L 131.293709 63.737204 
L 131.293709 62.666761 
L 132.730233 62.666761 
L 132.730233 62.13154 
L 138.476331 62.13154 
L 138.476331 61.596319 
L 139.912856 61.596319 
L 139.912856 61.061097 
L 141.349381 61.061097 
L 141.349381 59.990655 
L 143.504167 59.990655 
L 143.504167 59.455434 
L 152.123315 59.455434 
L 152.123315 57.84977 
L 152.841577 57.84977 
L 152.841577 57.314549 
L 154.996364 57.314549 
L 154.996364 56.779327 
L 157.869413 56.779327 
L 157.869413 56.244106 
L 170.079871 56.244106 
L 170.079871 55.708885 
L 188.036428 55.708885 
L 188.036428 54.638442 
L 189.472953 54.638442 
L 189.472953 54.103221 
L 205.274722 54.103221 
L 205.274722 53.568 
L 398.487273 53.568 
L 398.487273 53.568 
" style="fill:none;stroke:#ff0000;stroke-linecap:square;stroke-opacity:0.8;stroke-width:1.5;"/>
   </g>
   <g id="line2d_18">
    <path clip-path="url(#pa735665dda)" d="M 73.832727 295.488 
L 73.832727 273.543929 
L 74.55099 273.543929 
L 74.55099 226.44446 
L 75.269252 226.44446 
L 75.269252 185.232425 
L 75.987514 185.232425 
L 75.987514 156.865699 
L 76.705776 156.865699 
L 76.705776 141.344283 
L 77.424039 141.344283 
L 77.424039 140.273841 
L 78.142301 140.273841 
L 78.142301 126.358088 
L 78.860563 126.358088 
L 78.860563 122.076319 
L 79.578825 122.076319 
L 79.578825 118.864991 
L 80.297088 118.32977 
L 80.297088 109.231009 
L 81.01535 108.160566 
L 81.01535 105.48446 
L 81.733612 105.48446 
L 81.733612 95.850478 
L 82.451874 95.850478 
L 82.451874 95.315257 
L 83.170137 94.244814 
L 83.170137 89.427823 
L 84.606661 89.427823 
L 84.606661 88.892602 
L 85.324924 88.892602 
L 85.324924 88.357381 
L 86.761448 88.357381 
L 86.761448 84.075611 
L 87.47971 84.075611 
L 87.47971 80.329062 
L 89.634497 80.329062 
L 89.634497 79.258619 
L 91.789284 79.258619 
L 91.789284 78.723398 
L 93.944071 78.723398 
L 93.944071 78.188177 
L 94.662333 78.188177 
L 94.662333 77.652956 
L 96.098858 77.652956 
L 96.098858 75.512071 
L 96.81712 75.512071 
L 96.81712 74.97685 
L 98.253644 74.97685 
L 98.971907 74.441628 
L 98.971907 72.300743 
L 100.408431 72.300743 
L 100.408431 71.765522 
L 104.718005 71.765522 
L 104.718005 71.230301 
L 109.027578 71.230301 
L 109.027578 70.69508 
L 109.745841 70.69508 
L 109.745841 70.159858 
L 111.900628 70.159858 
L 111.900628 69.624637 
L 112.61889 69.624637 
L 112.61889 69.089416 
L 114.055414 69.089416 
L 114.055414 68.554195 
L 114.773677 68.554195 
L 114.773677 68.018973 
L 115.491939 68.018973 
L 115.491939 67.483752 
L 119.801512 67.483752 
L 119.801512 66.948531 
L 124.829348 66.948531 
L 124.829348 66.41331 
L 126.265873 66.41331 
L 126.265873 65.878088 
L 127.702397 65.878088 
L 127.702397 65.342867 
L 130.575447 65.342867 
L 130.575447 64.272425 
L 134.88502 64.272425 
L 134.88502 63.201982 
L 135.603282 63.201982 
L 135.603282 62.666761 
L 136.321545 62.666761 
L 136.321545 62.13154 
L 140.631118 62.13154 
L 140.631118 61.061097 
L 141.349381 61.061097 
L 141.349381 60.525876 
L 143.504167 60.525876 
L 143.504167 59.990655 
L 147.813741 59.990655 
L 147.813741 59.455434 
L 162.897249 59.455434 
L 162.897249 58.920212 
L 172.234658 58.920212 
L 172.234658 58.384991 
L 172.95292 58.384991 
L 172.95292 57.84977 
L 177.262494 57.84977 
L 177.262494 56.779327 
L 206.711247 56.779327 
L 206.711247 56.244106 
L 207.429509 56.244106 
L 207.429509 55.708885 
L 208.866034 55.708885 
L 208.866034 55.173664 
L 218.203443 55.173664 
L 218.203443 54.638442 
L 238.314787 54.638442 
L 238.314787 54.103221 
L 247.652196 54.103221 
L 247.652196 53.568 
L 398.487273 53.568 
L 398.487273 53.568 
" style="fill:none;stroke:#ff0000;stroke-linecap:square;stroke-opacity:0.8;stroke-width:1.5;"/>
   </g>
   <g id="line2d_19">
    <path clip-path="url(#pa735665dda)" d="M 73.832727 295.488 
L 74.55099 295.488 
L 74.55099 218.951363 
L 75.269252 218.951363 
L 75.269252 194.331186 
L 75.987514 194.331186 
L 75.987514 147.766938 
L 76.705776 147.766938 
L 76.705776 133.315965 
L 77.424039 133.315965 
L 77.424039 128.498973 
L 78.142301 128.498973 
L 78.142301 126.89331 
L 78.860563 126.89331 
L 78.860563 125.287646 
L 79.578825 124.752425 
L 79.578825 120.470655 
L 80.297088 120.470655 
L 80.297088 108.160566 
L 81.01535 107.625345 
L 81.01535 89.963044 
L 81.733612 89.963044 
L 81.733612 83.005168 
L 82.451874 83.005168 
L 82.451874 79.793841 
L 83.170137 79.793841 
L 83.170137 79.258619 
L 85.324924 79.258619 
L 85.324924 77.652956 
L 86.761448 77.652956 
L 86.761448 76.582513 
L 88.197973 76.582513 
L 88.197973 75.512071 
L 89.634497 75.512071 
L 89.634497 74.97685 
L 90.352759 74.97685 
L 90.352759 74.441628 
L 92.507546 74.441628 
L 92.507546 73.906407 
L 93.944071 73.906407 
L 93.944071 72.835965 
L 94.662333 72.835965 
L 94.662333 72.300743 
L 95.380595 72.300743 
L 95.380595 71.765522 
L 96.098858 71.765522 
L 96.098858 70.69508 
L 97.535382 70.69508 
L 97.535382 70.159858 
L 100.408431 70.159858 
L 100.408431 69.624637 
L 101.844956 69.624637 
L 101.844956 69.089416 
L 103.28148 69.089416 
L 103.28148 68.018973 
L 104.718005 68.018973 
L 104.718005 67.483752 
L 106.872792 67.483752 
L 106.872792 66.948531 
L 111.182365 66.948531 
L 111.182365 65.342867 
L 115.491939 65.342867 
L 115.491939 64.807646 
L 116.928463 64.807646 
L 116.928463 64.272425 
L 120.519775 64.272425 
L 120.519775 63.201982 
L 127.702397 63.201982 
L 127.702397 62.666761 
L 129.138922 62.666761 
L 129.138922 61.596319 
L 135.603282 61.596319 
L 135.603282 61.061097 
L 139.194594 61.061097 
L 139.194594 60.525876 
L 141.349381 60.525876 
L 141.349381 59.990655 
L 144.22243 59.990655 
L 144.22243 58.920212 
L 147.095479 58.920212 
L 147.095479 58.384991 
L 154.278101 58.384991 
L 154.278101 57.84977 
L 156.432888 57.84977 
L 156.432888 57.314549 
L 157.15115 57.314549 
L 157.15115 56.779327 
L 166.48856 56.779327 
L 166.48856 56.244106 
L 170.798134 56.244106 
L 170.798134 55.708885 
L 195.937313 55.708885 
L 195.937313 55.173664 
L 199.528624 55.173664 
L 199.528624 54.638442 
L 204.55646 54.638442 
L 204.55646 54.103221 
L 206.711247 54.103221 
L 206.711247 53.568 
L 398.487273 53.568 
L 398.487273 53.568 
" style="fill:none;stroke:#ff0000;stroke-linecap:square;stroke-opacity:0.8;stroke-width:1.5;"/>
   </g>
   <g id="line2d_20">
    <path clip-path="url(#pa735665dda)" d="M 73.832727 295.488 
L 73.832727 277.825699 
L 74.55099 277.825699 
L 74.55099 254.811186 
L 75.269252 254.811186 
L 75.269252 218.951363 
L 75.987514 218.951363 
L 75.987514 151.513487 
L 77.424039 151.513487 
L 77.424039 142.949947 
L 78.142301 142.949947 
L 78.142301 137.597735 
L 78.860563 137.597735 
L 78.860563 128.498973 
L 79.578825 128.498973 
L 79.578825 119.935434 
L 80.297088 119.935434 
L 80.297088 117.259327 
L 81.01535 117.259327 
L 81.01535 112.977558 
L 81.733612 112.977558 
L 81.733612 112.442336 
L 82.451874 112.442336 
L 82.451874 108.160566 
L 83.170137 108.160566 
L 83.170137 104.414018 
L 84.606661 104.414018 
L 84.606661 103.343575 
L 85.324924 103.343575 
L 85.324924 102.808354 
L 86.043186 102.808354 
L 86.043186 101.20269 
L 86.761448 101.20269 
L 86.761448 97.991363 
L 88.916235 97.991363 
L 88.916235 96.92092 
L 89.634497 96.92092 
L 89.634497 95.315257 
L 90.352759 95.315257 
L 90.352759 91.033487 
L 91.071022 91.033487 
L 91.071022 86.216496 
L 91.789284 86.216496 
L 91.789284 84.075611 
L 92.507546 84.075611 
L 93.225809 83.540389 
L 94.662333 83.540389 
L 94.662333 81.934726 
L 95.380595 81.934726 
L 95.380595 78.723398 
L 96.098858 78.723398 
L 96.098858 77.652956 
L 96.81712 77.652956 
L 96.81712 77.117735 
L 98.253644 77.117735 
L 98.253644 76.582513 
L 101.844956 76.582513 
L 101.844956 75.512071 
L 105.436267 75.512071 
L 105.436267 74.97685 
L 106.154529 74.97685 
L 106.154529 73.906407 
L 108.309316 73.906407 
L 108.309316 72.835965 
L 110.464103 72.835965 
L 110.464103 71.230301 
L 111.900628 71.230301 
L 111.900628 70.159858 
L 113.337152 70.159858 
L 113.337152 69.624637 
L 114.773677 69.624637 
L 114.773677 68.554195 
L 115.491939 68.554195 
L 115.491939 67.483752 
L 116.928463 67.483752 
L 116.928463 66.948531 
L 122.674562 66.948531 
L 122.674562 65.878088 
L 124.829348 65.878088 
L 124.829348 65.342867 
L 128.42066 65.342867 
L 128.42066 63.737204 
L 129.138922 63.737204 
L 129.857184 63.201982 
L 129.857184 62.666761 
L 134.88502 62.666761 
L 134.88502 62.13154 
L 135.603282 62.13154 
L 135.603282 61.596319 
L 147.095479 61.596319 
L 147.095479 61.061097 
L 147.813741 61.061097 
L 147.813741 60.525876 
L 149.968528 60.525876 
L 149.968528 59.455434 
L 154.278101 59.455434 
L 154.278101 58.920212 
L 159.305937 58.920212 
L 159.305937 58.384991 
L 163.615511 58.384991 
L 163.615511 57.314549 
L 167.925084 57.314549 
L 167.925084 56.779327 
L 177.262494 56.779327 
L 177.262494 55.708885 
L 188.036428 55.708885 
L 188.036428 55.173664 
L 211.020821 55.173664 
L 211.020821 54.638442 
L 214.612132 54.638442 
L 214.612132 54.103221 
L 352.518488 54.103221 
L 352.518488 53.568 
L 398.487273 53.568 
L 398.487273 53.568 
" style="fill:none;stroke:#ff0000;stroke-linecap:square;stroke-opacity:0.8;stroke-width:1.5;"/>
   </g>
   <g id="line2d_21">
    <path clip-path="url(#pa735665dda)" d="M 73.832727 295.488 
L 73.832727 274.614372 
L 74.55099 274.614372 
L 74.55099 273.543929 
L 75.269252 273.543929 
L 75.269252 244.641982 
L 75.987514 244.641982 
L 75.987514 214.134372 
L 76.705776 214.134372 
L 76.705776 198.612956 
L 77.424039 198.612956 
L 77.424039 194.866407 
L 78.142301 194.866407 
L 78.142301 169.175788 
L 78.860563 169.175788 
L 78.860563 159.541805 
L 79.578825 159.541805 
L 79.578825 146.696496 
L 80.297088 146.696496 
L 80.297088 138.132956 
L 81.01535 138.132956 
L 81.01535 127.428531 
L 81.733612 127.428531 
L 81.733612 118.32977 
L 82.451874 117.794549 
L 82.451874 112.977558 
L 83.170137 112.977558 
L 83.170137 109.76623 
L 83.888399 109.76623 
L 83.888399 108.160566 
L 84.606661 108.160566 
L 84.606661 98.526584 
L 85.324924 98.526584 
L 85.324924 96.92092 
L 86.043186 96.92092 
L 86.043186 94.244814 
L 86.761448 93.709593 
L 86.761448 92.63915 
L 87.47971 92.63915 
L 87.47971 89.427823 
L 88.197973 89.427823 
L 88.197973 81.399504 
L 89.634497 81.399504 
L 89.634497 80.329062 
L 90.352759 80.329062 
L 90.352759 79.793841 
L 91.071022 79.793841 
L 91.071022 78.188177 
L 93.225809 78.188177 
L 93.225809 77.117735 
L 93.944071 77.117735 
L 93.944071 76.582513 
L 95.380595 76.582513 
L 95.380595 75.512071 
L 98.971907 75.512071 
L 98.971907 74.97685 
L 101.844956 74.97685 
L 101.844956 73.906407 
L 102.563218 73.906407 
L 102.563218 72.835965 
L 103.999743 72.835965 
L 103.999743 71.765522 
L 106.154529 71.765522 
L 106.154529 71.230301 
L 106.872792 71.230301 
L 106.872792 70.69508 
L 107.591054 70.69508 
L 107.591054 70.159858 
L 108.309316 70.159858 
L 108.309316 69.089416 
L 109.027578 69.089416 
L 109.027578 68.554195 
L 109.745841 68.554195 
L 109.745841 67.483752 
L 111.182365 67.483752 
L 111.900628 66.948531 
L 114.055414 66.948531 
L 114.055414 66.41331 
L 116.928463 66.41331 
L 116.928463 65.878088 
L 117.646726 65.878088 
L 117.646726 64.807646 
L 134.88502 64.807646 
L 134.88502 64.272425 
L 137.039807 64.272425 
L 137.039807 63.737204 
L 137.758069 63.737204 
L 137.758069 63.201982 
L 140.631118 63.201982 
L 140.631118 62.666761 
L 144.940692 62.666761 
L 144.940692 62.13154 
L 154.996364 62.13154 
L 154.996364 61.596319 
L 156.432888 61.596319 
L 156.432888 61.061097 
L 157.869413 61.061097 
L 157.869413 59.990655 
L 158.587675 59.990655 
L 158.587675 58.920212 
L 160.742462 58.920212 
L 160.742462 58.384991 
L 176.544232 58.384991 
L 176.544232 57.84977 
L 186.599903 57.84977 
L 186.599903 57.314549 
L 189.472953 57.314549 
L 189.472953 56.779327 
L 196.655575 56.779327 
L 196.655575 56.244106 
L 198.810362 56.244106 
L 198.810362 55.708885 
L 200.246887 55.708885 
L 200.246887 55.173664 
L 208.147772 55.173664 
L 208.147772 54.638442 
L 211.020821 54.638442 
L 211.020821 54.103221 
L 254.116557 54.103221 
L 254.116557 53.568 
L 398.487273 53.568 
L 398.487273 53.568 
" style="fill:none;stroke:#ff0000;stroke-linecap:square;stroke-opacity:0.8;stroke-width:1.5;"/>
   </g>
   <g id="line2d_22">
    <path clip-path="url(#pa735665dda)" d="M 73.832727 295.488 
L 73.832727 272.9088 
L 74.554182 272.9088 
L 74.554182 221.2992 
L 75.275636 221.2992 
L 75.275636 204.096 
L 75.997091 204.096 
L 75.997091 187.968 
L 76.718545 187.968 
L 76.718545 136.896 
L 77.44 136.896 
L 77.44 134.7456 
L 78.161455 134.7456 
L 78.161455 127.7568 
L 78.882909 127.7568 
L 78.882909 122.9184 
L 79.604364 122.9184 
L 79.604364 122.3808 
L 80.325818 122.3808 
L 80.325818 116.4672 
L 81.047273 116.4672 
L 81.047273 115.392 
L 81.768727 115.392 
L 81.768727 108.4032 
L 82.490182 108.4032 
L 82.490182 104.64 
L 83.211636 104.64 
L 83.211636 99.264 
L 83.933091 98.1888 
L 83.933091 95.5008 
L 84.654545 95.5008 
L 84.654545 94.9632 
L 85.376 94.9632 
L 85.376 94.4256 
L 86.097455 94.4256 
L 86.097455 93.888 
L 86.818909 93.3504 
L 86.818909 89.5872 
L 87.540364 89.5872 
L 87.540364 88.512 
L 88.261818 88.512 
L 88.261818 86.8992 
L 88.983273 86.3616 
L 95.476364 86.3616 
L 95.476364 83.136 
L 96.197818 83.136 
L 96.197818 82.5984 
L 96.919273 82.5984 
L 96.919273 81.5232 
L 97.640727 81.5232 
L 97.640727 80.9856 
L 98.362182 80.9856 
L 98.362182 80.448 
L 99.805091 80.448 
L 99.805091 78.8352 
L 101.248 78.8352 
L 101.248 77.76 
L 101.969455 77.76 
L 101.969455 77.2224 
L 102.690909 77.2224 
L 102.690909 76.6848 
L 103.412364 76.6848 
L 103.412364 75.6096 
L 105.576727 75.6096 
L 105.576727 74.5344 
L 106.298182 74.5344 
L 106.298182 72.9216 
L 109.184 72.9216 
L 109.184 71.3088 
L 110.626909 71.3088 
L 110.626909 70.7712 
L 112.069818 70.7712 
L 112.069818 69.696 
L 112.791273 69.696 
L 112.791273 69.1584 
L 114.955636 69.1584 
L 114.955636 68.6208 
L 119.284364 68.6208 
L 119.284364 67.008 
L 122.891636 67.008 
L 122.891636 66.4704 
L 127.220364 66.4704 
L 127.220364 65.9328 
L 128.663273 65.9328 
L 128.663273 65.3952 
L 130.827636 65.3952 
L 130.827636 64.8576 
L 133.713455 64.8576 
L 133.713455 64.32 
L 134.434909 64.32 
L 134.434909 63.7824 
L 139.485091 63.7824 
L 139.485091 63.2448 
L 143.092364 63.2448 
L 143.092364 62.7072 
L 146.699636 62.7072 
L 146.699636 62.1696 
L 148.864 62.1696 
L 148.864 61.632 
L 153.192727 61.632 
L 153.192727 61.0944 
L 153.914182 61.0944 
L 153.914182 60.0192 
L 154.635636 60.0192 
L 154.635636 59.4816 
L 166.178909 59.4816 
L 166.178909 58.944 
L 166.900364 58.944 
L 166.900364 57.8688 
L 169.786182 57.8688 
L 169.786182 57.3312 
L 170.507636 57.3312 
L 170.507636 56.7936 
L 171.950545 56.7936 
L 171.950545 56.256 
L 181.329455 56.256 
L 181.329455 55.7184 
L 185.658182 55.7184 
L 185.658182 55.1808 
L 204.416 55.1808 
L 204.416 54.6432 
L 244.096 54.6432 
L 244.096 54.1056 
L 244.817455 54.1056 
L 244.817455 53.568 
L 398.487273 53.568 
L 398.487273 53.568 
" style="fill:none;stroke:#ff0000;stroke-linecap:square;stroke-opacity:0.8;stroke-width:1.5;"/>
   </g>
   <g id="line2d_23">
    <path clip-path="url(#pa735665dda)" d="M 73.832727 295.488 
L 74.157707 270.833616 
L 74.482686 270.8094 
L 74.807666 248.015445 
L 75.132645 247.991229 
L 75.457625 221.158853 
L 75.782604 221.158853 
L 76.107584 182.241133 
L 76.432563 182.241133 
L 76.757543 164.980553 
L 77.407502 164.932121 
L 77.732482 150.593562 
L 78.057461 150.54513 
L 78.382441 141.305694 
L 78.70742 141.281477 
L 79.0324 132.678776 
L 79.357379 132.630344 
L 79.682359 125.631512 
L 80.007338 125.607296 
L 80.332318 117.651313 
L 80.982277 117.457583 
L 81.307256 111.720382 
L 81.632236 111.720382 
L 81.957215 104.742752 
L 82.282195 104.718536 
L 82.607174 100.269123 
L 82.932154 100.172258 
L 83.257133 96.345616 
L 83.582113 96.297183 
L 83.907093 94.643087 
L 84.232072 94.370413 
L 84.557052 94.370413 
L 84.882031 92.282812 
L 85.207011 92.282812 
L 85.53199 90.141689 
L 85.85697 90.141689 
L 86.181949 89.536072 
L 86.506929 89.487639 
L 86.831908 86.500044 
L 87.156888 86.500044 
L 87.481867 84.305637 
L 88.131826 84.198117 
L 88.456806 82.684254 
L 88.781785 82.660038 
L 89.106765 81.842192 
L 89.431744 81.842192 
L 89.756724 81.253448 
L 90.081704 81.253448 
L 90.406683 80.557661 
L 91.056642 80.557661 
L 91.381622 79.594263 
L 91.706601 79.594263 
L 92.031581 79.094509 
L 92.68154 78.966623 
L 93.006519 78.893975 
L 93.331499 78.462422 
L 93.656478 78.438206 
L 93.981458 78.149165 
L 94.631417 78.149165 
L 94.956396 77.613944 
L 95.281376 77.613944 
L 95.606355 76.702641 
L 95.931335 76.702641 
L 96.256314 76.155449 
L 96.581294 76.131232 
L 96.906274 75.846049 
L 97.881212 75.631247 
L 98.206192 75.631247 
L 98.856151 75.479068 
L 99.18113 75.095788 
L 99.50611 75.095788 
L 99.831089 74.720419 
L 100.156069 74.720419 
L 100.481048 74.506331 
L 100.806028 74.506331 
L 101.131007 74.185198 
L 101.780966 74.077678 
L 102.105946 73.595741 
L 102.430925 73.595741 
L 102.755905 73.27437 
L 103.080885 73.27437 
L 104.380803 72.738673 
L 104.705782 72.738673 
L 105.030762 72.578107 
L 105.355741 72.578107 
L 105.680721 72.04241 
L 106.0057 72.04241 
L 106.33068 71.667041 
L 106.655659 71.667041 
L 106.980639 70.86421 
L 107.305618 70.86421 
L 107.630598 70.596599 
L 108.280557 70.596599 
L 108.605536 70.328988 
L 108.930516 70.328988 
L 109.255495 70.060664 
L 109.580475 70.060664 
L 109.905455 69.471921 
L 110.230434 69.471921 
L 110.555414 69.20431 
L 110.880393 69.15055 
L 111.205373 68.881225 
L 111.855332 68.832793 
L 112.180311 68.454287 
L 112.505291 68.454287 
L 112.83027 68.079394 
L 113.15525 68.079394 
L 113.480229 67.704739 
L 113.805209 67.704739 
L 114.130188 67.437128 
L 114.455168 67.437128 
L 115.105127 67.222802 
L 115.430106 67.222802 
L 115.755086 67.008714 
L 116.730025 66.955192 
L 117.055004 66.634059 
L 117.379984 66.634059 
L 117.704963 66.41997 
L 119.004881 66.41997 
L 119.329861 66.205168 
L 120.304799 66.151646 
L 120.629779 65.884035 
L 120.954758 65.884035 
L 121.279738 65.723469 
L 122.579656 65.616425 
L 122.904636 65.295054 
L 123.229615 65.295054 
L 123.554595 64.866877 
L 124.529533 64.813355 
L 124.854513 64.652789 
L 126.154431 64.599267 
L 126.47941 64.385178 
L 127.454349 64.331418 
L 127.779328 64.170852 
L 128.104308 64.170852 
L 128.429287 63.956763 
L 130.379165 63.635393 
L 130.704144 63.421304 
L 134.603898 62.831847 
L 134.928878 62.296626 
L 135.578837 62.296626 
L 135.903817 62.136059 
L 136.228796 62.136059 
L 136.553776 61.975493 
L 138.178673 61.868449 
L 140.12855 61.654122 
L 140.45353 61.654122 
L 140.778509 61.440034 
L 141.103489 61.440034 
L 141.428468 61.225945 
L 143.378346 61.118663 
L 143.703325 60.958097 
L 144.678264 60.851053 
L 145.328223 60.744008 
L 146.95312 60.690248 
L 147.928059 60.422638 
L 149.227977 60.315356 
L 157.352465 59.083395 
L 157.677445 59.083395 
L 158.002424 58.869307 
L 158.327404 58.869307 
L 158.652383 58.708741 
L 159.302342 58.708741 
L 159.627322 58.548174 
L 160.60226 58.44113 
L 161.902179 58.066475 
L 162.877117 58.066475 
L 163.202097 57.905909 
L 164.177035 57.798864 
L 165.151974 57.745342 
L 166.451892 57.63806 
L 168.07679 57.209407 
L 170.026667 57.155647 
L 171.001605 56.941321 
L 172.951482 56.834039 
L 173.926421 56.780517 
L 174.2514 56.780517 
L 174.57638 56.61995 
L 177.176216 56.566428 
L 177.501196 56.35234 
L 181.075971 56.245296 
L 182.050909 56.191536 
L 186.275643 56.084253 
L 187.250581 56.030731 
L 187.900541 56.030731 
L 188.22552 55.816643 
L 191.475315 55.709599 
L 193.100213 55.549032 
L 196.350008 55.49551 
L 196.674988 55.334944 
L 199.274824 55.281422 
L 199.924783 55.174377 
L 200.899722 55.120855 
L 205.124455 55.013573 
L 206.099394 54.960051 
L 207.399312 54.853007 
L 209.02421 54.69244 
L 212.274005 54.585396 
L 213.248943 54.531874 
L 220.073514 54.42483 
L 221.373432 54.317785 
L 229.49792 54.210741 
L 230.472858 54.157219 
L 244.771957 54.049937 
L 245.746896 53.996177 
L 253.871384 53.889133 
L 254.521343 53.782088 
L 312.692678 53.675044 
L 313.667617 53.621522 
L 398.487273 53.568 
L 398.487273 53.568 
" style="fill:none;stroke:#000000;stroke-linecap:square;stroke-width:2;"/>
   </g>
   <g id="line2d_24">
    <path clip-path="url(#pa735665dda)" d="M 73.832727 126.144 
L 73.832727 122.960842 
L 73.832727 119.777684 
L 73.832727 116.594526 
L 73.832727 113.411368 
L 73.832727 110.228211 
L 73.832727 107.045053 
L 73.832727 103.861895 
L 73.832727 100.678737 
L 73.832727 97.495579 
L 73.832727 94.312421 
L 73.832727 91.129263 
L 73.832727 87.946105 
L 73.832727 84.762947 
L 73.832727 81.579789 
L 73.832727 78.396632 
L 73.832727 75.213474 
L 73.832727 72.030316 
L 73.832727 68.847158 
L 73.832727 65.664 
" style="fill:none;stroke:#000000;stroke-dasharray:1,1.65;stroke-dashoffset:0;"/>
   </g>
   <g id="line2d_25">
    <path clip-path="url(#pa735665dda)" d="M 73.832727 126.144 
L 78.104498 126.144 
L 82.376268 126.144 
L 86.648038 126.144 
L 90.919809 126.144 
L 95.191579 126.144 
L 99.463349 126.144 
L 103.73512 126.144 
L 108.00689 126.144 
L 112.27866 126.144 
L 116.550431 126.144 
L 120.822201 126.144 
L 125.093971 126.144 
L 129.365742 126.144 
L 133.637512 126.144 
L 137.909282 126.144 
L 142.181053 126.144 
L 146.452823 126.144 
L 150.724593 126.144 
L 154.996364 126.144 
" style="fill:none;stroke:#000000;stroke-dasharray:1,1.65;stroke-dashoffset:0;"/>
   </g>
   <g id="line2d_26">
    <path clip-path="url(#pa735665dda)" d="M 154.996364 126.144 
L 154.996364 122.960842 
L 154.996364 119.777684 
L 154.996364 116.594526 
L 154.996364 113.411368 
L 154.996364 110.228211 
L 154.996364 107.045053 
L 154.996364 103.861895 
L 154.996364 100.678737 
L 154.996364 97.495579 
L 154.996364 94.312421 
L 154.996364 91.129263 
L 154.996364 87.946105 
L 154.996364 84.762947 
L 154.996364 81.579789 
L 154.996364 78.396632 
L 154.996364 75.213474 
L 154.996364 72.030316 
L 154.996364 68.847158 
L 154.996364 65.664 
" style="fill:none;stroke:#000000;stroke-dasharray:1,1.65;stroke-dashoffset:0;"/>
   </g>
   <g id="line2d_27">
    <path clip-path="url(#pa735665dda)" d="M 73.832727 65.664 
L 78.104498 65.664 
L 82.376268 65.664 
L 86.648038 65.664 
L 90.919809 65.664 
L 95.191579 65.664 
L 99.463349 65.664 
L 103.73512 65.664 
L 108.00689 65.664 
L 112.27866 65.664 
L 116.550431 65.664 
L 120.822201 65.664 
L 125.093971 65.664 
L 129.365742 65.664 
L 133.637512 65.664 
L 137.909282 65.664 
L 142.181053 65.664 
L 146.452823 65.664 
L 150.724593 65.664 
L 154.996364 65.664 
" style="fill:none;stroke:#000000;stroke-dasharray:1,1.65;stroke-dashoffset:0;"/>
   </g>
   <g id="line2d_28">
    <path clip-path="url(#pa735665dda)" d="M 236.16 295.488 
L 236.16 289.121684 
L 236.16 282.755368 
L 236.16 276.389053 
L 236.16 270.022737 
L 236.16 263.656421 
L 236.16 257.290105 
L 236.16 250.923789 
L 236.16 244.557474 
L 236.16 238.191158 
L 236.16 231.824842 
L 236.16 225.458526 
L 236.16 219.092211 
L 236.16 212.725895 
L 236.16 206.359579 
L 236.16 199.993263 
L 236.16 193.626947 
L 236.16 187.260632 
L 236.16 180.894316 
L 236.16 174.528 
" style="fill:none;stroke:#000000;stroke-dasharray:1,1.65;stroke-dashoffset:0;"/>
   </g>
   <g id="line2d_29">
    <path clip-path="url(#pa735665dda)" d="M 236.16 295.488 
L 240.43177 295.488 
L 244.703541 295.488 
L 248.975311 295.488 
L 253.247081 295.488 
L 257.518852 295.488 
L 261.790622 295.488 
L 266.062392 295.488 
L 270.334163 295.488 
L 274.605933 295.488 
L 278.877703 295.488 
L 283.149474 295.488 
L 287.421244 295.488 
L 291.693014 295.488 
L 295.964785 295.488 
L 300.236555 295.488 
L 304.508325 295.488 
L 308.780096 295.488 
L 313.051866 295.488 
L 317.323636 295.488 
" style="fill:none;stroke:#000000;stroke-dasharray:1,1.65;stroke-dashoffset:0;"/>
   </g>
   <g id="line2d_30">
    <path clip-path="url(#pa735665dda)" d="M 317.323636 295.488 
L 317.323636 289.121684 
L 317.323636 282.755368 
L 317.323636 276.389053 
L 317.323636 270.022737 
L 317.323636 263.656421 
L 317.323636 257.290105 
L 317.323636 250.923789 
L 317.323636 244.557474 
L 317.323636 238.191158 
L 317.323636 231.824842 
L 317.323636 225.458526 
L 317.323636 219.092211 
L 317.323636 212.725895 
L 317.323636 206.359579 
L 317.323636 199.993263 
L 317.323636 193.626947 
L 317.323636 187.260632 
L 317.323636 180.894316 
L 317.323636 174.528 
" style="fill:none;stroke:#000000;stroke-dasharray:1,1.65;stroke-dashoffset:0;"/>
   </g>
   <g id="line2d_31">
    <path clip-path="url(#pa735665dda)" d="M 236.16 174.528 
L 240.43177 174.528 
L 244.703541 174.528 
L 248.975311 174.528 
L 253.247081 174.528 
L 257.518852 174.528 
L 261.790622 174.528 
L 266.062392 174.528 
L 270.334163 174.528 
L 274.605933 174.528 
L 278.877703 174.528 
L 283.149474 174.528 
L 287.421244 174.528 
L 291.693014 174.528 
L 295.964785 174.528 
L 300.236555 174.528 
L 304.508325 174.528 
L 308.780096 174.528 
L 313.051866 174.528 
L 317.323636 174.528 
" style="fill:none;stroke:#000000;stroke-dasharray:1,1.65;stroke-dashoffset:0;"/>
   </g>
   <g id="line2d_32">
    <path clip-path="url(#pa735665dda)" d="M 154.996364 126.144 
L 159.268134 128.690526 
L 163.539904 131.237053 
L 167.811675 133.783579 
L 172.083445 136.330105 
L 176.355215 138.876632 
L 180.626986 141.423158 
L 184.898756 143.969684 
L 189.170526 146.516211 
L 193.442297 149.062737 
L 197.714067 151.609263 
L 201.985837 154.155789 
L 206.257608 156.702316 
L 210.529378 159.248842 
L 214.801148 161.795368 
L 219.072919 164.341895 
L 223.344689 166.888421 
L 227.616459 169.434947 
L 231.88823 171.981474 
L 236.16 174.528 
" style="fill:none;stroke:#000000;stroke-dasharray:1,1.65;stroke-dashoffset:0;"/>
   </g>
   <g id="line2d_33">
    <path clip-path="url(#pa735665dda)" d="M 247.859263 294.463024 
L 248.509222 294.414592 
L 249.159181 278.502626 
L 250.459099 278.115166 
L 251.109058 266.640765 
L 251.759017 266.640765 
L 252.408976 252.685504 
L 253.058935 252.637071 
L 253.708894 243.738246 
L 254.358853 243.544516 
L 255.008812 235.891232 
L 255.658771 235.794367 
L 256.308731 232.486175 
L 256.95869 231.940825 
L 257.608649 231.940825 
L 258.258608 227.765624 
L 258.908567 227.765624 
L 259.558526 223.483378 
L 260.208485 223.483378 
L 260.858444 222.272143 
L 261.508403 222.175278 
L 262.158362 216.200088 
L 262.808321 216.200088 
L 263.45828 211.811274 
L 264.108239 211.596234 
L 264.758198 211.596234 
L 265.408157 208.568508 
L 266.058116 208.520076 
L 266.708075 206.884384 
L 267.358034 206.884384 
L 268.007993 205.706897 
L 268.657952 205.706897 
L 269.307912 204.315322 
L 270.60783 204.315322 
L 271.257789 202.388525 
L 271.907748 202.388525 
L 272.557707 201.389017 
L 273.207666 201.340585 
L 274.507584 200.987949 
L 275.157543 200.124845 
L 275.807502 200.076412 
L 276.457461 199.498331 
L 277.757379 199.498331 
L 278.407338 198.427888 
L 279.057297 198.427888 
L 279.707256 196.605281 
L 280.357215 196.605281 
L 281.007174 195.510897 
L 281.657133 195.462465 
L 282.307093 194.892098 
L 283.607011 194.570013 
L 286.206847 194.158136 
L 286.856806 193.391575 
L 287.506765 193.391575 
L 288.156724 192.640838 
L 288.806683 192.640838 
L 289.456642 192.212661 
L 290.106601 192.212661 
L 290.75656 191.570396 
L 291.406519 191.355356 
L 292.056478 191.355356 
L 292.706437 190.391482 
L 293.356396 190.391482 
L 294.006355 189.748741 
L 294.656314 189.748741 
L 296.606192 188.677347 
L 297.90611 188.677347 
L 298.556069 188.356214 
L 299.206028 188.356214 
L 299.855987 187.28482 
L 300.505946 187.28482 
L 301.155905 186.534083 
L 301.805864 186.534083 
L 302.455823 184.928419 
L 303.105782 184.928419 
L 303.755741 184.393198 
L 305.055659 184.393198 
L 305.705618 183.857977 
L 306.355577 183.857977 
L 307.005536 183.321328 
L 307.655495 183.321328 
L 308.305455 182.143841 
L 308.955414 182.143841 
L 309.605373 181.60862 
L 310.255332 181.5011 
L 310.905291 180.96245 
L 312.205209 180.865585 
L 312.855168 180.108573 
L 313.505127 180.108573 
L 314.155086 179.358788 
L 314.805045 179.358788 
L 315.455004 178.609478 
L 316.104963 178.609478 
L 316.754922 178.074257 
L 317.404881 178.074257 
L 318.05484 177.753124 
L 319.354758 177.645604 
L 320.004717 177.217427 
L 321.954595 177.110383 
L 322.604554 176.468118 
L 323.254513 176.468118 
L 323.904472 176.039941 
L 326.504308 176.039941 
L 327.154267 175.610336 
L 329.104144 175.503292 
L 329.754103 174.968071 
L 330.404062 174.968071 
L 331.054021 174.646938 
L 332.353939 174.646938 
L 332.353939 174.646938 
" style="fill:none;stroke:#000000;stroke-linecap:square;stroke-width:2;"/>
   </g>
   <g id="patch_3">
    <path d="M 57.6 307.584 
L 57.6 41.472 
" style="fill:none;stroke:#000000;stroke-linecap:square;stroke-linejoin:miter;stroke-width:0.8;"/>
   </g>
   <g id="patch_4">
    <path d="M 414.72 307.584 
L 414.72 41.472 
" style="fill:none;stroke:#000000;stroke-linecap:square;stroke-linejoin:miter;stroke-width:0.8;"/>
   </g>
   <g id="patch_5">
    <path d="M 57.6 307.584 
L 414.72 307.584 
" style="fill:none;stroke:#000000;stroke-linecap:square;stroke-linejoin:miter;stroke-width:0.8;"/>
   </g>
   <g id="patch_6">
    <path d="M 57.6 41.472 
L 414.72 41.472 
" style="fill:none;stroke:#000000;stroke-linecap:square;stroke-linejoin:miter;stroke-width:0.8;"/>
   </g>
   <g id="legend_1">
    <g id="patch_7">
     <path d="M 265.56375 256.757687 
L 407.72 256.757687 
Q 409.72 256.757687 409.72 254.757687 
L 409.72 94.298313 
Q 409.72 92.298313 407.72 92.298313 
L 265.56375 92.298313 
Q 263.56375 92.298313 263.56375 94.298313 
L 263.56375 254.757687 
Q 263.56375 256.757687 265.56375 256.757687 
z
" style="fill:#ffffff;opacity:0.8;stroke:#cccccc;stroke-linejoin:miter;"/>
    </g>
    <g id="line2d_34">
     <path d="M 267.56375 100.39675 
L 287.56375 100.39675 
" style="fill:none;stroke:#ff0000;stroke-linecap:square;stroke-opacity:0.8;stroke-width:1.5;"/>
    </g>
    <g id="line2d_35"/>
    <g id="text_15">
     <!-- fold 0 (AUC = 0.9666) -->
     <defs>
      <path d="M 37.109375 75.984375 
L 37.109375 68.5 
L 28.515625 68.5 
Q 23.6875 68.5 21.796875 66.546875 
Q 19.921875 64.59375 19.921875 59.515625 
L 19.921875 54.6875 
L 34.71875 54.6875 
L 34.71875 47.703125 
L 19.921875 47.703125 
L 19.921875 0 
L 10.890625 0 
L 10.890625 47.703125 
L 2.296875 47.703125 
L 2.296875 54.6875 
L 10.890625 54.6875 
L 10.890625 58.5 
Q 10.890625 67.625 15.140625 71.796875 
Q 19.390625 75.984375 28.609375 75.984375 
z
" id="DejaVuSans-102"/>
      <path d="M 45.40625 46.390625 
L 45.40625 75.984375 
L 54.390625 75.984375 
L 54.390625 0 
L 45.40625 0 
L 45.40625 8.203125 
Q 42.578125 3.328125 38.25 0.953125 
Q 33.9375 -1.421875 27.875 -1.421875 
Q 17.96875 -1.421875 11.734375 6.484375 
Q 5.515625 14.40625 5.515625 27.296875 
Q 5.515625 40.1875 11.734375 48.09375 
Q 17.96875 56 27.875 56 
Q 33.9375 56 38.25 53.625 
Q 42.578125 51.265625 45.40625 46.390625 
z
M 14.796875 27.296875 
Q 14.796875 17.390625 18.875 11.75 
Q 22.953125 6.109375 30.078125 6.109375 
Q 37.203125 6.109375 41.296875 11.75 
Q 45.40625 17.390625 45.40625 27.296875 
Q 45.40625 37.203125 41.296875 42.84375 
Q 37.203125 48.484375 30.078125 48.484375 
Q 22.953125 48.484375 18.875 42.84375 
Q 14.796875 37.203125 14.796875 27.296875 
z
" id="DejaVuSans-100"/>
      <path d="M 31 75.875 
Q 24.46875 64.65625 21.28125 53.65625 
Q 18.109375 42.671875 18.109375 31.390625 
Q 18.109375 20.125 21.3125 9.0625 
Q 24.515625 -2 31 -13.1875 
L 23.1875 -13.1875 
Q 15.875 -1.703125 12.234375 9.375 
Q 8.59375 20.453125 8.59375 31.390625 
Q 8.59375 42.28125 12.203125 53.3125 
Q 15.828125 64.359375 23.1875 75.875 
z
" id="DejaVuSans-40"/>
      <path d="M 34.1875 63.1875 
L 20.796875 26.90625 
L 47.609375 26.90625 
z
M 28.609375 72.90625 
L 39.796875 72.90625 
L 67.578125 0 
L 57.328125 0 
L 50.6875 18.703125 
L 17.828125 18.703125 
L 11.1875 0 
L 0.78125 0 
z
" id="DejaVuSans-65"/>
      <path d="M 8.6875 72.90625 
L 18.609375 72.90625 
L 18.609375 28.609375 
Q 18.609375 16.890625 22.84375 11.734375 
Q 27.09375 6.59375 36.625 6.59375 
Q 46.09375 6.59375 50.34375 11.734375 
Q 54.59375 16.890625 54.59375 28.609375 
L 54.59375 72.90625 
L 64.5 72.90625 
L 64.5 27.390625 
Q 64.5 13.140625 57.4375 5.859375 
Q 50.390625 -1.421875 36.625 -1.421875 
Q 22.796875 -1.421875 15.734375 5.859375 
Q 8.6875 13.140625 8.6875 27.390625 
z
" id="DejaVuSans-85"/>
      <path d="M 64.40625 67.28125 
L 64.40625 56.890625 
Q 59.421875 61.53125 53.78125 63.8125 
Q 48.140625 66.109375 41.796875 66.109375 
Q 29.296875 66.109375 22.65625 58.46875 
Q 16.015625 50.828125 16.015625 36.375 
Q 16.015625 21.96875 22.65625 14.328125 
Q 29.296875 6.6875 41.796875 6.6875 
Q 48.140625 6.6875 53.78125 8.984375 
Q 59.421875 11.28125 64.40625 15.921875 
L 64.40625 5.609375 
Q 59.234375 2.09375 53.4375 0.328125 
Q 47.65625 -1.421875 41.21875 -1.421875 
Q 24.65625 -1.421875 15.125 8.703125 
Q 5.609375 18.84375 5.609375 36.375 
Q 5.609375 53.953125 15.125 64.078125 
Q 24.65625 74.21875 41.21875 74.21875 
Q 47.75 74.21875 53.53125 72.484375 
Q 59.328125 70.75 64.40625 67.28125 
z
" id="DejaVuSans-67"/>
      <path d="M 10.59375 45.40625 
L 73.1875 45.40625 
L 73.1875 37.203125 
L 10.59375 37.203125 
z
M 10.59375 25.484375 
L 73.1875 25.484375 
L 73.1875 17.1875 
L 10.59375 17.1875 
z
" id="DejaVuSans-61"/>
      <path d="M 10.984375 1.515625 
L 10.984375 10.5 
Q 14.703125 8.734375 18.5 7.8125 
Q 22.3125 6.890625 25.984375 6.890625 
Q 35.75 6.890625 40.890625 13.453125 
Q 46.046875 20.015625 46.78125 33.40625 
Q 43.953125 29.203125 39.59375 26.953125 
Q 35.25 24.703125 29.984375 24.703125 
Q 19.046875 24.703125 12.671875 31.3125 
Q 6.296875 37.9375 6.296875 49.421875 
Q 6.296875 60.640625 12.9375 67.421875 
Q 19.578125 74.21875 30.609375 74.21875 
Q 43.265625 74.21875 49.921875 64.515625 
Q 56.59375 54.828125 56.59375 36.375 
Q 56.59375 19.140625 48.40625 8.859375 
Q 40.234375 -1.421875 26.421875 -1.421875 
Q 22.703125 -1.421875 18.890625 -0.6875 
Q 15.09375 0.046875 10.984375 1.515625 
z
M 30.609375 32.421875 
Q 37.25 32.421875 41.125 36.953125 
Q 45.015625 41.5 45.015625 49.421875 
Q 45.015625 57.28125 41.125 61.84375 
Q 37.25 66.40625 30.609375 66.40625 
Q 23.96875 66.40625 20.09375 61.84375 
Q 16.21875 57.28125 16.21875 49.421875 
Q 16.21875 41.5 20.09375 36.953125 
Q 23.96875 32.421875 30.609375 32.421875 
z
" id="DejaVuSans-57"/>
      <path d="M 8.015625 75.875 
L 15.828125 75.875 
Q 23.140625 64.359375 26.78125 53.3125 
Q 30.421875 42.28125 30.421875 31.390625 
Q 30.421875 20.453125 26.78125 9.375 
Q 23.140625 -1.703125 15.828125 -13.1875 
L 8.015625 -13.1875 
Q 14.5 -2 17.703125 9.0625 
Q 20.90625 20.125 20.90625 31.390625 
Q 20.90625 42.671875 17.703125 53.65625 
Q 14.5 64.65625 8.015625 75.875 
z
" id="DejaVuSans-41"/>
     </defs>
     <g transform="translate(295.56375 103.89675)scale(0.1 -0.1)">
      <use xlink:href="#DejaVuSans-102"/>
      <use x="35.205078" xlink:href="#DejaVuSans-111"/>
      <use x="96.386719" xlink:href="#DejaVuSans-108"/>
      <use x="124.169922" xlink:href="#DejaVuSans-100"/>
      <use x="187.646484" xlink:href="#DejaVuSans-32"/>
      <use x="219.433594" xlink:href="#DejaVuSans-48"/>
      <use x="283.056641" xlink:href="#DejaVuSans-32"/>
      <use x="314.84375" xlink:href="#DejaVuSans-40"/>
      <use x="353.857422" xlink:href="#DejaVuSans-65"/>
      <use x="422.265625" xlink:href="#DejaVuSans-85"/>
      <use x="495.458984" xlink:href="#DejaVuSans-67"/>
      <use x="565.283203" xlink:href="#DejaVuSans-32"/>
      <use x="597.070312" xlink:href="#DejaVuSans-61"/>
      <use x="680.859375" xlink:href="#DejaVuSans-32"/>
      <use x="712.646484" xlink:href="#DejaVuSans-48"/>
      <use x="776.269531" xlink:href="#DejaVuSans-46"/>
      <use x="808.056641" xlink:href="#DejaVuSans-57"/>
      <use x="871.679688" xlink:href="#DejaVuSans-54"/>
      <use x="935.302734" xlink:href="#DejaVuSans-54"/>
      <use x="998.925781" xlink:href="#DejaVuSans-54"/>
      <use x="1062.548828" xlink:href="#DejaVuSans-41"/>
     </g>
    </g>
    <g id="line2d_36">
     <path d="M 267.56375 115.074875 
L 287.56375 115.074875 
" style="fill:none;stroke:#ff0000;stroke-linecap:square;stroke-opacity:0.8;stroke-width:1.5;"/>
    </g>
    <g id="line2d_37"/>
    <g id="text_16">
     <!-- fold 1 (AUC = 0.9804) -->
     <g transform="translate(295.56375 118.574875)scale(0.1 -0.1)">
      <use xlink:href="#DejaVuSans-102"/>
      <use x="35.205078" xlink:href="#DejaVuSans-111"/>
      <use x="96.386719" xlink:href="#DejaVuSans-108"/>
      <use x="124.169922" xlink:href="#DejaVuSans-100"/>
      <use x="187.646484" xlink:href="#DejaVuSans-32"/>
      <use x="219.433594" xlink:href="#DejaVuSans-49"/>
      <use x="283.056641" xlink:href="#DejaVuSans-32"/>
      <use x="314.84375" xlink:href="#DejaVuSans-40"/>
      <use x="353.857422" xlink:href="#DejaVuSans-65"/>
      <use x="422.265625" xlink:href="#DejaVuSans-85"/>
      <use x="495.458984" xlink:href="#DejaVuSans-67"/>
      <use x="565.283203" xlink:href="#DejaVuSans-32"/>
      <use x="597.070312" xlink:href="#DejaVuSans-61"/>
      <use x="680.859375" xlink:href="#DejaVuSans-32"/>
      <use x="712.646484" xlink:href="#DejaVuSans-48"/>
      <use x="776.269531" xlink:href="#DejaVuSans-46"/>
      <use x="808.056641" xlink:href="#DejaVuSans-57"/>
      <use x="871.679688" xlink:href="#DejaVuSans-56"/>
      <use x="935.302734" xlink:href="#DejaVuSans-48"/>
      <use x="998.925781" xlink:href="#DejaVuSans-52"/>
      <use x="1062.548828" xlink:href="#DejaVuSans-41"/>
     </g>
    </g>
    <g id="line2d_38">
     <path d="M 267.56375 129.753 
L 287.56375 129.753 
" style="fill:none;stroke:#ff0000;stroke-linecap:square;stroke-opacity:0.8;stroke-width:1.5;"/>
    </g>
    <g id="line2d_39"/>
    <g id="text_17">
     <!-- fold 2 (AUC = 0.9695) -->
     <defs>
      <path d="M 10.796875 72.90625 
L 49.515625 72.90625 
L 49.515625 64.59375 
L 19.828125 64.59375 
L 19.828125 46.734375 
Q 21.96875 47.46875 24.109375 47.828125 
Q 26.265625 48.1875 28.421875 48.1875 
Q 40.625 48.1875 47.75 41.5 
Q 54.890625 34.8125 54.890625 23.390625 
Q 54.890625 11.625 47.5625 5.09375 
Q 40.234375 -1.421875 26.90625 -1.421875 
Q 22.3125 -1.421875 17.546875 -0.640625 
Q 12.796875 0.140625 7.71875 1.703125 
L 7.71875 11.625 
Q 12.109375 9.234375 16.796875 8.0625 
Q 21.484375 6.890625 26.703125 6.890625 
Q 35.15625 6.890625 40.078125 11.328125 
Q 45.015625 15.765625 45.015625 23.390625 
Q 45.015625 31 40.078125 35.4375 
Q 35.15625 39.890625 26.703125 39.890625 
Q 22.75 39.890625 18.8125 39.015625 
Q 14.890625 38.140625 10.796875 36.28125 
z
" id="DejaVuSans-53"/>
     </defs>
     <g transform="translate(295.56375 133.253)scale(0.1 -0.1)">
      <use xlink:href="#DejaVuSans-102"/>
      <use x="35.205078" xlink:href="#DejaVuSans-111"/>
      <use x="96.386719" xlink:href="#DejaVuSans-108"/>
      <use x="124.169922" xlink:href="#DejaVuSans-100"/>
      <use x="187.646484" xlink:href="#DejaVuSans-32"/>
      <use x="219.433594" xlink:href="#DejaVuSans-50"/>
      <use x="283.056641" xlink:href="#DejaVuSans-32"/>
      <use x="314.84375" xlink:href="#DejaVuSans-40"/>
      <use x="353.857422" xlink:href="#DejaVuSans-65"/>
      <use x="422.265625" xlink:href="#DejaVuSans-85"/>
      <use x="495.458984" xlink:href="#DejaVuSans-67"/>
      <use x="565.283203" xlink:href="#DejaVuSans-32"/>
      <use x="597.070312" xlink:href="#DejaVuSans-61"/>
      <use x="680.859375" xlink:href="#DejaVuSans-32"/>
      <use x="712.646484" xlink:href="#DejaVuSans-48"/>
      <use x="776.269531" xlink:href="#DejaVuSans-46"/>
      <use x="808.056641" xlink:href="#DejaVuSans-57"/>
      <use x="871.679688" xlink:href="#DejaVuSans-54"/>
      <use x="935.302734" xlink:href="#DejaVuSans-57"/>
      <use x="998.925781" xlink:href="#DejaVuSans-53"/>
      <use x="1062.548828" xlink:href="#DejaVuSans-41"/>
     </g>
    </g>
    <g id="line2d_40">
     <path d="M 267.56375 144.431125 
L 287.56375 144.431125 
" style="fill:none;stroke:#ff0000;stroke-linecap:square;stroke-opacity:0.8;stroke-width:1.5;"/>
    </g>
    <g id="line2d_41"/>
    <g id="text_18">
     <!-- fold 3 (AUC = 0.9716) -->
     <defs>
      <path d="M 40.578125 39.3125 
Q 47.65625 37.796875 51.625 33 
Q 55.609375 28.21875 55.609375 21.1875 
Q 55.609375 10.40625 48.1875 4.484375 
Q 40.765625 -1.421875 27.09375 -1.421875 
Q 22.515625 -1.421875 17.65625 -0.515625 
Q 12.796875 0.390625 7.625 2.203125 
L 7.625 11.71875 
Q 11.71875 9.328125 16.59375 8.109375 
Q 21.484375 6.890625 26.8125 6.890625 
Q 36.078125 6.890625 40.9375 10.546875 
Q 45.796875 14.203125 45.796875 21.1875 
Q 45.796875 27.640625 41.28125 31.265625 
Q 36.765625 34.90625 28.71875 34.90625 
L 20.21875 34.90625 
L 20.21875 43.015625 
L 29.109375 43.015625 
Q 36.375 43.015625 40.234375 45.921875 
Q 44.09375 48.828125 44.09375 54.296875 
Q 44.09375 59.90625 40.109375 62.90625 
Q 36.140625 65.921875 28.71875 65.921875 
Q 24.65625 65.921875 20.015625 65.03125 
Q 15.375 64.15625 9.8125 62.3125 
L 9.8125 71.09375 
Q 15.4375 72.65625 20.34375 73.4375 
Q 25.25 74.21875 29.59375 74.21875 
Q 40.828125 74.21875 47.359375 69.109375 
Q 53.90625 64.015625 53.90625 55.328125 
Q 53.90625 49.265625 50.4375 45.09375 
Q 46.96875 40.921875 40.578125 39.3125 
z
" id="DejaVuSans-51"/>
      <path d="M 8.203125 72.90625 
L 55.078125 72.90625 
L 55.078125 68.703125 
L 28.609375 0 
L 18.3125 0 
L 43.21875 64.59375 
L 8.203125 64.59375 
z
" id="DejaVuSans-55"/>
     </defs>
     <g transform="translate(295.56375 147.931125)scale(0.1 -0.1)">
      <use xlink:href="#DejaVuSans-102"/>
      <use x="35.205078" xlink:href="#DejaVuSans-111"/>
      <use x="96.386719" xlink:href="#DejaVuSans-108"/>
      <use x="124.169922" xlink:href="#DejaVuSans-100"/>
      <use x="187.646484" xlink:href="#DejaVuSans-32"/>
      <use x="219.433594" xlink:href="#DejaVuSans-51"/>
      <use x="283.056641" xlink:href="#DejaVuSans-32"/>
      <use x="314.84375" xlink:href="#DejaVuSans-40"/>
      <use x="353.857422" xlink:href="#DejaVuSans-65"/>
      <use x="422.265625" xlink:href="#DejaVuSans-85"/>
      <use x="495.458984" xlink:href="#DejaVuSans-67"/>
      <use x="565.283203" xlink:href="#DejaVuSans-32"/>
      <use x="597.070312" xlink:href="#DejaVuSans-61"/>
      <use x="680.859375" xlink:href="#DejaVuSans-32"/>
      <use x="712.646484" xlink:href="#DejaVuSans-48"/>
      <use x="776.269531" xlink:href="#DejaVuSans-46"/>
      <use x="808.056641" xlink:href="#DejaVuSans-57"/>
      <use x="871.679688" xlink:href="#DejaVuSans-55"/>
      <use x="935.302734" xlink:href="#DejaVuSans-49"/>
      <use x="998.925781" xlink:href="#DejaVuSans-54"/>
      <use x="1062.548828" xlink:href="#DejaVuSans-41"/>
     </g>
    </g>
    <g id="line2d_42">
     <path d="M 267.56375 159.10925 
L 287.56375 159.10925 
" style="fill:none;stroke:#ff0000;stroke-linecap:square;stroke-opacity:0.8;stroke-width:1.5;"/>
    </g>
    <g id="line2d_43"/>
    <g id="text_19">
     <!-- fold 4 (AUC = 0.9667) -->
     <g transform="translate(295.56375 162.60925)scale(0.1 -0.1)">
      <use xlink:href="#DejaVuSans-102"/>
      <use x="35.205078" xlink:href="#DejaVuSans-111"/>
      <use x="96.386719" xlink:href="#DejaVuSans-108"/>
      <use x="124.169922" xlink:href="#DejaVuSans-100"/>
      <use x="187.646484" xlink:href="#DejaVuSans-32"/>
      <use x="219.433594" xlink:href="#DejaVuSans-52"/>
      <use x="283.056641" xlink:href="#DejaVuSans-32"/>
      <use x="314.84375" xlink:href="#DejaVuSans-40"/>
      <use x="353.857422" xlink:href="#DejaVuSans-65"/>
      <use x="422.265625" xlink:href="#DejaVuSans-85"/>
      <use x="495.458984" xlink:href="#DejaVuSans-67"/>
      <use x="565.283203" xlink:href="#DejaVuSans-32"/>
      <use x="597.070312" xlink:href="#DejaVuSans-61"/>
      <use x="680.859375" xlink:href="#DejaVuSans-32"/>
      <use x="712.646484" xlink:href="#DejaVuSans-48"/>
      <use x="776.269531" xlink:href="#DejaVuSans-46"/>
      <use x="808.056641" xlink:href="#DejaVuSans-57"/>
      <use x="871.679688" xlink:href="#DejaVuSans-54"/>
      <use x="935.302734" xlink:href="#DejaVuSans-54"/>
      <use x="998.925781" xlink:href="#DejaVuSans-55"/>
      <use x="1062.548828" xlink:href="#DejaVuSans-41"/>
     </g>
    </g>
    <g id="line2d_44">
     <path d="M 267.56375 173.787375 
L 287.56375 173.787375 
" style="fill:none;stroke:#ff0000;stroke-linecap:square;stroke-opacity:0.8;stroke-width:1.5;"/>
    </g>
    <g id="line2d_45"/>
    <g id="text_20">
     <!-- fold 5 (AUC = 0.9717) -->
     <g transform="translate(295.56375 177.287375)scale(0.1 -0.1)">
      <use xlink:href="#DejaVuSans-102"/>
      <use x="35.205078" xlink:href="#DejaVuSans-111"/>
      <use x="96.386719" xlink:href="#DejaVuSans-108"/>
      <use x="124.169922" xlink:href="#DejaVuSans-100"/>
      <use x="187.646484" xlink:href="#DejaVuSans-32"/>
      <use x="219.433594" xlink:href="#DejaVuSans-53"/>
      <use x="283.056641" xlink:href="#DejaVuSans-32"/>
      <use x="314.84375" xlink:href="#DejaVuSans-40"/>
      <use x="353.857422" xlink:href="#DejaVuSans-65"/>
      <use x="422.265625" xlink:href="#DejaVuSans-85"/>
      <use x="495.458984" xlink:href="#DejaVuSans-67"/>
      <use x="565.283203" xlink:href="#DejaVuSans-32"/>
      <use x="597.070312" xlink:href="#DejaVuSans-61"/>
      <use x="680.859375" xlink:href="#DejaVuSans-32"/>
      <use x="712.646484" xlink:href="#DejaVuSans-48"/>
      <use x="776.269531" xlink:href="#DejaVuSans-46"/>
      <use x="808.056641" xlink:href="#DejaVuSans-57"/>
      <use x="871.679688" xlink:href="#DejaVuSans-55"/>
      <use x="935.302734" xlink:href="#DejaVuSans-49"/>
      <use x="998.925781" xlink:href="#DejaVuSans-55"/>
      <use x="1062.548828" xlink:href="#DejaVuSans-41"/>
     </g>
    </g>
    <g id="line2d_46">
     <path d="M 267.56375 188.4655 
L 287.56375 188.4655 
" style="fill:none;stroke:#ff0000;stroke-linecap:square;stroke-opacity:0.8;stroke-width:1.5;"/>
    </g>
    <g id="line2d_47"/>
    <g id="text_21">
     <!-- fold 6 (AUC = 0.9770) -->
     <g transform="translate(295.56375 191.9655)scale(0.1 -0.1)">
      <use xlink:href="#DejaVuSans-102"/>
      <use x="35.205078" xlink:href="#DejaVuSans-111"/>
      <use x="96.386719" xlink:href="#DejaVuSans-108"/>
      <use x="124.169922" xlink:href="#DejaVuSans-100"/>
      <use x="187.646484" xlink:href="#DejaVuSans-32"/>
      <use x="219.433594" xlink:href="#DejaVuSans-54"/>
      <use x="283.056641" xlink:href="#DejaVuSans-32"/>
      <use x="314.84375" xlink:href="#DejaVuSans-40"/>
      <use x="353.857422" xlink:href="#DejaVuSans-65"/>
      <use x="422.265625" xlink:href="#DejaVuSans-85"/>
      <use x="495.458984" xlink:href="#DejaVuSans-67"/>
      <use x="565.283203" xlink:href="#DejaVuSans-32"/>
      <use x="597.070312" xlink:href="#DejaVuSans-61"/>
      <use x="680.859375" xlink:href="#DejaVuSans-32"/>
      <use x="712.646484" xlink:href="#DejaVuSans-48"/>
      <use x="776.269531" xlink:href="#DejaVuSans-46"/>
      <use x="808.056641" xlink:href="#DejaVuSans-57"/>
      <use x="871.679688" xlink:href="#DejaVuSans-55"/>
      <use x="935.302734" xlink:href="#DejaVuSans-55"/>
      <use x="998.925781" xlink:href="#DejaVuSans-48"/>
      <use x="1062.548828" xlink:href="#DejaVuSans-41"/>
     </g>
    </g>
    <g id="line2d_48">
     <path d="M 267.56375 203.143625 
L 287.56375 203.143625 
" style="fill:none;stroke:#ff0000;stroke-linecap:square;stroke-opacity:0.8;stroke-width:1.5;"/>
    </g>
    <g id="line2d_49"/>
    <g id="text_22">
     <!-- fold 7 (AUC = 0.9686) -->
     <g transform="translate(295.56375 206.643625)scale(0.1 -0.1)">
      <use xlink:href="#DejaVuSans-102"/>
      <use x="35.205078" xlink:href="#DejaVuSans-111"/>
      <use x="96.386719" xlink:href="#DejaVuSans-108"/>
      <use x="124.169922" xlink:href="#DejaVuSans-100"/>
      <use x="187.646484" xlink:href="#DejaVuSans-32"/>
      <use x="219.433594" xlink:href="#DejaVuSans-55"/>
      <use x="283.056641" xlink:href="#DejaVuSans-32"/>
      <use x="314.84375" xlink:href="#DejaVuSans-40"/>
      <use x="353.857422" xlink:href="#DejaVuSans-65"/>
      <use x="422.265625" xlink:href="#DejaVuSans-85"/>
      <use x="495.458984" xlink:href="#DejaVuSans-67"/>
      <use x="565.283203" xlink:href="#DejaVuSans-32"/>
      <use x="597.070312" xlink:href="#DejaVuSans-61"/>
      <use x="680.859375" xlink:href="#DejaVuSans-32"/>
      <use x="712.646484" xlink:href="#DejaVuSans-48"/>
      <use x="776.269531" xlink:href="#DejaVuSans-46"/>
      <use x="808.056641" xlink:href="#DejaVuSans-57"/>
      <use x="871.679688" xlink:href="#DejaVuSans-54"/>
      <use x="935.302734" xlink:href="#DejaVuSans-56"/>
      <use x="998.925781" xlink:href="#DejaVuSans-54"/>
      <use x="1062.548828" xlink:href="#DejaVuSans-41"/>
     </g>
    </g>
    <g id="line2d_50">
     <path d="M 267.56375 217.82175 
L 287.56375 217.82175 
" style="fill:none;stroke:#ff0000;stroke-linecap:square;stroke-opacity:0.8;stroke-width:1.5;"/>
    </g>
    <g id="line2d_51"/>
    <g id="text_23">
     <!-- fold 8 (AUC = 0.9667) -->
     <g transform="translate(295.56375 221.32175)scale(0.1 -0.1)">
      <use xlink:href="#DejaVuSans-102"/>
      <use x="35.205078" xlink:href="#DejaVuSans-111"/>
      <use x="96.386719" xlink:href="#DejaVuSans-108"/>
      <use x="124.169922" xlink:href="#DejaVuSans-100"/>
      <use x="187.646484" xlink:href="#DejaVuSans-32"/>
      <use x="219.433594" xlink:href="#DejaVuSans-56"/>
      <use x="283.056641" xlink:href="#DejaVuSans-32"/>
      <use x="314.84375" xlink:href="#DejaVuSans-40"/>
      <use x="353.857422" xlink:href="#DejaVuSans-65"/>
      <use x="422.265625" xlink:href="#DejaVuSans-85"/>
      <use x="495.458984" xlink:href="#DejaVuSans-67"/>
      <use x="565.283203" xlink:href="#DejaVuSans-32"/>
      <use x="597.070312" xlink:href="#DejaVuSans-61"/>
      <use x="680.859375" xlink:href="#DejaVuSans-32"/>
      <use x="712.646484" xlink:href="#DejaVuSans-48"/>
      <use x="776.269531" xlink:href="#DejaVuSans-46"/>
      <use x="808.056641" xlink:href="#DejaVuSans-57"/>
      <use x="871.679688" xlink:href="#DejaVuSans-54"/>
      <use x="935.302734" xlink:href="#DejaVuSans-54"/>
      <use x="998.925781" xlink:href="#DejaVuSans-55"/>
      <use x="1062.548828" xlink:href="#DejaVuSans-41"/>
     </g>
    </g>
    <g id="line2d_52">
     <path d="M 267.56375 232.499875 
L 287.56375 232.499875 
" style="fill:none;stroke:#ff0000;stroke-linecap:square;stroke-opacity:0.8;stroke-width:1.5;"/>
    </g>
    <g id="line2d_53"/>
    <g id="text_24">
     <!-- fold 9 (AUC = 0.9692) -->
     <g transform="translate(295.56375 235.999875)scale(0.1 -0.1)">
      <use xlink:href="#DejaVuSans-102"/>
      <use x="35.205078" xlink:href="#DejaVuSans-111"/>
      <use x="96.386719" xlink:href="#DejaVuSans-108"/>
      <use x="124.169922" xlink:href="#DejaVuSans-100"/>
      <use x="187.646484" xlink:href="#DejaVuSans-32"/>
      <use x="219.433594" xlink:href="#DejaVuSans-57"/>
      <use x="283.056641" xlink:href="#DejaVuSans-32"/>
      <use x="314.84375" xlink:href="#DejaVuSans-40"/>
      <use x="353.857422" xlink:href="#DejaVuSans-65"/>
      <use x="422.265625" xlink:href="#DejaVuSans-85"/>
      <use x="495.458984" xlink:href="#DejaVuSans-67"/>
      <use x="565.283203" xlink:href="#DejaVuSans-32"/>
      <use x="597.070312" xlink:href="#DejaVuSans-61"/>
      <use x="680.859375" xlink:href="#DejaVuSans-32"/>
      <use x="712.646484" xlink:href="#DejaVuSans-48"/>
      <use x="776.269531" xlink:href="#DejaVuSans-46"/>
      <use x="808.056641" xlink:href="#DejaVuSans-57"/>
      <use x="871.679688" xlink:href="#DejaVuSans-54"/>
      <use x="935.302734" xlink:href="#DejaVuSans-57"/>
      <use x="998.925781" xlink:href="#DejaVuSans-50"/>
      <use x="1062.548828" xlink:href="#DejaVuSans-41"/>
     </g>
    </g>
    <g id="line2d_54">
     <path d="M 267.56375 247.178 
L 287.56375 247.178 
" style="fill:none;stroke:#000000;stroke-linecap:square;stroke-width:2;"/>
    </g>
    <g id="line2d_55"/>
    <g id="text_25">
     <!-- Mean (AUC = 0.9707) -->
     <defs>
      <path d="M 9.8125 72.90625 
L 24.515625 72.90625 
L 43.109375 23.296875 
L 61.8125 72.90625 
L 76.515625 72.90625 
L 76.515625 0 
L 66.890625 0 
L 66.890625 64.015625 
L 48.09375 14.015625 
L 38.1875 14.015625 
L 19.390625 64.015625 
L 19.390625 0 
L 9.8125 0 
z
" id="DejaVuSans-77"/>
      <path d="M 54.890625 33.015625 
L 54.890625 0 
L 45.90625 0 
L 45.90625 32.71875 
Q 45.90625 40.484375 42.875 44.328125 
Q 39.84375 48.1875 33.796875 48.1875 
Q 26.515625 48.1875 22.3125 43.546875 
Q 18.109375 38.921875 18.109375 30.90625 
L 18.109375 0 
L 9.078125 0 
L 9.078125 54.6875 
L 18.109375 54.6875 
L 18.109375 46.1875 
Q 21.34375 51.125 25.703125 53.5625 
Q 30.078125 56 35.796875 56 
Q 45.21875 56 50.046875 50.171875 
Q 54.890625 44.34375 54.890625 33.015625 
z
" id="DejaVuSans-110"/>
     </defs>
     <g transform="translate(295.56375 250.678)scale(0.1 -0.1)">
      <use xlink:href="#DejaVuSans-77"/>
      <use x="86.279297" xlink:href="#DejaVuSans-101"/>
      <use x="147.802734" xlink:href="#DejaVuSans-97"/>
      <use x="209.082031" xlink:href="#DejaVuSans-110"/>
      <use x="272.460938" xlink:href="#DejaVuSans-32"/>
      <use x="304.248047" xlink:href="#DejaVuSans-40"/>
      <use x="343.261719" xlink:href="#DejaVuSans-65"/>
      <use x="411.669922" xlink:href="#DejaVuSans-85"/>
      <use x="484.863281" xlink:href="#DejaVuSans-67"/>
      <use x="554.6875" xlink:href="#DejaVuSans-32"/>
      <use x="586.474609" xlink:href="#DejaVuSans-61"/>
      <use x="670.263672" xlink:href="#DejaVuSans-32"/>
      <use x="702.050781" xlink:href="#DejaVuSans-48"/>
      <use x="765.673828" xlink:href="#DejaVuSans-46"/>
      <use x="797.460938" xlink:href="#DejaVuSans-57"/>
      <use x="861.083984" xlink:href="#DejaVuSans-55"/>
      <use x="924.707031" xlink:href="#DejaVuSans-48"/>
      <use x="988.330078" xlink:href="#DejaVuSans-55"/>
      <use x="1051.953125" xlink:href="#DejaVuSans-41"/>
     </g>
    </g>
   </g>
  </g>
 </g>
 <defs>
  <clipPath id="pa735665dda">
   <rect height="266.112" width="357.12" x="57.6" y="41.472"/>
  </clipPath>
 </defs>
</svg>
