<?xml version="1.0" encoding="utf-8" standalone="no"?>
<!DOCTYPE svg PUBLIC "-//W3C//DTD SVG 1.1//EN"
  "http://www.w3.org/Graphics/SVG/1.1/DTD/svg11.dtd">
<!-- Created with matplotlib (https://matplotlib.org/) -->
<svg height="345.6pt" version="1.1" viewBox="0 0 460.8 345.6" width="460.8pt" xmlns="http://www.w3.org/2000/svg" xmlns:xlink="http://www.w3.org/1999/xlink">
 <defs>
  <style type="text/css">
*{stroke-linecap:butt;stroke-linejoin:round;}
  </style>
 </defs>
 <g id="figure_1">
  <g id="patch_1">
   <path d="M 0 345.6 
L 460.8 345.6 
L 460.8 0 
L 0 0 
z
" style="fill:#ffffff;"/>
  </g>
  <g id="axes_1">
   <g id="patch_2">
    <path d="M 57.6 307.584 
L 414.72 307.584 
L 414.72 41.472 
L 57.6 41.472 
z
" style="fill:#ffffff;"/>
   </g>
   <g id="matplotlib.axis_1">
    <g id="xtick_1">
     <g id="line2d_1">
      <defs>
       <path d="M 0 0 
L 0 3.5 
" id="mc92678afa9" style="stroke:#000000;stroke-width:0.8;"/>
      </defs>
      <g>
       <use style="stroke:#000000;stroke-width:0.8;" x="73.832727" xlink:href="#mc92678afa9" y="307.584"/>
      </g>
     </g>
     <g id="text_1">
      <!-- 0.0 -->
      <defs>
       <path d="M 31.78125 66.40625 
Q 24.171875 66.40625 20.328125 58.90625 
Q 16.5 51.421875 16.5 36.375 
Q 16.5 21.390625 20.328125 13.890625 
Q 24.171875 6.390625 31.78125 6.390625 
Q 39.453125 6.390625 43.28125 13.890625 
Q 47.125 21.390625 47.125 36.375 
Q 47.125 51.421875 43.28125 58.90625 
Q 39.453125 66.40625 31.78125 66.40625 
z
M 31.78125 74.21875 
Q 44.046875 74.21875 50.515625 64.515625 
Q 56.984375 54.828125 56.984375 36.375 
Q 56.984375 17.96875 50.515625 8.265625 
Q 44.046875 -1.421875 31.78125 -1.421875 
Q 19.53125 -1.421875 13.0625 8.265625 
Q 6.59375 17.96875 6.59375 36.375 
Q 6.59375 54.828125 13.0625 64.515625 
Q 19.53125 74.21875 31.78125 74.21875 
z
" id="DejaVuSans-48"/>
       <path d="M 10.6875 12.40625 
L 21 12.40625 
L 21 0 
L 10.6875 0 
z
" id="DejaVuSans-46"/>
      </defs>
      <g transform="translate(65.881165 322.182437)scale(0.1 -0.1)">
       <use xlink:href="#DejaVuSans-48"/>
       <use x="63.623047" xlink:href="#DejaVuSans-46"/>
       <use x="95.410156" xlink:href="#DejaVuSans-48"/>
      </g>
     </g>
    </g>
    <g id="xtick_2">
     <g id="line2d_2">
      <g>
       <use style="stroke:#000000;stroke-width:0.8;" x="138.763636" xlink:href="#mc92678afa9" y="307.584"/>
      </g>
     </g>
     <g id="text_2">
      <!-- 0.2 -->
      <defs>
       <path d="M 19.1875 8.296875 
L 53.609375 8.296875 
L 53.609375 0 
L 7.328125 0 
L 7.328125 8.296875 
Q 12.9375 14.109375 22.625 23.890625 
Q 32.328125 33.6875 34.8125 36.53125 
Q 39.546875 41.84375 41.421875 45.53125 
Q 43.3125 49.21875 43.3125 52.78125 
Q 43.3125 58.59375 39.234375 62.25 
Q 35.15625 65.921875 28.609375 65.921875 
Q 23.96875 65.921875 18.8125 64.3125 
Q 13.671875 62.703125 7.8125 59.421875 
L 7.8125 69.390625 
Q 13.765625 71.78125 18.9375 73 
Q 24.125 74.21875 28.421875 74.21875 
Q 39.75 74.21875 46.484375 68.546875 
Q 53.21875 62.890625 53.21875 53.421875 
Q 53.21875 48.921875 51.53125 44.890625 
Q 49.859375 40.875 45.40625 35.40625 
Q 44.1875 33.984375 37.640625 27.21875 
Q 31.109375 20.453125 19.1875 8.296875 
z
" id="DejaVuSans-50"/>
      </defs>
      <g transform="translate(130.812074 322.182437)scale(0.1 -0.1)">
       <use xlink:href="#DejaVuSans-48"/>
       <use x="63.623047" xlink:href="#DejaVuSans-46"/>
       <use x="95.410156" xlink:href="#DejaVuSans-50"/>
      </g>
     </g>
    </g>
    <g id="xtick_3">
     <g id="line2d_3">
      <g>
       <use style="stroke:#000000;stroke-width:0.8;" x="203.694545" xlink:href="#mc92678afa9" y="307.584"/>
      </g>
     </g>
     <g id="text_3">
      <!-- 0.4 -->
      <defs>
       <path d="M 37.796875 64.3125 
L 12.890625 25.390625 
L 37.796875 25.390625 
z
M 35.203125 72.90625 
L 47.609375 72.90625 
L 47.609375 25.390625 
L 58.015625 25.390625 
L 58.015625 17.1875 
L 47.609375 17.1875 
L 47.609375 0 
L 37.796875 0 
L 37.796875 17.1875 
L 4.890625 17.1875 
L 4.890625 26.703125 
z
" id="DejaVuSans-52"/>
      </defs>
      <g transform="translate(195.742983 322.182437)scale(0.1 -0.1)">
       <use xlink:href="#DejaVuSans-48"/>
       <use x="63.623047" xlink:href="#DejaVuSans-46"/>
       <use x="95.410156" xlink:href="#DejaVuSans-52"/>
      </g>
     </g>
    </g>
    <g id="xtick_4">
     <g id="line2d_4">
      <g>
       <use style="stroke:#000000;stroke-width:0.8;" x="268.625455" xlink:href="#mc92678afa9" y="307.584"/>
      </g>
     </g>
     <g id="text_4">
      <!-- 0.6 -->
      <defs>
       <path d="M 33.015625 40.375 
Q 26.375 40.375 22.484375 35.828125 
Q 18.609375 31.296875 18.609375 23.390625 
Q 18.609375 15.53125 22.484375 10.953125 
Q 26.375 6.390625 33.015625 6.390625 
Q 39.65625 6.390625 43.53125 10.953125 
Q 47.40625 15.53125 47.40625 23.390625 
Q 47.40625 31.296875 43.53125 35.828125 
Q 39.65625 40.375 33.015625 40.375 
z
M 52.59375 71.296875 
L 52.59375 62.3125 
Q 48.875 64.0625 45.09375 64.984375 
Q 41.3125 65.921875 37.59375 65.921875 
Q 27.828125 65.921875 22.671875 59.328125 
Q 17.53125 52.734375 16.796875 39.40625 
Q 19.671875 43.65625 24.015625 45.921875 
Q 28.375 48.1875 33.59375 48.1875 
Q 44.578125 48.1875 50.953125 41.515625 
Q 57.328125 34.859375 57.328125 23.390625 
Q 57.328125 12.15625 50.6875 5.359375 
Q 44.046875 -1.421875 33.015625 -1.421875 
Q 20.359375 -1.421875 13.671875 8.265625 
Q 6.984375 17.96875 6.984375 36.375 
Q 6.984375 53.65625 15.1875 63.9375 
Q 23.390625 74.21875 37.203125 74.21875 
Q 40.921875 74.21875 44.703125 73.484375 
Q 48.484375 72.75 52.59375 71.296875 
z
" id="DejaVuSans-54"/>
      </defs>
      <g transform="translate(260.673892 322.182437)scale(0.1 -0.1)">
       <use xlink:href="#DejaVuSans-48"/>
       <use x="63.623047" xlink:href="#DejaVuSans-46"/>
       <use x="95.410156" xlink:href="#DejaVuSans-54"/>
      </g>
     </g>
    </g>
    <g id="xtick_5">
     <g id="line2d_5">
      <g>
       <use style="stroke:#000000;stroke-width:0.8;" x="333.556364" xlink:href="#mc92678afa9" y="307.584"/>
      </g>
     </g>
     <g id="text_5">
      <!-- 0.8 -->
      <defs>
       <path d="M 31.78125 34.625 
Q 24.75 34.625 20.71875 30.859375 
Q 16.703125 27.09375 16.703125 20.515625 
Q 16.703125 13.921875 20.71875 10.15625 
Q 24.75 6.390625 31.78125 6.390625 
Q 38.8125 6.390625 42.859375 10.171875 
Q 46.921875 13.96875 46.921875 20.515625 
Q 46.921875 27.09375 42.890625 30.859375 
Q 38.875 34.625 31.78125 34.625 
z
M 21.921875 38.8125 
Q 15.578125 40.375 12.03125 44.71875 
Q 8.5 49.078125 8.5 55.328125 
Q 8.5 64.0625 14.71875 69.140625 
Q 20.953125 74.21875 31.78125 74.21875 
Q 42.671875 74.21875 48.875 69.140625 
Q 55.078125 64.0625 55.078125 55.328125 
Q 55.078125 49.078125 51.53125 44.71875 
Q 48 40.375 41.703125 38.8125 
Q 48.828125 37.15625 52.796875 32.3125 
Q 56.78125 27.484375 56.78125 20.515625 
Q 56.78125 9.90625 50.3125 4.234375 
Q 43.84375 -1.421875 31.78125 -1.421875 
Q 19.734375 -1.421875 13.25 4.234375 
Q 6.78125 9.90625 6.78125 20.515625 
Q 6.78125 27.484375 10.78125 32.3125 
Q 14.796875 37.15625 21.921875 38.8125 
z
M 18.3125 54.390625 
Q 18.3125 48.734375 21.84375 45.5625 
Q 25.390625 42.390625 31.78125 42.390625 
Q 38.140625 42.390625 41.71875 45.5625 
Q 45.3125 48.734375 45.3125 54.390625 
Q 45.3125 60.0625 41.71875 63.234375 
Q 38.140625 66.40625 31.78125 66.40625 
Q 25.390625 66.40625 21.84375 63.234375 
Q 18.3125 60.0625 18.3125 54.390625 
z
" id="DejaVuSans-56"/>
      </defs>
      <g transform="translate(325.604801 322.182437)scale(0.1 -0.1)">
       <use xlink:href="#DejaVuSans-48"/>
       <use x="63.623047" xlink:href="#DejaVuSans-46"/>
       <use x="95.410156" xlink:href="#DejaVuSans-56"/>
      </g>
     </g>
    </g>
    <g id="xtick_6">
     <g id="line2d_6">
      <g>
       <use style="stroke:#000000;stroke-width:0.8;" x="398.487273" xlink:href="#mc92678afa9" y="307.584"/>
      </g>
     </g>
     <g id="text_6">
      <!-- 1.0 -->
      <defs>
       <path d="M 12.40625 8.296875 
L 28.515625 8.296875 
L 28.515625 63.921875 
L 10.984375 60.40625 
L 10.984375 69.390625 
L 28.421875 72.90625 
L 38.28125 72.90625 
L 38.28125 8.296875 
L 54.390625 8.296875 
L 54.390625 0 
L 12.40625 0 
z
" id="DejaVuSans-49"/>
      </defs>
      <g transform="translate(390.53571 322.182437)scale(0.1 -0.1)">
       <use xlink:href="#DejaVuSans-49"/>
       <use x="63.623047" xlink:href="#DejaVuSans-46"/>
       <use x="95.410156" xlink:href="#DejaVuSans-48"/>
      </g>
     </g>
    </g>
    <g id="text_7">
     <!-- False Positive Rate -->
     <defs>
      <path d="M 9.8125 72.90625 
L 51.703125 72.90625 
L 51.703125 64.59375 
L 19.671875 64.59375 
L 19.671875 43.109375 
L 48.578125 43.109375 
L 48.578125 34.8125 
L 19.671875 34.8125 
L 19.671875 0 
L 9.8125 0 
z
" id="DejaVuSans-70"/>
      <path d="M 34.28125 27.484375 
Q 23.390625 27.484375 19.1875 25 
Q 14.984375 22.515625 14.984375 16.5 
Q 14.984375 11.71875 18.140625 8.90625 
Q 21.296875 6.109375 26.703125 6.109375 
Q 34.1875 6.109375 38.703125 11.40625 
Q 43.21875 16.703125 43.21875 25.484375 
L 43.21875 27.484375 
z
M 52.203125 31.203125 
L 52.203125 0 
L 43.21875 0 
L 43.21875 8.296875 
Q 40.140625 3.328125 35.546875 0.953125 
Q 30.953125 -1.421875 24.3125 -1.421875 
Q 15.921875 -1.421875 10.953125 3.296875 
Q 6 8.015625 6 15.921875 
Q 6 25.140625 12.171875 29.828125 
Q 18.359375 34.515625 30.609375 34.515625 
L 43.21875 34.515625 
L 43.21875 35.40625 
Q 43.21875 41.609375 39.140625 45 
Q 35.0625 48.390625 27.6875 48.390625 
Q 23 48.390625 18.546875 47.265625 
Q 14.109375 46.140625 10.015625 43.890625 
L 10.015625 52.203125 
Q 14.9375 54.109375 19.578125 55.046875 
Q 24.21875 56 28.609375 56 
Q 40.484375 56 46.34375 49.84375 
Q 52.203125 43.703125 52.203125 31.203125 
z
" id="DejaVuSans-97"/>
      <path d="M 9.421875 75.984375 
L 18.40625 75.984375 
L 18.40625 0 
L 9.421875 0 
z
" id="DejaVuSans-108"/>
      <path d="M 44.28125 53.078125 
L 44.28125 44.578125 
Q 40.484375 46.53125 36.375 47.5 
Q 32.28125 48.484375 27.875 48.484375 
Q 21.1875 48.484375 17.84375 46.4375 
Q 14.5 44.390625 14.5 40.28125 
Q 14.5 37.15625 16.890625 35.375 
Q 19.28125 33.59375 26.515625 31.984375 
L 29.59375 31.296875 
Q 39.15625 29.25 43.1875 25.515625 
Q 47.21875 21.78125 47.21875 15.09375 
Q 47.21875 7.46875 41.1875 3.015625 
Q 35.15625 -1.421875 24.609375 -1.421875 
Q 20.21875 -1.421875 15.453125 -0.5625 
Q 10.6875 0.296875 5.421875 2 
L 5.421875 11.28125 
Q 10.40625 8.6875 15.234375 7.390625 
Q 20.0625 6.109375 24.8125 6.109375 
Q 31.15625 6.109375 34.5625 8.28125 
Q 37.984375 10.453125 37.984375 14.40625 
Q 37.984375 18.0625 35.515625 20.015625 
Q 33.0625 21.96875 24.703125 23.78125 
L 21.578125 24.515625 
Q 13.234375 26.265625 9.515625 29.90625 
Q 5.8125 33.546875 5.8125 39.890625 
Q 5.8125 47.609375 11.28125 51.796875 
Q 16.75 56 26.8125 56 
Q 31.78125 56 36.171875 55.265625 
Q 40.578125 54.546875 44.28125 53.078125 
z
" id="DejaVuSans-115"/>
      <path d="M 56.203125 29.59375 
L 56.203125 25.203125 
L 14.890625 25.203125 
Q 15.484375 15.921875 20.484375 11.0625 
Q 25.484375 6.203125 34.421875 6.203125 
Q 39.59375 6.203125 44.453125 7.46875 
Q 49.3125 8.734375 54.109375 11.28125 
L 54.109375 2.78125 
Q 49.265625 0.734375 44.1875 -0.34375 
Q 39.109375 -1.421875 33.890625 -1.421875 
Q 20.796875 -1.421875 13.15625 6.1875 
Q 5.515625 13.8125 5.515625 26.8125 
Q 5.515625 40.234375 12.765625 48.109375 
Q 20.015625 56 32.328125 56 
Q 43.359375 56 49.78125 48.890625 
Q 56.203125 41.796875 56.203125 29.59375 
z
M 47.21875 32.234375 
Q 47.125 39.59375 43.09375 43.984375 
Q 39.0625 48.390625 32.421875 48.390625 
Q 24.90625 48.390625 20.390625 44.140625 
Q 15.875 39.890625 15.1875 32.171875 
z
" id="DejaVuSans-101"/>
      <path id="DejaVuSans-32"/>
      <path d="M 19.671875 64.796875 
L 19.671875 37.40625 
L 32.078125 37.40625 
Q 38.96875 37.40625 42.71875 40.96875 
Q 46.484375 44.53125 46.484375 51.125 
Q 46.484375 57.671875 42.71875 61.234375 
Q 38.96875 64.796875 32.078125 64.796875 
z
M 9.8125 72.90625 
L 32.078125 72.90625 
Q 44.34375 72.90625 50.609375 67.359375 
Q 56.890625 61.8125 56.890625 51.125 
Q 56.890625 40.328125 50.609375 34.8125 
Q 44.34375 29.296875 32.078125 29.296875 
L 19.671875 29.296875 
L 19.671875 0 
L 9.8125 0 
z
" id="DejaVuSans-80"/>
      <path d="M 30.609375 48.390625 
Q 23.390625 48.390625 19.1875 42.75 
Q 14.984375 37.109375 14.984375 27.296875 
Q 14.984375 17.484375 19.15625 11.84375 
Q 23.34375 6.203125 30.609375 6.203125 
Q 37.796875 6.203125 41.984375 11.859375 
Q 46.1875 17.53125 46.1875 27.296875 
Q 46.1875 37.015625 41.984375 42.703125 
Q 37.796875 48.390625 30.609375 48.390625 
z
M 30.609375 56 
Q 42.328125 56 49.015625 48.375 
Q 55.71875 40.765625 55.71875 27.296875 
Q 55.71875 13.875 49.015625 6.21875 
Q 42.328125 -1.421875 30.609375 -1.421875 
Q 18.84375 -1.421875 12.171875 6.21875 
Q 5.515625 13.875 5.515625 27.296875 
Q 5.515625 40.765625 12.171875 48.375 
Q 18.84375 56 30.609375 56 
z
" id="DejaVuSans-111"/>
      <path d="M 9.421875 54.6875 
L 18.40625 54.6875 
L 18.40625 0 
L 9.421875 0 
z
M 9.421875 75.984375 
L 18.40625 75.984375 
L 18.40625 64.59375 
L 9.421875 64.59375 
z
" id="DejaVuSans-105"/>
      <path d="M 18.3125 70.21875 
L 18.3125 54.6875 
L 36.8125 54.6875 
L 36.8125 47.703125 
L 18.3125 47.703125 
L 18.3125 18.015625 
Q 18.3125 11.328125 20.140625 9.421875 
Q 21.96875 7.515625 27.59375 7.515625 
L 36.8125 7.515625 
L 36.8125 0 
L 27.59375 0 
Q 17.1875 0 13.234375 3.875 
Q 9.28125 7.765625 9.28125 18.015625 
L 9.28125 47.703125 
L 2.6875 47.703125 
L 2.6875 54.6875 
L 9.28125 54.6875 
L 9.28125 70.21875 
z
" id="DejaVuSans-116"/>
      <path d="M 2.984375 54.6875 
L 12.5 54.6875 
L 29.59375 8.796875 
L 46.6875 54.6875 
L 56.203125 54.6875 
L 35.6875 0 
L 23.484375 0 
z
" id="DejaVuSans-118"/>
      <path d="M 44.390625 34.1875 
Q 47.5625 33.109375 50.5625 29.59375 
Q 53.5625 26.078125 56.59375 19.921875 
L 66.609375 0 
L 56 0 
L 46.6875 18.703125 
Q 43.0625 26.03125 39.671875 28.421875 
Q 36.28125 30.8125 30.421875 30.8125 
L 19.671875 30.8125 
L 19.671875 0 
L 9.8125 0 
L 9.8125 72.90625 
L 32.078125 72.90625 
Q 44.578125 72.90625 50.734375 67.671875 
Q 56.890625 62.453125 56.890625 51.90625 
Q 56.890625 45.015625 53.6875 40.46875 
Q 50.484375 35.9375 44.390625 34.1875 
z
M 19.671875 64.796875 
L 19.671875 38.921875 
L 32.078125 38.921875 
Q 39.203125 38.921875 42.84375 42.21875 
Q 46.484375 45.515625 46.484375 51.90625 
Q 46.484375 58.296875 42.84375 61.546875 
Q 39.203125 64.796875 32.078125 64.796875 
z
" id="DejaVuSans-82"/>
     </defs>
     <g transform="translate(174.792891 338.140094)scale(0.13 -0.13)">
      <use xlink:href="#DejaVuSans-70"/>
      <use x="57.378906" xlink:href="#DejaVuSans-97"/>
      <use x="118.658203" xlink:href="#DejaVuSans-108"/>
      <use x="146.441406" xlink:href="#DejaVuSans-115"/>
      <use x="198.541016" xlink:href="#DejaVuSans-101"/>
      <use x="260.064453" xlink:href="#DejaVuSans-32"/>
      <use x="291.851562" xlink:href="#DejaVuSans-80"/>
      <use x="352.107422" xlink:href="#DejaVuSans-111"/>
      <use x="413.289062" xlink:href="#DejaVuSans-115"/>
      <use x="465.388672" xlink:href="#DejaVuSans-105"/>
      <use x="493.171875" xlink:href="#DejaVuSans-116"/>
      <use x="532.380859" xlink:href="#DejaVuSans-105"/>
      <use x="560.164062" xlink:href="#DejaVuSans-118"/>
      <use x="619.34375" xlink:href="#DejaVuSans-101"/>
      <use x="680.867188" xlink:href="#DejaVuSans-32"/>
      <use x="712.654297" xlink:href="#DejaVuSans-82"/>
      <use x="782.105469" xlink:href="#DejaVuSans-97"/>
      <use x="843.384766" xlink:href="#DejaVuSans-116"/>
      <use x="882.59375" xlink:href="#DejaVuSans-101"/>
     </g>
    </g>
   </g>
   <g id="matplotlib.axis_2">
    <g id="ytick_1">
     <g id="line2d_7">
      <defs>
       <path d="M 0 0 
L -3.5 0 
" id="m2d7ded83e5" style="stroke:#000000;stroke-width:0.8;"/>
      </defs>
      <g>
       <use style="stroke:#000000;stroke-width:0.8;" x="57.6" xlink:href="#m2d7ded83e5" y="295.488"/>
      </g>
     </g>
     <g id="text_8">
      <!-- 0.0 -->
      <g transform="translate(34.696875 299.287219)scale(0.1 -0.1)">
       <use xlink:href="#DejaVuSans-48"/>
       <use x="63.623047" xlink:href="#DejaVuSans-46"/>
       <use x="95.410156" xlink:href="#DejaVuSans-48"/>
      </g>
     </g>
    </g>
    <g id="ytick_2">
     <g id="line2d_8">
      <g>
       <use style="stroke:#000000;stroke-width:0.8;" x="57.6" xlink:href="#m2d7ded83e5" y="247.104"/>
      </g>
     </g>
     <g id="text_9">
      <!-- 0.2 -->
      <g transform="translate(34.696875 250.903219)scale(0.1 -0.1)">
       <use xlink:href="#DejaVuSans-48"/>
       <use x="63.623047" xlink:href="#DejaVuSans-46"/>
       <use x="95.410156" xlink:href="#DejaVuSans-50"/>
      </g>
     </g>
    </g>
    <g id="ytick_3">
     <g id="line2d_9">
      <g>
       <use style="stroke:#000000;stroke-width:0.8;" x="57.6" xlink:href="#m2d7ded83e5" y="198.72"/>
      </g>
     </g>
     <g id="text_10">
      <!-- 0.4 -->
      <g transform="translate(34.696875 202.519219)scale(0.1 -0.1)">
       <use xlink:href="#DejaVuSans-48"/>
       <use x="63.623047" xlink:href="#DejaVuSans-46"/>
       <use x="95.410156" xlink:href="#DejaVuSans-52"/>
      </g>
     </g>
    </g>
    <g id="ytick_4">
     <g id="line2d_10">
      <g>
       <use style="stroke:#000000;stroke-width:0.8;" x="57.6" xlink:href="#m2d7ded83e5" y="150.336"/>
      </g>
     </g>
     <g id="text_11">
      <!-- 0.6 -->
      <g transform="translate(34.696875 154.135219)scale(0.1 -0.1)">
       <use xlink:href="#DejaVuSans-48"/>
       <use x="63.623047" xlink:href="#DejaVuSans-46"/>
       <use x="95.410156" xlink:href="#DejaVuSans-54"/>
      </g>
     </g>
    </g>
    <g id="ytick_5">
     <g id="line2d_11">
      <g>
       <use style="stroke:#000000;stroke-width:0.8;" x="57.6" xlink:href="#m2d7ded83e5" y="101.952"/>
      </g>
     </g>
     <g id="text_12">
      <!-- 0.8 -->
      <g transform="translate(34.696875 105.751219)scale(0.1 -0.1)">
       <use xlink:href="#DejaVuSans-48"/>
       <use x="63.623047" xlink:href="#DejaVuSans-46"/>
       <use x="95.410156" xlink:href="#DejaVuSans-56"/>
      </g>
     </g>
    </g>
    <g id="ytick_6">
     <g id="line2d_12">
      <g>
       <use style="stroke:#000000;stroke-width:0.8;" x="57.6" xlink:href="#m2d7ded83e5" y="53.568"/>
      </g>
     </g>
     <g id="text_13">
      <!-- 1.0 -->
      <g transform="translate(34.696875 57.367219)scale(0.1 -0.1)">
       <use xlink:href="#DejaVuSans-49"/>
       <use x="63.623047" xlink:href="#DejaVuSans-46"/>
       <use x="95.410156" xlink:href="#DejaVuSans-48"/>
      </g>
     </g>
    </g>
    <g id="text_14">
     <!-- True Positive Rate -->
     <defs>
      <path d="M -0.296875 72.90625 
L 61.375 72.90625 
L 61.375 64.59375 
L 35.5 64.59375 
L 35.5 0 
L 25.59375 0 
L 25.59375 64.59375 
L -0.296875 64.59375 
z
" id="DejaVuSans-84"/>
      <path d="M 41.109375 46.296875 
Q 39.59375 47.171875 37.8125 47.578125 
Q 36.03125 48 33.890625 48 
Q 26.265625 48 22.1875 43.046875 
Q 18.109375 38.09375 18.109375 28.8125 
L 18.109375 0 
L 9.078125 0 
L 9.078125 54.6875 
L 18.109375 54.6875 
L 18.109375 46.1875 
Q 20.953125 51.171875 25.484375 53.578125 
Q 30.03125 56 36.53125 56 
Q 37.453125 56 38.578125 55.875 
Q 39.703125 55.765625 41.0625 55.515625 
z
" id="DejaVuSans-114"/>
      <path d="M 8.5 21.578125 
L 8.5 54.6875 
L 17.484375 54.6875 
L 17.484375 21.921875 
Q 17.484375 14.15625 20.5 10.265625 
Q 23.53125 6.390625 29.59375 6.390625 
Q 36.859375 6.390625 41.078125 11.03125 
Q 45.3125 15.671875 45.3125 23.6875 
L 45.3125 54.6875 
L 54.296875 54.6875 
L 54.296875 0 
L 45.3125 0 
L 45.3125 8.40625 
Q 42.046875 3.421875 37.71875 1 
Q 33.40625 -1.421875 27.6875 -1.421875 
Q 18.265625 -1.421875 13.375 4.4375 
Q 8.5 10.296875 8.5 21.578125 
z
M 31.109375 56 
z
" id="DejaVuSans-117"/>
     </defs>
     <g transform="translate(27.993281 233.737922)rotate(-90)scale(0.13 -0.13)">
      <use xlink:href="#DejaVuSans-84"/>
      <use x="60.865234" xlink:href="#DejaVuSans-114"/>
      <use x="101.978516" xlink:href="#DejaVuSans-117"/>
      <use x="165.357422" xlink:href="#DejaVuSans-101"/>
      <use x="226.880859" xlink:href="#DejaVuSans-32"/>
      <use x="258.667969" xlink:href="#DejaVuSans-80"/>
      <use x="318.923828" xlink:href="#DejaVuSans-111"/>
      <use x="380.105469" xlink:href="#DejaVuSans-115"/>
      <use x="432.205078" xlink:href="#DejaVuSans-105"/>
      <use x="459.988281" xlink:href="#DejaVuSans-116"/>
      <use x="499.197266" xlink:href="#DejaVuSans-105"/>
      <use x="526.980469" xlink:href="#DejaVuSans-118"/>
      <use x="586.160156" xlink:href="#DejaVuSans-101"/>
      <use x="647.683594" xlink:href="#DejaVuSans-32"/>
      <use x="679.470703" xlink:href="#DejaVuSans-82"/>
      <use x="748.921875" xlink:href="#DejaVuSans-97"/>
      <use x="810.201172" xlink:href="#DejaVuSans-116"/>
      <use x="849.410156" xlink:href="#DejaVuSans-101"/>
     </g>
    </g>
   </g>
   <g id="line2d_13">
    <path clip-path="url(#p34c72cfbe8)" d="M 73.832727 295.488 
L 73.832727 295.488 
L 73.832727 294.952779 
L 73.832727 290.671009 
L 73.832727 289.600566 
L 73.832727 274.07915 
L 73.832727 273.008708 
L 73.832727 224.838796 
L 74.55099 224.838796 
L 74.55099 202.359504 
L 75.269252 202.359504 
L 75.269252 186.838088 
L 75.987514 186.838088 
L 75.987514 184.161982 
L 76.705776 184.161982 
L 76.705776 157.936142 
L 76.705776 156.865699 
L 76.705776 152.583929 
L 77.424039 152.583929 
L 77.424039 130.104637 
L 78.860563 130.104637 
L 78.860563 125.822867 
L 79.578825 125.822867 
L 79.578825 111.371894 
L 80.297088 111.371894 
L 80.297088 99.597027 
L 81.01535 99.597027 
L 81.01535 99.061805 
L 81.733612 99.061805 
L 81.733612 91.033487 
L 82.451874 91.033487 
L 82.451874 84.075611 
L 83.170137 84.075611 
L 83.170137 83.005168 
L 83.888399 83.005168 
L 83.888399 80.329062 
L 84.606661 80.329062 
L 84.606661 79.258619 
L 85.324924 79.258619 
L 85.324924 74.97685 
L 88.197973 74.97685 
L 88.197973 73.371186 
L 88.916235 73.371186 
L 88.916235 72.835965 
L 89.634497 72.835965 
L 89.634497 72.300743 
L 93.225809 72.300743 
L 93.225809 71.765522 
L 93.944071 71.765522 
L 93.944071 70.159858 
L 96.81712 70.159858 
L 96.81712 69.624637 
L 98.971907 69.624637 
L 98.971907 67.483752 
L 101.126693 67.483752 
L 101.126693 63.737204 
L 102.563218 63.737204 
L 102.563218 62.666761 
L 106.154529 62.666761 
L 106.154529 62.13154 
L 107.591054 62.13154 
L 107.591054 61.596319 
L 109.745841 61.596319 
L 109.745841 61.061097 
L 110.464103 61.061097 
L 110.464103 60.525876 
L 112.61889 60.525876 
L 112.61889 59.990655 
L 114.055414 59.990655 
L 114.055414 59.455434 
L 114.773677 59.455434 
L 114.773677 58.920212 
L 119.08325 58.920212 
L 119.08325 58.384991 
L 120.519775 58.384991 
L 120.519775 57.84977 
L 124.829348 57.84977 
L 124.829348 56.779327 
L 131.293709 56.779327 
L 131.293709 56.244106 
L 144.22243 56.244106 
L 144.22243 55.708885 
L 146.377216 55.708885 
L 146.377216 54.638442 
L 157.15115 54.638442 
L 157.15115 54.103221 
L 158.587675 54.103221 
L 158.587675 53.568 
L 398.487273 53.568 
" style="fill:none;stroke:#ff0000;stroke-linecap:square;stroke-opacity:0.8;stroke-width:1.5;"/>
   </g>
   <g id="line2d_14">
    <path clip-path="url(#p34c72cfbe8)" d="M 73.832727 295.488 
L 73.832727 295.488 
L 73.832727 294.952779 
L 73.832727 267.121274 
L 74.55099 267.121274 
L 74.55099 251.599858 
L 75.269252 251.599858 
L 75.269252 250.529416 
L 75.269252 249.994195 
L 75.269252 248.923752 
L 75.269252 215.204814 
L 75.987514 215.204814 
L 75.987514 162.753133 
L 76.705776 162.753133 
L 76.705776 133.851186 
L 77.424039 133.851186 
L 77.424039 106.019681 
L 78.142301 106.019681 
L 78.142301 103.343575 
L 78.860563 103.343575 
L 78.860563 99.061805 
L 79.578825 99.061805 
L 79.578825 93.174372 
L 80.297088 93.174372 
L 80.297088 82.469947 
L 81.01535 82.469947 
L 81.01535 80.329062 
L 81.733612 80.329062 
L 81.733612 79.258619 
L 83.170137 79.258619 
L 83.170137 77.117735 
L 83.888399 77.117735 
L 83.888399 72.300743 
L 84.606661 72.300743 
L 84.606661 69.089416 
L 85.324924 69.089416 
L 85.324924 68.018973 
L 86.043186 68.018973 
L 86.043186 67.483752 
L 86.761448 67.483752 
L 86.761448 64.272425 
L 88.197973 64.272425 
L 88.197973 63.737204 
L 88.916235 63.737204 
L 88.916235 63.201982 
L 91.789284 63.201982 
L 91.789284 62.666761 
L 92.507546 62.666761 
L 92.507546 62.13154 
L 97.535382 62.13154 
L 97.535382 61.061097 
L 98.253644 61.061097 
L 98.253644 60.525876 
L 99.690169 60.525876 
L 99.690169 59.455434 
L 106.154529 59.455434 
L 106.154529 58.920212 
L 107.591054 58.920212 
L 107.591054 58.384991 
L 111.182365 58.384991 
L 111.182365 57.84977 
L 112.61889 57.84977 
L 112.61889 57.314549 
L 116.210201 57.314549 
L 116.210201 56.779327 
L 119.08325 56.779327 
L 119.08325 56.244106 
L 119.801512 56.244106 
L 119.801512 55.708885 
L 121.238037 55.708885 
L 121.238037 54.638442 
L 160.742462 54.638442 
L 160.742462 54.103221 
L 167.206822 54.103221 
L 167.206822 53.568 
L 398.487273 53.568 
" style="fill:none;stroke:#ff0000;stroke-linecap:square;stroke-opacity:0.8;stroke-width:1.5;"/>
   </g>
   <g id="line2d_15">
    <path clip-path="url(#p34c72cfbe8)" d="M 73.832727 295.488 
L 73.832727 295.488 
L 73.832727 294.952779 
L 73.832727 282.107469 
L 74.55099 281.572248 
L 74.55099 266.586053 
L 75.269252 266.586053 
L 75.269252 240.895434 
L 75.987514 240.360212 
L 75.987514 231.796673 
L 76.705776 231.796673 
L 76.705776 211.993487 
L 77.424039 211.993487 
L 77.424039 132.245522 
L 78.142301 132.245522 
L 78.142301 120.470655 
L 78.860563 120.470655 
L 78.860563 105.48446 
L 79.578825 105.48446 
L 79.578825 102.808354 
L 80.297088 102.808354 
L 80.297088 91.033487 
L 81.01535 91.033487 
L 81.01535 83.005168 
L 81.733612 83.005168 
L 81.733612 80.329062 
L 82.451874 80.329062 
L 82.451874 78.723398 
L 83.170137 78.723398 
L 83.170137 77.117735 
L 84.606661 77.117735 
L 84.606661 74.97685 
L 85.324924 74.97685 
L 85.324924 71.765522 
L 86.043186 71.765522 
L 86.043186 70.69508 
L 88.197973 70.69508 
L 88.197973 68.018973 
L 88.916235 68.018973 
L 88.916235 67.483752 
L 89.634497 67.483752 
L 89.634497 66.948531 
L 90.352759 66.948531 
L 90.352759 65.878088 
L 91.071022 65.878088 
L 91.071022 65.342867 
L 93.944071 65.342867 
L 93.944071 64.272425 
L 96.81712 64.272425 
L 96.81712 63.201982 
L 98.253644 63.201982 
L 98.253644 61.596319 
L 101.126693 61.596319 
L 101.126693 59.990655 
L 102.563218 59.990655 
L 102.563218 59.455434 
L 103.28148 59.455434 
L 103.28148 58.920212 
L 107.591054 58.920212 
L 107.591054 58.384991 
L 108.309316 58.384991 
L 108.309316 57.84977 
L 111.900628 57.84977 
L 111.900628 57.314549 
L 114.055414 57.314549 
L 114.055414 56.244106 
L 131.293709 56.244106 
L 131.293709 55.708885 
L 136.321545 55.708885 
L 136.321545 55.173664 
L 143.504167 55.173664 
L 143.504167 54.638442 
L 170.798134 54.638442 
L 170.798134 54.103221 
L 177.980756 54.103221 
L 177.980756 53.568 
L 398.487273 53.568 
" style="fill:none;stroke:#ff0000;stroke-linecap:square;stroke-opacity:0.8;stroke-width:1.5;"/>
   </g>
   <g id="line2d_16">
    <path clip-path="url(#p34c72cfbe8)" d="M 73.832727 295.488 
L 73.832727 295.488 
L 73.832727 294.952779 
L 73.832727 273.543929 
L 73.832727 272.473487 
L 73.832727 248.923752 
L 74.55099 248.923752 
L 74.55099 232.331894 
L 75.269252 232.331894 
L 75.269252 133.851186 
L 75.987514 133.851186 
L 75.987514 130.639858 
L 77.424039 130.639858 
L 77.424039 125.287646 
L 78.142301 125.287646 
L 78.142301 109.76623 
L 78.860563 109.76623 
L 78.860563 104.414018 
L 79.578825 104.414018 
L 79.578825 97.456142 
L 80.297088 97.456142 
L 80.297088 96.92092 
L 81.01535 96.92092 
L 81.01535 96.385699 
L 81.733612 96.385699 
L 81.733612 84.075611 
L 83.888399 84.075611 
L 83.888399 71.230301 
L 86.043186 71.230301 
L 86.043186 70.159858 
L 86.761448 70.159858 
L 86.761448 66.41331 
L 88.197973 66.41331 
L 88.197973 65.878088 
L 88.916235 65.878088 
L 88.916235 64.807646 
L 89.634497 64.807646 
L 89.634497 64.272425 
L 91.071022 64.272425 
L 91.071022 63.201982 
L 91.789284 63.201982 
L 91.789284 62.13154 
L 95.380595 62.13154 
L 95.380595 61.596319 
L 97.535382 61.596319 
L 97.535382 61.061097 
L 108.309316 61.061097 
L 108.309316 59.990655 
L 112.61889 59.990655 
L 112.61889 59.455434 
L 119.08325 59.455434 
L 119.08325 58.920212 
L 124.111086 58.920212 
L 124.111086 58.384991 
L 126.984135 58.384991 
L 126.984135 57.84977 
L 132.011971 57.84977 
L 132.011971 57.314549 
L 139.912856 57.314549 
L 139.912856 56.779327 
L 147.095479 56.779327 
L 147.095479 56.244106 
L 152.123315 56.244106 
L 152.123315 55.708885 
L 180.135543 55.708885 
L 180.135543 55.173664 
L 182.29033 55.173664 
L 182.29033 54.638442 
L 183.726854 54.638442 
L 183.726854 54.103221 
L 202.401673 54.103221 
L 202.401673 53.568 
L 398.487273 53.568 
" style="fill:none;stroke:#ff0000;stroke-linecap:square;stroke-opacity:0.8;stroke-width:1.5;"/>
   </g>
   <g id="line2d_17">
    <path clip-path="url(#p34c72cfbe8)" d="M 73.832727 295.488 
L 73.832727 295.488 
L 73.832727 294.952779 
L 73.832727 292.276673 
L 73.832727 291.20623 
L 73.832727 279.966584 
L 74.55099 279.966584 
L 74.55099 278.36092 
L 75.269252 278.36092 
L 75.269252 277.825699 
L 75.987514 277.825699 
L 75.987514 273.008708 
L 76.705776 273.008708 
L 76.705776 258.022513 
L 78.142301 258.022513 
L 78.142301 210.923044 
L 78.860563 210.923044 
L 78.860563 201.289062 
L 79.578825 201.289062 
L 79.578825 195.93685 
L 80.297088 195.93685 
L 80.297088 176.668885 
L 81.01535 176.668885 
L 81.01535 166.499681 
L 81.733612 166.499681 
L 81.733612 159.541805 
L 82.451874 159.541805 
L 82.451874 148.837381 
L 83.170137 148.837381 
L 83.170137 140.809062 
L 83.888399 140.273841 
L 83.888399 110.301451 
L 85.324924 110.301451 
L 85.324924 106.019681 
L 86.043186 106.019681 
L 86.043186 102.273133 
L 86.761448 102.273133 
L 86.761448 100.132248 
L 87.47971 100.132248 
L 87.47971 87.822159 
L 88.197973 87.822159 
L 88.197973 84.610832 
L 89.634497 84.610832 
L 89.634497 74.441628 
L 90.352759 74.441628 
L 90.352759 72.835965 
L 91.071022 72.835965 
L 91.071022 72.300743 
L 93.225809 72.300743 
L 93.225809 71.230301 
L 93.944071 71.230301 
L 93.944071 69.089416 
L 94.662333 69.089416 
L 94.662333 68.554195 
L 96.81712 68.554195 
L 96.81712 66.41331 
L 98.253644 66.41331 
L 98.253644 64.807646 
L 100.408431 64.807646 
L 100.408431 64.272425 
L 101.844956 64.272425 
L 101.844956 63.737204 
L 102.563218 63.737204 
L 102.563218 62.666761 
L 106.872792 62.666761 
L 106.872792 61.596319 
L 109.027578 61.596319 
L 109.027578 61.061097 
L 111.182365 61.061097 
L 111.182365 60.525876 
L 117.646726 60.525876 
L 117.646726 59.990655 
L 121.238037 59.990655 
L 121.238037 59.455434 
L 122.674562 59.455434 
L 122.674562 57.314549 
L 124.829348 57.314549 
L 124.829348 56.779327 
L 125.547611 56.779327 
L 125.547611 56.244106 
L 134.88502 56.244106 
L 134.88502 55.173664 
L 144.22243 55.173664 
L 144.22243 54.638442 
L 158.587675 54.638442 
L 158.587675 54.103221 
L 180.135543 54.103221 
L 180.135543 53.568 
L 398.487273 53.568 
" style="fill:none;stroke:#ff0000;stroke-linecap:square;stroke-opacity:0.8;stroke-width:1.5;"/>
   </g>
   <g id="line2d_18">
    <path clip-path="url(#p34c72cfbe8)" d="M 73.832727 295.488 
L 73.832727 295.488 
L 73.832727 294.952779 
L 73.832727 273.008708 
L 73.832727 271.938265 
L 73.832727 258.557735 
L 73.832727 257.487292 
L 73.832727 253.740743 
L 74.55099 253.740743 
L 74.55099 236.613664 
L 75.269252 236.613664 
L 75.269252 210.923044 
L 75.987514 210.923044 
L 75.987514 202.894726 
L 76.705776 202.894726 
L 76.705776 160.612248 
L 77.424039 160.612248 
L 77.424039 126.358088 
L 78.142301 126.358088 
L 78.142301 110.836673 
L 78.860563 110.836673 
L 78.860563 104.949239 
L 79.578825 104.949239 
L 79.578825 104.414018 
L 80.297088 104.414018 
L 80.297088 97.991363 
L 81.01535 97.991363 
L 81.01535 90.498265 
L 81.733612 90.498265 
L 81.733612 80.864283 
L 82.451874 80.864283 
L 82.451874 78.188177 
L 84.606661 78.188177 
L 84.606661 77.652956 
L 86.761448 77.652956 
L 86.761448 76.582513 
L 88.197973 76.582513 
L 88.197973 76.047292 
L 88.916235 76.047292 
L 88.916235 74.97685 
L 89.634497 74.97685 
L 89.634497 74.441628 
L 90.352759 74.441628 
L 90.352759 73.371186 
L 91.071022 73.371186 
L 91.071022 72.300743 
L 93.225809 72.300743 
L 93.225809 68.018973 
L 95.380595 68.018973 
L 95.380595 67.483752 
L 96.098858 67.483752 
L 96.098858 64.807646 
L 96.81712 64.807646 
L 96.81712 64.272425 
L 98.971907 64.272425 
L 98.971907 63.737204 
L 101.126693 63.737204 
L 101.126693 62.13154 
L 102.563218 62.13154 
L 102.563218 61.596319 
L 103.28148 61.596319 
L 103.28148 61.061097 
L 105.436267 61.061097 
L 105.436267 60.525876 
L 106.872792 60.525876 
L 106.872792 59.455434 
L 114.773677 59.455434 
L 114.773677 58.920212 
L 116.928463 58.920212 
L 116.928463 58.384991 
L 124.829348 58.384991 
L 124.829348 57.84977 
L 126.265873 57.84977 
L 126.265873 57.314549 
L 137.039807 57.314549 
L 137.039807 56.779327 
L 137.758069 56.779327 
L 137.758069 56.244106 
L 149.968528 56.244106 
L 149.968528 55.708885 
L 152.123315 55.708885 
L 152.123315 55.173664 
L 154.996364 55.173664 
L 154.996364 54.638442 
L 170.798134 54.638442 
L 170.798134 54.103221 
L 204.55646 54.103221 
L 204.55646 53.568 
L 398.487273 53.568 
" style="fill:none;stroke:#ff0000;stroke-linecap:square;stroke-opacity:0.8;stroke-width:1.5;"/>
   </g>
   <g id="line2d_19">
    <path clip-path="url(#p34c72cfbe8)" d="M 73.832727 295.488 
L 73.832727 295.488 
L 73.832727 294.952779 
L 73.832727 228.050124 
L 75.269252 228.050124 
L 75.269252 209.852602 
L 75.987514 209.852602 
L 75.987514 193.795965 
L 75.987514 192.725522 
L 75.987514 165.96446 
L 76.705776 165.96446 
L 76.705776 165.429239 
L 77.424039 165.429239 
L 77.424039 148.302159 
L 78.142301 148.302159 
L 78.142301 147.766938 
L 78.860563 147.766938 
L 78.860563 114.048 
L 79.578825 114.048 
L 79.578825 108.160566 
L 80.297088 108.160566 
L 80.297088 101.20269 
L 81.01535 101.20269 
L 81.01535 94.780035 
L 81.733612 94.780035 
L 81.733612 78.723398 
L 83.170137 78.723398 
L 83.170137 76.047292 
L 83.888399 76.047292 
L 83.888399 72.300743 
L 84.606661 72.300743 
L 84.606661 71.765522 
L 85.324924 71.765522 
L 85.324924 71.230301 
L 86.043186 71.230301 
L 86.043186 70.69508 
L 86.761448 70.69508 
L 86.761448 68.018973 
L 87.47971 68.018973 
L 87.47971 65.878088 
L 89.634497 65.878088 
L 89.634497 64.807646 
L 91.071022 64.807646 
L 91.071022 64.272425 
L 91.789284 64.272425 
L 91.789284 62.666761 
L 92.507546 62.666761 
L 92.507546 62.13154 
L 94.662333 62.13154 
L 94.662333 61.596319 
L 101.844956 61.596319 
L 101.844956 61.061097 
L 110.464103 61.061097 
L 110.464103 60.525876 
L 111.900628 60.525876 
L 111.900628 59.990655 
L 112.61889 59.990655 
L 112.61889 58.920212 
L 113.337152 58.920212 
L 113.337152 58.384991 
L 117.646726 58.384991 
L 117.646726 57.84977 
L 121.238037 57.84977 
L 121.238037 57.314549 
L 123.392824 57.314549 
L 123.392824 56.779327 
L 124.829348 56.779327 
L 124.829348 56.244106 
L 129.138922 56.244106 
L 129.138922 55.708885 
L 134.166758 55.708885 
L 134.166758 55.173664 
L 149.968528 55.173664 
L 149.968528 54.638442 
L 157.869413 54.638442 
L 157.869413 54.103221 
L 188.75469 54.103221 
L 188.75469 53.568 
L 398.487273 53.568 
" style="fill:none;stroke:#ff0000;stroke-linecap:square;stroke-opacity:0.8;stroke-width:1.5;"/>
   </g>
   <g id="line2d_20">
    <path clip-path="url(#p34c72cfbe8)" d="M 73.832727 295.488 
L 73.832727 295.488 
L 73.832727 294.952779 
L 73.832727 217.345699 
L 73.832727 216.275257 
L 73.832727 212.528708 
L 74.55099 212.528708 
L 74.55099 199.148177 
L 75.269252 199.148177 
L 75.269252 191.119858 
L 76.705776 191.119858 
L 76.705776 184.161982 
L 77.424039 184.161982 
L 77.424039 182.021097 
L 78.142301 182.021097 
L 78.142301 176.668885 
L 78.860563 176.668885 
L 78.860563 166.499681 
L 79.578825 166.499681 
L 79.578825 155.795257 
L 80.297088 155.795257 
L 80.297088 141.879504 
L 81.01535 141.879504 
L 81.01535 131.710301 
L 81.733612 131.710301 
L 81.733612 128.498973 
L 82.451874 128.498973 
L 82.451874 98.526584 
L 83.170137 98.526584 
L 83.170137 95.850478 
L 83.888399 95.850478 
L 83.888399 94.780035 
L 84.606661 94.780035 
L 84.606661 90.498265 
L 85.324924 90.498265 
L 85.324924 89.427823 
L 86.761448 89.427823 
L 86.761448 87.822159 
L 87.47971 87.822159 
L 87.47971 85.681274 
L 88.197973 85.681274 
L 88.197973 85.146053 
L 88.916235 85.146053 
L 88.916235 83.005168 
L 89.634497 83.005168 
L 89.634497 78.723398 
L 90.352759 78.723398 
L 90.352759 75.512071 
L 91.071022 75.512071 
L 91.071022 74.97685 
L 91.789284 74.97685 
L 91.789284 74.441628 
L 92.507546 74.441628 
L 92.507546 73.906407 
L 93.225809 73.906407 
L 93.225809 73.371186 
L 93.944071 73.371186 
L 93.944071 71.230301 
L 96.098858 71.230301 
L 96.098858 70.69508 
L 96.81712 70.69508 
L 96.81712 70.159858 
L 98.971907 70.159858 
L 98.971907 69.624637 
L 101.126693 69.624637 
L 101.126693 68.554195 
L 103.28148 68.554195 
L 103.28148 68.018973 
L 103.999743 68.018973 
L 103.999743 67.483752 
L 106.872792 67.483752 
L 106.872792 66.948531 
L 107.591054 66.948531 
L 107.591054 66.41331 
L 108.309316 66.41331 
L 108.309316 65.342867 
L 109.745841 65.342867 
L 109.745841 64.807646 
L 115.491939 64.807646 
L 115.491939 64.272425 
L 116.210201 64.272425 
L 116.210201 63.737204 
L 118.364988 63.737204 
L 118.364988 63.201982 
L 120.519775 63.201982 
L 120.519775 62.666761 
L 124.111086 62.666761 
L 124.111086 62.13154 
L 125.547611 62.13154 
L 125.547611 61.596319 
L 126.265873 61.596319 
L 126.265873 60.525876 
L 126.984135 60.525876 
L 126.984135 59.990655 
L 129.138922 59.990655 
L 129.138922 59.455434 
L 130.575447 59.455434 
L 130.575447 58.920212 
L 131.293709 58.920212 
L 131.293709 57.84977 
L 144.22243 57.84977 
L 144.22243 57.314549 
L 152.123315 57.314549 
L 152.123315 56.779327 
L 153.559839 56.779327 
L 153.559839 56.244106 
L 155.714626 56.244106 
L 155.714626 55.708885 
L 157.869413 55.708885 
L 157.869413 55.173664 
L 170.798134 55.173664 
L 170.798134 54.638442 
L 198.0921 54.638442 
L 198.0921 54.103221 
L 205.992985 54.103221 
L 205.992985 53.568 
L 398.487273 53.568 
" style="fill:none;stroke:#ff0000;stroke-linecap:square;stroke-opacity:0.8;stroke-width:1.5;"/>
   </g>
   <g id="line2d_21">
    <path clip-path="url(#p34c72cfbe8)" d="M 73.832727 295.488 
L 73.832727 295.488 
L 73.832727 294.952779 
L 73.832727 282.107469 
L 73.832727 281.037027 
L 73.832727 279.431363 
L 74.55099 279.431363 
L 74.55099 275.684814 
L 75.269252 275.684814 
L 75.269252 232.867115 
L 75.269252 231.796673 
L 75.269252 210.923044 
L 75.987514 210.923044 
L 75.987514 207.176496 
L 76.705776 207.176496 
L 76.705776 190.584637 
L 77.424039 190.584637 
L 77.424039 144.555611 
L 78.142301 144.555611 
L 78.142301 130.104637 
L 78.860563 130.104637 
L 78.860563 125.822867 
L 79.578825 125.822867 
L 79.578825 118.864991 
L 80.297088 118.864991 
L 80.297088 116.724106 
L 81.733612 116.724106 
L 81.733612 111.907115 
L 82.451874 111.907115 
L 82.451874 109.76623 
L 83.170137 109.76623 
L 83.170137 103.343575 
L 83.888399 103.343575 
L 83.888399 101.20269 
L 84.606661 101.20269 
L 84.606661 97.991363 
L 85.324924 97.991363 
L 85.324924 93.709593 
L 86.043186 93.709593 
L 86.043186 91.568708 
L 86.761448 91.568708 
L 86.761448 91.033487 
L 87.47971 91.033487 
L 87.47971 78.188177 
L 88.197973 78.188177 
L 88.197973 74.441628 
L 88.916235 74.441628 
L 88.916235 73.906407 
L 89.634497 73.906407 
L 89.634497 73.371186 
L 90.352759 73.371186 
L 90.352759 71.230301 
L 91.071022 71.230301 
L 91.071022 70.159858 
L 91.789284 69.624637 
L 91.789284 69.089416 
L 93.225809 69.089416 
L 93.225809 68.018973 
L 94.662333 68.018973 
L 94.662333 66.41331 
L 96.098858 66.41331 
L 96.098858 65.878088 
L 96.81712 65.878088 
L 96.81712 64.807646 
L 99.690169 64.807646 
L 99.690169 64.272425 
L 100.408431 64.272425 
L 100.408431 63.737204 
L 101.126693 63.737204 
L 101.126693 63.201982 
L 103.999743 63.201982 
L 103.999743 62.13154 
L 106.872792 62.13154 
L 106.872792 61.596319 
L 108.309316 61.596319 
L 108.309316 61.061097 
L 109.027578 61.061097 
L 109.027578 60.525876 
L 109.745841 60.525876 
L 109.745841 59.990655 
L 110.464103 59.990655 
L 110.464103 59.455434 
L 112.61889 59.455434 
L 112.61889 58.920212 
L 115.491939 58.920212 
L 115.491939 57.314549 
L 116.928463 57.314549 
L 116.928463 56.244106 
L 132.730233 56.244106 
L 132.730233 55.708885 
L 139.912856 55.708885 
L 139.912856 55.173664 
L 148.532003 55.173664 
L 148.532003 54.638442 
L 170.798134 54.638442 
L 170.798134 54.103221 
L 175.107707 54.103221 
L 175.107707 53.568 
L 398.487273 53.568 
" style="fill:none;stroke:#ff0000;stroke-linecap:square;stroke-opacity:0.8;stroke-width:1.5;"/>
   </g>
   <g id="line2d_22">
    <path clip-path="url(#p34c72cfbe8)" d="M 73.832727 295.488 
L 73.832727 295.488 
L 73.832727 294.9504 
L 73.832727 293.8752 
L 73.832727 290.6496 
L 73.832727 289.5744 
L 73.832727 238.5024 
L 73.832727 237.4272 
L 73.832727 180.4416 
L 73.832727 179.3664 
L 73.832727 169.152 
L 74.554182 169.152 
L 74.554182 157.3248 
L 75.275636 157.3248 
L 75.275636 140.1216 
L 75.997091 140.1216 
L 75.997091 139.584 
L 76.718545 139.584 
L 76.718545 111.0912 
L 77.44 111.0912 
L 77.44 106.2528 
L 78.161455 106.2528 
L 78.161455 101.952 
L 79.604364 101.952 
L 79.604364 99.264 
L 80.325818 99.264 
L 80.325818 93.3504 
L 81.047273 93.3504 
L 81.047273 84.7488 
L 81.768727 84.7488 
L 81.768727 83.6736 
L 82.490182 83.6736 
L 82.490182 83.136 
L 83.211636 83.136 
L 83.211636 82.0608 
L 84.654545 82.0608 
L 84.654545 79.9104 
L 85.376 79.9104 
L 85.376 77.76 
L 86.097455 77.76 
L 86.097455 75.072 
L 86.818909 75.072 
L 86.818909 72.384 
L 87.540364 72.384 
L 87.540364 71.3088 
L 88.261818 71.3088 
L 88.261818 70.7712 
L 88.983273 70.7712 
L 88.983273 69.696 
L 91.147636 69.696 
L 91.147636 68.6208 
L 91.869091 68.6208 
L 91.869091 68.0832 
L 94.033455 68.0832 
L 94.033455 67.5456 
L 98.362182 67.5456 
L 98.362182 65.9328 
L 101.969455 65.9328 
L 101.969455 64.8576 
L 102.690909 64.8576 
L 102.690909 64.32 
L 105.576727 64.32 
L 105.576727 63.7824 
L 106.298182 63.7824 
L 106.298182 62.7072 
L 107.741091 62.7072 
L 107.741091 61.0944 
L 109.184 61.0944 
L 109.184 60.0192 
L 110.626909 60.0192 
L 110.626909 58.944 
L 117.12 58.944 
L 117.12 58.4064 
L 127.941818 58.4064 
L 127.941818 57.8688 
L 135.156364 57.8688 
L 135.156364 57.3312 
L 148.142545 57.3312 
L 148.142545 56.7936 
L 150.306909 56.7936 
L 150.306909 56.256 
L 155.357091 56.256 
L 155.357091 55.7184 
L 180.608 55.7184 
L 180.608 55.1808 
L 187.822545 55.1808 
L 187.822545 54.6432 
L 200.808727 54.6432 
L 200.808727 54.1056 
L 267.904 54.1056 
L 267.904 53.568 
L 398.487273 53.568 
" style="fill:none;stroke:#ff0000;stroke-linecap:square;stroke-opacity:0.8;stroke-width:1.5;"/>
   </g>
   <g id="line2d_23">
    <path clip-path="url(#p34c72cfbe8)" d="M 73.832727 295.488 
L 74.157707 244.561865 
L 74.482686 244.537649 
L 74.807666 232.805981 
L 75.132645 232.805981 
L 75.457625 201.7415 
L 75.782604 201.717284 
L 76.107584 188.909989 
L 76.432563 188.909989 
L 76.757543 169.897028 
L 77.407502 169.897028 
L 77.732482 145.916976 
L 78.057461 145.916976 
L 78.382441 134.193727 
L 78.70742 134.193727 
L 79.0324 124.9344 
L 79.357379 124.9344 
L 79.682359 118.724644 
L 80.007338 118.724644 
L 80.332318 109.783833 
L 80.982277 109.783833 
L 81.307256 104.374292 
L 81.632236 104.374292 
L 81.957215 97.790595 
L 82.282195 97.790595 
L 82.607174 92.331101 
L 82.932154 92.331101 
L 83.257133 89.755081 
L 83.582113 89.730864 
L 83.907093 83.981174 
L 84.557052 83.981174 
L 84.882031 82.267514 
L 85.207011 82.267514 
L 85.53199 80.1792 
L 85.85697 80.1792 
L 86.181949 79.000524 
L 86.506929 79.000524 
L 86.831908 77.233104 
L 87.156888 77.233104 
L 87.481867 74.289388 
L 88.131826 74.181868 
L 88.456806 72.790055 
L 88.781785 72.790055 
L 89.106765 72.040269 
L 89.431744 72.040269 
L 89.756724 70.220517 
L 90.081704 70.220517 
L 90.406683 69.310641 
L 91.056642 69.310641 
L 91.381622 68.644755 
L 91.706601 68.620539 
L 92.031581 68.13244 
L 92.35656 68.13244 
L 92.68154 67.971874 
L 93.006519 67.971874 
L 93.331499 67.222564 
L 93.656478 67.222564 
L 93.981458 66.526777 
L 94.631417 66.473017 
L 94.956396 66.205406 
L 95.931335 66.098362 
L 96.256314 65.723707 
L 96.581294 65.723707 
L 96.906274 65.134964 
L 97.231253 65.134964 
L 97.556233 64.974397 
L 98.206192 64.974397 
L 98.531171 64.438462 
L 98.856151 64.438462 
L 99.18113 64.11733 
L 99.50611 64.11733 
L 99.831089 63.956763 
L 100.806028 63.849719 
L 101.131007 62.993365 
L 101.780966 62.993365 
L 102.105946 62.778801 
L 102.430925 62.778801 
L 102.755905 62.403908 
L 103.080885 62.403908 
L 103.405864 62.243342 
L 103.730844 62.243342 
L 104.055823 62.082775 
L 106.0057 61.975493 
L 106.33068 61.760929 
L 106.655659 61.760929 
L 106.980639 61.439796 
L 107.305618 61.439796 
L 107.955577 61.064428 
L 108.280557 61.064428 
L 108.605536 60.743295 
L 108.930516 60.743295 
L 109.255495 60.528731 
L 109.580475 60.528731 
L 109.905455 60.368164 
L 110.230434 60.368164 
L 111.205373 59.993034 
L 112.505291 59.885989 
L 112.83027 59.564857 
L 113.805209 59.511335 
L 114.130188 59.350768 
L 115.430106 59.243724 
L 115.755086 59.029635 
L 116.730025 58.922591 
L 117.379984 58.708265 
L 118.029943 58.601221 
L 119.004881 58.547698 
L 119.329861 58.387132 
L 120.304799 58.33361 
L 121.604717 58.012477 
L 122.579656 58.012477 
L 122.904636 57.798389 
L 123.879574 57.744867 
L 125.179492 57.370212 
L 126.154431 57.263167 
L 126.47941 57.102601 
L 127.779328 56.995557 
L 128.754267 56.941797 
L 130.379165 56.834753 
L 133.30398 56.460098 
L 134.603898 56.406576 
L 135.253857 56.245771 
L 137.528714 56.138727 
L 138.503653 56.085205 
L 143.378346 55.978161 
L 145.328223 55.764072 
L 146.95312 55.657028 
L 148.578018 55.496224 
L 150.202916 55.389179 
L 151.177854 55.335419 
L 151.827813 55.335419 
L 152.152793 55.174853 
L 155.077609 55.067809 
L 156.377527 54.960527 
L 157.677445 54.907005 
L 158.652383 54.692916 
L 170.676626 54.585872 
L 171.001605 54.371783 
L 180.101032 54.264739 
L 180.750991 54.103935 
L 187.575561 53.996891 
L 188.875479 53.889608 
L 202.19964 53.782326 
L 203.174578 53.728804 
L 267.845504 53.62176 
L 268.820442 53.568 
L 398.487273 53.568 
L 398.487273 53.568 
" style="fill:none;stroke:#000000;stroke-linecap:square;stroke-width:2;"/>
   </g>
   <g id="line2d_24">
    <path clip-path="url(#p34c72cfbe8)" d="M 73.832727 126.144 
L 73.832727 122.960842 
L 73.832727 119.777684 
L 73.832727 116.594526 
L 73.832727 113.411368 
L 73.832727 110.228211 
L 73.832727 107.045053 
L 73.832727 103.861895 
L 73.832727 100.678737 
L 73.832727 97.495579 
L 73.832727 94.312421 
L 73.832727 91.129263 
L 73.832727 87.946105 
L 73.832727 84.762947 
L 73.832727 81.579789 
L 73.832727 78.396632 
L 73.832727 75.213474 
L 73.832727 72.030316 
L 73.832727 68.847158 
L 73.832727 65.664 
" style="fill:none;stroke:#000000;stroke-dasharray:1,1.65;stroke-dashoffset:0;"/>
   </g>
   <g id="line2d_25">
    <path clip-path="url(#p34c72cfbe8)" d="M 73.832727 126.144 
L 78.104498 126.144 
L 82.376268 126.144 
L 86.648038 126.144 
L 90.919809 126.144 
L 95.191579 126.144 
L 99.463349 126.144 
L 103.73512 126.144 
L 108.00689 126.144 
L 112.27866 126.144 
L 116.550431 126.144 
L 120.822201 126.144 
L 125.093971 126.144 
L 129.365742 126.144 
L 133.637512 126.144 
L 137.909282 126.144 
L 142.181053 126.144 
L 146.452823 126.144 
L 150.724593 126.144 
L 154.996364 126.144 
" style="fill:none;stroke:#000000;stroke-dasharray:1,1.65;stroke-dashoffset:0;"/>
   </g>
   <g id="line2d_26">
    <path clip-path="url(#p34c72cfbe8)" d="M 154.996364 126.144 
L 154.996364 122.960842 
L 154.996364 119.777684 
L 154.996364 116.594526 
L 154.996364 113.411368 
L 154.996364 110.228211 
L 154.996364 107.045053 
L 154.996364 103.861895 
L 154.996364 100.678737 
L 154.996364 97.495579 
L 154.996364 94.312421 
L 154.996364 91.129263 
L 154.996364 87.946105 
L 154.996364 84.762947 
L 154.996364 81.579789 
L 154.996364 78.396632 
L 154.996364 75.213474 
L 154.996364 72.030316 
L 154.996364 68.847158 
L 154.996364 65.664 
" style="fill:none;stroke:#000000;stroke-dasharray:1,1.65;stroke-dashoffset:0;"/>
   </g>
   <g id="line2d_27">
    <path clip-path="url(#p34c72cfbe8)" d="M 73.832727 65.664 
L 78.104498 65.664 
L 82.376268 65.664 
L 86.648038 65.664 
L 90.919809 65.664 
L 95.191579 65.664 
L 99.463349 65.664 
L 103.73512 65.664 
L 108.00689 65.664 
L 112.27866 65.664 
L 116.550431 65.664 
L 120.822201 65.664 
L 125.093971 65.664 
L 129.365742 65.664 
L 133.637512 65.664 
L 137.909282 65.664 
L 142.181053 65.664 
L 146.452823 65.664 
L 150.724593 65.664 
L 154.996364 65.664 
" style="fill:none;stroke:#000000;stroke-dasharray:1,1.65;stroke-dashoffset:0;"/>
   </g>
   <g id="line2d_28">
    <path clip-path="url(#p34c72cfbe8)" d="M 236.16 295.488 
L 236.16 289.121684 
L 236.16 282.755368 
L 236.16 276.389053 
L 236.16 270.022737 
L 236.16 263.656421 
L 236.16 257.290105 
L 236.16 250.923789 
L 236.16 244.557474 
L 236.16 238.191158 
L 236.16 231.824842 
L 236.16 225.458526 
L 236.16 219.092211 
L 236.16 212.725895 
L 236.16 206.359579 
L 236.16 199.993263 
L 236.16 193.626947 
L 236.16 187.260632 
L 236.16 180.894316 
L 236.16 174.528 
" style="fill:none;stroke:#000000;stroke-dasharray:1,1.65;stroke-dashoffset:0;"/>
   </g>
   <g id="line2d_29">
    <path clip-path="url(#p34c72cfbe8)" d="M 236.16 295.488 
L 240.43177 295.488 
L 244.703541 295.488 
L 248.975311 295.488 
L 253.247081 295.488 
L 257.518852 295.488 
L 261.790622 295.488 
L 266.062392 295.488 
L 270.334163 295.488 
L 274.605933 295.488 
L 278.877703 295.488 
L 283.149474 295.488 
L 287.421244 295.488 
L 291.693014 295.488 
L 295.964785 295.488 
L 300.236555 295.488 
L 304.508325 295.488 
L 308.780096 295.488 
L 313.051866 295.488 
L 317.323636 295.488 
" style="fill:none;stroke:#000000;stroke-dasharray:1,1.65;stroke-dashoffset:0;"/>
   </g>
   <g id="line2d_30">
    <path clip-path="url(#p34c72cfbe8)" d="M 317.323636 295.488 
L 317.323636 289.121684 
L 317.323636 282.755368 
L 317.323636 276.389053 
L 317.323636 270.022737 
L 317.323636 263.656421 
L 317.323636 257.290105 
L 317.323636 250.923789 
L 317.323636 244.557474 
L 317.323636 238.191158 
L 317.323636 231.824842 
L 317.323636 225.458526 
L 317.323636 219.092211 
L 317.323636 212.725895 
L 317.323636 206.359579 
L 317.323636 199.993263 
L 317.323636 193.626947 
L 317.323636 187.260632 
L 317.323636 180.894316 
L 317.323636 174.528 
" style="fill:none;stroke:#000000;stroke-dasharray:1,1.65;stroke-dashoffset:0;"/>
   </g>
   <g id="line2d_31">
    <path clip-path="url(#p34c72cfbe8)" d="M 236.16 174.528 
L 240.43177 174.528 
L 244.703541 174.528 
L 248.975311 174.528 
L 253.247081 174.528 
L 257.518852 174.528 
L 261.790622 174.528 
L 266.062392 174.528 
L 270.334163 174.528 
L 274.605933 174.528 
L 278.877703 174.528 
L 283.149474 174.528 
L 287.421244 174.528 
L 291.693014 174.528 
L 295.964785 174.528 
L 300.236555 174.528 
L 304.508325 174.528 
L 308.780096 174.528 
L 313.051866 174.528 
L 317.323636 174.528 
" style="fill:none;stroke:#000000;stroke-dasharray:1,1.65;stroke-dashoffset:0;"/>
   </g>
   <g id="line2d_32">
    <path clip-path="url(#p34c72cfbe8)" d="M 154.996364 126.144 
L 159.268134 128.690526 
L 163.539904 131.237053 
L 167.811675 133.783579 
L 172.083445 136.330105 
L 176.355215 138.876632 
L 180.626986 141.423158 
L 184.898756 143.969684 
L 189.170526 146.516211 
L 193.442297 149.062737 
L 197.714067 151.609263 
L 201.985837 154.155789 
L 206.257608 156.702316 
L 210.529378 159.248842 
L 214.801148 161.795368 
L 219.072919 164.341895 
L 223.344689 166.888421 
L 227.616459 169.434947 
L 231.88823 171.981474 
L 236.16 174.528 
" style="fill:none;stroke:#000000;stroke-dasharray:1,1.65;stroke-dashoffset:0;"/>
   </g>
   <g id="line2d_33">
    <path clip-path="url(#p34c72cfbe8)" d="M 246.559345 293.0688 
L 247.209304 293.0688 
L 247.859263 280.649288 
L 248.509222 280.649288 
L 249.159181 262.767666 
L 249.80914 262.767666 
L 250.459099 262.767666 
L 251.109058 251.948585 
L 251.759017 251.948585 
L 252.408976 238.781191 
L 253.058935 238.781191 
L 253.708894 227.862202 
L 254.358853 227.862202 
L 255.008812 222.710161 
L 255.658771 222.661729 
L 256.308731 211.162348 
L 256.95869 211.162348 
L 257.608649 211.162348 
L 258.258608 207.735029 
L 258.908567 207.735029 
L 259.558526 203.5584 
L 260.208485 203.5584 
L 260.858444 201.201048 
L 261.508403 201.201048 
L 262.158362 197.666209 
L 262.808321 197.666209 
L 263.45828 191.778775 
L 264.108239 191.563735 
L 264.758198 191.563735 
L 265.408157 188.780109 
L 266.058116 188.780109 
L 266.708075 187.280538 
L 267.358034 187.280538 
L 268.007993 183.641034 
L 268.657952 183.641034 
L 269.307912 181.821281 
L 269.957871 181.821281 
L 270.60783 181.821281 
L 271.257789 180.48951 
L 271.907748 180.441077 
L 272.557707 179.464881 
L 273.207666 179.464881 
L 273.857625 179.143748 
L 274.507584 179.143748 
L 275.157543 177.645128 
L 275.807502 177.645128 
L 276.457461 176.253553 
L 277.10742 176.146033 
L 277.757379 176.146033 
L 278.407338 175.610812 
L 279.057297 175.610812 
L 279.707256 175.396724 
L 280.357215 175.396724 
L 281.007174 174.647414 
L 281.657133 174.647414 
" style="fill:none;stroke:#000000;stroke-linecap:square;stroke-width:2;"/>
   </g>
   <g id="patch_3">
    <path d="M 57.6 307.584 
L 57.6 41.472 
" style="fill:none;stroke:#000000;stroke-linecap:square;stroke-linejoin:miter;stroke-width:0.8;"/>
   </g>
   <g id="patch_4">
    <path d="M 414.72 307.584 
L 414.72 41.472 
" style="fill:none;stroke:#000000;stroke-linecap:square;stroke-linejoin:miter;stroke-width:0.8;"/>
   </g>
   <g id="patch_5">
    <path d="M 57.6 307.584 
L 414.72 307.584 
" style="fill:none;stroke:#000000;stroke-linecap:square;stroke-linejoin:miter;stroke-width:0.8;"/>
   </g>
   <g id="patch_6">
    <path d="M 57.6 41.472 
L 414.72 41.472 
" style="fill:none;stroke:#000000;stroke-linecap:square;stroke-linejoin:miter;stroke-width:0.8;"/>
   </g>
   <g id="legend_1">
    <g id="patch_7">
     <path d="M 265.56375 256.757687 
L 407.72 256.757687 
Q 409.72 256.757687 409.72 254.757687 
L 409.72 94.298313 
Q 409.72 92.298313 407.72 92.298313 
L 265.56375 92.298313 
Q 263.56375 92.298313 263.56375 94.298313 
L 263.56375 254.757687 
Q 263.56375 256.757687 265.56375 256.757687 
z
" style="fill:#ffffff;opacity:0.8;stroke:#cccccc;stroke-linejoin:miter;"/>
    </g>
    <g id="line2d_34">
     <path d="M 267.56375 100.39675 
L 287.56375 100.39675 
" style="fill:none;stroke:#ff0000;stroke-linecap:square;stroke-opacity:0.8;stroke-width:1.5;"/>
    </g>
    <g id="line2d_35"/>
    <g id="text_15">
     <!-- fold 0 (AUC = 0.9824) -->
     <defs>
      <path d="M 37.109375 75.984375 
L 37.109375 68.5 
L 28.515625 68.5 
Q 23.6875 68.5 21.796875 66.546875 
Q 19.921875 64.59375 19.921875 59.515625 
L 19.921875 54.6875 
L 34.71875 54.6875 
L 34.71875 47.703125 
L 19.921875 47.703125 
L 19.921875 0 
L 10.890625 0 
L 10.890625 47.703125 
L 2.296875 47.703125 
L 2.296875 54.6875 
L 10.890625 54.6875 
L 10.890625 58.5 
Q 10.890625 67.625 15.140625 71.796875 
Q 19.390625 75.984375 28.609375 75.984375 
z
" id="DejaVuSans-102"/>
      <path d="M 45.40625 46.390625 
L 45.40625 75.984375 
L 54.390625 75.984375 
L 54.390625 0 
L 45.40625 0 
L 45.40625 8.203125 
Q 42.578125 3.328125 38.25 0.953125 
Q 33.9375 -1.421875 27.875 -1.421875 
Q 17.96875 -1.421875 11.734375 6.484375 
Q 5.515625 14.40625 5.515625 27.296875 
Q 5.515625 40.1875 11.734375 48.09375 
Q 17.96875 56 27.875 56 
Q 33.9375 56 38.25 53.625 
Q 42.578125 51.265625 45.40625 46.390625 
z
M 14.796875 27.296875 
Q 14.796875 17.390625 18.875 11.75 
Q 22.953125 6.109375 30.078125 6.109375 
Q 37.203125 6.109375 41.296875 11.75 
Q 45.40625 17.390625 45.40625 27.296875 
Q 45.40625 37.203125 41.296875 42.84375 
Q 37.203125 48.484375 30.078125 48.484375 
Q 22.953125 48.484375 18.875 42.84375 
Q 14.796875 37.203125 14.796875 27.296875 
z
" id="DejaVuSans-100"/>
      <path d="M 31 75.875 
Q 24.46875 64.65625 21.28125 53.65625 
Q 18.109375 42.671875 18.109375 31.390625 
Q 18.109375 20.125 21.3125 9.0625 
Q 24.515625 -2 31 -13.1875 
L 23.1875 -13.1875 
Q 15.875 -1.703125 12.234375 9.375 
Q 8.59375 20.453125 8.59375 31.390625 
Q 8.59375 42.28125 12.203125 53.3125 
Q 15.828125 64.359375 23.1875 75.875 
z
" id="DejaVuSans-40"/>
      <path d="M 34.1875 63.1875 
L 20.796875 26.90625 
L 47.609375 26.90625 
z
M 28.609375 72.90625 
L 39.796875 72.90625 
L 67.578125 0 
L 57.328125 0 
L 50.6875 18.703125 
L 17.828125 18.703125 
L 11.1875 0 
L 0.78125 0 
z
" id="DejaVuSans-65"/>
      <path d="M 8.6875 72.90625 
L 18.609375 72.90625 
L 18.609375 28.609375 
Q 18.609375 16.890625 22.84375 11.734375 
Q 27.09375 6.59375 36.625 6.59375 
Q 46.09375 6.59375 50.34375 11.734375 
Q 54.59375 16.890625 54.59375 28.609375 
L 54.59375 72.90625 
L 64.5 72.90625 
L 64.5 27.390625 
Q 64.5 13.140625 57.4375 5.859375 
Q 50.390625 -1.421875 36.625 -1.421875 
Q 22.796875 -1.421875 15.734375 5.859375 
Q 8.6875 13.140625 8.6875 27.390625 
z
" id="DejaVuSans-85"/>
      <path d="M 64.40625 67.28125 
L 64.40625 56.890625 
Q 59.421875 61.53125 53.78125 63.8125 
Q 48.140625 66.109375 41.796875 66.109375 
Q 29.296875 66.109375 22.65625 58.46875 
Q 16.015625 50.828125 16.015625 36.375 
Q 16.015625 21.96875 22.65625 14.328125 
Q 29.296875 6.6875 41.796875 6.6875 
Q 48.140625 6.6875 53.78125 8.984375 
Q 59.421875 11.28125 64.40625 15.921875 
L 64.40625 5.609375 
Q 59.234375 2.09375 53.4375 0.328125 
Q 47.65625 -1.421875 41.21875 -1.421875 
Q 24.65625 -1.421875 15.125 8.703125 
Q 5.609375 18.84375 5.609375 36.375 
Q 5.609375 53.953125 15.125 64.078125 
Q 24.65625 74.21875 41.21875 74.21875 
Q 47.75 74.21875 53.53125 72.484375 
Q 59.328125 70.75 64.40625 67.28125 
z
" id="DejaVuSans-67"/>
      <path d="M 10.59375 45.40625 
L 73.1875 45.40625 
L 73.1875 37.203125 
L 10.59375 37.203125 
z
M 10.59375 25.484375 
L 73.1875 25.484375 
L 73.1875 17.1875 
L 10.59375 17.1875 
z
" id="DejaVuSans-61"/>
      <path d="M 10.984375 1.515625 
L 10.984375 10.5 
Q 14.703125 8.734375 18.5 7.8125 
Q 22.3125 6.890625 25.984375 6.890625 
Q 35.75 6.890625 40.890625 13.453125 
Q 46.046875 20.015625 46.78125 33.40625 
Q 43.953125 29.203125 39.59375 26.953125 
Q 35.25 24.703125 29.984375 24.703125 
Q 19.046875 24.703125 12.671875 31.3125 
Q 6.296875 37.9375 6.296875 49.421875 
Q 6.296875 60.640625 12.9375 67.421875 
Q 19.578125 74.21875 30.609375 74.21875 
Q 43.265625 74.21875 49.921875 64.515625 
Q 56.59375 54.828125 56.59375 36.375 
Q 56.59375 19.140625 48.40625 8.859375 
Q 40.234375 -1.421875 26.421875 -1.421875 
Q 22.703125 -1.421875 18.890625 -0.6875 
Q 15.09375 0.046875 10.984375 1.515625 
z
M 30.609375 32.421875 
Q 37.25 32.421875 41.125 36.953125 
Q 45.015625 41.5 45.015625 49.421875 
Q 45.015625 57.28125 41.125 61.84375 
Q 37.25 66.40625 30.609375 66.40625 
Q 23.96875 66.40625 20.09375 61.84375 
Q 16.21875 57.28125 16.21875 49.421875 
Q 16.21875 41.5 20.09375 36.953125 
Q 23.96875 32.421875 30.609375 32.421875 
z
" id="DejaVuSans-57"/>
      <path d="M 8.015625 75.875 
L 15.828125 75.875 
Q 23.140625 64.359375 26.78125 53.3125 
Q 30.421875 42.28125 30.421875 31.390625 
Q 30.421875 20.453125 26.78125 9.375 
Q 23.140625 -1.703125 15.828125 -13.1875 
L 8.015625 -13.1875 
Q 14.5 -2 17.703125 9.0625 
Q 20.90625 20.125 20.90625 31.390625 
Q 20.90625 42.671875 17.703125 53.65625 
Q 14.5 64.65625 8.015625 75.875 
z
" id="DejaVuSans-41"/>
     </defs>
     <g transform="translate(295.56375 103.89675)scale(0.1 -0.1)">
      <use xlink:href="#DejaVuSans-102"/>
      <use x="35.205078" xlink:href="#DejaVuSans-111"/>
      <use x="96.386719" xlink:href="#DejaVuSans-108"/>
      <use x="124.169922" xlink:href="#DejaVuSans-100"/>
      <use x="187.646484" xlink:href="#DejaVuSans-32"/>
      <use x="219.433594" xlink:href="#DejaVuSans-48"/>
      <use x="283.056641" xlink:href="#DejaVuSans-32"/>
      <use x="314.84375" xlink:href="#DejaVuSans-40"/>
      <use x="353.857422" xlink:href="#DejaVuSans-65"/>
      <use x="422.265625" xlink:href="#DejaVuSans-85"/>
      <use x="495.458984" xlink:href="#DejaVuSans-67"/>
      <use x="565.283203" xlink:href="#DejaVuSans-32"/>
      <use x="597.070312" xlink:href="#DejaVuSans-61"/>
      <use x="680.859375" xlink:href="#DejaVuSans-32"/>
      <use x="712.646484" xlink:href="#DejaVuSans-48"/>
      <use x="776.269531" xlink:href="#DejaVuSans-46"/>
      <use x="808.056641" xlink:href="#DejaVuSans-57"/>
      <use x="871.679688" xlink:href="#DejaVuSans-56"/>
      <use x="935.302734" xlink:href="#DejaVuSans-50"/>
      <use x="998.925781" xlink:href="#DejaVuSans-52"/>
      <use x="1062.548828" xlink:href="#DejaVuSans-41"/>
     </g>
    </g>
    <g id="line2d_36">
     <path d="M 267.56375 115.074875 
L 287.56375 115.074875 
" style="fill:none;stroke:#ff0000;stroke-linecap:square;stroke-opacity:0.8;stroke-width:1.5;"/>
    </g>
    <g id="line2d_37"/>
    <g id="text_16">
     <!-- fold 1 (AUC = 0.9863) -->
     <defs>
      <path d="M 40.578125 39.3125 
Q 47.65625 37.796875 51.625 33 
Q 55.609375 28.21875 55.609375 21.1875 
Q 55.609375 10.40625 48.1875 4.484375 
Q 40.765625 -1.421875 27.09375 -1.421875 
Q 22.515625 -1.421875 17.65625 -0.515625 
Q 12.796875 0.390625 7.625 2.203125 
L 7.625 11.71875 
Q 11.71875 9.328125 16.59375 8.109375 
Q 21.484375 6.890625 26.8125 6.890625 
Q 36.078125 6.890625 40.9375 10.546875 
Q 45.796875 14.203125 45.796875 21.1875 
Q 45.796875 27.640625 41.28125 31.265625 
Q 36.765625 34.90625 28.71875 34.90625 
L 20.21875 34.90625 
L 20.21875 43.015625 
L 29.109375 43.015625 
Q 36.375 43.015625 40.234375 45.921875 
Q 44.09375 48.828125 44.09375 54.296875 
Q 44.09375 59.90625 40.109375 62.90625 
Q 36.140625 65.921875 28.71875 65.921875 
Q 24.65625 65.921875 20.015625 65.03125 
Q 15.375 64.15625 9.8125 62.3125 
L 9.8125 71.09375 
Q 15.4375 72.65625 20.34375 73.4375 
Q 25.25 74.21875 29.59375 74.21875 
Q 40.828125 74.21875 47.359375 69.109375 
Q 53.90625 64.015625 53.90625 55.328125 
Q 53.90625 49.265625 50.4375 45.09375 
Q 46.96875 40.921875 40.578125 39.3125 
z
" id="DejaVuSans-51"/>
     </defs>
     <g transform="translate(295.56375 118.574875)scale(0.1 -0.1)">
      <use xlink:href="#DejaVuSans-102"/>
      <use x="35.205078" xlink:href="#DejaVuSans-111"/>
      <use x="96.386719" xlink:href="#DejaVuSans-108"/>
      <use x="124.169922" xlink:href="#DejaVuSans-100"/>
      <use x="187.646484" xlink:href="#DejaVuSans-32"/>
      <use x="219.433594" xlink:href="#DejaVuSans-49"/>
      <use x="283.056641" xlink:href="#DejaVuSans-32"/>
      <use x="314.84375" xlink:href="#DejaVuSans-40"/>
      <use x="353.857422" xlink:href="#DejaVuSans-65"/>
      <use x="422.265625" xlink:href="#DejaVuSans-85"/>
      <use x="495.458984" xlink:href="#DejaVuSans-67"/>
      <use x="565.283203" xlink:href="#DejaVuSans-32"/>
      <use x="597.070312" xlink:href="#DejaVuSans-61"/>
      <use x="680.859375" xlink:href="#DejaVuSans-32"/>
      <use x="712.646484" xlink:href="#DejaVuSans-48"/>
      <use x="776.269531" xlink:href="#DejaVuSans-46"/>
      <use x="808.056641" xlink:href="#DejaVuSans-57"/>
      <use x="871.679688" xlink:href="#DejaVuSans-56"/>
      <use x="935.302734" xlink:href="#DejaVuSans-54"/>
      <use x="998.925781" xlink:href="#DejaVuSans-51"/>
      <use x="1062.548828" xlink:href="#DejaVuSans-41"/>
     </g>
    </g>
    <g id="line2d_38">
     <path d="M 267.56375 129.753 
L 287.56375 129.753 
" style="fill:none;stroke:#ff0000;stroke-linecap:square;stroke-opacity:0.8;stroke-width:1.5;"/>
    </g>
    <g id="line2d_39"/>
    <g id="text_17">
     <!-- fold 2 (AUC = 0.9827) -->
     <defs>
      <path d="M 8.203125 72.90625 
L 55.078125 72.90625 
L 55.078125 68.703125 
L 28.609375 0 
L 18.3125 0 
L 43.21875 64.59375 
L 8.203125 64.59375 
z
" id="DejaVuSans-55"/>
     </defs>
     <g transform="translate(295.56375 133.253)scale(0.1 -0.1)">
      <use xlink:href="#DejaVuSans-102"/>
      <use x="35.205078" xlink:href="#DejaVuSans-111"/>
      <use x="96.386719" xlink:href="#DejaVuSans-108"/>
      <use x="124.169922" xlink:href="#DejaVuSans-100"/>
      <use x="187.646484" xlink:href="#DejaVuSans-32"/>
      <use x="219.433594" xlink:href="#DejaVuSans-50"/>
      <use x="283.056641" xlink:href="#DejaVuSans-32"/>
      <use x="314.84375" xlink:href="#DejaVuSans-40"/>
      <use x="353.857422" xlink:href="#DejaVuSans-65"/>
      <use x="422.265625" xlink:href="#DejaVuSans-85"/>
      <use x="495.458984" xlink:href="#DejaVuSans-67"/>
      <use x="565.283203" xlink:href="#DejaVuSans-32"/>
      <use x="597.070312" xlink:href="#DejaVuSans-61"/>
      <use x="680.859375" xlink:href="#DejaVuSans-32"/>
      <use x="712.646484" xlink:href="#DejaVuSans-48"/>
      <use x="776.269531" xlink:href="#DejaVuSans-46"/>
      <use x="808.056641" xlink:href="#DejaVuSans-57"/>
      <use x="871.679688" xlink:href="#DejaVuSans-56"/>
      <use x="935.302734" xlink:href="#DejaVuSans-50"/>
      <use x="998.925781" xlink:href="#DejaVuSans-55"/>
      <use x="1062.548828" xlink:href="#DejaVuSans-41"/>
     </g>
    </g>
    <g id="line2d_40">
     <path d="M 267.56375 144.431125 
L 287.56375 144.431125 
" style="fill:none;stroke:#ff0000;stroke-linecap:square;stroke-opacity:0.8;stroke-width:1.5;"/>
    </g>
    <g id="line2d_41"/>
    <g id="text_18">
     <!-- fold 3 (AUC = 0.9843) -->
     <g transform="translate(295.56375 147.931125)scale(0.1 -0.1)">
      <use xlink:href="#DejaVuSans-102"/>
      <use x="35.205078" xlink:href="#DejaVuSans-111"/>
      <use x="96.386719" xlink:href="#DejaVuSans-108"/>
      <use x="124.169922" xlink:href="#DejaVuSans-100"/>
      <use x="187.646484" xlink:href="#DejaVuSans-32"/>
      <use x="219.433594" xlink:href="#DejaVuSans-51"/>
      <use x="283.056641" xlink:href="#DejaVuSans-32"/>
      <use x="314.84375" xlink:href="#DejaVuSans-40"/>
      <use x="353.857422" xlink:href="#DejaVuSans-65"/>
      <use x="422.265625" xlink:href="#DejaVuSans-85"/>
      <use x="495.458984" xlink:href="#DejaVuSans-67"/>
      <use x="565.283203" xlink:href="#DejaVuSans-32"/>
      <use x="597.070312" xlink:href="#DejaVuSans-61"/>
      <use x="680.859375" xlink:href="#DejaVuSans-32"/>
      <use x="712.646484" xlink:href="#DejaVuSans-48"/>
      <use x="776.269531" xlink:href="#DejaVuSans-46"/>
      <use x="808.056641" xlink:href="#DejaVuSans-57"/>
      <use x="871.679688" xlink:href="#DejaVuSans-56"/>
      <use x="935.302734" xlink:href="#DejaVuSans-52"/>
      <use x="998.925781" xlink:href="#DejaVuSans-51"/>
      <use x="1062.548828" xlink:href="#DejaVuSans-41"/>
     </g>
    </g>
    <g id="line2d_42">
     <path d="M 267.56375 159.10925 
L 287.56375 159.10925 
" style="fill:none;stroke:#ff0000;stroke-linecap:square;stroke-opacity:0.8;stroke-width:1.5;"/>
    </g>
    <g id="line2d_43"/>
    <g id="text_19">
     <!-- fold 4 (AUC = 0.9706) -->
     <g transform="translate(295.56375 162.60925)scale(0.1 -0.1)">
      <use xlink:href="#DejaVuSans-102"/>
      <use x="35.205078" xlink:href="#DejaVuSans-111"/>
      <use x="96.386719" xlink:href="#DejaVuSans-108"/>
      <use x="124.169922" xlink:href="#DejaVuSans-100"/>
      <use x="187.646484" xlink:href="#DejaVuSans-32"/>
      <use x="219.433594" xlink:href="#DejaVuSans-52"/>
      <use x="283.056641" xlink:href="#DejaVuSans-32"/>
      <use x="314.84375" xlink:href="#DejaVuSans-40"/>
      <use x="353.857422" xlink:href="#DejaVuSans-65"/>
      <use x="422.265625" xlink:href="#DejaVuSans-85"/>
      <use x="495.458984" xlink:href="#DejaVuSans-67"/>
      <use x="565.283203" xlink:href="#DejaVuSans-32"/>
      <use x="597.070312" xlink:href="#DejaVuSans-61"/>
      <use x="680.859375" xlink:href="#DejaVuSans-32"/>
      <use x="712.646484" xlink:href="#DejaVuSans-48"/>
      <use x="776.269531" xlink:href="#DejaVuSans-46"/>
      <use x="808.056641" xlink:href="#DejaVuSans-57"/>
      <use x="871.679688" xlink:href="#DejaVuSans-55"/>
      <use x="935.302734" xlink:href="#DejaVuSans-48"/>
      <use x="998.925781" xlink:href="#DejaVuSans-54"/>
      <use x="1062.548828" xlink:href="#DejaVuSans-41"/>
     </g>
    </g>
    <g id="line2d_44">
     <path d="M 267.56375 173.787375 
L 287.56375 173.787375 
" style="fill:none;stroke:#ff0000;stroke-linecap:square;stroke-opacity:0.8;stroke-width:1.5;"/>
    </g>
    <g id="line2d_45"/>
    <g id="text_20">
     <!-- fold 5 (AUC = 0.9820) -->
     <defs>
      <path d="M 10.796875 72.90625 
L 49.515625 72.90625 
L 49.515625 64.59375 
L 19.828125 64.59375 
L 19.828125 46.734375 
Q 21.96875 47.46875 24.109375 47.828125 
Q 26.265625 48.1875 28.421875 48.1875 
Q 40.625 48.1875 47.75 41.5 
Q 54.890625 34.8125 54.890625 23.390625 
Q 54.890625 11.625 47.5625 5.09375 
Q 40.234375 -1.421875 26.90625 -1.421875 
Q 22.3125 -1.421875 17.546875 -0.640625 
Q 12.796875 0.140625 7.71875 1.703125 
L 7.71875 11.625 
Q 12.109375 9.234375 16.796875 8.0625 
Q 21.484375 6.890625 26.703125 6.890625 
Q 35.15625 6.890625 40.078125 11.328125 
Q 45.015625 15.765625 45.015625 23.390625 
Q 45.015625 31 40.078125 35.4375 
Q 35.15625 39.890625 26.703125 39.890625 
Q 22.75 39.890625 18.8125 39.015625 
Q 14.890625 38.140625 10.796875 36.28125 
z
" id="DejaVuSans-53"/>
     </defs>
     <g transform="translate(295.56375 177.287375)scale(0.1 -0.1)">
      <use xlink:href="#DejaVuSans-102"/>
      <use x="35.205078" xlink:href="#DejaVuSans-111"/>
      <use x="96.386719" xlink:href="#DejaVuSans-108"/>
      <use x="124.169922" xlink:href="#DejaVuSans-100"/>
      <use x="187.646484" xlink:href="#DejaVuSans-32"/>
      <use x="219.433594" xlink:href="#DejaVuSans-53"/>
      <use x="283.056641" xlink:href="#DejaVuSans-32"/>
      <use x="314.84375" xlink:href="#DejaVuSans-40"/>
      <use x="353.857422" xlink:href="#DejaVuSans-65"/>
      <use x="422.265625" xlink:href="#DejaVuSans-85"/>
      <use x="495.458984" xlink:href="#DejaVuSans-67"/>
      <use x="565.283203" xlink:href="#DejaVuSans-32"/>
      <use x="597.070312" xlink:href="#DejaVuSans-61"/>
      <use x="680.859375" xlink:href="#DejaVuSans-32"/>
      <use x="712.646484" xlink:href="#DejaVuSans-48"/>
      <use x="776.269531" xlink:href="#DejaVuSans-46"/>
      <use x="808.056641" xlink:href="#DejaVuSans-57"/>
      <use x="871.679688" xlink:href="#DejaVuSans-56"/>
      <use x="935.302734" xlink:href="#DejaVuSans-50"/>
      <use x="998.925781" xlink:href="#DejaVuSans-48"/>
      <use x="1062.548828" xlink:href="#DejaVuSans-41"/>
     </g>
    </g>
    <g id="line2d_46">
     <path d="M 267.56375 188.4655 
L 287.56375 188.4655 
" style="fill:none;stroke:#ff0000;stroke-linecap:square;stroke-opacity:0.8;stroke-width:1.5;"/>
    </g>
    <g id="line2d_47"/>
    <g id="text_21">
     <!-- fold 6 (AUC = 0.9840) -->
     <g transform="translate(295.56375 191.9655)scale(0.1 -0.1)">
      <use xlink:href="#DejaVuSans-102"/>
      <use x="35.205078" xlink:href="#DejaVuSans-111"/>
      <use x="96.386719" xlink:href="#DejaVuSans-108"/>
      <use x="124.169922" xlink:href="#DejaVuSans-100"/>
      <use x="187.646484" xlink:href="#DejaVuSans-32"/>
      <use x="219.433594" xlink:href="#DejaVuSans-54"/>
      <use x="283.056641" xlink:href="#DejaVuSans-32"/>
      <use x="314.84375" xlink:href="#DejaVuSans-40"/>
      <use x="353.857422" xlink:href="#DejaVuSans-65"/>
      <use x="422.265625" xlink:href="#DejaVuSans-85"/>
      <use x="495.458984" xlink:href="#DejaVuSans-67"/>
      <use x="565.283203" xlink:href="#DejaVuSans-32"/>
      <use x="597.070312" xlink:href="#DejaVuSans-61"/>
      <use x="680.859375" xlink:href="#DejaVuSans-32"/>
      <use x="712.646484" xlink:href="#DejaVuSans-48"/>
      <use x="776.269531" xlink:href="#DejaVuSans-46"/>
      <use x="808.056641" xlink:href="#DejaVuSans-57"/>
      <use x="871.679688" xlink:href="#DejaVuSans-56"/>
      <use x="935.302734" xlink:href="#DejaVuSans-52"/>
      <use x="998.925781" xlink:href="#DejaVuSans-48"/>
      <use x="1062.548828" xlink:href="#DejaVuSans-41"/>
     </g>
    </g>
    <g id="line2d_48">
     <path d="M 267.56375 203.143625 
L 287.56375 203.143625 
" style="fill:none;stroke:#ff0000;stroke-linecap:square;stroke-opacity:0.8;stroke-width:1.5;"/>
    </g>
    <g id="line2d_49"/>
    <g id="text_22">
     <!-- fold 7 (AUC = 0.9750) -->
     <g transform="translate(295.56375 206.643625)scale(0.1 -0.1)">
      <use xlink:href="#DejaVuSans-102"/>
      <use x="35.205078" xlink:href="#DejaVuSans-111"/>
      <use x="96.386719" xlink:href="#DejaVuSans-108"/>
      <use x="124.169922" xlink:href="#DejaVuSans-100"/>
      <use x="187.646484" xlink:href="#DejaVuSans-32"/>
      <use x="219.433594" xlink:href="#DejaVuSans-55"/>
      <use x="283.056641" xlink:href="#DejaVuSans-32"/>
      <use x="314.84375" xlink:href="#DejaVuSans-40"/>
      <use x="353.857422" xlink:href="#DejaVuSans-65"/>
      <use x="422.265625" xlink:href="#DejaVuSans-85"/>
      <use x="495.458984" xlink:href="#DejaVuSans-67"/>
      <use x="565.283203" xlink:href="#DejaVuSans-32"/>
      <use x="597.070312" xlink:href="#DejaVuSans-61"/>
      <use x="680.859375" xlink:href="#DejaVuSans-32"/>
      <use x="712.646484" xlink:href="#DejaVuSans-48"/>
      <use x="776.269531" xlink:href="#DejaVuSans-46"/>
      <use x="808.056641" xlink:href="#DejaVuSans-57"/>
      <use x="871.679688" xlink:href="#DejaVuSans-55"/>
      <use x="935.302734" xlink:href="#DejaVuSans-53"/>
      <use x="998.925781" xlink:href="#DejaVuSans-48"/>
      <use x="1062.548828" xlink:href="#DejaVuSans-41"/>
     </g>
    </g>
    <g id="line2d_50">
     <path d="M 267.56375 217.82175 
L 287.56375 217.82175 
" style="fill:none;stroke:#ff0000;stroke-linecap:square;stroke-opacity:0.8;stroke-width:1.5;"/>
    </g>
    <g id="line2d_51"/>
    <g id="text_23">
     <!-- fold 8 (AUC = 0.9792) -->
     <g transform="translate(295.56375 221.32175)scale(0.1 -0.1)">
      <use xlink:href="#DejaVuSans-102"/>
      <use x="35.205078" xlink:href="#DejaVuSans-111"/>
      <use x="96.386719" xlink:href="#DejaVuSans-108"/>
      <use x="124.169922" xlink:href="#DejaVuSans-100"/>
      <use x="187.646484" xlink:href="#DejaVuSans-32"/>
      <use x="219.433594" xlink:href="#DejaVuSans-56"/>
      <use x="283.056641" xlink:href="#DejaVuSans-32"/>
      <use x="314.84375" xlink:href="#DejaVuSans-40"/>
      <use x="353.857422" xlink:href="#DejaVuSans-65"/>
      <use x="422.265625" xlink:href="#DejaVuSans-85"/>
      <use x="495.458984" xlink:href="#DejaVuSans-67"/>
      <use x="565.283203" xlink:href="#DejaVuSans-32"/>
      <use x="597.070312" xlink:href="#DejaVuSans-61"/>
      <use x="680.859375" xlink:href="#DejaVuSans-32"/>
      <use x="712.646484" xlink:href="#DejaVuSans-48"/>
      <use x="776.269531" xlink:href="#DejaVuSans-46"/>
      <use x="808.056641" xlink:href="#DejaVuSans-57"/>
      <use x="871.679688" xlink:href="#DejaVuSans-55"/>
      <use x="935.302734" xlink:href="#DejaVuSans-57"/>
      <use x="998.925781" xlink:href="#DejaVuSans-50"/>
      <use x="1062.548828" xlink:href="#DejaVuSans-41"/>
     </g>
    </g>
    <g id="line2d_52">
     <path d="M 267.56375 232.499875 
L 287.56375 232.499875 
" style="fill:none;stroke:#ff0000;stroke-linecap:square;stroke-opacity:0.8;stroke-width:1.5;"/>
    </g>
    <g id="line2d_53"/>
    <g id="text_24">
     <!-- fold 9 (AUC = 0.9840) -->
     <g transform="translate(295.56375 235.999875)scale(0.1 -0.1)">
      <use xlink:href="#DejaVuSans-102"/>
      <use x="35.205078" xlink:href="#DejaVuSans-111"/>
      <use x="96.386719" xlink:href="#DejaVuSans-108"/>
      <use x="124.169922" xlink:href="#DejaVuSans-100"/>
      <use x="187.646484" xlink:href="#DejaVuSans-32"/>
      <use x="219.433594" xlink:href="#DejaVuSans-57"/>
      <use x="283.056641" xlink:href="#DejaVuSans-32"/>
      <use x="314.84375" xlink:href="#DejaVuSans-40"/>
      <use x="353.857422" xlink:href="#DejaVuSans-65"/>
      <use x="422.265625" xlink:href="#DejaVuSans-85"/>
      <use x="495.458984" xlink:href="#DejaVuSans-67"/>
      <use x="565.283203" xlink:href="#DejaVuSans-32"/>
      <use x="597.070312" xlink:href="#DejaVuSans-61"/>
      <use x="680.859375" xlink:href="#DejaVuSans-32"/>
      <use x="712.646484" xlink:href="#DejaVuSans-48"/>
      <use x="776.269531" xlink:href="#DejaVuSans-46"/>
      <use x="808.056641" xlink:href="#DejaVuSans-57"/>
      <use x="871.679688" xlink:href="#DejaVuSans-56"/>
      <use x="935.302734" xlink:href="#DejaVuSans-52"/>
      <use x="998.925781" xlink:href="#DejaVuSans-48"/>
      <use x="1062.548828" xlink:href="#DejaVuSans-41"/>
     </g>
    </g>
    <g id="line2d_54">
     <path d="M 267.56375 247.178 
L 287.56375 247.178 
" style="fill:none;stroke:#000000;stroke-linecap:square;stroke-width:2;"/>
    </g>
    <g id="line2d_55"/>
    <g id="text_25">
     <!-- Mean (AUC = 0.9809) -->
     <defs>
      <path d="M 9.8125 72.90625 
L 24.515625 72.90625 
L 43.109375 23.296875 
L 61.8125 72.90625 
L 76.515625 72.90625 
L 76.515625 0 
L 66.890625 0 
L 66.890625 64.015625 
L 48.09375 14.015625 
L 38.1875 14.015625 
L 19.390625 64.015625 
L 19.390625 0 
L 9.8125 0 
z
" id="DejaVuSans-77"/>
      <path d="M 54.890625 33.015625 
L 54.890625 0 
L 45.90625 0 
L 45.90625 32.71875 
Q 45.90625 40.484375 42.875 44.328125 
Q 39.84375 48.1875 33.796875 48.1875 
Q 26.515625 48.1875 22.3125 43.546875 
Q 18.109375 38.921875 18.109375 30.90625 
L 18.109375 0 
L 9.078125 0 
L 9.078125 54.6875 
L 18.109375 54.6875 
L 18.109375 46.1875 
Q 21.34375 51.125 25.703125 53.5625 
Q 30.078125 56 35.796875 56 
Q 45.21875 56 50.046875 50.171875 
Q 54.890625 44.34375 54.890625 33.015625 
z
" id="DejaVuSans-110"/>
     </defs>
     <g transform="translate(295.56375 250.678)scale(0.1 -0.1)">
      <use xlink:href="#DejaVuSans-77"/>
      <use x="86.279297" xlink:href="#DejaVuSans-101"/>
      <use x="147.802734" xlink:href="#DejaVuSans-97"/>
      <use x="209.082031" xlink:href="#DejaVuSans-110"/>
      <use x="272.460938" xlink:href="#DejaVuSans-32"/>
      <use x="304.248047" xlink:href="#DejaVuSans-40"/>
      <use x="343.261719" xlink:href="#DejaVuSans-65"/>
      <use x="411.669922" xlink:href="#DejaVuSans-85"/>
      <use x="484.863281" xlink:href="#DejaVuSans-67"/>
      <use x="554.6875" xlink:href="#DejaVuSans-32"/>
      <use x="586.474609" xlink:href="#DejaVuSans-61"/>
      <use x="670.263672" xlink:href="#DejaVuSans-32"/>
      <use x="702.050781" xlink:href="#DejaVuSans-48"/>
      <use x="765.673828" xlink:href="#DejaVuSans-46"/>
      <use x="797.460938" xlink:href="#DejaVuSans-57"/>
      <use x="861.083984" xlink:href="#DejaVuSans-56"/>
      <use x="924.707031" xlink:href="#DejaVuSans-48"/>
      <use x="988.330078" xlink:href="#DejaVuSans-57"/>
      <use x="1051.953125" xlink:href="#DejaVuSans-41"/>
     </g>
    </g>
   </g>
  </g>
 </g>
 <defs>
  <clipPath id="p34c72cfbe8">
   <rect height="266.112" width="357.12" x="57.6" y="41.472"/>
  </clipPath>
 </defs>
</svg>
