<?xml version="1.0" encoding="utf-8" standalone="no"?>
<!DOCTYPE svg PUBLIC "-//W3C//DTD SVG 1.1//EN"
  "http://www.w3.org/Graphics/SVG/1.1/DTD/svg11.dtd">
<!-- Created with matplotlib (https://matplotlib.org/) -->
<svg height="345.6pt" version="1.1" viewBox="0 0 460.8 345.6" width="460.8pt" xmlns="http://www.w3.org/2000/svg" xmlns:xlink="http://www.w3.org/1999/xlink">
 <defs>
  <style type="text/css">
*{stroke-linecap:butt;stroke-linejoin:round;}
  </style>
 </defs>
 <g id="figure_1">
  <g id="patch_1">
   <path d="M 0 345.6 
L 460.8 345.6 
L 460.8 0 
L 0 0 
z
" style="fill:#ffffff;"/>
  </g>
  <g id="axes_1">
   <g id="patch_2">
    <path d="M 57.6 307.584 
L 414.72 307.584 
L 414.72 41.472 
L 57.6 41.472 
z
" style="fill:#ffffff;"/>
   </g>
   <g id="matplotlib.axis_1">
    <g id="xtick_1">
     <g id="line2d_1">
      <defs>
       <path d="M 0 0 
L 0 3.5 
" id="mecd9903c31" style="stroke:#000000;stroke-width:0.8;"/>
      </defs>
      <g>
       <use style="stroke:#000000;stroke-width:0.8;" x="73.832727" xlink:href="#mecd9903c31" y="307.584"/>
      </g>
     </g>
     <g id="text_1">
      <!-- 0.0 -->
      <defs>
       <path d="M 31.78125 66.40625 
Q 24.171875 66.40625 20.328125 58.90625 
Q 16.5 51.421875 16.5 36.375 
Q 16.5 21.390625 20.328125 13.890625 
Q 24.171875 6.390625 31.78125 6.390625 
Q 39.453125 6.390625 43.28125 13.890625 
Q 47.125 21.390625 47.125 36.375 
Q 47.125 51.421875 43.28125 58.90625 
Q 39.453125 66.40625 31.78125 66.40625 
z
M 31.78125 74.21875 
Q 44.046875 74.21875 50.515625 64.515625 
Q 56.984375 54.828125 56.984375 36.375 
Q 56.984375 17.96875 50.515625 8.265625 
Q 44.046875 -1.421875 31.78125 -1.421875 
Q 19.53125 -1.421875 13.0625 8.265625 
Q 6.59375 17.96875 6.59375 36.375 
Q 6.59375 54.828125 13.0625 64.515625 
Q 19.53125 74.21875 31.78125 74.21875 
z
" id="DejaVuSans-48"/>
       <path d="M 10.6875 12.40625 
L 21 12.40625 
L 21 0 
L 10.6875 0 
z
" id="DejaVuSans-46"/>
      </defs>
      <g transform="translate(65.881165 322.182437)scale(0.1 -0.1)">
       <use xlink:href="#DejaVuSans-48"/>
       <use x="63.623047" xlink:href="#DejaVuSans-46"/>
       <use x="95.410156" xlink:href="#DejaVuSans-48"/>
      </g>
     </g>
    </g>
    <g id="xtick_2">
     <g id="line2d_2">
      <g>
       <use style="stroke:#000000;stroke-width:0.8;" x="138.763636" xlink:href="#mecd9903c31" y="307.584"/>
      </g>
     </g>
     <g id="text_2">
      <!-- 0.2 -->
      <defs>
       <path d="M 19.1875 8.296875 
L 53.609375 8.296875 
L 53.609375 0 
L 7.328125 0 
L 7.328125 8.296875 
Q 12.9375 14.109375 22.625 23.890625 
Q 32.328125 33.6875 34.8125 36.53125 
Q 39.546875 41.84375 41.421875 45.53125 
Q 43.3125 49.21875 43.3125 52.78125 
Q 43.3125 58.59375 39.234375 62.25 
Q 35.15625 65.921875 28.609375 65.921875 
Q 23.96875 65.921875 18.8125 64.3125 
Q 13.671875 62.703125 7.8125 59.421875 
L 7.8125 69.390625 
Q 13.765625 71.78125 18.9375 73 
Q 24.125 74.21875 28.421875 74.21875 
Q 39.75 74.21875 46.484375 68.546875 
Q 53.21875 62.890625 53.21875 53.421875 
Q 53.21875 48.921875 51.53125 44.890625 
Q 49.859375 40.875 45.40625 35.40625 
Q 44.1875 33.984375 37.640625 27.21875 
Q 31.109375 20.453125 19.1875 8.296875 
z
" id="DejaVuSans-50"/>
      </defs>
      <g transform="translate(130.812074 322.182437)scale(0.1 -0.1)">
       <use xlink:href="#DejaVuSans-48"/>
       <use x="63.623047" xlink:href="#DejaVuSans-46"/>
       <use x="95.410156" xlink:href="#DejaVuSans-50"/>
      </g>
     </g>
    </g>
    <g id="xtick_3">
     <g id="line2d_3">
      <g>
       <use style="stroke:#000000;stroke-width:0.8;" x="203.694545" xlink:href="#mecd9903c31" y="307.584"/>
      </g>
     </g>
     <g id="text_3">
      <!-- 0.4 -->
      <defs>
       <path d="M 37.796875 64.3125 
L 12.890625 25.390625 
L 37.796875 25.390625 
z
M 35.203125 72.90625 
L 47.609375 72.90625 
L 47.609375 25.390625 
L 58.015625 25.390625 
L 58.015625 17.1875 
L 47.609375 17.1875 
L 47.609375 0 
L 37.796875 0 
L 37.796875 17.1875 
L 4.890625 17.1875 
L 4.890625 26.703125 
z
" id="DejaVuSans-52"/>
      </defs>
      <g transform="translate(195.742983 322.182437)scale(0.1 -0.1)">
       <use xlink:href="#DejaVuSans-48"/>
       <use x="63.623047" xlink:href="#DejaVuSans-46"/>
       <use x="95.410156" xlink:href="#DejaVuSans-52"/>
      </g>
     </g>
    </g>
    <g id="xtick_4">
     <g id="line2d_4">
      <g>
       <use style="stroke:#000000;stroke-width:0.8;" x="268.625455" xlink:href="#mecd9903c31" y="307.584"/>
      </g>
     </g>
     <g id="text_4">
      <!-- 0.6 -->
      <defs>
       <path d="M 33.015625 40.375 
Q 26.375 40.375 22.484375 35.828125 
Q 18.609375 31.296875 18.609375 23.390625 
Q 18.609375 15.53125 22.484375 10.953125 
Q 26.375 6.390625 33.015625 6.390625 
Q 39.65625 6.390625 43.53125 10.953125 
Q 47.40625 15.53125 47.40625 23.390625 
Q 47.40625 31.296875 43.53125 35.828125 
Q 39.65625 40.375 33.015625 40.375 
z
M 52.59375 71.296875 
L 52.59375 62.3125 
Q 48.875 64.0625 45.09375 64.984375 
Q 41.3125 65.921875 37.59375 65.921875 
Q 27.828125 65.921875 22.671875 59.328125 
Q 17.53125 52.734375 16.796875 39.40625 
Q 19.671875 43.65625 24.015625 45.921875 
Q 28.375 48.1875 33.59375 48.1875 
Q 44.578125 48.1875 50.953125 41.515625 
Q 57.328125 34.859375 57.328125 23.390625 
Q 57.328125 12.15625 50.6875 5.359375 
Q 44.046875 -1.421875 33.015625 -1.421875 
Q 20.359375 -1.421875 13.671875 8.265625 
Q 6.984375 17.96875 6.984375 36.375 
Q 6.984375 53.65625 15.1875 63.9375 
Q 23.390625 74.21875 37.203125 74.21875 
Q 40.921875 74.21875 44.703125 73.484375 
Q 48.484375 72.75 52.59375 71.296875 
z
" id="DejaVuSans-54"/>
      </defs>
      <g transform="translate(260.673892 322.182437)scale(0.1 -0.1)">
       <use xlink:href="#DejaVuSans-48"/>
       <use x="63.623047" xlink:href="#DejaVuSans-46"/>
       <use x="95.410156" xlink:href="#DejaVuSans-54"/>
      </g>
     </g>
    </g>
    <g id="xtick_5">
     <g id="line2d_5">
      <g>
       <use style="stroke:#000000;stroke-width:0.8;" x="333.556364" xlink:href="#mecd9903c31" y="307.584"/>
      </g>
     </g>
     <g id="text_5">
      <!-- 0.8 -->
      <defs>
       <path d="M 31.78125 34.625 
Q 24.75 34.625 20.71875 30.859375 
Q 16.703125 27.09375 16.703125 20.515625 
Q 16.703125 13.921875 20.71875 10.15625 
Q 24.75 6.390625 31.78125 6.390625 
Q 38.8125 6.390625 42.859375 10.171875 
Q 46.921875 13.96875 46.921875 20.515625 
Q 46.921875 27.09375 42.890625 30.859375 
Q 38.875 34.625 31.78125 34.625 
z
M 21.921875 38.8125 
Q 15.578125 40.375 12.03125 44.71875 
Q 8.5 49.078125 8.5 55.328125 
Q 8.5 64.0625 14.71875 69.140625 
Q 20.953125 74.21875 31.78125 74.21875 
Q 42.671875 74.21875 48.875 69.140625 
Q 55.078125 64.0625 55.078125 55.328125 
Q 55.078125 49.078125 51.53125 44.71875 
Q 48 40.375 41.703125 38.8125 
Q 48.828125 37.15625 52.796875 32.3125 
Q 56.78125 27.484375 56.78125 20.515625 
Q 56.78125 9.90625 50.3125 4.234375 
Q 43.84375 -1.421875 31.78125 -1.421875 
Q 19.734375 -1.421875 13.25 4.234375 
Q 6.78125 9.90625 6.78125 20.515625 
Q 6.78125 27.484375 10.78125 32.3125 
Q 14.796875 37.15625 21.921875 38.8125 
z
M 18.3125 54.390625 
Q 18.3125 48.734375 21.84375 45.5625 
Q 25.390625 42.390625 31.78125 42.390625 
Q 38.140625 42.390625 41.71875 45.5625 
Q 45.3125 48.734375 45.3125 54.390625 
Q 45.3125 60.0625 41.71875 63.234375 
Q 38.140625 66.40625 31.78125 66.40625 
Q 25.390625 66.40625 21.84375 63.234375 
Q 18.3125 60.0625 18.3125 54.390625 
z
" id="DejaVuSans-56"/>
      </defs>
      <g transform="translate(325.604801 322.182437)scale(0.1 -0.1)">
       <use xlink:href="#DejaVuSans-48"/>
       <use x="63.623047" xlink:href="#DejaVuSans-46"/>
       <use x="95.410156" xlink:href="#DejaVuSans-56"/>
      </g>
     </g>
    </g>
    <g id="xtick_6">
     <g id="line2d_6">
      <g>
       <use style="stroke:#000000;stroke-width:0.8;" x="398.487273" xlink:href="#mecd9903c31" y="307.584"/>
      </g>
     </g>
     <g id="text_6">
      <!-- 1.0 -->
      <defs>
       <path d="M 12.40625 8.296875 
L 28.515625 8.296875 
L 28.515625 63.921875 
L 10.984375 60.40625 
L 10.984375 69.390625 
L 28.421875 72.90625 
L 38.28125 72.90625 
L 38.28125 8.296875 
L 54.390625 8.296875 
L 54.390625 0 
L 12.40625 0 
z
" id="DejaVuSans-49"/>
      </defs>
      <g transform="translate(390.53571 322.182437)scale(0.1 -0.1)">
       <use xlink:href="#DejaVuSans-49"/>
       <use x="63.623047" xlink:href="#DejaVuSans-46"/>
       <use x="95.410156" xlink:href="#DejaVuSans-48"/>
      </g>
     </g>
    </g>
    <g id="text_7">
     <!-- False Positive Rate -->
     <defs>
      <path d="M 9.8125 72.90625 
L 51.703125 72.90625 
L 51.703125 64.59375 
L 19.671875 64.59375 
L 19.671875 43.109375 
L 48.578125 43.109375 
L 48.578125 34.8125 
L 19.671875 34.8125 
L 19.671875 0 
L 9.8125 0 
z
" id="DejaVuSans-70"/>
      <path d="M 34.28125 27.484375 
Q 23.390625 27.484375 19.1875 25 
Q 14.984375 22.515625 14.984375 16.5 
Q 14.984375 11.71875 18.140625 8.90625 
Q 21.296875 6.109375 26.703125 6.109375 
Q 34.1875 6.109375 38.703125 11.40625 
Q 43.21875 16.703125 43.21875 25.484375 
L 43.21875 27.484375 
z
M 52.203125 31.203125 
L 52.203125 0 
L 43.21875 0 
L 43.21875 8.296875 
Q 40.140625 3.328125 35.546875 0.953125 
Q 30.953125 -1.421875 24.3125 -1.421875 
Q 15.921875 -1.421875 10.953125 3.296875 
Q 6 8.015625 6 15.921875 
Q 6 25.140625 12.171875 29.828125 
Q 18.359375 34.515625 30.609375 34.515625 
L 43.21875 34.515625 
L 43.21875 35.40625 
Q 43.21875 41.609375 39.140625 45 
Q 35.0625 48.390625 27.6875 48.390625 
Q 23 48.390625 18.546875 47.265625 
Q 14.109375 46.140625 10.015625 43.890625 
L 10.015625 52.203125 
Q 14.9375 54.109375 19.578125 55.046875 
Q 24.21875 56 28.609375 56 
Q 40.484375 56 46.34375 49.84375 
Q 52.203125 43.703125 52.203125 31.203125 
z
" id="DejaVuSans-97"/>
      <path d="M 9.421875 75.984375 
L 18.40625 75.984375 
L 18.40625 0 
L 9.421875 0 
z
" id="DejaVuSans-108"/>
      <path d="M 44.28125 53.078125 
L 44.28125 44.578125 
Q 40.484375 46.53125 36.375 47.5 
Q 32.28125 48.484375 27.875 48.484375 
Q 21.1875 48.484375 17.84375 46.4375 
Q 14.5 44.390625 14.5 40.28125 
Q 14.5 37.15625 16.890625 35.375 
Q 19.28125 33.59375 26.515625 31.984375 
L 29.59375 31.296875 
Q 39.15625 29.25 43.1875 25.515625 
Q 47.21875 21.78125 47.21875 15.09375 
Q 47.21875 7.46875 41.1875 3.015625 
Q 35.15625 -1.421875 24.609375 -1.421875 
Q 20.21875 -1.421875 15.453125 -0.5625 
Q 10.6875 0.296875 5.421875 2 
L 5.421875 11.28125 
Q 10.40625 8.6875 15.234375 7.390625 
Q 20.0625 6.109375 24.8125 6.109375 
Q 31.15625 6.109375 34.5625 8.28125 
Q 37.984375 10.453125 37.984375 14.40625 
Q 37.984375 18.0625 35.515625 20.015625 
Q 33.0625 21.96875 24.703125 23.78125 
L 21.578125 24.515625 
Q 13.234375 26.265625 9.515625 29.90625 
Q 5.8125 33.546875 5.8125 39.890625 
Q 5.8125 47.609375 11.28125 51.796875 
Q 16.75 56 26.8125 56 
Q 31.78125 56 36.171875 55.265625 
Q 40.578125 54.546875 44.28125 53.078125 
z
" id="DejaVuSans-115"/>
      <path d="M 56.203125 29.59375 
L 56.203125 25.203125 
L 14.890625 25.203125 
Q 15.484375 15.921875 20.484375 11.0625 
Q 25.484375 6.203125 34.421875 6.203125 
Q 39.59375 6.203125 44.453125 7.46875 
Q 49.3125 8.734375 54.109375 11.28125 
L 54.109375 2.78125 
Q 49.265625 0.734375 44.1875 -0.34375 
Q 39.109375 -1.421875 33.890625 -1.421875 
Q 20.796875 -1.421875 13.15625 6.1875 
Q 5.515625 13.8125 5.515625 26.8125 
Q 5.515625 40.234375 12.765625 48.109375 
Q 20.015625 56 32.328125 56 
Q 43.359375 56 49.78125 48.890625 
Q 56.203125 41.796875 56.203125 29.59375 
z
M 47.21875 32.234375 
Q 47.125 39.59375 43.09375 43.984375 
Q 39.0625 48.390625 32.421875 48.390625 
Q 24.90625 48.390625 20.390625 44.140625 
Q 15.875 39.890625 15.1875 32.171875 
z
" id="DejaVuSans-101"/>
      <path id="DejaVuSans-32"/>
      <path d="M 19.671875 64.796875 
L 19.671875 37.40625 
L 32.078125 37.40625 
Q 38.96875 37.40625 42.71875 40.96875 
Q 46.484375 44.53125 46.484375 51.125 
Q 46.484375 57.671875 42.71875 61.234375 
Q 38.96875 64.796875 32.078125 64.796875 
z
M 9.8125 72.90625 
L 32.078125 72.90625 
Q 44.34375 72.90625 50.609375 67.359375 
Q 56.890625 61.8125 56.890625 51.125 
Q 56.890625 40.328125 50.609375 34.8125 
Q 44.34375 29.296875 32.078125 29.296875 
L 19.671875 29.296875 
L 19.671875 0 
L 9.8125 0 
z
" id="DejaVuSans-80"/>
      <path d="M 30.609375 48.390625 
Q 23.390625 48.390625 19.1875 42.75 
Q 14.984375 37.109375 14.984375 27.296875 
Q 14.984375 17.484375 19.15625 11.84375 
Q 23.34375 6.203125 30.609375 6.203125 
Q 37.796875 6.203125 41.984375 11.859375 
Q 46.1875 17.53125 46.1875 27.296875 
Q 46.1875 37.015625 41.984375 42.703125 
Q 37.796875 48.390625 30.609375 48.390625 
z
M 30.609375 56 
Q 42.328125 56 49.015625 48.375 
Q 55.71875 40.765625 55.71875 27.296875 
Q 55.71875 13.875 49.015625 6.21875 
Q 42.328125 -1.421875 30.609375 -1.421875 
Q 18.84375 -1.421875 12.171875 6.21875 
Q 5.515625 13.875 5.515625 27.296875 
Q 5.515625 40.765625 12.171875 48.375 
Q 18.84375 56 30.609375 56 
z
" id="DejaVuSans-111"/>
      <path d="M 9.421875 54.6875 
L 18.40625 54.6875 
L 18.40625 0 
L 9.421875 0 
z
M 9.421875 75.984375 
L 18.40625 75.984375 
L 18.40625 64.59375 
L 9.421875 64.59375 
z
" id="DejaVuSans-105"/>
      <path d="M 18.3125 70.21875 
L 18.3125 54.6875 
L 36.8125 54.6875 
L 36.8125 47.703125 
L 18.3125 47.703125 
L 18.3125 18.015625 
Q 18.3125 11.328125 20.140625 9.421875 
Q 21.96875 7.515625 27.59375 7.515625 
L 36.8125 7.515625 
L 36.8125 0 
L 27.59375 0 
Q 17.1875 0 13.234375 3.875 
Q 9.28125 7.765625 9.28125 18.015625 
L 9.28125 47.703125 
L 2.6875 47.703125 
L 2.6875 54.6875 
L 9.28125 54.6875 
L 9.28125 70.21875 
z
" id="DejaVuSans-116"/>
      <path d="M 2.984375 54.6875 
L 12.5 54.6875 
L 29.59375 8.796875 
L 46.6875 54.6875 
L 56.203125 54.6875 
L 35.6875 0 
L 23.484375 0 
z
" id="DejaVuSans-118"/>
      <path d="M 44.390625 34.1875 
Q 47.5625 33.109375 50.5625 29.59375 
Q 53.5625 26.078125 56.59375 19.921875 
L 66.609375 0 
L 56 0 
L 46.6875 18.703125 
Q 43.0625 26.03125 39.671875 28.421875 
Q 36.28125 30.8125 30.421875 30.8125 
L 19.671875 30.8125 
L 19.671875 0 
L 9.8125 0 
L 9.8125 72.90625 
L 32.078125 72.90625 
Q 44.578125 72.90625 50.734375 67.671875 
Q 56.890625 62.453125 56.890625 51.90625 
Q 56.890625 45.015625 53.6875 40.46875 
Q 50.484375 35.9375 44.390625 34.1875 
z
M 19.671875 64.796875 
L 19.671875 38.921875 
L 32.078125 38.921875 
Q 39.203125 38.921875 42.84375 42.21875 
Q 46.484375 45.515625 46.484375 51.90625 
Q 46.484375 58.296875 42.84375 61.546875 
Q 39.203125 64.796875 32.078125 64.796875 
z
" id="DejaVuSans-82"/>
     </defs>
     <g transform="translate(174.792891 338.140094)scale(0.13 -0.13)">
      <use xlink:href="#DejaVuSans-70"/>
      <use x="57.378906" xlink:href="#DejaVuSans-97"/>
      <use x="118.658203" xlink:href="#DejaVuSans-108"/>
      <use x="146.441406" xlink:href="#DejaVuSans-115"/>
      <use x="198.541016" xlink:href="#DejaVuSans-101"/>
      <use x="260.064453" xlink:href="#DejaVuSans-32"/>
      <use x="291.851562" xlink:href="#DejaVuSans-80"/>
      <use x="352.107422" xlink:href="#DejaVuSans-111"/>
      <use x="413.289062" xlink:href="#DejaVuSans-115"/>
      <use x="465.388672" xlink:href="#DejaVuSans-105"/>
      <use x="493.171875" xlink:href="#DejaVuSans-116"/>
      <use x="532.380859" xlink:href="#DejaVuSans-105"/>
      <use x="560.164062" xlink:href="#DejaVuSans-118"/>
      <use x="619.34375" xlink:href="#DejaVuSans-101"/>
      <use x="680.867188" xlink:href="#DejaVuSans-32"/>
      <use x="712.654297" xlink:href="#DejaVuSans-82"/>
      <use x="782.105469" xlink:href="#DejaVuSans-97"/>
      <use x="843.384766" xlink:href="#DejaVuSans-116"/>
      <use x="882.59375" xlink:href="#DejaVuSans-101"/>
     </g>
    </g>
   </g>
   <g id="matplotlib.axis_2">
    <g id="ytick_1">
     <g id="line2d_7">
      <defs>
       <path d="M 0 0 
L -3.5 0 
" id="m1110f6f4c7" style="stroke:#000000;stroke-width:0.8;"/>
      </defs>
      <g>
       <use style="stroke:#000000;stroke-width:0.8;" x="57.6" xlink:href="#m1110f6f4c7" y="295.488"/>
      </g>
     </g>
     <g id="text_8">
      <!-- 0.0 -->
      <g transform="translate(34.696875 299.287219)scale(0.1 -0.1)">
       <use xlink:href="#DejaVuSans-48"/>
       <use x="63.623047" xlink:href="#DejaVuSans-46"/>
       <use x="95.410156" xlink:href="#DejaVuSans-48"/>
      </g>
     </g>
    </g>
    <g id="ytick_2">
     <g id="line2d_8">
      <g>
       <use style="stroke:#000000;stroke-width:0.8;" x="57.6" xlink:href="#m1110f6f4c7" y="247.104"/>
      </g>
     </g>
     <g id="text_9">
      <!-- 0.2 -->
      <g transform="translate(34.696875 250.903219)scale(0.1 -0.1)">
       <use xlink:href="#DejaVuSans-48"/>
       <use x="63.623047" xlink:href="#DejaVuSans-46"/>
       <use x="95.410156" xlink:href="#DejaVuSans-50"/>
      </g>
     </g>
    </g>
    <g id="ytick_3">
     <g id="line2d_9">
      <g>
       <use style="stroke:#000000;stroke-width:0.8;" x="57.6" xlink:href="#m1110f6f4c7" y="198.72"/>
      </g>
     </g>
     <g id="text_10">
      <!-- 0.4 -->
      <g transform="translate(34.696875 202.519219)scale(0.1 -0.1)">
       <use xlink:href="#DejaVuSans-48"/>
       <use x="63.623047" xlink:href="#DejaVuSans-46"/>
       <use x="95.410156" xlink:href="#DejaVuSans-52"/>
      </g>
     </g>
    </g>
    <g id="ytick_4">
     <g id="line2d_10">
      <g>
       <use style="stroke:#000000;stroke-width:0.8;" x="57.6" xlink:href="#m1110f6f4c7" y="150.336"/>
      </g>
     </g>
     <g id="text_11">
      <!-- 0.6 -->
      <g transform="translate(34.696875 154.135219)scale(0.1 -0.1)">
       <use xlink:href="#DejaVuSans-48"/>
       <use x="63.623047" xlink:href="#DejaVuSans-46"/>
       <use x="95.410156" xlink:href="#DejaVuSans-54"/>
      </g>
     </g>
    </g>
    <g id="ytick_5">
     <g id="line2d_11">
      <g>
       <use style="stroke:#000000;stroke-width:0.8;" x="57.6" xlink:href="#m1110f6f4c7" y="101.952"/>
      </g>
     </g>
     <g id="text_12">
      <!-- 0.8 -->
      <g transform="translate(34.696875 105.751219)scale(0.1 -0.1)">
       <use xlink:href="#DejaVuSans-48"/>
       <use x="63.623047" xlink:href="#DejaVuSans-46"/>
       <use x="95.410156" xlink:href="#DejaVuSans-56"/>
      </g>
     </g>
    </g>
    <g id="ytick_6">
     <g id="line2d_12">
      <g>
       <use style="stroke:#000000;stroke-width:0.8;" x="57.6" xlink:href="#m1110f6f4c7" y="53.568"/>
      </g>
     </g>
     <g id="text_13">
      <!-- 1.0 -->
      <g transform="translate(34.696875 57.367219)scale(0.1 -0.1)">
       <use xlink:href="#DejaVuSans-49"/>
       <use x="63.623047" xlink:href="#DejaVuSans-46"/>
       <use x="95.410156" xlink:href="#DejaVuSans-48"/>
      </g>
     </g>
    </g>
    <g id="text_14">
     <!-- True Positive Rate -->
     <defs>
      <path d="M -0.296875 72.90625 
L 61.375 72.90625 
L 61.375 64.59375 
L 35.5 64.59375 
L 35.5 0 
L 25.59375 0 
L 25.59375 64.59375 
L -0.296875 64.59375 
z
" id="DejaVuSans-84"/>
      <path d="M 41.109375 46.296875 
Q 39.59375 47.171875 37.8125 47.578125 
Q 36.03125 48 33.890625 48 
Q 26.265625 48 22.1875 43.046875 
Q 18.109375 38.09375 18.109375 28.8125 
L 18.109375 0 
L 9.078125 0 
L 9.078125 54.6875 
L 18.109375 54.6875 
L 18.109375 46.1875 
Q 20.953125 51.171875 25.484375 53.578125 
Q 30.03125 56 36.53125 56 
Q 37.453125 56 38.578125 55.875 
Q 39.703125 55.765625 41.0625 55.515625 
z
" id="DejaVuSans-114"/>
      <path d="M 8.5 21.578125 
L 8.5 54.6875 
L 17.484375 54.6875 
L 17.484375 21.921875 
Q 17.484375 14.15625 20.5 10.265625 
Q 23.53125 6.390625 29.59375 6.390625 
Q 36.859375 6.390625 41.078125 11.03125 
Q 45.3125 15.671875 45.3125 23.6875 
L 45.3125 54.6875 
L 54.296875 54.6875 
L 54.296875 0 
L 45.3125 0 
L 45.3125 8.40625 
Q 42.046875 3.421875 37.71875 1 
Q 33.40625 -1.421875 27.6875 -1.421875 
Q 18.265625 -1.421875 13.375 4.4375 
Q 8.5 10.296875 8.5 21.578125 
z
M 31.109375 56 
z
" id="DejaVuSans-117"/>
     </defs>
     <g transform="translate(27.993281 233.737922)rotate(-90)scale(0.13 -0.13)">
      <use xlink:href="#DejaVuSans-84"/>
      <use x="60.865234" xlink:href="#DejaVuSans-114"/>
      <use x="101.978516" xlink:href="#DejaVuSans-117"/>
      <use x="165.357422" xlink:href="#DejaVuSans-101"/>
      <use x="226.880859" xlink:href="#DejaVuSans-32"/>
      <use x="258.667969" xlink:href="#DejaVuSans-80"/>
      <use x="318.923828" xlink:href="#DejaVuSans-111"/>
      <use x="380.105469" xlink:href="#DejaVuSans-115"/>
      <use x="432.205078" xlink:href="#DejaVuSans-105"/>
      <use x="459.988281" xlink:href="#DejaVuSans-116"/>
      <use x="499.197266" xlink:href="#DejaVuSans-105"/>
      <use x="526.980469" xlink:href="#DejaVuSans-118"/>
      <use x="586.160156" xlink:href="#DejaVuSans-101"/>
      <use x="647.683594" xlink:href="#DejaVuSans-32"/>
      <use x="679.470703" xlink:href="#DejaVuSans-82"/>
      <use x="748.921875" xlink:href="#DejaVuSans-97"/>
      <use x="810.201172" xlink:href="#DejaVuSans-116"/>
      <use x="849.410156" xlink:href="#DejaVuSans-101"/>
     </g>
    </g>
   </g>
   <g id="line2d_13">
    <path clip-path="url(#pde8cca6f8b)" d="M 73.832727 295.488 
L 73.832727 295.488 
L 86.043186 117.259327 
L 86.043186 116.188885 
L 86.761448 116.188885 
L 86.761448 115.118442 
L 87.47971 115.118442 
L 87.47971 112.977558 
L 88.916235 112.977558 
L 88.916235 111.907115 
L 90.352759 111.907115 
L 90.352759 109.231009 
L 91.071022 109.231009 
L 91.071022 107.625345 
L 91.789284 107.625345 
L 91.789284 103.878796 
L 92.507546 103.878796 
L 92.507546 97.456142 
L 93.944071 97.456142 
L 93.944071 95.850478 
L 94.662333 95.850478 
L 94.662333 95.315257 
L 95.380595 95.315257 
L 95.380595 93.709593 
L 96.81712 93.709593 
L 96.81712 92.63915 
L 98.971907 92.63915 
L 98.971907 90.498265 
L 100.408431 90.498265 
L 100.408431 89.427823 
L 101.126693 89.427823 
L 101.126693 88.892602 
L 102.563218 88.892602 
L 102.563218 88.357381 
L 103.999743 88.357381 
L 103.999743 86.216496 
L 104.718005 86.216496 
L 104.718005 85.681274 
L 108.309316 85.681274 
L 108.309316 85.146053 
L 109.027578 85.146053 
L 109.027578 84.075611 
L 110.464103 84.075611 
L 110.464103 83.005168 
L 111.182365 83.005168 
L 111.182365 82.469947 
L 112.61889 82.469947 
L 112.61889 80.329062 
L 116.210201 80.329062 
L 116.210201 79.793841 
L 118.364988 79.793841 
L 118.364988 78.188177 
L 121.238037 78.188177 
L 121.238037 77.652956 
L 124.829348 77.652956 
L 124.829348 76.582513 
L 125.547611 76.582513 
L 125.547611 76.047292 
L 126.265873 76.047292 
L 126.265873 75.512071 
L 129.138922 75.512071 
L 129.138922 74.97685 
L 132.011971 74.97685 
L 132.011971 74.441628 
L 136.321545 74.441628 
L 136.321545 73.371186 
L 138.476331 73.371186 
L 138.476331 72.835965 
L 147.095479 72.835965 
L 147.095479 72.300743 
L 147.813741 72.300743 
L 147.813741 70.159858 
L 149.250265 70.159858 
L 149.250265 69.089416 
L 154.996364 69.089416 
L 154.996364 68.554195 
L 168.643347 68.554195 
L 168.643347 68.018973 
L 169.361609 68.018973 
L 169.361609 67.483752 
L 171.516396 67.483752 
L 171.516396 66.41331 
L 172.234658 66.41331 
L 172.234658 65.878088 
L 174.389445 65.878088 
L 174.389445 65.342867 
L 178.699019 65.342867 
L 178.699019 64.807646 
L 180.135543 64.807646 
L 180.135543 64.272425 
L 181.572068 64.272425 
L 181.572068 63.737204 
L 191.627739 63.737204 
L 191.627739 63.201982 
L 195.219051 63.201982 
L 195.219051 62.13154 
L 199.528624 62.13154 
L 199.528624 61.596319 
L 205.992985 61.596319 
L 205.992985 60.525876 
L 206.711247 60.525876 
L 206.711247 59.990655 
L 212.457345 59.990655 
L 212.457345 59.455434 
L 216.048656 59.455434 
L 216.048656 58.920212 
L 218.203443 58.920212 
L 218.203443 58.384991 
L 218.921706 58.384991 
L 218.921706 57.84977 
L 246.933934 57.84977 
L 246.933934 57.314549 
L 287.156621 57.314549 
L 287.156621 56.779327 
L 297.212293 56.779327 
L 297.212293 56.244106 
L 324.506259 56.244106 
L 324.506259 55.708885 
L 343.181078 55.708885 
L 343.181078 55.173664 
L 343.89934 55.173664 
L 343.89934 54.638442 
L 384.122027 54.638442 
L 384.122027 54.103221 
L 386.995076 54.103221 
L 386.995076 53.568 
L 398.487273 53.568 
" style="fill:none;stroke:#ff0000;stroke-linecap:square;stroke-opacity:0.8;stroke-width:1.5;"/>
   </g>
   <g id="line2d_14">
    <path clip-path="url(#pde8cca6f8b)" d="M 73.832727 295.488 
L 73.832727 295.488 
L 88.197973 127.428531 
L 89.634497 126.358088 
L 89.634497 124.217204 
L 89.634497 123.146761 
L 90.352759 123.146761 
L 90.352759 120.470655 
L 91.071022 120.470655 
L 91.071022 119.935434 
L 91.789284 119.935434 
L 91.789284 117.259327 
L 93.225809 117.259327 
L 93.225809 112.442336 
L 93.944071 112.442336 
L 93.944071 111.371894 
L 95.380595 111.371894 
L 95.380595 110.301451 
L 96.098858 110.301451 
L 96.098858 106.554903 
L 96.81712 106.554903 
L 96.81712 105.48446 
L 97.535382 105.48446 
L 97.535382 101.20269 
L 98.253644 101.20269 
L 98.253644 100.667469 
L 98.971907 100.667469 
L 98.971907 100.132248 
L 99.690169 100.132248 
L 99.690169 89.963044 
L 100.408431 89.963044 
L 100.408431 88.892602 
L 101.126693 88.892602 
L 101.126693 88.357381 
L 101.844956 88.357381 
L 101.844956 87.822159 
L 102.563218 87.822159 
L 102.563218 86.216496 
L 103.999743 86.216496 
L 103.999743 84.610832 
L 107.591054 84.610832 
L 107.591054 81.399504 
L 108.309316 81.399504 
L 108.309316 80.864283 
L 109.745841 80.864283 
L 109.745841 78.723398 
L 114.055414 78.723398 
L 114.055414 78.188177 
L 115.491939 78.188177 
L 115.491939 77.652956 
L 116.210201 77.652956 
L 116.210201 76.047292 
L 117.646726 76.047292 
L 117.646726 75.512071 
L 121.956299 75.512071 
L 121.956299 74.441628 
L 129.138922 74.441628 
L 129.138922 73.906407 
L 130.575447 73.906407 
L 130.575447 72.835965 
L 131.293709 72.835965 
L 131.293709 72.300743 
L 134.166758 72.300743 
L 134.166758 71.765522 
L 137.039807 71.765522 
L 137.039807 71.230301 
L 138.476331 71.230301 
L 138.476331 70.69508 
L 148.532003 70.69508 
L 148.532003 70.159858 
L 152.123315 70.159858 
L 152.123315 69.624637 
L 152.841577 69.624637 
L 152.841577 68.554195 
L 154.278101 68.554195 
L 154.278101 67.483752 
L 154.996364 67.483752 
L 154.996364 66.41331 
L 155.714626 66.41331 
L 155.714626 65.878088 
L 157.869413 65.878088 
L 157.869413 65.342867 
L 159.305937 65.342867 
L 159.305937 64.807646 
L 161.460724 64.807646 
L 161.460724 64.272425 
L 169.361609 64.272425 
L 169.361609 63.201982 
L 170.079871 63.201982 
L 170.079871 62.666761 
L 174.389445 62.666761 
L 174.389445 62.13154 
L 175.825969 62.13154 
L 175.825969 61.596319 
L 176.544232 61.596319 
L 176.544232 61.061097 
L 180.135543 61.061097 
L 180.135543 60.525876 
L 185.881641 60.525876 
L 185.881641 59.990655 
L 186.599903 59.990655 
L 186.599903 59.455434 
L 229.69564 59.455434 
L 229.69564 58.920212 
L 236.878262 58.920212 
L 236.878262 58.384991 
L 246.215672 58.384991 
L 246.215672 57.84977 
L 249.088721 57.84977 
L 249.088721 57.314549 
L 253.398294 57.314549 
L 253.398294 56.779327 
L 264.890491 56.779327 
L 264.890491 56.244106 
L 275.664425 56.244106 
L 275.664425 55.708885 
L 327.379308 55.708885 
L 327.379308 55.173664 
L 339.589767 55.173664 
L 339.589767 54.638442 
L 376.221142 54.638442 
L 376.221142 54.103221 
L 386.995076 54.103221 
L 386.995076 53.568 
L 398.487273 53.568 
" style="fill:none;stroke:#ff0000;stroke-linecap:square;stroke-opacity:0.8;stroke-width:1.5;"/>
   </g>
   <g id="line2d_15">
    <path clip-path="url(#pde8cca6f8b)" d="M 73.832727 295.488 
L 73.832727 295.488 
L 89.634497 124.752425 
L 89.634497 123.681982 
L 90.352759 123.681982 
L 90.352759 123.146761 
L 91.071022 123.146761 
L 91.071022 122.076319 
L 92.507546 122.076319 
L 92.507546 121.005876 
L 93.225809 121.005876 
L 93.225809 110.836673 
L 93.944071 110.836673 
L 93.944071 108.160566 
L 94.662333 108.160566 
L 94.662333 103.878796 
L 96.098858 103.878796 
L 96.098858 100.667469 
L 96.81712 100.667469 
L 96.81712 97.991363 
L 97.535382 97.991363 
L 97.535382 96.92092 
L 98.253644 96.92092 
L 98.253644 94.244814 
L 98.971907 94.244814 
L 98.971907 91.568708 
L 100.408431 91.568708 
L 100.408431 89.427823 
L 102.563218 89.427823 
L 102.563218 88.892602 
L 103.28148 88.892602 
L 103.28148 87.822159 
L 103.999743 87.822159 
L 103.999743 87.286938 
L 105.436267 87.286938 
L 105.436267 85.681274 
L 106.154529 85.681274 
L 106.154529 85.146053 
L 106.872792 85.146053 
L 106.872792 84.610832 
L 107.591054 84.610832 
L 107.591054 84.075611 
L 108.309316 84.075611 
L 108.309316 83.540389 
L 110.464103 83.540389 
L 110.464103 83.005168 
L 111.900628 83.005168 
L 111.900628 82.469947 
L 112.61889 82.469947 
L 112.61889 80.864283 
L 115.491939 80.864283 
L 115.491939 77.652956 
L 123.392824 77.652956 
L 123.392824 76.047292 
L 125.547611 76.047292 
L 125.547611 75.512071 
L 130.575447 75.512071 
L 130.575447 74.97685 
L 131.293709 74.97685 
L 131.293709 74.441628 
L 133.448496 74.441628 
L 133.448496 73.906407 
L 137.039807 73.906407 
L 137.039807 73.371186 
L 141.349381 73.371186 
L 141.349381 72.300743 
L 144.22243 72.300743 
L 144.22243 71.765522 
L 147.095479 71.765522 
L 147.095479 71.230301 
L 158.587675 71.230301 
L 158.587675 70.69508 
L 160.742462 70.69508 
L 160.742462 70.159858 
L 161.460724 70.159858 
L 161.460724 69.624637 
L 163.615511 69.624637 
L 163.615511 68.554195 
L 166.48856 68.554195 
L 166.48856 68.018973 
L 174.389445 68.018973 
L 174.389445 67.483752 
L 177.262494 67.483752 
L 177.262494 66.948531 
L 179.417281 66.948531 
L 179.417281 66.41331 
L 189.472953 66.41331 
L 189.472953 65.878088 
L 191.627739 65.878088 
L 191.627739 65.342867 
L 192.346002 65.342867 
L 192.346002 64.272425 
L 197.373837 64.272425 
L 197.373837 63.737204 
L 200.246887 63.737204 
L 200.246887 63.201982 
L 204.55646 63.201982 
L 204.55646 62.666761 
L 209.584296 62.666761 
L 209.584296 61.061097 
L 215.330394 61.061097 
L 215.330394 60.525876 
L 226.822591 60.525876 
L 226.822591 59.990655 
L 230.413902 59.990655 
L 230.413902 59.455434 
L 233.286951 59.455434 
L 233.286951 58.920212 
L 237.596525 58.920212 
L 237.596525 58.384991 
L 238.314787 58.384991 
L 238.314787 57.314549 
L 242.62436 57.314549 
L 242.62436 56.779327 
L 248.370459 56.779327 
L 248.370459 56.244106 
L 275.664425 56.244106 
L 275.664425 55.708885 
L 285.720097 55.708885 
L 285.720097 55.173664 
L 305.113178 55.173664 
L 305.113178 54.638442 
L 307.986227 54.638442 
L 307.986227 54.103221 
L 353.955012 54.103221 
L 353.955012 53.568 
L 398.487273 53.568 
" style="fill:none;stroke:#ff0000;stroke-linecap:square;stroke-opacity:0.8;stroke-width:1.5;"/>
   </g>
   <g id="line2d_16">
    <path clip-path="url(#pde8cca6f8b)" d="M 73.832727 295.488 
L 94.662333 126.358088 
L 94.662333 125.287646 
L 96.098858 125.287646 
L 96.098858 124.217204 
L 96.81712 124.217204 
L 96.81712 115.118442 
L 97.535382 115.118442 
L 97.535382 112.442336 
L 98.253644 112.442336 
L 98.253644 108.160566 
L 98.971907 108.160566 
L 98.971907 106.554903 
L 99.690169 106.554903 
L 99.690169 105.48446 
L 100.408431 105.48446 
L 100.408431 101.737912 
L 101.126693 101.737912 
L 101.126693 99.597027 
L 101.844956 99.597027 
L 101.844956 98.526584 
L 102.563218 98.526584 
L 102.563218 97.991363 
L 103.28148 97.991363 
L 103.28148 96.385699 
L 104.718005 96.385699 
L 104.718005 95.315257 
L 105.436267 95.315257 
L 105.436267 92.103929 
L 106.154529 92.103929 
L 106.154529 91.568708 
L 106.872792 91.568708 
L 106.872792 91.033487 
L 107.591054 91.033487 
L 107.591054 88.892602 
L 109.027578 88.892602 
L 109.027578 86.751717 
L 112.61889 86.751717 
L 112.61889 85.146053 
L 113.337152 85.146053 
L 113.337152 84.610832 
L 114.773677 84.610832 
L 114.773677 84.075611 
L 117.646726 84.075611 
L 117.646726 83.005168 
L 125.547611 83.005168 
L 125.547611 82.469947 
L 126.984135 82.469947 
L 126.984135 81.399504 
L 129.857184 81.399504 
L 129.857184 80.864283 
L 130.575447 80.864283 
L 130.575447 80.329062 
L 131.293709 80.329062 
L 131.293709 79.793841 
L 132.011971 79.793841 
L 132.011971 78.188177 
L 138.476331 78.188177 
L 138.476331 77.652956 
L 139.912856 77.652956 
L 139.912856 77.117735 
L 140.631118 77.117735 
L 140.631118 76.582513 
L 142.067643 76.582513 
L 142.067643 76.047292 
L 142.785905 76.047292 
L 142.785905 75.512071 
L 146.377216 75.512071 
L 146.377216 74.441628 
L 152.841577 74.441628 
L 152.841577 73.371186 
L 153.559839 73.371186 
L 153.559839 72.300743 
L 156.432888 72.300743 
L 156.432888 71.230301 
L 165.770298 71.230301 
L 165.770298 70.69508 
L 167.925084 70.69508 
L 167.925084 70.159858 
L 170.798134 70.159858 
L 170.798134 69.089416 
L 172.234658 69.089416 
L 172.234658 68.554195 
L 174.389445 68.554195 
L 174.389445 67.483752 
L 178.699019 67.483752 
L 178.699019 66.948531 
L 181.572068 66.948531 
L 181.572068 66.41331 
L 184.445117 66.41331 
L 184.445117 65.878088 
L 190.191215 65.878088 
L 190.191215 65.342867 
L 191.627739 65.342867 
L 191.627739 64.807646 
L 199.528624 64.807646 
L 199.528624 64.272425 
L 202.401673 64.272425 
L 202.401673 63.737204 
L 204.55646 63.737204 
L 204.55646 63.201982 
L 211.739083 63.201982 
L 211.739083 62.13154 
L 231.850426 62.13154 
L 231.850426 61.596319 
L 241.187836 61.596319 
L 241.187836 61.061097 
L 258.42613 61.061097 
L 258.42613 60.525876 
L 259.144393 60.525876 
L 259.144393 59.990655 
L 276.382687 59.990655 
L 276.382687 59.455434 
L 278.537474 59.455434 
L 278.537474 58.920212 
L 286.438359 58.920212 
L 286.438359 58.384991 
L 295.057506 58.384991 
L 295.057506 57.84977 
L 297.212293 57.84977 
L 297.212293 56.779327 
L 309.422751 56.779327 
L 309.422751 56.244106 
L 320.196685 56.244106 
L 320.196685 55.708885 
L 336.716718 55.708885 
L 336.716718 55.173664 
L 339.589767 55.173664 
L 339.589767 54.638442 
L 348.927176 54.638442 
L 348.927176 54.103221 
L 362.574159 54.103221 
L 362.574159 53.568 
L 398.487273 53.568 
L 398.487273 53.568 
" style="fill:none;stroke:#ff0000;stroke-linecap:square;stroke-opacity:0.8;stroke-width:1.5;"/>
   </g>
   <g id="line2d_17">
    <path clip-path="url(#pde8cca6f8b)" d="M 73.832727 295.488 
L 98.971907 126.358088 
L 98.971907 122.61154 
L 99.690169 122.61154 
L 99.690169 121.005876 
L 100.408431 121.005876 
L 100.408431 119.400212 
L 101.844956 119.400212 
L 101.844956 118.32977 
L 103.28148 118.32977 
L 103.28148 117.794549 
L 103.999743 117.794549 
L 103.999743 111.907115 
L 104.718005 111.907115 
L 104.718005 110.301451 
L 105.436267 110.301451 
L 105.436267 109.76623 
L 106.872792 109.76623 
L 106.872792 108.160566 
L 108.309316 108.160566 
L 108.309316 106.019681 
L 109.027578 106.019681 
L 109.027578 101.20269 
L 109.745841 101.20269 
L 109.745841 95.850478 
L 110.464103 95.850478 
L 110.464103 93.709593 
L 111.182365 93.709593 
L 111.182365 93.174372 
L 111.900628 93.174372 
L 111.900628 91.568708 
L 112.61889 91.568708 
L 112.61889 90.498265 
L 113.337152 90.498265 
L 113.337152 89.963044 
L 116.928463 89.963044 
L 116.928463 85.146053 
L 120.519775 85.146053 
L 120.519775 83.540389 
L 121.238037 83.540389 
L 121.238037 83.005168 
L 122.674562 83.005168 
L 122.674562 82.469947 
L 123.392824 82.469947 
L 123.392824 81.934726 
L 124.829348 81.934726 
L 124.829348 81.399504 
L 128.42066 81.399504 
L 128.42066 80.329062 
L 130.575447 80.329062 
L 130.575447 79.793841 
L 136.321545 79.793841 
L 136.321545 78.723398 
L 141.349381 78.723398 
L 141.349381 78.188177 
L 143.504167 78.188177 
L 143.504167 77.652956 
L 144.940692 77.652956 
L 144.940692 77.117735 
L 147.095479 77.117735 
L 147.095479 75.512071 
L 148.532003 75.512071 
L 148.532003 74.441628 
L 149.968528 74.441628 
L 149.968528 73.371186 
L 151.405052 73.371186 
L 151.405052 72.835965 
L 153.559839 72.835965 
L 153.559839 72.300743 
L 155.714626 72.300743 
L 155.714626 71.765522 
L 157.869413 71.765522 
L 157.869413 71.230301 
L 158.587675 71.230301 
L 158.587675 70.69508 
L 160.0242 70.69508 
L 160.0242 70.159858 
L 166.48856 70.159858 
L 166.48856 69.624637 
L 172.234658 69.624637 
L 172.234658 69.089416 
L 175.107707 69.089416 
L 175.107707 68.554195 
L 177.980756 68.554195 
L 177.980756 68.018973 
L 180.135543 68.018973 
L 180.135543 67.483752 
L 182.29033 67.483752 
L 182.29033 66.948531 
L 190.191215 66.948531 
L 190.191215 66.41331 
L 195.219051 66.41331 
L 195.219051 65.878088 
L 200.246887 65.878088 
L 200.246887 65.342867 
L 201.683411 65.342867 
L 201.683411 64.807646 
L 203.838198 64.807646 
L 203.838198 64.272425 
L 204.55646 64.272425 
L 204.55646 63.737204 
L 209.584296 63.737204 
L 209.584296 63.201982 
L 212.457345 63.201982 
L 212.457345 62.666761 
L 213.89387 62.666761 
L 213.89387 62.13154 
L 216.048656 62.13154 
L 216.048656 61.596319 
L 236.878262 61.596319 
L 236.878262 61.061097 
L 238.314787 61.061097 
L 238.314787 60.525876 
L 250.525245 60.525876 
L 250.525245 59.455434 
L 262.017442 59.455434 
L 262.017442 58.920212 
L 285.720097 58.920212 
L 285.720097 58.384991 
L 287.156621 58.384991 
L 287.156621 57.84977 
L 292.184457 57.84977 
L 292.184457 57.314549 
L 294.339244 57.314549 
L 294.339244 56.779327 
L 302.240129 56.779327 
L 302.240129 56.244106 
L 306.549702 56.244106 
L 306.549702 55.708885 
L 310.859276 55.708885 
L 310.859276 55.173664 
L 315.887112 55.173664 
L 315.887112 54.638442 
L 323.069735 54.638442 
L 323.069735 54.103221 
L 379.812454 54.103221 
L 379.812454 53.568 
L 398.487273 53.568 
L 398.487273 53.568 
" style="fill:none;stroke:#ff0000;stroke-linecap:square;stroke-opacity:0.8;stroke-width:1.5;"/>
   </g>
   <g id="line2d_18">
    <path clip-path="url(#pde8cca6f8b)" d="M 73.832727 295.488 
L 73.832727 295.488 
L 92.507546 116.724106 
L 93.225809 116.188885 
L 93.225809 110.301451 
L 93.944071 110.301451 
L 93.944071 103.343575 
L 94.662333 103.343575 
L 94.662333 100.132248 
L 95.380595 100.132248 
L 95.380595 99.597027 
L 96.098858 99.597027 
L 96.098858 98.526584 
L 97.535382 98.526584 
L 97.535382 95.315257 
L 99.690169 95.315257 
L 99.690169 92.103929 
L 101.126693 92.103929 
L 101.126693 90.498265 
L 103.999743 90.498265 
L 103.999743 86.751717 
L 106.154529 86.751717 
L 106.154529 83.540389 
L 106.872792 83.540389 
L 106.872792 79.793841 
L 107.591054 79.793841 
L 107.591054 79.258619 
L 108.309316 79.258619 
L 108.309316 78.188177 
L 112.61889 78.188177 
L 112.61889 77.652956 
L 114.773677 77.652956 
L 114.773677 77.117735 
L 119.08325 77.117735 
L 119.08325 76.582513 
L 120.519775 76.582513 
L 120.519775 76.047292 
L 121.956299 76.047292 
L 121.956299 75.512071 
L 128.42066 75.512071 
L 128.42066 74.97685 
L 129.138922 74.97685 
L 129.138922 73.906407 
L 129.857184 73.906407 
L 129.857184 73.371186 
L 130.575447 73.371186 
L 130.575447 72.835965 
L 134.166758 72.835965 
L 134.166758 72.300743 
L 134.88502 72.300743 
L 134.88502 71.765522 
L 143.504167 71.765522 
L 143.504167 71.230301 
L 144.22243 71.230301 
L 144.22243 70.69508 
L 149.250265 70.69508 
L 149.250265 70.159858 
L 150.68679 70.159858 
L 150.68679 69.624637 
L 151.405052 69.624637 
L 151.405052 69.089416 
L 154.278101 69.089416 
L 154.278101 68.554195 
L 159.305937 68.554195 
L 159.305937 68.018973 
L 165.052035 68.018973 
L 165.052035 67.483752 
L 176.544232 67.483752 
L 176.544232 66.948531 
L 179.417281 66.948531 
L 179.417281 66.41331 
L 181.572068 66.41331 
L 181.572068 65.878088 
L 185.163379 65.878088 
L 185.163379 64.807646 
L 187.318166 64.807646 
L 187.318166 64.272425 
L 191.627739 64.272425 
L 191.627739 63.737204 
L 193.782526 63.737204 
L 193.782526 63.201982 
L 194.500788 63.201982 
L 194.500788 62.666761 
L 199.528624 62.666761 
L 199.528624 62.13154 
L 206.711247 62.13154 
L 206.711247 61.061097 
L 226.822591 61.061097 
L 226.822591 60.525876 
L 237.596525 60.525876 
L 237.596525 59.990655 
L 240.469574 59.990655 
L 240.469574 59.455434 
L 241.187836 59.455434 
L 241.187836 58.920212 
L 244.060885 58.920212 
L 244.060885 58.384991 
L 244.779147 58.384991 
L 244.779147 57.84977 
L 246.215672 57.84977 
L 246.215672 56.779327 
L 299.36708 56.779327 
L 299.36708 56.244106 
L 307.267965 56.244106 
L 307.267965 55.708885 
L 338.153242 55.708885 
L 338.153242 55.173664 
L 342.462816 55.173664 
L 342.462816 54.638442 
L 354.673274 54.638442 
L 354.673274 54.103221 
L 377.657667 54.103221 
L 377.657667 53.568 
L 398.487273 53.568 
" style="fill:none;stroke:#ff0000;stroke-linecap:square;stroke-opacity:0.8;stroke-width:1.5;"/>
   </g>
   <g id="line2d_19">
    <path clip-path="url(#pde8cca6f8b)" d="M 73.832727 295.488 
L 92.507546 123.681982 
L 92.507546 119.400212 
L 94.662333 119.400212 
L 94.662333 117.794549 
L 95.380595 117.794549 
L 95.380595 112.977558 
L 96.098858 112.977558 
L 96.098858 111.371894 
L 97.535382 111.371894 
L 97.535382 101.737912 
L 98.253644 101.737912 
L 98.253644 97.456142 
L 99.690169 97.456142 
L 99.690169 95.850478 
L 100.408431 95.850478 
L 100.408431 94.244814 
L 101.126693 94.244814 
L 101.126693 91.568708 
L 102.563218 91.568708 
L 102.563218 90.498265 
L 103.999743 90.498265 
L 103.999743 88.357381 
L 104.718005 88.357381 
L 104.718005 87.822159 
L 107.591054 87.822159 
L 107.591054 87.286938 
L 108.309316 87.286938 
L 108.309316 86.216496 
L 109.745841 86.216496 
L 109.745841 84.075611 
L 111.900628 84.075611 
L 111.900628 83.540389 
L 112.61889 83.540389 
L 112.61889 83.005168 
L 113.337152 83.005168 
L 113.337152 82.469947 
L 115.491939 82.469947 
L 115.491939 80.864283 
L 116.928463 80.864283 
L 116.928463 80.329062 
L 117.646726 80.329062 
L 117.646726 79.793841 
L 118.364988 79.793841 
L 118.364988 78.723398 
L 120.519775 78.723398 
L 120.519775 78.188177 
L 121.238037 78.188177 
L 121.238037 77.117735 
L 123.392824 77.117735 
L 123.392824 76.582513 
L 124.111086 76.582513 
L 124.111086 76.047292 
L 124.829348 76.047292 
L 124.829348 74.97685 
L 125.547611 74.97685 
L 125.547611 73.371186 
L 127.702397 73.371186 
L 127.702397 72.835965 
L 128.42066 72.835965 
L 128.42066 72.300743 
L 129.857184 72.300743 
L 129.857184 71.230301 
L 133.448496 71.230301 
L 133.448496 70.69508 
L 134.166758 70.69508 
L 134.166758 70.159858 
L 134.88502 70.159858 
L 134.88502 69.624637 
L 135.603282 69.624637 
L 135.603282 69.089416 
L 138.476331 69.089416 
L 138.476331 68.554195 
L 143.504167 68.554195 
L 143.504167 68.018973 
L 144.22243 68.018973 
L 144.22243 67.483752 
L 145.658954 67.483752 
L 145.658954 66.948531 
L 146.377216 66.948531 
L 146.377216 66.41331 
L 147.095479 66.41331 
L 147.095479 65.878088 
L 152.123315 65.878088 
L 152.123315 65.342867 
L 152.841577 65.342867 
L 152.841577 64.272425 
L 154.996364 64.272425 
L 154.996364 63.737204 
L 155.714626 63.737204 
L 155.714626 63.201982 
L 163.615511 63.201982 
L 163.615511 62.666761 
L 166.48856 62.666761 
L 166.48856 62.13154 
L 188.036428 62.13154 
L 188.036428 61.596319 
L 197.373837 61.596319 
L 197.373837 60.525876 
L 202.401673 60.525876 
L 202.401673 59.990655 
L 216.766919 59.990655 
L 216.766919 59.455434 
L 222.513017 59.455434 
L 222.513017 58.920212 
L 223.231279 58.920212 
L 223.231279 58.384991 
L 231.132164 58.384991 
L 231.132164 57.84977 
L 234.005213 57.84977 
L 234.005213 57.314549 
L 274.946163 57.314549 
L 274.946163 56.779327 
L 282.128785 56.779327 
L 282.128785 56.244106 
L 287.156621 56.244106 
L 287.156621 55.708885 
L 291.466195 55.708885 
L 291.466195 55.173664 
L 304.394916 55.173664 
L 304.394916 54.638442 
L 315.887112 54.638442 
L 315.887112 54.103221 
L 354.673274 54.103221 
L 354.673274 53.568 
L 398.487273 53.568 
L 398.487273 53.568 
" style="fill:none;stroke:#ff0000;stroke-linecap:square;stroke-opacity:0.8;stroke-width:1.5;"/>
   </g>
   <g id="line2d_20">
    <path clip-path="url(#pde8cca6f8b)" d="M 73.832727 295.488 
L 73.832727 295.488 
L 92.507546 124.217204 
L 92.507546 123.681982 
L 93.225809 122.61154 
L 93.225809 122.076319 
L 93.944071 122.076319 
L 93.944071 120.470655 
L 95.380595 120.470655 
L 95.380595 117.794549 
L 96.098858 117.794549 
L 96.098858 116.724106 
L 96.81712 116.724106 
L 96.81712 110.836673 
L 97.535382 110.836673 
L 97.535382 110.301451 
L 98.253644 110.301451 
L 98.253644 102.808354 
L 98.971907 102.808354 
L 98.971907 102.273133 
L 99.690169 102.273133 
L 99.690169 100.667469 
L 100.408431 100.667469 
L 100.408431 95.850478 
L 101.844956 95.850478 
L 101.844956 93.174372 
L 102.563218 93.174372 
L 102.563218 92.103929 
L 103.999743 92.103929 
L 103.999743 89.963044 
L 105.436267 89.963044 
L 105.436267 89.427823 
L 106.872792 89.427823 
L 106.872792 86.216496 
L 107.591054 86.216496 
L 107.591054 84.610832 
L 108.309316 84.610832 
L 108.309316 82.469947 
L 109.027578 82.469947 
L 109.027578 81.934726 
L 109.745841 81.934726 
L 109.745841 80.864283 
L 110.464103 80.864283 
L 110.464103 79.258619 
L 112.61889 79.258619 
L 112.61889 78.723398 
L 113.337152 78.723398 
L 113.337152 78.188177 
L 114.055414 78.188177 
L 114.055414 77.652956 
L 116.210201 77.652956 
L 116.210201 77.117735 
L 117.646726 77.117735 
L 117.646726 76.582513 
L 119.08325 76.582513 
L 119.08325 74.97685 
L 119.801512 74.97685 
L 119.801512 74.441628 
L 120.519775 74.441628 
L 120.519775 73.906407 
L 121.238037 73.906407 
L 121.238037 73.371186 
L 123.392824 73.371186 
L 123.392824 72.835965 
L 124.111086 72.835965 
L 124.111086 72.300743 
L 124.829348 72.300743 
L 124.829348 71.765522 
L 127.702397 71.765522 
L 127.702397 71.230301 
L 128.42066 71.230301 
L 128.42066 70.69508 
L 129.138922 70.69508 
L 129.138922 70.159858 
L 132.011971 70.159858 
L 132.011971 69.624637 
L 136.321545 69.624637 
L 136.321545 68.554195 
L 142.067643 68.554195 
L 142.067643 68.018973 
L 146.377216 68.018973 
L 146.377216 66.948531 
L 147.095479 66.948531 
L 147.095479 66.41331 
L 152.123315 66.41331 
L 152.123315 65.878088 
L 153.559839 65.878088 
L 153.559839 64.807646 
L 156.432888 64.807646 
L 156.432888 64.272425 
L 157.15115 64.272425 
L 157.15115 63.737204 
L 161.460724 63.737204 
L 161.460724 63.201982 
L 165.052035 63.201982 
L 165.052035 62.666761 
L 167.206822 62.666761 
L 167.206822 62.13154 
L 172.234658 62.13154 
L 172.234658 61.061097 
L 173.671183 61.061097 
L 173.671183 60.525876 
L 198.810362 60.525876 
L 198.810362 59.990655 
L 221.076492 59.990655 
L 221.076492 59.455434 
L 222.513017 59.455434 
L 222.513017 58.920212 
L 239.033049 58.920212 
L 239.033049 58.384991 
L 240.469574 58.384991 
L 240.469574 57.84977 
L 246.933934 57.84977 
L 246.933934 57.314549 
L 264.172228 57.314549 
L 264.172228 56.779327 
L 274.2279 56.779327 
L 274.2279 56.244106 
L 297.212293 56.244106 
L 297.212293 55.708885 
L 354.673274 55.708885 
L 354.673274 54.638442 
L 379.812454 54.638442 
L 379.812454 54.103221 
L 383.403765 54.103221 
L 383.403765 53.568 
L 398.487273 53.568 
" style="fill:none;stroke:#ff0000;stroke-linecap:square;stroke-opacity:0.8;stroke-width:1.5;"/>
   </g>
   <g id="line2d_21">
    <path clip-path="url(#pde8cca6f8b)" d="M 73.832727 295.488 
L 88.197973 127.428531 
L 88.916235 126.89331 
L 88.916235 123.146761 
L 89.634497 123.146761 
L 89.634497 114.048 
L 90.352759 114.048 
L 90.352759 112.977558 
L 91.071022 112.977558 
L 91.071022 107.090124 
L 91.789284 107.090124 
L 91.789284 106.019681 
L 92.507546 106.019681 
L 92.507546 103.878796 
L 93.944071 103.878796 
L 93.944071 101.737912 
L 94.662333 101.737912 
L 94.662333 99.061805 
L 95.380595 99.061805 
L 95.380595 98.526584 
L 96.098858 98.526584 
L 96.098858 97.456142 
L 96.81712 97.456142 
L 96.81712 96.92092 
L 97.535382 96.92092 
L 97.535382 95.850478 
L 98.253644 95.850478 
L 98.253644 95.315257 
L 98.971907 95.315257 
L 98.971907 94.244814 
L 99.690169 94.244814 
L 99.690169 93.709593 
L 100.408431 93.709593 
L 100.408431 93.174372 
L 101.126693 93.174372 
L 101.126693 89.963044 
L 103.28148 89.963044 
L 103.28148 89.427823 
L 103.999743 89.427823 
L 103.999743 87.822159 
L 104.718005 87.822159 
L 104.718005 87.286938 
L 105.436267 87.286938 
L 105.436267 86.751717 
L 106.872792 86.751717 
L 106.872792 85.146053 
L 107.591054 85.146053 
L 107.591054 84.610832 
L 108.309316 84.610832 
L 108.309316 82.469947 
L 109.027578 82.469947 
L 109.027578 81.934726 
L 109.745841 81.934726 
L 109.745841 81.399504 
L 110.464103 81.399504 
L 110.464103 80.864283 
L 115.491939 80.864283 
L 115.491939 80.329062 
L 119.801512 80.329062 
L 119.801512 79.793841 
L 120.519775 79.793841 
L 120.519775 79.258619 
L 121.238037 79.258619 
L 121.238037 78.723398 
L 121.956299 78.723398 
L 121.956299 77.652956 
L 124.111086 77.652956 
L 124.111086 77.117735 
L 125.547611 77.117735 
L 125.547611 76.582513 
L 126.265873 76.582513 
L 126.265873 76.047292 
L 129.138922 76.047292 
L 129.138922 75.512071 
L 130.575447 75.512071 
L 130.575447 74.97685 
L 134.166758 74.97685 
L 134.166758 74.441628 
L 135.603282 74.441628 
L 135.603282 73.906407 
L 138.476331 73.906407 
L 138.476331 72.835965 
L 139.194594 72.835965 
L 139.194594 72.300743 
L 139.912856 72.300743 
L 139.912856 71.765522 
L 141.349381 71.765522 
L 141.349381 71.230301 
L 143.504167 71.230301 
L 143.504167 70.159858 
L 144.22243 70.159858 
L 144.22243 69.624637 
L 144.940692 69.624637 
L 144.940692 68.554195 
L 160.742462 68.554195 
L 160.742462 68.018973 
L 177.980756 68.018973 
L 177.980756 67.483752 
L 179.417281 67.483752 
L 179.417281 66.948531 
L 180.853805 66.948531 
L 180.853805 66.41331 
L 183.726854 66.41331 
L 183.726854 65.878088 
L 193.064264 65.878088 
L 193.064264 65.342867 
L 194.500788 65.342867 
L 194.500788 64.807646 
L 197.373837 64.807646 
L 197.373837 64.272425 
L 201.683411 64.272425 
L 201.683411 63.737204 
L 203.119936 63.737204 
L 203.119936 63.201982 
L 206.711247 63.201982 
L 206.711247 62.666761 
L 211.020821 62.666761 
L 211.020821 62.13154 
L 213.89387 62.13154 
L 213.89387 61.596319 
L 214.612132 61.596319 
L 214.612132 61.061097 
L 215.330394 61.061097 
L 215.330394 60.525876 
L 218.203443 60.525876 
L 218.203443 59.990655 
L 223.231279 59.990655 
L 223.231279 59.455434 
L 223.949541 59.455434 
L 223.949541 58.920212 
L 234.005213 58.920212 
L 234.005213 58.384991 
L 263.453966 58.384991 
L 263.453966 57.84977 
L 278.537474 57.84977 
L 278.537474 57.314549 
L 292.184457 57.314549 
L 292.184457 56.779327 
L 315.16885 56.779327 
L 315.16885 55.708885 
L 316.605374 55.708885 
L 316.605374 55.173664 
L 354.673274 55.173664 
L 354.673274 54.638442 
L 381.967241 54.638442 
L 381.967241 54.103221 
L 392.022912 54.103221 
L 392.022912 53.568 
L 398.487273 53.568 
L 398.487273 53.568 
" style="fill:none;stroke:#ff0000;stroke-linecap:square;stroke-opacity:0.8;stroke-width:1.5;"/>
   </g>
   <g id="line2d_22">
    <path clip-path="url(#pde8cca6f8b)" d="M 73.832727 295.488 
L 73.832727 295.488 
L 88.983273 128.2944 
L 89.704727 126.144 
L 89.704727 123.9936 
L 89.704727 123.456 
L 90.426182 123.456 
L 90.426182 121.8432 
L 91.869091 121.8432 
L 91.869091 120.2304 
L 94.754909 120.2304 
L 94.754909 118.08 
L 95.476364 118.08 
L 95.476364 116.4672 
L 96.919273 116.4672 
L 96.919273 113.7792 
L 97.640727 113.7792 
L 97.640727 104.64 
L 98.362182 104.64 
L 98.362182 104.1024 
L 99.083636 104.1024 
L 99.083636 100.8768 
L 99.805091 100.8768 
L 99.805091 95.5008 
L 100.526545 95.5008 
L 100.526545 92.2752 
L 101.248 92.2752 
L 101.248 91.7376 
L 101.969455 91.7376 
L 101.969455 91.2 
L 103.412364 91.2 
L 103.412364 89.5872 
L 104.855273 89.5872 
L 104.855273 84.2112 
L 106.298182 84.2112 
L 106.298182 83.6736 
L 107.741091 83.6736 
L 107.741091 82.5984 
L 108.462545 82.5984 
L 108.462545 80.9856 
L 109.184 80.9856 
L 109.184 80.448 
L 113.512727 80.448 
L 113.512727 79.3728 
L 114.234182 79.3728 
L 114.234182 78.2976 
L 118.562909 78.2976 
L 118.562909 77.2224 
L 120.005818 77.2224 
L 120.005818 76.1472 
L 120.727273 76.1472 
L 120.727273 75.072 
L 122.891636 75.072 
L 122.891636 73.9968 
L 125.777455 73.9968 
L 125.777455 73.4592 
L 126.498909 73.4592 
L 126.498909 72.9216 
L 127.220364 72.9216 
L 127.220364 71.8464 
L 127.941818 71.8464 
L 127.941818 71.3088 
L 133.713455 71.3088 
L 133.713455 69.696 
L 143.092364 69.696 
L 143.092364 69.1584 
L 146.699636 69.1584 
L 146.699636 68.0832 
L 151.028364 68.0832 
L 151.028364 67.5456 
L 151.749818 67.5456 
L 151.749818 67.008 
L 153.192727 67.008 
L 153.192727 66.4704 
L 159.685818 66.4704 
L 159.685818 65.3952 
L 165.457455 65.3952 
L 165.457455 63.7824 
L 168.343273 63.7824 
L 168.343273 63.2448 
L 179.165091 63.2448 
L 179.165091 62.7072 
L 184.215273 62.7072 
L 184.215273 61.632 
L 187.101091 61.632 
L 187.101091 61.0944 
L 197.201455 61.0944 
L 197.201455 60.5568 
L 203.694545 60.5568 
L 203.694545 60.0192 
L 206.580364 60.0192 
L 206.580364 59.4816 
L 211.630545 59.4816 
L 211.630545 58.944 
L 213.073455 58.944 
L 213.073455 58.4064 
L 216.680727 58.4064 
L 216.680727 57.8688 
L 218.845091 57.8688 
L 218.845091 57.3312 
L 248.424727 57.3312 
L 248.424727 56.7936 
L 263.575273 56.7936 
L 263.575273 56.256 
L 266.461091 56.256 
L 266.461091 55.7184 
L 318.405818 55.7184 
L 318.405818 54.6432 
L 324.177455 54.6432 
L 324.177455 54.1056 
L 394.158545 54.1056 
L 394.158545 53.568 
L 398.487273 53.568 
" style="fill:none;stroke:#ff0000;stroke-linecap:square;stroke-opacity:0.8;stroke-width:1.5;"/>
   </g>
   <g id="line2d_23">
    <path clip-path="url(#pde8cca6f8b)" d="M 73.832727 295.488 
L 86.831908 163.020078 
L 88.456806 149.069164 
L 89.431744 142.540663 
L 89.756724 139.227645 
L 90.081704 137.837026 
L 90.731663 134.19872 
L 91.056642 132.808101 
L 91.381622 130.507605 
L 91.706601 129.116986 
L 92.031581 126.815777 
L 92.35656 125.425158 
L 92.68154 123.036745 
L 93.006519 122.481585 
L 93.331499 119.809167 
L 93.656478 119.326656 
L 93.981458 117.238482 
L 94.631417 116.273459 
L 94.956396 114.476625 
L 95.281376 114.257988 
L 95.606355 112.754105 
L 95.931335 112.535467 
L 96.256314 111.032299 
L 96.581294 110.813661 
L 96.906274 108.561182 
L 97.231253 108.073744 
L 97.556233 105.607177 
L 97.881212 104.474619 
L 98.206192 104.255982 
L 98.531171 102.003265 
L 98.856151 101.784627 
L 99.18113 100.153181 
L 99.50611 100.153181 
L 99.831089 97.635262 
L 100.156069 97.635262 
L 100.481048 95.976076 
L 100.806028 95.653516 
L 101.131007 94.583074 
L 101.780966 94.529314 
L 102.105946 93.940333 
L 102.430925 93.940333 
L 102.755905 93.405112 
L 103.080885 93.405112 
L 103.405864 93.030457 
L 103.730844 92.869177 
L 104.055823 90.888858 
L 104.705782 90.888858 
L 105.030762 89.923081 
L 105.355741 89.923081 
L 105.680721 89.280816 
L 106.0057 89.280816 
L 106.33068 88.798879 
L 106.655659 88.798879 
L 106.980639 87.674914 
L 107.305618 87.674914 
L 107.630598 86.765038 
L 108.280557 86.657518 
L 108.605536 85.479318 
L 108.930516 85.479318 
L 109.255495 84.515681 
L 109.580475 84.515681 
L 109.905455 83.391717 
L 110.230434 83.391717 
L 110.555414 82.802973 
L 111.855332 82.695929 
L 112.180311 82.428319 
L 112.505291 82.428319 
L 112.83027 81.625487 
L 113.15525 81.625487 
L 113.805209 81.303878 
L 115.105127 80.98227 
L 115.430106 80.98227 
L 115.755086 80.393526 
L 116.080066 80.393526 
L 116.405045 80.125916 
L 116.730025 80.125916 
L 117.055004 79.590695 
L 117.379984 79.590695 
L 117.704963 79.323084 
L 118.354922 79.323084 
L 118.679902 78.947953 
L 119.004881 78.947953 
L 119.329861 78.733865 
L 119.97982 78.626821 
L 120.304799 78.519301 
L 120.629779 78.144646 
L 120.954758 78.037126 
L 121.279738 77.715993 
L 121.929697 77.715993 
L 122.254676 77.448382 
L 122.579656 77.448382 
L 122.904636 77.28734 
L 123.229615 77.28734 
L 123.554595 76.966207 
L 123.879574 76.966207 
L 124.204554 76.805641 
L 124.529533 76.805641 
L 124.854513 76.484508 
L 125.504472 76.484508 
L 125.829451 76.056093 
L 126.47941 75.949049 
L 127.454349 75.680725 
L 130.379165 74.717089 
L 130.704144 74.342434 
L 131.029124 74.342434 
L 131.354103 74.181868 
L 132.004062 74.181868 
L 132.329042 73.914257 
L 133.62896 73.807213 
L 134.603898 73.431844 
L 135.253857 73.3248 
L 136.228796 73.217756 
L 136.553776 72.896623 
L 138.178673 72.789579 
L 138.503653 72.468446 
L 139.803571 72.414924 
L 140.45353 72.30788 
L 143.378346 71.825943 
L 143.703325 71.558332 
L 144.028305 71.558332 
L 144.353284 71.344244 
L 144.678264 71.344244 
L 145.003243 71.183677 
L 146.303161 71.130155 
L 146.628141 70.862544 
L 146.95312 70.755024 
L 147.2781 70.38037 
L 147.603079 70.38037 
L 147.928059 70.166281 
L 148.253038 70.166281 
L 148.578018 70.005715 
L 149.227977 70.005715 
L 149.552957 69.845148 
L 150.527895 69.738104 
L 151.827813 69.470018 
L 152.152793 69.309451 
L 152.802752 69.309451 
L 153.127731 68.988319 
L 153.452711 68.934559 
L 153.77769 68.666948 
L 154.10267 68.666948 
L 154.427649 68.506382 
L 154.752629 68.506382 
L 155.077609 68.292293 
L 155.402588 68.292293 
L 155.727568 68.131727 
L 156.377527 68.131727 
L 156.702506 67.97116 
L 157.677445 67.917638 
L 158.652383 67.70355 
L 159.627322 67.596505 
L 160.277281 67.435463 
L 161.252219 67.328419 
L 161.577199 67.167853 
L 163.527076 67.167853 
L 163.852056 67.007286 
L 165.151974 66.900242 
L 165.801933 66.68544 
L 166.451892 66.68544 
L 166.776871 66.524874 
L 168.07679 66.417829 
L 173.926421 65.561238 
L 174.2514 65.561238 
L 174.57638 65.293627 
L 176.526257 65.186583 
L 177.176216 65.079538 
L 183.350827 64.169424 
L 184.000786 64.115902 
L 184.650745 63.95486 
L 185.625684 63.847816 
L 187.575561 63.63349 
L 190.175397 63.526445 
L 190.825356 63.419401 
L 191.475315 63.419401 
L 191.800295 63.205313 
L 192.775233 63.098268 
L 194.075152 62.991224 
L 195.05009 62.88418 
L 195.37507 62.723613 
L 197.324947 62.669853 
L 197.649926 62.455765 
L 199.274824 62.402243 
L 199.599803 62.241676 
L 201.549681 62.134632 
L 202.524619 61.920544 
L 203.824537 61.813262 
L 208.049271 61.22428 
L 209.349189 61.22428 
L 209.674169 61.010192 
L 211.624046 60.95667 
L 211.949025 60.795865 
L 212.923964 60.688821 
L 214.873841 60.474495 
L 215.84878 60.367451 
L 216.823718 60.153124 
L 218.773595 60.04608 
L 219.423554 59.938798 
L 222.34837 59.885276 
L 223.323309 59.671187 
L 226.573104 59.617665 
L 227.223063 59.510621 
L 231.122817 59.403577 
L 232.422735 59.296532 
L 233.722654 59.24301 
L 234.372613 59.135966 
L 237.297428 59.028922 
L 237.947387 58.921878 
L 238.272367 58.921878 
L 238.597346 58.761311 
L 240.222244 58.707789 
L 241.197183 58.493701 
L 244.771957 58.386656 
L 245.746896 58.333134 
L 246.071876 58.333134 
L 246.396855 58.172568 
L 248.346732 58.065524 
L 248.996691 57.958241 
L 249.97163 57.904719 
L 253.221425 57.797675 
L 254.196364 57.744153 
L 261.995872 57.637109 
L 262.970811 57.583587 
L 263.945749 57.476304 
L 265.245667 57.36926 
L 274.670074 57.261978 
L 276.619951 57.04789 
L 281.819623 56.940845 
L 282.794562 56.887323 
L 286.369337 56.780279 
L 288.319214 56.56619 
L 291.893989 56.512668 
L 292.543948 56.405624 
L 297.093661 56.29858 
L 297.41864 56.084491 
L 304.24321 55.977447 
L 305.543129 55.870403 
L 307.817985 55.763359 
L 308.792924 55.709836 
L 314.967535 55.602792 
L 315.942473 55.388704 
L 318.21733 55.335182 
L 318.867289 55.227662 
L 324.066962 55.120617 
L 325.36688 55.013335 
L 338.041081 54.906291 
L 339.01602 54.852769 
L 342.265815 54.745725 
L 343.565733 54.63868 
L 353.640098 54.531636 
L 356.239934 54.210503 
L 377.363604 54.103459 
L 378.338542 54.049937 
L 381.913317 53.942893 
L 382.888256 53.889371 
L 386.78801 53.782326 
L 387.437969 53.675282 
L 398.487273 53.568 
L 398.487273 53.568 
" style="fill:none;stroke:#000000;stroke-linecap:square;stroke-width:2;"/>
   </g>
   <g id="line2d_24">
    <path clip-path="url(#pde8cca6f8b)" d="M 73.832727 126.144 
L 73.832727 122.960842 
L 73.832727 119.777684 
L 73.832727 116.594526 
L 73.832727 113.411368 
L 73.832727 110.228211 
L 73.832727 107.045053 
L 73.832727 103.861895 
L 73.832727 100.678737 
L 73.832727 97.495579 
L 73.832727 94.312421 
L 73.832727 91.129263 
L 73.832727 87.946105 
L 73.832727 84.762947 
L 73.832727 81.579789 
L 73.832727 78.396632 
L 73.832727 75.213474 
L 73.832727 72.030316 
L 73.832727 68.847158 
L 73.832727 65.664 
" style="fill:none;stroke:#000000;stroke-dasharray:1,1.65;stroke-dashoffset:0;"/>
   </g>
   <g id="line2d_25">
    <path clip-path="url(#pde8cca6f8b)" d="M 73.832727 126.144 
L 78.104498 126.144 
L 82.376268 126.144 
L 86.648038 126.144 
L 90.919809 126.144 
L 95.191579 126.144 
L 99.463349 126.144 
L 103.73512 126.144 
L 108.00689 126.144 
L 112.27866 126.144 
L 116.550431 126.144 
L 120.822201 126.144 
L 125.093971 126.144 
L 129.365742 126.144 
L 133.637512 126.144 
L 137.909282 126.144 
L 142.181053 126.144 
L 146.452823 126.144 
L 150.724593 126.144 
L 154.996364 126.144 
" style="fill:none;stroke:#000000;stroke-dasharray:1,1.65;stroke-dashoffset:0;"/>
   </g>
   <g id="line2d_26">
    <path clip-path="url(#pde8cca6f8b)" d="M 154.996364 126.144 
L 154.996364 122.960842 
L 154.996364 119.777684 
L 154.996364 116.594526 
L 154.996364 113.411368 
L 154.996364 110.228211 
L 154.996364 107.045053 
L 154.996364 103.861895 
L 154.996364 100.678737 
L 154.996364 97.495579 
L 154.996364 94.312421 
L 154.996364 91.129263 
L 154.996364 87.946105 
L 154.996364 84.762947 
L 154.996364 81.579789 
L 154.996364 78.396632 
L 154.996364 75.213474 
L 154.996364 72.030316 
L 154.996364 68.847158 
L 154.996364 65.664 
" style="fill:none;stroke:#000000;stroke-dasharray:1,1.65;stroke-dashoffset:0;"/>
   </g>
   <g id="line2d_27">
    <path clip-path="url(#pde8cca6f8b)" d="M 73.832727 65.664 
L 78.104498 65.664 
L 82.376268 65.664 
L 86.648038 65.664 
L 90.919809 65.664 
L 95.191579 65.664 
L 99.463349 65.664 
L 103.73512 65.664 
L 108.00689 65.664 
L 112.27866 65.664 
L 116.550431 65.664 
L 120.822201 65.664 
L 125.093971 65.664 
L 129.365742 65.664 
L 133.637512 65.664 
L 137.909282 65.664 
L 142.181053 65.664 
L 146.452823 65.664 
L 150.724593 65.664 
L 154.996364 65.664 
" style="fill:none;stroke:#000000;stroke-dasharray:1,1.65;stroke-dashoffset:0;"/>
   </g>
   <g id="line2d_28">
    <path clip-path="url(#pde8cca6f8b)" d="M 236.16 295.488 
L 236.16 289.121684 
L 236.16 282.755368 
L 236.16 276.389053 
L 236.16 270.022737 
L 236.16 263.656421 
L 236.16 257.290105 
L 236.16 250.923789 
L 236.16 244.557474 
L 236.16 238.191158 
L 236.16 231.824842 
L 236.16 225.458526 
L 236.16 219.092211 
L 236.16 212.725895 
L 236.16 206.359579 
L 236.16 199.993263 
L 236.16 193.626947 
L 236.16 187.260632 
L 236.16 180.894316 
L 236.16 174.528 
" style="fill:none;stroke:#000000;stroke-dasharray:1,1.65;stroke-dashoffset:0;"/>
   </g>
   <g id="line2d_29">
    <path clip-path="url(#pde8cca6f8b)" d="M 236.16 295.488 
L 240.43177 295.488 
L 244.703541 295.488 
L 248.975311 295.488 
L 253.247081 295.488 
L 257.518852 295.488 
L 261.790622 295.488 
L 266.062392 295.488 
L 270.334163 295.488 
L 274.605933 295.488 
L 278.877703 295.488 
L 283.149474 295.488 
L 287.421244 295.488 
L 291.693014 295.488 
L 295.964785 295.488 
L 300.236555 295.488 
L 304.508325 295.488 
L 308.780096 295.488 
L 313.051866 295.488 
L 317.323636 295.488 
" style="fill:none;stroke:#000000;stroke-dasharray:1,1.65;stroke-dashoffset:0;"/>
   </g>
   <g id="line2d_30">
    <path clip-path="url(#pde8cca6f8b)" d="M 317.323636 295.488 
L 317.323636 289.121684 
L 317.323636 282.755368 
L 317.323636 276.389053 
L 317.323636 270.022737 
L 317.323636 263.656421 
L 317.323636 257.290105 
L 317.323636 250.923789 
L 317.323636 244.557474 
L 317.323636 238.191158 
L 317.323636 231.824842 
L 317.323636 225.458526 
L 317.323636 219.092211 
L 317.323636 212.725895 
L 317.323636 206.359579 
L 317.323636 199.993263 
L 317.323636 193.626947 
L 317.323636 187.260632 
L 317.323636 180.894316 
L 317.323636 174.528 
" style="fill:none;stroke:#000000;stroke-dasharray:1,1.65;stroke-dashoffset:0;"/>
   </g>
   <g id="line2d_31">
    <path clip-path="url(#pde8cca6f8b)" d="M 236.16 174.528 
L 240.43177 174.528 
L 244.703541 174.528 
L 248.975311 174.528 
L 253.247081 174.528 
L 257.518852 174.528 
L 261.790622 174.528 
L 266.062392 174.528 
L 270.334163 174.528 
L 274.605933 174.528 
L 278.877703 174.528 
L 283.149474 174.528 
L 287.421244 174.528 
L 291.693014 174.528 
L 295.964785 174.528 
L 300.236555 174.528 
L 304.508325 174.528 
L 308.780096 174.528 
L 313.051866 174.528 
L 317.323636 174.528 
" style="fill:none;stroke:#000000;stroke-dasharray:1,1.65;stroke-dashoffset:0;"/>
   </g>
   <g id="line2d_32">
    <path clip-path="url(#pde8cca6f8b)" d="M 154.996364 126.144 
L 159.268134 128.690526 
L 163.539904 131.237053 
L 167.811675 133.783579 
L 172.083445 136.330105 
L 176.355215 138.876632 
L 180.626986 141.423158 
L 184.898756 143.969684 
L 189.170526 146.516211 
L 193.442297 149.062737 
L 197.714067 151.609263 
L 201.985837 154.155789 
L 206.257608 156.702316 
L 210.529378 159.248842 
L 214.801148 161.795368 
L 219.072919 164.341895 
L 223.344689 166.888421 
L 227.616459 169.434947 
L 231.88823 171.981474 
L 236.16 174.528 
" style="fill:none;stroke:#000000;stroke-dasharray:1,1.65;stroke-dashoffset:0;"/>
   </g>
   <g id="line2d_33">
    <path clip-path="url(#pde8cca6f8b)" d="M 273.207666 294.050316 
L 273.857625 289.27349 
L 274.507584 288.163171 
L 275.157543 282.818335 
L 275.807502 281.853313 
L 276.457461 277.676963 
L 277.757379 275.746919 
L 278.407338 272.153251 
L 279.057297 271.715975 
L 279.707256 268.70821 
L 280.357215 268.270935 
L 281.007174 265.264597 
L 281.657133 264.827321 
L 282.307093 260.322364 
L 282.957052 259.347489 
L 283.607011 254.414355 
L 284.25697 252.149239 
L 284.906929 251.711963 
L 285.556888 247.20653 
L 286.206847 246.769255 
L 286.856806 243.506362 
L 287.506765 243.506362 
L 288.156724 238.470525 
L 288.806683 238.470525 
L 289.456642 235.152153 
L 290.106601 234.507033 
L 290.75656 232.366148 
L 292.056478 232.258628 
L 292.706437 231.080665 
L 293.356396 231.080665 
L 294.006355 230.010223 
L 294.656314 230.010223 
L 295.306274 229.260913 
L 295.956233 228.938353 
L 296.606192 224.977716 
L 297.90611 224.977716 
L 298.556069 223.046162 
L 299.206028 223.046162 
L 299.855987 221.761631 
L 300.505946 221.761631 
L 301.155905 220.797757 
L 301.805864 220.797757 
L 302.455823 218.549828 
L 303.105782 218.549828 
L 303.755741 216.730076 
L 304.4057 216.515036 
L 305.055659 216.515036 
L 305.705618 214.158635 
L 306.355577 214.158635 
L 307.005536 212.231363 
L 307.655495 212.231363 
L 308.305455 209.983434 
L 308.955414 209.983434 
L 309.605373 208.805947 
L 310.255332 208.805947 
L 310.905291 208.591858 
L 312.205209 208.591858 
L 312.855168 208.056637 
L 313.505127 208.056637 
L 314.155086 206.450973 
L 314.805045 206.450973 
L 315.455004 206.022796 
L 318.05484 205.164539 
L 319.354758 205.164539 
L 320.004717 203.987053 
L 320.654676 203.987053 
L 321.304636 203.451832 
L 321.954595 203.451832 
L 322.604554 202.381389 
L 323.254513 202.381389 
L 323.904472 201.846168 
L 325.20439 201.846168 
L 325.854349 201.095907 
L 326.504308 201.095907 
L 327.154267 200.66773 
L 327.804226 200.66773 
L 329.104144 200.238601 
L 329.754103 199.489291 
L 330.404062 199.274251 
L 331.054021 198.631986 
L 332.353939 198.631986 
L 333.003898 198.096765 
L 333.653857 198.096765 
L 334.303817 197.77468 
L 334.953776 197.77468 
L 335.603735 197.132415 
L 336.253694 197.132415 
L 336.903653 196.811282 
L 337.553612 196.811282 
L 338.203571 196.169017 
L 339.503489 196.169017 
L 340.153448 195.312187 
L 340.803407 195.312187 
L 344.053202 194.347361 
L 344.703161 194.239841 
L 345.35312 193.70462 
L 346.653038 193.70462 
L 347.302998 193.062355 
L 347.952957 193.062355 
L 348.602916 192.634178 
L 349.252875 192.634178 
L 349.902834 191.884868 
L 350.552793 191.884868 
L 351.202752 191.563735 
L 352.50267 191.563735 
L 353.152629 191.028514 
L 355.102506 191.028514 
L 356.402424 190.491865 
L 357.052383 190.063688 
L 357.702342 190.063688 
L 358.352301 189.8496 
L 359.652219 189.8496 
L 360.302179 189.635512 
L 360.952138 189.635512 
L 361.602097 188.993246 
L 362.252056 188.993246 
L 362.902015 188.779158 
L 364.851892 188.779158 
L 365.501851 188.136892 
L 368.101687 188.029848 
L 368.751646 187.815759 
L 370.701523 187.708715 
L 371.351482 187.280538 
L 372.001441 187.280538 
L 372.6514 187.06645 
L 374.601278 186.959405 
L 375.251237 186.851885 
L 375.901196 186.316664 
L 376.551155 186.316664 
L 377.201114 185.888487 
L 377.851073 185.888487 
L 378.501032 185.567354 
L 381.100868 185.46031 
L 381.750827 184.925089 
L 382.400786 184.710049 
L 383.050745 183.960739 
L 383.700704 183.960739 
L 384.350663 183.532562 
L 385.000622 183.532562 
L 385.650581 183.211429 
L 386.9505 183.211429 
L 387.600459 182.890297 
L 388.250418 182.890297 
L 388.900377 182.676208 
L 390.200295 182.569164 
L 392.150172 182.140035 
L 392.800131 181.818903 
L 394.100049 181.818903 
L 394.750008 181.176637 
L 395.399967 181.069117 
L 396.049926 180.533896 
L 396.699885 180.533896 
L 397.349844 180.212763 
L 397.999803 180.212763 
L 397.999803 180.212763 
" style="fill:none;stroke:#000000;stroke-linecap:square;stroke-width:2;"/>
   </g>
   <g id="patch_3">
    <path d="M 57.6 307.584 
L 57.6 41.472 
" style="fill:none;stroke:#000000;stroke-linecap:square;stroke-linejoin:miter;stroke-width:0.8;"/>
   </g>
   <g id="patch_4">
    <path d="M 414.72 307.584 
L 414.72 41.472 
" style="fill:none;stroke:#000000;stroke-linecap:square;stroke-linejoin:miter;stroke-width:0.8;"/>
   </g>
   <g id="patch_5">
    <path d="M 57.6 307.584 
L 414.72 307.584 
" style="fill:none;stroke:#000000;stroke-linecap:square;stroke-linejoin:miter;stroke-width:0.8;"/>
   </g>
   <g id="patch_6">
    <path d="M 57.6 41.472 
L 414.72 41.472 
" style="fill:none;stroke:#000000;stroke-linecap:square;stroke-linejoin:miter;stroke-width:0.8;"/>
   </g>
   <g id="legend_1">
    <g id="patch_7">
     <path d="M 64.6 302.584 
L 206.75625 302.584 
Q 208.75625 302.584 208.75625 300.584 
L 208.75625 140.124625 
Q 208.75625 138.124625 206.75625 138.124625 
L 64.6 138.124625 
Q 62.6 138.124625 62.6 140.124625 
L 62.6 300.584 
Q 62.6 302.584 64.6 302.584 
z
" style="fill:#ffffff;opacity:0.8;stroke:#cccccc;stroke-linejoin:miter;"/>
    </g>
    <g id="line2d_34">
     <path d="M 66.6 146.223062 
L 86.6 146.223062 
" style="fill:none;stroke:#ff0000;stroke-linecap:square;stroke-opacity:0.8;stroke-width:1.5;"/>
    </g>
    <g id="line2d_35"/>
    <g id="text_15">
     <!-- fold 0 (AUC = 0.9367) -->
     <defs>
      <path d="M 37.109375 75.984375 
L 37.109375 68.5 
L 28.515625 68.5 
Q 23.6875 68.5 21.796875 66.546875 
Q 19.921875 64.59375 19.921875 59.515625 
L 19.921875 54.6875 
L 34.71875 54.6875 
L 34.71875 47.703125 
L 19.921875 47.703125 
L 19.921875 0 
L 10.890625 0 
L 10.890625 47.703125 
L 2.296875 47.703125 
L 2.296875 54.6875 
L 10.890625 54.6875 
L 10.890625 58.5 
Q 10.890625 67.625 15.140625 71.796875 
Q 19.390625 75.984375 28.609375 75.984375 
z
" id="DejaVuSans-102"/>
      <path d="M 45.40625 46.390625 
L 45.40625 75.984375 
L 54.390625 75.984375 
L 54.390625 0 
L 45.40625 0 
L 45.40625 8.203125 
Q 42.578125 3.328125 38.25 0.953125 
Q 33.9375 -1.421875 27.875 -1.421875 
Q 17.96875 -1.421875 11.734375 6.484375 
Q 5.515625 14.40625 5.515625 27.296875 
Q 5.515625 40.1875 11.734375 48.09375 
Q 17.96875 56 27.875 56 
Q 33.9375 56 38.25 53.625 
Q 42.578125 51.265625 45.40625 46.390625 
z
M 14.796875 27.296875 
Q 14.796875 17.390625 18.875 11.75 
Q 22.953125 6.109375 30.078125 6.109375 
Q 37.203125 6.109375 41.296875 11.75 
Q 45.40625 17.390625 45.40625 27.296875 
Q 45.40625 37.203125 41.296875 42.84375 
Q 37.203125 48.484375 30.078125 48.484375 
Q 22.953125 48.484375 18.875 42.84375 
Q 14.796875 37.203125 14.796875 27.296875 
z
" id="DejaVuSans-100"/>
      <path d="M 31 75.875 
Q 24.46875 64.65625 21.28125 53.65625 
Q 18.109375 42.671875 18.109375 31.390625 
Q 18.109375 20.125 21.3125 9.0625 
Q 24.515625 -2 31 -13.1875 
L 23.1875 -13.1875 
Q 15.875 -1.703125 12.234375 9.375 
Q 8.59375 20.453125 8.59375 31.390625 
Q 8.59375 42.28125 12.203125 53.3125 
Q 15.828125 64.359375 23.1875 75.875 
z
" id="DejaVuSans-40"/>
      <path d="M 34.1875 63.1875 
L 20.796875 26.90625 
L 47.609375 26.90625 
z
M 28.609375 72.90625 
L 39.796875 72.90625 
L 67.578125 0 
L 57.328125 0 
L 50.6875 18.703125 
L 17.828125 18.703125 
L 11.1875 0 
L 0.78125 0 
z
" id="DejaVuSans-65"/>
      <path d="M 8.6875 72.90625 
L 18.609375 72.90625 
L 18.609375 28.609375 
Q 18.609375 16.890625 22.84375 11.734375 
Q 27.09375 6.59375 36.625 6.59375 
Q 46.09375 6.59375 50.34375 11.734375 
Q 54.59375 16.890625 54.59375 28.609375 
L 54.59375 72.90625 
L 64.5 72.90625 
L 64.5 27.390625 
Q 64.5 13.140625 57.4375 5.859375 
Q 50.390625 -1.421875 36.625 -1.421875 
Q 22.796875 -1.421875 15.734375 5.859375 
Q 8.6875 13.140625 8.6875 27.390625 
z
" id="DejaVuSans-85"/>
      <path d="M 64.40625 67.28125 
L 64.40625 56.890625 
Q 59.421875 61.53125 53.78125 63.8125 
Q 48.140625 66.109375 41.796875 66.109375 
Q 29.296875 66.109375 22.65625 58.46875 
Q 16.015625 50.828125 16.015625 36.375 
Q 16.015625 21.96875 22.65625 14.328125 
Q 29.296875 6.6875 41.796875 6.6875 
Q 48.140625 6.6875 53.78125 8.984375 
Q 59.421875 11.28125 64.40625 15.921875 
L 64.40625 5.609375 
Q 59.234375 2.09375 53.4375 0.328125 
Q 47.65625 -1.421875 41.21875 -1.421875 
Q 24.65625 -1.421875 15.125 8.703125 
Q 5.609375 18.84375 5.609375 36.375 
Q 5.609375 53.953125 15.125 64.078125 
Q 24.65625 74.21875 41.21875 74.21875 
Q 47.75 74.21875 53.53125 72.484375 
Q 59.328125 70.75 64.40625 67.28125 
z
" id="DejaVuSans-67"/>
      <path d="M 10.59375 45.40625 
L 73.1875 45.40625 
L 73.1875 37.203125 
L 10.59375 37.203125 
z
M 10.59375 25.484375 
L 73.1875 25.484375 
L 73.1875 17.1875 
L 10.59375 17.1875 
z
" id="DejaVuSans-61"/>
      <path d="M 10.984375 1.515625 
L 10.984375 10.5 
Q 14.703125 8.734375 18.5 7.8125 
Q 22.3125 6.890625 25.984375 6.890625 
Q 35.75 6.890625 40.890625 13.453125 
Q 46.046875 20.015625 46.78125 33.40625 
Q 43.953125 29.203125 39.59375 26.953125 
Q 35.25 24.703125 29.984375 24.703125 
Q 19.046875 24.703125 12.671875 31.3125 
Q 6.296875 37.9375 6.296875 49.421875 
Q 6.296875 60.640625 12.9375 67.421875 
Q 19.578125 74.21875 30.609375 74.21875 
Q 43.265625 74.21875 49.921875 64.515625 
Q 56.59375 54.828125 56.59375 36.375 
Q 56.59375 19.140625 48.40625 8.859375 
Q 40.234375 -1.421875 26.421875 -1.421875 
Q 22.703125 -1.421875 18.890625 -0.6875 
Q 15.09375 0.046875 10.984375 1.515625 
z
M 30.609375 32.421875 
Q 37.25 32.421875 41.125 36.953125 
Q 45.015625 41.5 45.015625 49.421875 
Q 45.015625 57.28125 41.125 61.84375 
Q 37.25 66.40625 30.609375 66.40625 
Q 23.96875 66.40625 20.09375 61.84375 
Q 16.21875 57.28125 16.21875 49.421875 
Q 16.21875 41.5 20.09375 36.953125 
Q 23.96875 32.421875 30.609375 32.421875 
z
" id="DejaVuSans-57"/>
      <path d="M 40.578125 39.3125 
Q 47.65625 37.796875 51.625 33 
Q 55.609375 28.21875 55.609375 21.1875 
Q 55.609375 10.40625 48.1875 4.484375 
Q 40.765625 -1.421875 27.09375 -1.421875 
Q 22.515625 -1.421875 17.65625 -0.515625 
Q 12.796875 0.390625 7.625 2.203125 
L 7.625 11.71875 
Q 11.71875 9.328125 16.59375 8.109375 
Q 21.484375 6.890625 26.8125 6.890625 
Q 36.078125 6.890625 40.9375 10.546875 
Q 45.796875 14.203125 45.796875 21.1875 
Q 45.796875 27.640625 41.28125 31.265625 
Q 36.765625 34.90625 28.71875 34.90625 
L 20.21875 34.90625 
L 20.21875 43.015625 
L 29.109375 43.015625 
Q 36.375 43.015625 40.234375 45.921875 
Q 44.09375 48.828125 44.09375 54.296875 
Q 44.09375 59.90625 40.109375 62.90625 
Q 36.140625 65.921875 28.71875 65.921875 
Q 24.65625 65.921875 20.015625 65.03125 
Q 15.375 64.15625 9.8125 62.3125 
L 9.8125 71.09375 
Q 15.4375 72.65625 20.34375 73.4375 
Q 25.25 74.21875 29.59375 74.21875 
Q 40.828125 74.21875 47.359375 69.109375 
Q 53.90625 64.015625 53.90625 55.328125 
Q 53.90625 49.265625 50.4375 45.09375 
Q 46.96875 40.921875 40.578125 39.3125 
z
" id="DejaVuSans-51"/>
      <path d="M 8.203125 72.90625 
L 55.078125 72.90625 
L 55.078125 68.703125 
L 28.609375 0 
L 18.3125 0 
L 43.21875 64.59375 
L 8.203125 64.59375 
z
" id="DejaVuSans-55"/>
      <path d="M 8.015625 75.875 
L 15.828125 75.875 
Q 23.140625 64.359375 26.78125 53.3125 
Q 30.421875 42.28125 30.421875 31.390625 
Q 30.421875 20.453125 26.78125 9.375 
Q 23.140625 -1.703125 15.828125 -13.1875 
L 8.015625 -13.1875 
Q 14.5 -2 17.703125 9.0625 
Q 20.90625 20.125 20.90625 31.390625 
Q 20.90625 42.671875 17.703125 53.65625 
Q 14.5 64.65625 8.015625 75.875 
z
" id="DejaVuSans-41"/>
     </defs>
     <g transform="translate(94.6 149.723062)scale(0.1 -0.1)">
      <use xlink:href="#DejaVuSans-102"/>
      <use x="35.205078" xlink:href="#DejaVuSans-111"/>
      <use x="96.386719" xlink:href="#DejaVuSans-108"/>
      <use x="124.169922" xlink:href="#DejaVuSans-100"/>
      <use x="187.646484" xlink:href="#DejaVuSans-32"/>
      <use x="219.433594" xlink:href="#DejaVuSans-48"/>
      <use x="283.056641" xlink:href="#DejaVuSans-32"/>
      <use x="314.84375" xlink:href="#DejaVuSans-40"/>
      <use x="353.857422" xlink:href="#DejaVuSans-65"/>
      <use x="422.265625" xlink:href="#DejaVuSans-85"/>
      <use x="495.458984" xlink:href="#DejaVuSans-67"/>
      <use x="565.283203" xlink:href="#DejaVuSans-32"/>
      <use x="597.070312" xlink:href="#DejaVuSans-61"/>
      <use x="680.859375" xlink:href="#DejaVuSans-32"/>
      <use x="712.646484" xlink:href="#DejaVuSans-48"/>
      <use x="776.269531" xlink:href="#DejaVuSans-46"/>
      <use x="808.056641" xlink:href="#DejaVuSans-57"/>
      <use x="871.679688" xlink:href="#DejaVuSans-51"/>
      <use x="935.302734" xlink:href="#DejaVuSans-54"/>
      <use x="998.925781" xlink:href="#DejaVuSans-55"/>
      <use x="1062.548828" xlink:href="#DejaVuSans-41"/>
     </g>
    </g>
    <g id="line2d_36">
     <path d="M 66.6 160.901188 
L 86.6 160.901188 
" style="fill:none;stroke:#ff0000;stroke-linecap:square;stroke-opacity:0.8;stroke-width:1.5;"/>
    </g>
    <g id="line2d_37"/>
    <g id="text_16">
     <!-- fold 1 (AUC = 0.9355) -->
     <defs>
      <path d="M 10.796875 72.90625 
L 49.515625 72.90625 
L 49.515625 64.59375 
L 19.828125 64.59375 
L 19.828125 46.734375 
Q 21.96875 47.46875 24.109375 47.828125 
Q 26.265625 48.1875 28.421875 48.1875 
Q 40.625 48.1875 47.75 41.5 
Q 54.890625 34.8125 54.890625 23.390625 
Q 54.890625 11.625 47.5625 5.09375 
Q 40.234375 -1.421875 26.90625 -1.421875 
Q 22.3125 -1.421875 17.546875 -0.640625 
Q 12.796875 0.140625 7.71875 1.703125 
L 7.71875 11.625 
Q 12.109375 9.234375 16.796875 8.0625 
Q 21.484375 6.890625 26.703125 6.890625 
Q 35.15625 6.890625 40.078125 11.328125 
Q 45.015625 15.765625 45.015625 23.390625 
Q 45.015625 31 40.078125 35.4375 
Q 35.15625 39.890625 26.703125 39.890625 
Q 22.75 39.890625 18.8125 39.015625 
Q 14.890625 38.140625 10.796875 36.28125 
z
" id="DejaVuSans-53"/>
     </defs>
     <g transform="translate(94.6 164.401188)scale(0.1 -0.1)">
      <use xlink:href="#DejaVuSans-102"/>
      <use x="35.205078" xlink:href="#DejaVuSans-111"/>
      <use x="96.386719" xlink:href="#DejaVuSans-108"/>
      <use x="124.169922" xlink:href="#DejaVuSans-100"/>
      <use x="187.646484" xlink:href="#DejaVuSans-32"/>
      <use x="219.433594" xlink:href="#DejaVuSans-49"/>
      <use x="283.056641" xlink:href="#DejaVuSans-32"/>
      <use x="314.84375" xlink:href="#DejaVuSans-40"/>
      <use x="353.857422" xlink:href="#DejaVuSans-65"/>
      <use x="422.265625" xlink:href="#DejaVuSans-85"/>
      <use x="495.458984" xlink:href="#DejaVuSans-67"/>
      <use x="565.283203" xlink:href="#DejaVuSans-32"/>
      <use x="597.070312" xlink:href="#DejaVuSans-61"/>
      <use x="680.859375" xlink:href="#DejaVuSans-32"/>
      <use x="712.646484" xlink:href="#DejaVuSans-48"/>
      <use x="776.269531" xlink:href="#DejaVuSans-46"/>
      <use x="808.056641" xlink:href="#DejaVuSans-57"/>
      <use x="871.679688" xlink:href="#DejaVuSans-51"/>
      <use x="935.302734" xlink:href="#DejaVuSans-53"/>
      <use x="998.925781" xlink:href="#DejaVuSans-53"/>
      <use x="1062.548828" xlink:href="#DejaVuSans-41"/>
     </g>
    </g>
    <g id="line2d_38">
     <path d="M 66.6 175.579313 
L 86.6 175.579313 
" style="fill:none;stroke:#ff0000;stroke-linecap:square;stroke-opacity:0.8;stroke-width:1.5;"/>
    </g>
    <g id="line2d_39"/>
    <g id="text_17">
     <!-- fold 2 (AUC = 0.9309) -->
     <g transform="translate(94.6 179.079313)scale(0.1 -0.1)">
      <use xlink:href="#DejaVuSans-102"/>
      <use x="35.205078" xlink:href="#DejaVuSans-111"/>
      <use x="96.386719" xlink:href="#DejaVuSans-108"/>
      <use x="124.169922" xlink:href="#DejaVuSans-100"/>
      <use x="187.646484" xlink:href="#DejaVuSans-32"/>
      <use x="219.433594" xlink:href="#DejaVuSans-50"/>
      <use x="283.056641" xlink:href="#DejaVuSans-32"/>
      <use x="314.84375" xlink:href="#DejaVuSans-40"/>
      <use x="353.857422" xlink:href="#DejaVuSans-65"/>
      <use x="422.265625" xlink:href="#DejaVuSans-85"/>
      <use x="495.458984" xlink:href="#DejaVuSans-67"/>
      <use x="565.283203" xlink:href="#DejaVuSans-32"/>
      <use x="597.070312" xlink:href="#DejaVuSans-61"/>
      <use x="680.859375" xlink:href="#DejaVuSans-32"/>
      <use x="712.646484" xlink:href="#DejaVuSans-48"/>
      <use x="776.269531" xlink:href="#DejaVuSans-46"/>
      <use x="808.056641" xlink:href="#DejaVuSans-57"/>
      <use x="871.679688" xlink:href="#DejaVuSans-51"/>
      <use x="935.302734" xlink:href="#DejaVuSans-48"/>
      <use x="998.925781" xlink:href="#DejaVuSans-57"/>
      <use x="1062.548828" xlink:href="#DejaVuSans-41"/>
     </g>
    </g>
    <g id="line2d_40">
     <path d="M 66.6 190.257438 
L 86.6 190.257438 
" style="fill:none;stroke:#ff0000;stroke-linecap:square;stroke-opacity:0.8;stroke-width:1.5;"/>
    </g>
    <g id="line2d_41"/>
    <g id="text_18">
     <!-- fold 3 (AUC = 0.9150) -->
     <g transform="translate(94.6 193.757438)scale(0.1 -0.1)">
      <use xlink:href="#DejaVuSans-102"/>
      <use x="35.205078" xlink:href="#DejaVuSans-111"/>
      <use x="96.386719" xlink:href="#DejaVuSans-108"/>
      <use x="124.169922" xlink:href="#DejaVuSans-100"/>
      <use x="187.646484" xlink:href="#DejaVuSans-32"/>
      <use x="219.433594" xlink:href="#DejaVuSans-51"/>
      <use x="283.056641" xlink:href="#DejaVuSans-32"/>
      <use x="314.84375" xlink:href="#DejaVuSans-40"/>
      <use x="353.857422" xlink:href="#DejaVuSans-65"/>
      <use x="422.265625" xlink:href="#DejaVuSans-85"/>
      <use x="495.458984" xlink:href="#DejaVuSans-67"/>
      <use x="565.283203" xlink:href="#DejaVuSans-32"/>
      <use x="597.070312" xlink:href="#DejaVuSans-61"/>
      <use x="680.859375" xlink:href="#DejaVuSans-32"/>
      <use x="712.646484" xlink:href="#DejaVuSans-48"/>
      <use x="776.269531" xlink:href="#DejaVuSans-46"/>
      <use x="808.056641" xlink:href="#DejaVuSans-57"/>
      <use x="871.679688" xlink:href="#DejaVuSans-49"/>
      <use x="935.302734" xlink:href="#DejaVuSans-53"/>
      <use x="998.925781" xlink:href="#DejaVuSans-48"/>
      <use x="1062.548828" xlink:href="#DejaVuSans-41"/>
     </g>
    </g>
    <g id="line2d_42">
     <path d="M 66.6 204.935563 
L 86.6 204.935563 
" style="fill:none;stroke:#ff0000;stroke-linecap:square;stroke-opacity:0.8;stroke-width:1.5;"/>
    </g>
    <g id="line2d_43"/>
    <g id="text_19">
     <!-- fold 4 (AUC = 0.9076) -->
     <g transform="translate(94.6 208.435563)scale(0.1 -0.1)">
      <use xlink:href="#DejaVuSans-102"/>
      <use x="35.205078" xlink:href="#DejaVuSans-111"/>
      <use x="96.386719" xlink:href="#DejaVuSans-108"/>
      <use x="124.169922" xlink:href="#DejaVuSans-100"/>
      <use x="187.646484" xlink:href="#DejaVuSans-32"/>
      <use x="219.433594" xlink:href="#DejaVuSans-52"/>
      <use x="283.056641" xlink:href="#DejaVuSans-32"/>
      <use x="314.84375" xlink:href="#DejaVuSans-40"/>
      <use x="353.857422" xlink:href="#DejaVuSans-65"/>
      <use x="422.265625" xlink:href="#DejaVuSans-85"/>
      <use x="495.458984" xlink:href="#DejaVuSans-67"/>
      <use x="565.283203" xlink:href="#DejaVuSans-32"/>
      <use x="597.070312" xlink:href="#DejaVuSans-61"/>
      <use x="680.859375" xlink:href="#DejaVuSans-32"/>
      <use x="712.646484" xlink:href="#DejaVuSans-48"/>
      <use x="776.269531" xlink:href="#DejaVuSans-46"/>
      <use x="808.056641" xlink:href="#DejaVuSans-57"/>
      <use x="871.679688" xlink:href="#DejaVuSans-48"/>
      <use x="935.302734" xlink:href="#DejaVuSans-55"/>
      <use x="998.925781" xlink:href="#DejaVuSans-54"/>
      <use x="1062.548828" xlink:href="#DejaVuSans-41"/>
     </g>
    </g>
    <g id="line2d_44">
     <path d="M 66.6 219.613688 
L 86.6 219.613688 
" style="fill:none;stroke:#ff0000;stroke-linecap:square;stroke-opacity:0.8;stroke-width:1.5;"/>
    </g>
    <g id="line2d_45"/>
    <g id="text_20">
     <!-- fold 5 (AUC = 0.9286) -->
     <g transform="translate(94.6 223.113688)scale(0.1 -0.1)">
      <use xlink:href="#DejaVuSans-102"/>
      <use x="35.205078" xlink:href="#DejaVuSans-111"/>
      <use x="96.386719" xlink:href="#DejaVuSans-108"/>
      <use x="124.169922" xlink:href="#DejaVuSans-100"/>
      <use x="187.646484" xlink:href="#DejaVuSans-32"/>
      <use x="219.433594" xlink:href="#DejaVuSans-53"/>
      <use x="283.056641" xlink:href="#DejaVuSans-32"/>
      <use x="314.84375" xlink:href="#DejaVuSans-40"/>
      <use x="353.857422" xlink:href="#DejaVuSans-65"/>
      <use x="422.265625" xlink:href="#DejaVuSans-85"/>
      <use x="495.458984" xlink:href="#DejaVuSans-67"/>
      <use x="565.283203" xlink:href="#DejaVuSans-32"/>
      <use x="597.070312" xlink:href="#DejaVuSans-61"/>
      <use x="680.859375" xlink:href="#DejaVuSans-32"/>
      <use x="712.646484" xlink:href="#DejaVuSans-48"/>
      <use x="776.269531" xlink:href="#DejaVuSans-46"/>
      <use x="808.056641" xlink:href="#DejaVuSans-57"/>
      <use x="871.679688" xlink:href="#DejaVuSans-50"/>
      <use x="935.302734" xlink:href="#DejaVuSans-56"/>
      <use x="998.925781" xlink:href="#DejaVuSans-54"/>
      <use x="1062.548828" xlink:href="#DejaVuSans-41"/>
     </g>
    </g>
    <g id="line2d_46">
     <path d="M 66.6 234.291812 
L 86.6 234.291812 
" style="fill:none;stroke:#ff0000;stroke-linecap:square;stroke-opacity:0.8;stroke-width:1.5;"/>
    </g>
    <g id="line2d_47"/>
    <g id="text_21">
     <!-- fold 6 (AUC = 0.9314) -->
     <g transform="translate(94.6 237.791812)scale(0.1 -0.1)">
      <use xlink:href="#DejaVuSans-102"/>
      <use x="35.205078" xlink:href="#DejaVuSans-111"/>
      <use x="96.386719" xlink:href="#DejaVuSans-108"/>
      <use x="124.169922" xlink:href="#DejaVuSans-100"/>
      <use x="187.646484" xlink:href="#DejaVuSans-32"/>
      <use x="219.433594" xlink:href="#DejaVuSans-54"/>
      <use x="283.056641" xlink:href="#DejaVuSans-32"/>
      <use x="314.84375" xlink:href="#DejaVuSans-40"/>
      <use x="353.857422" xlink:href="#DejaVuSans-65"/>
      <use x="422.265625" xlink:href="#DejaVuSans-85"/>
      <use x="495.458984" xlink:href="#DejaVuSans-67"/>
      <use x="565.283203" xlink:href="#DejaVuSans-32"/>
      <use x="597.070312" xlink:href="#DejaVuSans-61"/>
      <use x="680.859375" xlink:href="#DejaVuSans-32"/>
      <use x="712.646484" xlink:href="#DejaVuSans-48"/>
      <use x="776.269531" xlink:href="#DejaVuSans-46"/>
      <use x="808.056641" xlink:href="#DejaVuSans-57"/>
      <use x="871.679688" xlink:href="#DejaVuSans-51"/>
      <use x="935.302734" xlink:href="#DejaVuSans-49"/>
      <use x="998.925781" xlink:href="#DejaVuSans-52"/>
      <use x="1062.548828" xlink:href="#DejaVuSans-41"/>
     </g>
    </g>
    <g id="line2d_48">
     <path d="M 66.6 248.969938 
L 86.6 248.969938 
" style="fill:none;stroke:#ff0000;stroke-linecap:square;stroke-opacity:0.8;stroke-width:1.5;"/>
    </g>
    <g id="line2d_49"/>
    <g id="text_22">
     <!-- fold 7 (AUC = 0.9305) -->
     <g transform="translate(94.6 252.469938)scale(0.1 -0.1)">
      <use xlink:href="#DejaVuSans-102"/>
      <use x="35.205078" xlink:href="#DejaVuSans-111"/>
      <use x="96.386719" xlink:href="#DejaVuSans-108"/>
      <use x="124.169922" xlink:href="#DejaVuSans-100"/>
      <use x="187.646484" xlink:href="#DejaVuSans-32"/>
      <use x="219.433594" xlink:href="#DejaVuSans-55"/>
      <use x="283.056641" xlink:href="#DejaVuSans-32"/>
      <use x="314.84375" xlink:href="#DejaVuSans-40"/>
      <use x="353.857422" xlink:href="#DejaVuSans-65"/>
      <use x="422.265625" xlink:href="#DejaVuSans-85"/>
      <use x="495.458984" xlink:href="#DejaVuSans-67"/>
      <use x="565.283203" xlink:href="#DejaVuSans-32"/>
      <use x="597.070312" xlink:href="#DejaVuSans-61"/>
      <use x="680.859375" xlink:href="#DejaVuSans-32"/>
      <use x="712.646484" xlink:href="#DejaVuSans-48"/>
      <use x="776.269531" xlink:href="#DejaVuSans-46"/>
      <use x="808.056641" xlink:href="#DejaVuSans-57"/>
      <use x="871.679688" xlink:href="#DejaVuSans-51"/>
      <use x="935.302734" xlink:href="#DejaVuSans-48"/>
      <use x="998.925781" xlink:href="#DejaVuSans-53"/>
      <use x="1062.548828" xlink:href="#DejaVuSans-41"/>
     </g>
    </g>
    <g id="line2d_50">
     <path d="M 66.6 263.648062 
L 86.6 263.648062 
" style="fill:none;stroke:#ff0000;stroke-linecap:square;stroke-opacity:0.8;stroke-width:1.5;"/>
    </g>
    <g id="line2d_51"/>
    <g id="text_23">
     <!-- fold 8 (AUC = 0.9307) -->
     <g transform="translate(94.6 267.148062)scale(0.1 -0.1)">
      <use xlink:href="#DejaVuSans-102"/>
      <use x="35.205078" xlink:href="#DejaVuSans-111"/>
      <use x="96.386719" xlink:href="#DejaVuSans-108"/>
      <use x="124.169922" xlink:href="#DejaVuSans-100"/>
      <use x="187.646484" xlink:href="#DejaVuSans-32"/>
      <use x="219.433594" xlink:href="#DejaVuSans-56"/>
      <use x="283.056641" xlink:href="#DejaVuSans-32"/>
      <use x="314.84375" xlink:href="#DejaVuSans-40"/>
      <use x="353.857422" xlink:href="#DejaVuSans-65"/>
      <use x="422.265625" xlink:href="#DejaVuSans-85"/>
      <use x="495.458984" xlink:href="#DejaVuSans-67"/>
      <use x="565.283203" xlink:href="#DejaVuSans-32"/>
      <use x="597.070312" xlink:href="#DejaVuSans-61"/>
      <use x="680.859375" xlink:href="#DejaVuSans-32"/>
      <use x="712.646484" xlink:href="#DejaVuSans-48"/>
      <use x="776.269531" xlink:href="#DejaVuSans-46"/>
      <use x="808.056641" xlink:href="#DejaVuSans-57"/>
      <use x="871.679688" xlink:href="#DejaVuSans-51"/>
      <use x="935.302734" xlink:href="#DejaVuSans-48"/>
      <use x="998.925781" xlink:href="#DejaVuSans-55"/>
      <use x="1062.548828" xlink:href="#DejaVuSans-41"/>
     </g>
    </g>
    <g id="line2d_52">
     <path d="M 66.6 278.326187 
L 86.6 278.326187 
" style="fill:none;stroke:#ff0000;stroke-linecap:square;stroke-opacity:0.8;stroke-width:1.5;"/>
    </g>
    <g id="line2d_53"/>
    <g id="text_24">
     <!-- fold 9 (AUC = 0.9347) -->
     <g transform="translate(94.6 281.826187)scale(0.1 -0.1)">
      <use xlink:href="#DejaVuSans-102"/>
      <use x="35.205078" xlink:href="#DejaVuSans-111"/>
      <use x="96.386719" xlink:href="#DejaVuSans-108"/>
      <use x="124.169922" xlink:href="#DejaVuSans-100"/>
      <use x="187.646484" xlink:href="#DejaVuSans-32"/>
      <use x="219.433594" xlink:href="#DejaVuSans-57"/>
      <use x="283.056641" xlink:href="#DejaVuSans-32"/>
      <use x="314.84375" xlink:href="#DejaVuSans-40"/>
      <use x="353.857422" xlink:href="#DejaVuSans-65"/>
      <use x="422.265625" xlink:href="#DejaVuSans-85"/>
      <use x="495.458984" xlink:href="#DejaVuSans-67"/>
      <use x="565.283203" xlink:href="#DejaVuSans-32"/>
      <use x="597.070312" xlink:href="#DejaVuSans-61"/>
      <use x="680.859375" xlink:href="#DejaVuSans-32"/>
      <use x="712.646484" xlink:href="#DejaVuSans-48"/>
      <use x="776.269531" xlink:href="#DejaVuSans-46"/>
      <use x="808.056641" xlink:href="#DejaVuSans-57"/>
      <use x="871.679688" xlink:href="#DejaVuSans-51"/>
      <use x="935.302734" xlink:href="#DejaVuSans-52"/>
      <use x="998.925781" xlink:href="#DejaVuSans-55"/>
      <use x="1062.548828" xlink:href="#DejaVuSans-41"/>
     </g>
    </g>
    <g id="line2d_54">
     <path d="M 66.6 293.004312 
L 86.6 293.004312 
" style="fill:none;stroke:#000000;stroke-linecap:square;stroke-width:2;"/>
    </g>
    <g id="line2d_55"/>
    <g id="text_25">
     <!-- Mean (AUC = 0.9282) -->
     <defs>
      <path d="M 9.8125 72.90625 
L 24.515625 72.90625 
L 43.109375 23.296875 
L 61.8125 72.90625 
L 76.515625 72.90625 
L 76.515625 0 
L 66.890625 0 
L 66.890625 64.015625 
L 48.09375 14.015625 
L 38.1875 14.015625 
L 19.390625 64.015625 
L 19.390625 0 
L 9.8125 0 
z
" id="DejaVuSans-77"/>
      <path d="M 54.890625 33.015625 
L 54.890625 0 
L 45.90625 0 
L 45.90625 32.71875 
Q 45.90625 40.484375 42.875 44.328125 
Q 39.84375 48.1875 33.796875 48.1875 
Q 26.515625 48.1875 22.3125 43.546875 
Q 18.109375 38.921875 18.109375 30.90625 
L 18.109375 0 
L 9.078125 0 
L 9.078125 54.6875 
L 18.109375 54.6875 
L 18.109375 46.1875 
Q 21.34375 51.125 25.703125 53.5625 
Q 30.078125 56 35.796875 56 
Q 45.21875 56 50.046875 50.171875 
Q 54.890625 44.34375 54.890625 33.015625 
z
" id="DejaVuSans-110"/>
     </defs>
     <g transform="translate(94.6 296.504312)scale(0.1 -0.1)">
      <use xlink:href="#DejaVuSans-77"/>
      <use x="86.279297" xlink:href="#DejaVuSans-101"/>
      <use x="147.802734" xlink:href="#DejaVuSans-97"/>
      <use x="209.082031" xlink:href="#DejaVuSans-110"/>
      <use x="272.460938" xlink:href="#DejaVuSans-32"/>
      <use x="304.248047" xlink:href="#DejaVuSans-40"/>
      <use x="343.261719" xlink:href="#DejaVuSans-65"/>
      <use x="411.669922" xlink:href="#DejaVuSans-85"/>
      <use x="484.863281" xlink:href="#DejaVuSans-67"/>
      <use x="554.6875" xlink:href="#DejaVuSans-32"/>
      <use x="586.474609" xlink:href="#DejaVuSans-61"/>
      <use x="670.263672" xlink:href="#DejaVuSans-32"/>
      <use x="702.050781" xlink:href="#DejaVuSans-48"/>
      <use x="765.673828" xlink:href="#DejaVuSans-46"/>
      <use x="797.460938" xlink:href="#DejaVuSans-57"/>
      <use x="861.083984" xlink:href="#DejaVuSans-50"/>
      <use x="924.707031" xlink:href="#DejaVuSans-56"/>
      <use x="988.330078" xlink:href="#DejaVuSans-50"/>
      <use x="1051.953125" xlink:href="#DejaVuSans-41"/>
     </g>
    </g>
   </g>
  </g>
 </g>
 <defs>
  <clipPath id="pde8cca6f8b">
   <rect height="266.112" width="357.12" x="57.6" y="41.472"/>
  </clipPath>
 </defs>
</svg>
