<?xml version="1.0" encoding="utf-8" standalone="no"?>
<!DOCTYPE svg PUBLIC "-//W3C//DTD SVG 1.1//EN"
  "http://www.w3.org/Graphics/SVG/1.1/DTD/svg11.dtd">
<!-- Created with matplotlib (https://matplotlib.org/) -->
<svg height="345.6pt" version="1.1" viewBox="0 0 460.8 345.6" width="460.8pt" xmlns="http://www.w3.org/2000/svg" xmlns:xlink="http://www.w3.org/1999/xlink">
 <defs>
  <style type="text/css">
*{stroke-linecap:butt;stroke-linejoin:round;}
  </style>
 </defs>
 <g id="figure_1">
  <g id="patch_1">
   <path d="M 0 345.6 
L 460.8 345.6 
L 460.8 0 
L 0 0 
z
" style="fill:#ffffff;"/>
  </g>
  <g id="axes_1">
   <g id="patch_2">
    <path d="M 57.6 307.584 
L 414.72 307.584 
L 414.72 41.472 
L 57.6 41.472 
z
" style="fill:#ffffff;"/>
   </g>
   <g id="matplotlib.axis_1">
    <g id="xtick_1">
     <g id="line2d_1">
      <defs>
       <path d="M 0 0 
L 0 3.5 
" id="m7d2dac277c" style="stroke:#000000;stroke-width:0.8;"/>
      </defs>
      <g>
       <use style="stroke:#000000;stroke-width:0.8;" x="73.832727" xlink:href="#m7d2dac277c" y="307.584"/>
      </g>
     </g>
     <g id="text_1">
      <!-- 0.0 -->
      <defs>
       <path d="M 31.78125 66.40625 
Q 24.171875 66.40625 20.328125 58.90625 
Q 16.5 51.421875 16.5 36.375 
Q 16.5 21.390625 20.328125 13.890625 
Q 24.171875 6.390625 31.78125 6.390625 
Q 39.453125 6.390625 43.28125 13.890625 
Q 47.125 21.390625 47.125 36.375 
Q 47.125 51.421875 43.28125 58.90625 
Q 39.453125 66.40625 31.78125 66.40625 
z
M 31.78125 74.21875 
Q 44.046875 74.21875 50.515625 64.515625 
Q 56.984375 54.828125 56.984375 36.375 
Q 56.984375 17.96875 50.515625 8.265625 
Q 44.046875 -1.421875 31.78125 -1.421875 
Q 19.53125 -1.421875 13.0625 8.265625 
Q 6.59375 17.96875 6.59375 36.375 
Q 6.59375 54.828125 13.0625 64.515625 
Q 19.53125 74.21875 31.78125 74.21875 
z
" id="DejaVuSans-48"/>
       <path d="M 10.6875 12.40625 
L 21 12.40625 
L 21 0 
L 10.6875 0 
z
" id="DejaVuSans-46"/>
      </defs>
      <g transform="translate(65.881165 322.182437)scale(0.1 -0.1)">
       <use xlink:href="#DejaVuSans-48"/>
       <use x="63.623047" xlink:href="#DejaVuSans-46"/>
       <use x="95.410156" xlink:href="#DejaVuSans-48"/>
      </g>
     </g>
    </g>
    <g id="xtick_2">
     <g id="line2d_2">
      <g>
       <use style="stroke:#000000;stroke-width:0.8;" x="138.763636" xlink:href="#m7d2dac277c" y="307.584"/>
      </g>
     </g>
     <g id="text_2">
      <!-- 0.2 -->
      <defs>
       <path d="M 19.1875 8.296875 
L 53.609375 8.296875 
L 53.609375 0 
L 7.328125 0 
L 7.328125 8.296875 
Q 12.9375 14.109375 22.625 23.890625 
Q 32.328125 33.6875 34.8125 36.53125 
Q 39.546875 41.84375 41.421875 45.53125 
Q 43.3125 49.21875 43.3125 52.78125 
Q 43.3125 58.59375 39.234375 62.25 
Q 35.15625 65.921875 28.609375 65.921875 
Q 23.96875 65.921875 18.8125 64.3125 
Q 13.671875 62.703125 7.8125 59.421875 
L 7.8125 69.390625 
Q 13.765625 71.78125 18.9375 73 
Q 24.125 74.21875 28.421875 74.21875 
Q 39.75 74.21875 46.484375 68.546875 
Q 53.21875 62.890625 53.21875 53.421875 
Q 53.21875 48.921875 51.53125 44.890625 
Q 49.859375 40.875 45.40625 35.40625 
Q 44.1875 33.984375 37.640625 27.21875 
Q 31.109375 20.453125 19.1875 8.296875 
z
" id="DejaVuSans-50"/>
      </defs>
      <g transform="translate(130.812074 322.182437)scale(0.1 -0.1)">
       <use xlink:href="#DejaVuSans-48"/>
       <use x="63.623047" xlink:href="#DejaVuSans-46"/>
       <use x="95.410156" xlink:href="#DejaVuSans-50"/>
      </g>
     </g>
    </g>
    <g id="xtick_3">
     <g id="line2d_3">
      <g>
       <use style="stroke:#000000;stroke-width:0.8;" x="203.694545" xlink:href="#m7d2dac277c" y="307.584"/>
      </g>
     </g>
     <g id="text_3">
      <!-- 0.4 -->
      <defs>
       <path d="M 37.796875 64.3125 
L 12.890625 25.390625 
L 37.796875 25.390625 
z
M 35.203125 72.90625 
L 47.609375 72.90625 
L 47.609375 25.390625 
L 58.015625 25.390625 
L 58.015625 17.1875 
L 47.609375 17.1875 
L 47.609375 0 
L 37.796875 0 
L 37.796875 17.1875 
L 4.890625 17.1875 
L 4.890625 26.703125 
z
" id="DejaVuSans-52"/>
      </defs>
      <g transform="translate(195.742983 322.182437)scale(0.1 -0.1)">
       <use xlink:href="#DejaVuSans-48"/>
       <use x="63.623047" xlink:href="#DejaVuSans-46"/>
       <use x="95.410156" xlink:href="#DejaVuSans-52"/>
      </g>
     </g>
    </g>
    <g id="xtick_4">
     <g id="line2d_4">
      <g>
       <use style="stroke:#000000;stroke-width:0.8;" x="268.625455" xlink:href="#m7d2dac277c" y="307.584"/>
      </g>
     </g>
     <g id="text_4">
      <!-- 0.6 -->
      <defs>
       <path d="M 33.015625 40.375 
Q 26.375 40.375 22.484375 35.828125 
Q 18.609375 31.296875 18.609375 23.390625 
Q 18.609375 15.53125 22.484375 10.953125 
Q 26.375 6.390625 33.015625 6.390625 
Q 39.65625 6.390625 43.53125 10.953125 
Q 47.40625 15.53125 47.40625 23.390625 
Q 47.40625 31.296875 43.53125 35.828125 
Q 39.65625 40.375 33.015625 40.375 
z
M 52.59375 71.296875 
L 52.59375 62.3125 
Q 48.875 64.0625 45.09375 64.984375 
Q 41.3125 65.921875 37.59375 65.921875 
Q 27.828125 65.921875 22.671875 59.328125 
Q 17.53125 52.734375 16.796875 39.40625 
Q 19.671875 43.65625 24.015625 45.921875 
Q 28.375 48.1875 33.59375 48.1875 
Q 44.578125 48.1875 50.953125 41.515625 
Q 57.328125 34.859375 57.328125 23.390625 
Q 57.328125 12.15625 50.6875 5.359375 
Q 44.046875 -1.421875 33.015625 -1.421875 
Q 20.359375 -1.421875 13.671875 8.265625 
Q 6.984375 17.96875 6.984375 36.375 
Q 6.984375 53.65625 15.1875 63.9375 
Q 23.390625 74.21875 37.203125 74.21875 
Q 40.921875 74.21875 44.703125 73.484375 
Q 48.484375 72.75 52.59375 71.296875 
z
" id="DejaVuSans-54"/>
      </defs>
      <g transform="translate(260.673892 322.182437)scale(0.1 -0.1)">
       <use xlink:href="#DejaVuSans-48"/>
       <use x="63.623047" xlink:href="#DejaVuSans-46"/>
       <use x="95.410156" xlink:href="#DejaVuSans-54"/>
      </g>
     </g>
    </g>
    <g id="xtick_5">
     <g id="line2d_5">
      <g>
       <use style="stroke:#000000;stroke-width:0.8;" x="333.556364" xlink:href="#m7d2dac277c" y="307.584"/>
      </g>
     </g>
     <g id="text_5">
      <!-- 0.8 -->
      <defs>
       <path d="M 31.78125 34.625 
Q 24.75 34.625 20.71875 30.859375 
Q 16.703125 27.09375 16.703125 20.515625 
Q 16.703125 13.921875 20.71875 10.15625 
Q 24.75 6.390625 31.78125 6.390625 
Q 38.8125 6.390625 42.859375 10.171875 
Q 46.921875 13.96875 46.921875 20.515625 
Q 46.921875 27.09375 42.890625 30.859375 
Q 38.875 34.625 31.78125 34.625 
z
M 21.921875 38.8125 
Q 15.578125 40.375 12.03125 44.71875 
Q 8.5 49.078125 8.5 55.328125 
Q 8.5 64.0625 14.71875 69.140625 
Q 20.953125 74.21875 31.78125 74.21875 
Q 42.671875 74.21875 48.875 69.140625 
Q 55.078125 64.0625 55.078125 55.328125 
Q 55.078125 49.078125 51.53125 44.71875 
Q 48 40.375 41.703125 38.8125 
Q 48.828125 37.15625 52.796875 32.3125 
Q 56.78125 27.484375 56.78125 20.515625 
Q 56.78125 9.90625 50.3125 4.234375 
Q 43.84375 -1.421875 31.78125 -1.421875 
Q 19.734375 -1.421875 13.25 4.234375 
Q 6.78125 9.90625 6.78125 20.515625 
Q 6.78125 27.484375 10.78125 32.3125 
Q 14.796875 37.15625 21.921875 38.8125 
z
M 18.3125 54.390625 
Q 18.3125 48.734375 21.84375 45.5625 
Q 25.390625 42.390625 31.78125 42.390625 
Q 38.140625 42.390625 41.71875 45.5625 
Q 45.3125 48.734375 45.3125 54.390625 
Q 45.3125 60.0625 41.71875 63.234375 
Q 38.140625 66.40625 31.78125 66.40625 
Q 25.390625 66.40625 21.84375 63.234375 
Q 18.3125 60.0625 18.3125 54.390625 
z
" id="DejaVuSans-56"/>
      </defs>
      <g transform="translate(325.604801 322.182437)scale(0.1 -0.1)">
       <use xlink:href="#DejaVuSans-48"/>
       <use x="63.623047" xlink:href="#DejaVuSans-46"/>
       <use x="95.410156" xlink:href="#DejaVuSans-56"/>
      </g>
     </g>
    </g>
    <g id="xtick_6">
     <g id="line2d_6">
      <g>
       <use style="stroke:#000000;stroke-width:0.8;" x="398.487273" xlink:href="#m7d2dac277c" y="307.584"/>
      </g>
     </g>
     <g id="text_6">
      <!-- 1.0 -->
      <defs>
       <path d="M 12.40625 8.296875 
L 28.515625 8.296875 
L 28.515625 63.921875 
L 10.984375 60.40625 
L 10.984375 69.390625 
L 28.421875 72.90625 
L 38.28125 72.90625 
L 38.28125 8.296875 
L 54.390625 8.296875 
L 54.390625 0 
L 12.40625 0 
z
" id="DejaVuSans-49"/>
      </defs>
      <g transform="translate(390.53571 322.182437)scale(0.1 -0.1)">
       <use xlink:href="#DejaVuSans-49"/>
       <use x="63.623047" xlink:href="#DejaVuSans-46"/>
       <use x="95.410156" xlink:href="#DejaVuSans-48"/>
      </g>
     </g>
    </g>
    <g id="text_7">
     <!-- False Positive Rate -->
     <defs>
      <path d="M 9.8125 72.90625 
L 51.703125 72.90625 
L 51.703125 64.59375 
L 19.671875 64.59375 
L 19.671875 43.109375 
L 48.578125 43.109375 
L 48.578125 34.8125 
L 19.671875 34.8125 
L 19.671875 0 
L 9.8125 0 
z
" id="DejaVuSans-70"/>
      <path d="M 34.28125 27.484375 
Q 23.390625 27.484375 19.1875 25 
Q 14.984375 22.515625 14.984375 16.5 
Q 14.984375 11.71875 18.140625 8.90625 
Q 21.296875 6.109375 26.703125 6.109375 
Q 34.1875 6.109375 38.703125 11.40625 
Q 43.21875 16.703125 43.21875 25.484375 
L 43.21875 27.484375 
z
M 52.203125 31.203125 
L 52.203125 0 
L 43.21875 0 
L 43.21875 8.296875 
Q 40.140625 3.328125 35.546875 0.953125 
Q 30.953125 -1.421875 24.3125 -1.421875 
Q 15.921875 -1.421875 10.953125 3.296875 
Q 6 8.015625 6 15.921875 
Q 6 25.140625 12.171875 29.828125 
Q 18.359375 34.515625 30.609375 34.515625 
L 43.21875 34.515625 
L 43.21875 35.40625 
Q 43.21875 41.609375 39.140625 45 
Q 35.0625 48.390625 27.6875 48.390625 
Q 23 48.390625 18.546875 47.265625 
Q 14.109375 46.140625 10.015625 43.890625 
L 10.015625 52.203125 
Q 14.9375 54.109375 19.578125 55.046875 
Q 24.21875 56 28.609375 56 
Q 40.484375 56 46.34375 49.84375 
Q 52.203125 43.703125 52.203125 31.203125 
z
" id="DejaVuSans-97"/>
      <path d="M 9.421875 75.984375 
L 18.40625 75.984375 
L 18.40625 0 
L 9.421875 0 
z
" id="DejaVuSans-108"/>
      <path d="M 44.28125 53.078125 
L 44.28125 44.578125 
Q 40.484375 46.53125 36.375 47.5 
Q 32.28125 48.484375 27.875 48.484375 
Q 21.1875 48.484375 17.84375 46.4375 
Q 14.5 44.390625 14.5 40.28125 
Q 14.5 37.15625 16.890625 35.375 
Q 19.28125 33.59375 26.515625 31.984375 
L 29.59375 31.296875 
Q 39.15625 29.25 43.1875 25.515625 
Q 47.21875 21.78125 47.21875 15.09375 
Q 47.21875 7.46875 41.1875 3.015625 
Q 35.15625 -1.421875 24.609375 -1.421875 
Q 20.21875 -1.421875 15.453125 -0.5625 
Q 10.6875 0.296875 5.421875 2 
L 5.421875 11.28125 
Q 10.40625 8.6875 15.234375 7.390625 
Q 20.0625 6.109375 24.8125 6.109375 
Q 31.15625 6.109375 34.5625 8.28125 
Q 37.984375 10.453125 37.984375 14.40625 
Q 37.984375 18.0625 35.515625 20.015625 
Q 33.0625 21.96875 24.703125 23.78125 
L 21.578125 24.515625 
Q 13.234375 26.265625 9.515625 29.90625 
Q 5.8125 33.546875 5.8125 39.890625 
Q 5.8125 47.609375 11.28125 51.796875 
Q 16.75 56 26.8125 56 
Q 31.78125 56 36.171875 55.265625 
Q 40.578125 54.546875 44.28125 53.078125 
z
" id="DejaVuSans-115"/>
      <path d="M 56.203125 29.59375 
L 56.203125 25.203125 
L 14.890625 25.203125 
Q 15.484375 15.921875 20.484375 11.0625 
Q 25.484375 6.203125 34.421875 6.203125 
Q 39.59375 6.203125 44.453125 7.46875 
Q 49.3125 8.734375 54.109375 11.28125 
L 54.109375 2.78125 
Q 49.265625 0.734375 44.1875 -0.34375 
Q 39.109375 -1.421875 33.890625 -1.421875 
Q 20.796875 -1.421875 13.15625 6.1875 
Q 5.515625 13.8125 5.515625 26.8125 
Q 5.515625 40.234375 12.765625 48.109375 
Q 20.015625 56 32.328125 56 
Q 43.359375 56 49.78125 48.890625 
Q 56.203125 41.796875 56.203125 29.59375 
z
M 47.21875 32.234375 
Q 47.125 39.59375 43.09375 43.984375 
Q 39.0625 48.390625 32.421875 48.390625 
Q 24.90625 48.390625 20.390625 44.140625 
Q 15.875 39.890625 15.1875 32.171875 
z
" id="DejaVuSans-101"/>
      <path id="DejaVuSans-32"/>
      <path d="M 19.671875 64.796875 
L 19.671875 37.40625 
L 32.078125 37.40625 
Q 38.96875 37.40625 42.71875 40.96875 
Q 46.484375 44.53125 46.484375 51.125 
Q 46.484375 57.671875 42.71875 61.234375 
Q 38.96875 64.796875 32.078125 64.796875 
z
M 9.8125 72.90625 
L 32.078125 72.90625 
Q 44.34375 72.90625 50.609375 67.359375 
Q 56.890625 61.8125 56.890625 51.125 
Q 56.890625 40.328125 50.609375 34.8125 
Q 44.34375 29.296875 32.078125 29.296875 
L 19.671875 29.296875 
L 19.671875 0 
L 9.8125 0 
z
" id="DejaVuSans-80"/>
      <path d="M 30.609375 48.390625 
Q 23.390625 48.390625 19.1875 42.75 
Q 14.984375 37.109375 14.984375 27.296875 
Q 14.984375 17.484375 19.15625 11.84375 
Q 23.34375 6.203125 30.609375 6.203125 
Q 37.796875 6.203125 41.984375 11.859375 
Q 46.1875 17.53125 46.1875 27.296875 
Q 46.1875 37.015625 41.984375 42.703125 
Q 37.796875 48.390625 30.609375 48.390625 
z
M 30.609375 56 
Q 42.328125 56 49.015625 48.375 
Q 55.71875 40.765625 55.71875 27.296875 
Q 55.71875 13.875 49.015625 6.21875 
Q 42.328125 -1.421875 30.609375 -1.421875 
Q 18.84375 -1.421875 12.171875 6.21875 
Q 5.515625 13.875 5.515625 27.296875 
Q 5.515625 40.765625 12.171875 48.375 
Q 18.84375 56 30.609375 56 
z
" id="DejaVuSans-111"/>
      <path d="M 9.421875 54.6875 
L 18.40625 54.6875 
L 18.40625 0 
L 9.421875 0 
z
M 9.421875 75.984375 
L 18.40625 75.984375 
L 18.40625 64.59375 
L 9.421875 64.59375 
z
" id="DejaVuSans-105"/>
      <path d="M 18.3125 70.21875 
L 18.3125 54.6875 
L 36.8125 54.6875 
L 36.8125 47.703125 
L 18.3125 47.703125 
L 18.3125 18.015625 
Q 18.3125 11.328125 20.140625 9.421875 
Q 21.96875 7.515625 27.59375 7.515625 
L 36.8125 7.515625 
L 36.8125 0 
L 27.59375 0 
Q 17.1875 0 13.234375 3.875 
Q 9.28125 7.765625 9.28125 18.015625 
L 9.28125 47.703125 
L 2.6875 47.703125 
L 2.6875 54.6875 
L 9.28125 54.6875 
L 9.28125 70.21875 
z
" id="DejaVuSans-116"/>
      <path d="M 2.984375 54.6875 
L 12.5 54.6875 
L 29.59375 8.796875 
L 46.6875 54.6875 
L 56.203125 54.6875 
L 35.6875 0 
L 23.484375 0 
z
" id="DejaVuSans-118"/>
      <path d="M 44.390625 34.1875 
Q 47.5625 33.109375 50.5625 29.59375 
Q 53.5625 26.078125 56.59375 19.921875 
L 66.609375 0 
L 56 0 
L 46.6875 18.703125 
Q 43.0625 26.03125 39.671875 28.421875 
Q 36.28125 30.8125 30.421875 30.8125 
L 19.671875 30.8125 
L 19.671875 0 
L 9.8125 0 
L 9.8125 72.90625 
L 32.078125 72.90625 
Q 44.578125 72.90625 50.734375 67.671875 
Q 56.890625 62.453125 56.890625 51.90625 
Q 56.890625 45.015625 53.6875 40.46875 
Q 50.484375 35.9375 44.390625 34.1875 
z
M 19.671875 64.796875 
L 19.671875 38.921875 
L 32.078125 38.921875 
Q 39.203125 38.921875 42.84375 42.21875 
Q 46.484375 45.515625 46.484375 51.90625 
Q 46.484375 58.296875 42.84375 61.546875 
Q 39.203125 64.796875 32.078125 64.796875 
z
" id="DejaVuSans-82"/>
     </defs>
     <g transform="translate(174.792891 338.140094)scale(0.13 -0.13)">
      <use xlink:href="#DejaVuSans-70"/>
      <use x="57.378906" xlink:href="#DejaVuSans-97"/>
      <use x="118.658203" xlink:href="#DejaVuSans-108"/>
      <use x="146.441406" xlink:href="#DejaVuSans-115"/>
      <use x="198.541016" xlink:href="#DejaVuSans-101"/>
      <use x="260.064453" xlink:href="#DejaVuSans-32"/>
      <use x="291.851562" xlink:href="#DejaVuSans-80"/>
      <use x="352.107422" xlink:href="#DejaVuSans-111"/>
      <use x="413.289062" xlink:href="#DejaVuSans-115"/>
      <use x="465.388672" xlink:href="#DejaVuSans-105"/>
      <use x="493.171875" xlink:href="#DejaVuSans-116"/>
      <use x="532.380859" xlink:href="#DejaVuSans-105"/>
      <use x="560.164062" xlink:href="#DejaVuSans-118"/>
      <use x="619.34375" xlink:href="#DejaVuSans-101"/>
      <use x="680.867188" xlink:href="#DejaVuSans-32"/>
      <use x="712.654297" xlink:href="#DejaVuSans-82"/>
      <use x="782.105469" xlink:href="#DejaVuSans-97"/>
      <use x="843.384766" xlink:href="#DejaVuSans-116"/>
      <use x="882.59375" xlink:href="#DejaVuSans-101"/>
     </g>
    </g>
   </g>
   <g id="matplotlib.axis_2">
    <g id="ytick_1">
     <g id="line2d_7">
      <defs>
       <path d="M 0 0 
L -3.5 0 
" id="meafa072883" style="stroke:#000000;stroke-width:0.8;"/>
      </defs>
      <g>
       <use style="stroke:#000000;stroke-width:0.8;" x="57.6" xlink:href="#meafa072883" y="295.488"/>
      </g>
     </g>
     <g id="text_8">
      <!-- 0.0 -->
      <g transform="translate(34.696875 299.287219)scale(0.1 -0.1)">
       <use xlink:href="#DejaVuSans-48"/>
       <use x="63.623047" xlink:href="#DejaVuSans-46"/>
       <use x="95.410156" xlink:href="#DejaVuSans-48"/>
      </g>
     </g>
    </g>
    <g id="ytick_2">
     <g id="line2d_8">
      <g>
       <use style="stroke:#000000;stroke-width:0.8;" x="57.6" xlink:href="#meafa072883" y="247.104"/>
      </g>
     </g>
     <g id="text_9">
      <!-- 0.2 -->
      <g transform="translate(34.696875 250.903219)scale(0.1 -0.1)">
       <use xlink:href="#DejaVuSans-48"/>
       <use x="63.623047" xlink:href="#DejaVuSans-46"/>
       <use x="95.410156" xlink:href="#DejaVuSans-50"/>
      </g>
     </g>
    </g>
    <g id="ytick_3">
     <g id="line2d_9">
      <g>
       <use style="stroke:#000000;stroke-width:0.8;" x="57.6" xlink:href="#meafa072883" y="198.72"/>
      </g>
     </g>
     <g id="text_10">
      <!-- 0.4 -->
      <g transform="translate(34.696875 202.519219)scale(0.1 -0.1)">
       <use xlink:href="#DejaVuSans-48"/>
       <use x="63.623047" xlink:href="#DejaVuSans-46"/>
       <use x="95.410156" xlink:href="#DejaVuSans-52"/>
      </g>
     </g>
    </g>
    <g id="ytick_4">
     <g id="line2d_10">
      <g>
       <use style="stroke:#000000;stroke-width:0.8;" x="57.6" xlink:href="#meafa072883" y="150.336"/>
      </g>
     </g>
     <g id="text_11">
      <!-- 0.6 -->
      <g transform="translate(34.696875 154.135219)scale(0.1 -0.1)">
       <use xlink:href="#DejaVuSans-48"/>
       <use x="63.623047" xlink:href="#DejaVuSans-46"/>
       <use x="95.410156" xlink:href="#DejaVuSans-54"/>
      </g>
     </g>
    </g>
    <g id="ytick_5">
     <g id="line2d_11">
      <g>
       <use style="stroke:#000000;stroke-width:0.8;" x="57.6" xlink:href="#meafa072883" y="101.952"/>
      </g>
     </g>
     <g id="text_12">
      <!-- 0.8 -->
      <g transform="translate(34.696875 105.751219)scale(0.1 -0.1)">
       <use xlink:href="#DejaVuSans-48"/>
       <use x="63.623047" xlink:href="#DejaVuSans-46"/>
       <use x="95.410156" xlink:href="#DejaVuSans-56"/>
      </g>
     </g>
    </g>
    <g id="ytick_6">
     <g id="line2d_12">
      <g>
       <use style="stroke:#000000;stroke-width:0.8;" x="57.6" xlink:href="#meafa072883" y="53.568"/>
      </g>
     </g>
     <g id="text_13">
      <!-- 1.0 -->
      <g transform="translate(34.696875 57.367219)scale(0.1 -0.1)">
       <use xlink:href="#DejaVuSans-49"/>
       <use x="63.623047" xlink:href="#DejaVuSans-46"/>
       <use x="95.410156" xlink:href="#DejaVuSans-48"/>
      </g>
     </g>
    </g>
    <g id="text_14">
     <!-- True Positive Rate -->
     <defs>
      <path d="M -0.296875 72.90625 
L 61.375 72.90625 
L 61.375 64.59375 
L 35.5 64.59375 
L 35.5 0 
L 25.59375 0 
L 25.59375 64.59375 
L -0.296875 64.59375 
z
" id="DejaVuSans-84"/>
      <path d="M 41.109375 46.296875 
Q 39.59375 47.171875 37.8125 47.578125 
Q 36.03125 48 33.890625 48 
Q 26.265625 48 22.1875 43.046875 
Q 18.109375 38.09375 18.109375 28.8125 
L 18.109375 0 
L 9.078125 0 
L 9.078125 54.6875 
L 18.109375 54.6875 
L 18.109375 46.1875 
Q 20.953125 51.171875 25.484375 53.578125 
Q 30.03125 56 36.53125 56 
Q 37.453125 56 38.578125 55.875 
Q 39.703125 55.765625 41.0625 55.515625 
z
" id="DejaVuSans-114"/>
      <path d="M 8.5 21.578125 
L 8.5 54.6875 
L 17.484375 54.6875 
L 17.484375 21.921875 
Q 17.484375 14.15625 20.5 10.265625 
Q 23.53125 6.390625 29.59375 6.390625 
Q 36.859375 6.390625 41.078125 11.03125 
Q 45.3125 15.671875 45.3125 23.6875 
L 45.3125 54.6875 
L 54.296875 54.6875 
L 54.296875 0 
L 45.3125 0 
L 45.3125 8.40625 
Q 42.046875 3.421875 37.71875 1 
Q 33.40625 -1.421875 27.6875 -1.421875 
Q 18.265625 -1.421875 13.375 4.4375 
Q 8.5 10.296875 8.5 21.578125 
z
M 31.109375 56 
z
" id="DejaVuSans-117"/>
     </defs>
     <g transform="translate(27.993281 233.737922)rotate(-90)scale(0.13 -0.13)">
      <use xlink:href="#DejaVuSans-84"/>
      <use x="60.865234" xlink:href="#DejaVuSans-114"/>
      <use x="101.978516" xlink:href="#DejaVuSans-117"/>
      <use x="165.357422" xlink:href="#DejaVuSans-101"/>
      <use x="226.880859" xlink:href="#DejaVuSans-32"/>
      <use x="258.667969" xlink:href="#DejaVuSans-80"/>
      <use x="318.923828" xlink:href="#DejaVuSans-111"/>
      <use x="380.105469" xlink:href="#DejaVuSans-115"/>
      <use x="432.205078" xlink:href="#DejaVuSans-105"/>
      <use x="459.988281" xlink:href="#DejaVuSans-116"/>
      <use x="499.197266" xlink:href="#DejaVuSans-105"/>
      <use x="526.980469" xlink:href="#DejaVuSans-118"/>
      <use x="586.160156" xlink:href="#DejaVuSans-101"/>
      <use x="647.683594" xlink:href="#DejaVuSans-32"/>
      <use x="679.470703" xlink:href="#DejaVuSans-82"/>
      <use x="748.921875" xlink:href="#DejaVuSans-97"/>
      <use x="810.201172" xlink:href="#DejaVuSans-116"/>
      <use x="849.410156" xlink:href="#DejaVuSans-101"/>
     </g>
    </g>
   </g>
   <g id="line2d_13">
    <path clip-path="url(#p73964023ff)" d="M 73.832727 295.488 
L 73.832727 295.488 
L 84.606661 118.32977 
L 84.606661 115.118442 
L 85.324924 115.118442 
L 85.324924 113.512779 
L 86.043186 113.512779 
L 86.043186 112.442336 
L 86.043186 111.371894 
L 86.043186 100.132248 
L 86.761448 100.132248 
L 86.761448 99.061805 
L 87.47971 99.061805 
L 87.47971 98.526584 
L 88.197973 98.526584 
L 88.197973 97.991363 
L 88.916235 97.991363 
L 88.916235 97.456142 
L 89.634497 97.456142 
L 89.634497 95.850478 
L 91.071022 95.850478 
L 91.071022 95.315257 
L 91.789284 95.315257 
L 91.789284 94.780035 
L 92.507546 94.780035 
L 92.507546 88.892602 
L 94.662333 88.892602 
L 94.662333 88.357381 
L 95.380595 88.357381 
L 95.380595 87.286938 
L 96.098858 87.286938 
L 96.098858 85.681274 
L 96.81712 85.681274 
L 96.81712 85.146053 
L 97.535382 85.146053 
L 97.535382 82.469947 
L 99.690169 82.469947 
L 99.690169 81.399504 
L 100.408431 81.399504 
L 100.408431 80.864283 
L 101.126693 80.864283 
L 101.126693 79.258619 
L 103.999743 79.258619 
L 103.999743 78.188177 
L 107.591054 78.188177 
L 107.591054 77.652956 
L 108.309316 77.652956 
L 108.309316 77.117735 
L 110.464103 77.117735 
L 110.464103 76.047292 
L 112.61889 76.047292 
L 112.61889 75.512071 
L 114.773677 75.512071 
L 114.773677 74.441628 
L 118.364988 74.441628 
L 118.364988 73.371186 
L 123.392824 73.371186 
L 123.392824 72.835965 
L 126.984135 72.835965 
L 126.984135 72.300743 
L 127.702397 72.300743 
L 127.702397 71.230301 
L 132.730233 71.230301 
L 132.730233 70.69508 
L 137.039807 70.69508 
L 137.039807 70.159858 
L 142.785905 70.159858 
L 142.785905 69.624637 
L 144.22243 69.624637 
L 144.22243 69.089416 
L 147.095479 69.089416 
L 147.095479 68.554195 
L 147.813741 68.554195 
L 147.813741 68.018973 
L 154.278101 68.018973 
L 154.278101 67.483752 
L 171.516396 67.483752 
L 171.516396 66.948531 
L 193.782526 66.948531 
L 193.782526 66.41331 
L 197.373837 66.41331 
L 197.373837 65.878088 
L 198.810362 65.878088 
L 198.810362 65.342867 
L 212.457345 65.342867 
L 212.457345 64.807646 
L 228.259115 64.807646 
L 228.259115 64.272425 
L 239.033049 64.272425 
L 239.033049 63.737204 
L 264.172228 63.737204 
L 265.608753 63.737204 
L 293.620981 63.737204 
L 295.057506 63.737204 
L 353.955012 63.737204 
L 353.955012 63.201982 
L 355.391537 63.201982 
L 355.391537 62.666761 
L 356.828061 62.666761 
L 356.828061 62.13154 
L 369.756782 62.13154 
L 369.756782 61.596319 
L 371.193307 61.596319 
L 371.193307 61.061097 
L 377.657667 61.061097 
L 377.657667 60.525876 
L 382.685503 60.525876 
L 382.685503 59.455434 
L 386.276814 59.455434 
L 386.276814 56.244106 
L 386.276814 53.568 
L 388.431601 53.568 
L 398.487273 53.568 
" style="fill:none;stroke:#ff0000;stroke-linecap:square;stroke-opacity:0.8;stroke-width:1.5;"/>
   </g>
   <g id="line2d_14">
    <path clip-path="url(#p73964023ff)" d="M 73.832727 295.488 
L 73.832727 295.488 
L 88.197973 123.146761 
L 88.197973 114.048 
L 88.197973 112.977558 
L 88.197973 111.371894 
L 88.916235 111.371894 
L 88.916235 109.231009 
L 89.634497 109.231009 
L 89.634497 97.991363 
L 90.352759 97.991363 
L 90.352759 94.244814 
L 91.071022 94.244814 
L 91.071022 92.63915 
L 91.789284 92.63915 
L 91.789284 88.357381 
L 92.507546 88.357381 
L 92.507546 86.751717 
L 93.225809 86.751717 
L 93.225809 81.934726 
L 94.662333 81.934726 
L 94.662333 79.258619 
L 96.098858 79.258619 
L 96.098858 78.723398 
L 97.535382 78.723398 
L 97.535382 76.047292 
L 98.253644 76.047292 
L 98.253644 73.906407 
L 99.690169 73.906407 
L 99.690169 72.835965 
L 101.126693 72.835965 
L 101.126693 72.300743 
L 101.844956 72.300743 
L 101.844956 71.765522 
L 103.28148 71.765522 
L 103.28148 70.69508 
L 103.999743 70.69508 
L 103.999743 70.159858 
L 103.999743 69.089416 
L 104.718005 69.089416 
L 104.718005 68.018973 
L 109.745841 68.018973 
L 109.745841 67.483752 
L 110.464103 67.483752 
L 110.464103 66.41331 
L 112.61889 66.41331 
L 112.61889 65.878088 
L 114.055414 65.878088 
L 114.055414 65.342867 
L 119.08325 65.342867 
L 119.08325 64.807646 
L 121.956299 64.807646 
L 121.956299 64.272425 
L 125.547611 64.272425 
L 125.547611 63.737204 
L 126.984135 63.737204 
L 126.984135 63.201982 
L 130.575447 63.201982 
L 130.575447 62.666761 
L 133.448496 62.666761 
L 133.448496 62.13154 
L 140.631118 62.13154 
L 140.631118 61.596319 
L 154.278101 61.596319 
L 154.278101 61.061097 
L 162.178986 61.061097 
L 162.178986 60.525876 
L 166.48856 60.525876 
L 166.48856 59.990655 
L 181.572068 59.990655 
L 181.572068 59.455434 
L 212.457345 59.455434 
L 212.457345 58.920212 
L 244.060885 58.920212 
L 244.060885 58.384991 
L 366.165471 58.384991 
L 366.165471 57.84977 
L 375.50288 57.84977 
L 375.50288 57.314549 
L 379.812454 57.314549 
L 379.812454 56.779327 
L 381.967241 56.779327 
L 381.967241 56.244106 
L 385.558552 56.244106 
L 385.558552 55.173664 
L 388.431601 55.173664 
L 388.431601 53.568 
L 389.149863 53.568 
L 398.487273 53.568 
" style="fill:none;stroke:#ff0000;stroke-linecap:square;stroke-opacity:0.8;stroke-width:1.5;"/>
   </g>
   <g id="line2d_15">
    <path clip-path="url(#p73964023ff)" d="M 73.832727 295.488 
L 73.832727 295.488 
L 88.197973 123.146761 
L 88.197973 117.259327 
L 88.916235 117.259327 
L 88.916235 111.371894 
L 89.634497 111.371894 
L 89.634497 110.301451 
L 90.352759 110.301451 
L 90.352759 108.695788 
L 91.789284 108.695788 
L 91.789284 101.20269 
L 92.507546 101.20269 
L 92.507546 99.597027 
L 93.225809 99.597027 
L 93.225809 97.991363 
L 93.944071 97.991363 
L 93.944071 91.033487 
L 94.662333 91.033487 
L 94.662333 90.498265 
L 95.380595 90.498265 
L 95.380595 89.963044 
L 96.098858 89.963044 
L 96.098858 88.892602 
L 96.81712 88.892602 
L 96.81712 88.357381 
L 97.535382 88.357381 
L 97.535382 87.822159 
L 97.535382 86.751717 
L 97.535382 84.075611 
L 98.253644 84.075611 
L 98.253644 83.540389 
L 98.971907 83.540389 
L 98.971907 80.329062 
L 99.690169 80.329062 
L 99.690169 78.723398 
L 100.408431 78.723398 
L 100.408431 78.188177 
L 101.126693 78.188177 
L 101.126693 77.652956 
L 101.844956 77.652956 
L 101.844956 77.117735 
L 103.999743 77.117735 
L 103.999743 76.582513 
L 104.718005 76.582513 
L 104.718005 75.512071 
L 105.436267 75.512071 
L 105.436267 73.371186 
L 107.591054 73.371186 
L 107.591054 72.300743 
L 116.210201 72.300743 
L 116.210201 71.765522 
L 117.646726 71.765522 
L 117.646726 71.230301 
L 124.829348 71.230301 
L 124.829348 70.159858 
L 126.265873 70.159858 
L 126.265873 69.624637 
L 135.603282 69.624637 
L 135.603282 68.554195 
L 137.758069 68.554195 
L 137.758069 68.018973 
L 140.631118 68.018973 
L 140.631118 66.948531 
L 144.22243 66.948531 
L 144.22243 66.41331 
L 144.940692 66.41331 
L 144.940692 65.878088 
L 147.813741 65.878088 
L 147.813741 65.342867 
L 153.559839 65.342867 
L 153.559839 64.807646 
L 161.460724 64.807646 
L 161.460724 64.272425 
L 165.052035 64.272425 
L 165.052035 63.737204 
L 166.48856 63.737204 
L 166.48856 62.666761 
L 175.107707 62.666761 
L 176.544232 62.666761 
L 204.55646 62.666761 
L 204.55646 62.13154 
L 217.485181 62.13154 
L 217.485181 61.596319 
L 223.949541 61.596319 
L 225.386066 61.596319 
L 244.060885 61.596319 
L 244.060885 60.525876 
L 251.96177 60.525876 
L 251.96177 59.990655 
L 257.707868 59.990655 
L 259.144393 59.990655 
L 264.172228 59.990655 
L 264.172228 59.455434 
L 293.620981 59.455434 
L 293.620981 58.920212 
L 305.83144 58.920212 
L 307.267965 58.920212 
L 311.577538 58.920212 
L 311.577538 58.384991 
L 373.348093 58.384991 
L 373.348093 57.84977 
L 384.84029 57.84977 
L 384.84029 57.314549 
L 391.30465 57.314549 
L 391.30465 53.568 
L 398.487273 53.568 
" style="fill:none;stroke:#ff0000;stroke-linecap:square;stroke-opacity:0.8;stroke-width:1.5;"/>
   </g>
   <g id="line2d_16">
    <path clip-path="url(#p73964023ff)" d="M 73.832727 295.488 
L 73.832727 295.488 
L 88.916235 127.963752 
L 88.916235 123.146761 
L 89.634497 123.146761 
L 89.634497 118.864991 
L 90.352759 118.864991 
L 90.352759 111.907115 
L 91.071022 111.907115 
L 91.071022 109.231009 
L 91.789284 109.231009 
L 91.789284 108.695788 
L 92.507546 108.695788 
L 92.507546 103.878796 
L 93.225809 103.878796 
L 93.225809 103.343575 
L 94.662333 103.343575 
L 94.662333 101.737912 
L 97.535382 101.737912 
L 97.535382 101.20269 
L 98.253644 101.20269 
L 98.253644 96.385699 
L 98.971907 96.385699 
L 98.971907 93.709593 
L 101.126693 93.709593 
L 101.126693 85.681274 
L 101.844956 85.681274 
L 101.844956 84.610832 
L 101.844956 83.540389 
L 101.844956 83.005168 
L 102.563218 83.005168 
L 102.563218 82.469947 
L 103.28148 82.469947 
L 103.28148 81.934726 
L 103.999743 81.934726 
L 103.999743 80.329062 
L 106.154529 80.329062 
L 106.154529 79.793841 
L 109.027578 79.793841 
L 109.027578 78.723398 
L 112.61889 78.723398 
L 112.61889 77.652956 
L 113.337152 77.652956 
L 113.337152 77.117735 
L 116.210201 77.117735 
L 116.210201 76.582513 
L 120.519775 76.582513 
L 120.519775 76.047292 
L 121.238037 76.047292 
L 121.238037 73.906407 
L 134.166758 73.906407 
L 134.166758 72.300743 
L 141.349381 72.300743 
L 141.349381 71.765522 
L 149.968528 71.765522 
L 149.968528 71.230301 
L 151.405052 71.230301 
L 151.405052 70.159858 
L 165.052035 70.159858 
L 165.052035 69.624637 
L 169.361609 69.624637 
L 169.361609 69.089416 
L 170.798134 69.089416 
L 170.798134 68.554195 
L 172.234658 68.554195 
L 172.234658 68.018973 
L 177.262494 68.018973 
L 177.262494 67.483752 
L 203.119936 67.483752 
L 203.119936 66.41331 
L 219.639968 66.41331 
L 219.639968 65.878088 
L 267.045278 65.878088 
L 267.045278 65.342867 
L 313.732325 65.342867 
L 313.732325 64.272425 
L 340.308029 64.272425 
L 340.308029 63.737204 
L 343.181078 63.737204 
L 344.617603 63.737204 
L 350.363701 63.737204 
L 350.363701 63.201982 
L 351.800225 63.201982 
L 351.800225 62.666761 
L 361.855897 62.666761 
L 361.855897 62.13154 
L 371.193307 62.13154 
L 371.193307 61.596319 
L 378.375929 61.596319 
L 378.375929 61.061097 
L 384.122027 61.061097 
L 384.122027 59.990655 
L 386.276814 59.990655 
L 386.276814 59.455434 
L 387.713339 59.455434 
L 387.713339 58.920212 
L 389.868126 58.920212 
L 389.868126 58.384991 
L 390.586388 58.384991 
L 390.586388 54.638442 
L 390.586388 53.568 
L 391.30465 53.568 
L 398.487273 53.568 
" style="fill:none;stroke:#ff0000;stroke-linecap:square;stroke-opacity:0.8;stroke-width:1.5;"/>
   </g>
   <g id="line2d_17">
    <path clip-path="url(#p73964023ff)" d="M 73.832727 295.488 
L 73.832727 295.488 
L 100.408431 125.822867 
L 100.408431 123.681982 
L 101.126693 123.681982 
L 101.126693 122.076319 
L 102.563218 122.076319 
L 102.563218 113.512779 
L 103.28148 113.512779 
L 103.28148 110.836673 
L 104.718005 110.836673 
L 104.718005 108.160566 
L 105.436267 108.160566 
L 105.436267 107.625345 
L 106.154529 107.625345 
L 106.154529 106.019681 
L 106.872792 106.019681 
L 106.872792 105.48446 
L 107.591054 105.48446 
L 107.591054 102.273133 
L 108.309316 102.273133 
L 108.309316 101.20269 
L 109.027578 101.20269 
L 109.027578 95.315257 
L 109.745841 95.315257 
L 109.745841 92.103929 
L 110.464103 92.103929 
L 110.464103 89.963044 
L 111.182365 89.963044 
L 111.182365 88.357381 
L 113.337152 88.357381 
L 113.337152 84.075611 
L 115.491939 84.075611 
L 115.491939 82.469947 
L 119.08325 82.469947 
L 119.08325 79.793841 
L 121.956299 79.793841 
L 121.956299 77.652956 
L 122.674562 77.652956 
L 122.674562 77.117735 
L 124.111086 77.117735 
L 124.111086 76.582513 
L 124.829348 76.582513 
L 124.829348 76.047292 
L 125.547611 76.047292 
L 125.547611 74.97685 
L 126.265873 74.97685 
L 126.265873 74.441628 
L 129.857184 74.441628 
L 129.857184 73.906407 
L 131.293709 73.906407 
L 131.293709 73.371186 
L 136.321545 73.371186 
L 136.321545 72.835965 
L 139.912856 72.835965 
L 139.912856 72.300743 
L 140.631118 72.300743 
L 140.631118 70.69508 
L 142.067643 70.69508 
L 142.067643 70.159858 
L 148.532003 70.159858 
L 148.532003 69.089416 
L 152.841577 69.089416 
L 152.841577 68.554195 
L 154.996364 68.554195 
L 154.996364 68.018973 
L 157.15115 68.018973 
L 157.15115 66.948531 
L 161.460724 66.948531 
L 161.460724 66.41331 
L 190.191215 66.41331 
L 190.191215 65.878088 
L 198.810362 65.878088 
L 198.810362 65.342867 
L 228.977377 65.342867 
L 228.977377 64.807646 
L 236.878262 64.807646 
L 236.878262 64.272425 
L 240.469574 64.272425 
L 240.469574 63.737204 
L 262.017442 63.737204 
L 263.453966 63.737204 
L 267.045278 63.737204 
L 267.045278 63.201982 
L 288.593146 63.201982 
L 288.593146 62.666761 
L 297.930555 62.666761 
L 297.930555 62.13154 
L 361.137635 62.13154 
L 362.574159 62.13154 
L 365.447208 62.13154 
L 365.447208 61.061097 
L 374.066356 61.061097 
L 374.066356 60.525876 
L 378.375929 60.525876 
L 378.375929 59.990655 
L 380.530716 59.990655 
L 380.530716 59.455434 
L 381.967241 59.455434 
L 381.967241 58.920212 
L 387.713339 58.920212 
L 387.713339 58.384991 
L 389.868126 58.384991 
L 389.868126 57.84977 
L 390.586388 57.84977 
L 390.586388 57.314549 
L 391.30465 57.314549 
L 391.30465 54.638442 
L 391.30465 53.568 
L 398.487273 53.568 
" style="fill:none;stroke:#ff0000;stroke-linecap:square;stroke-opacity:0.8;stroke-width:1.5;"/>
   </g>
   <g id="line2d_18">
    <path clip-path="url(#p73964023ff)" d="M 73.832727 295.488 
L 73.832727 295.488 
L 91.071022 118.864991 
L 91.071022 115.653664 
L 91.071022 114.583221 
L 91.789284 114.583221 
L 91.789284 111.907115 
L 92.507546 111.907115 
L 92.507546 106.554903 
L 93.225809 106.554903 
L 93.225809 105.48446 
L 93.944071 105.48446 
L 93.944071 99.061805 
L 96.098858 99.061805 
L 96.098858 95.850478 
L 96.81712 95.850478 
L 96.81712 94.780035 
L 97.535382 94.780035 
L 97.535382 93.709593 
L 98.971907 93.709593 
L 98.971907 93.174372 
L 99.690169 93.174372 
L 99.690169 87.286938 
L 100.408431 87.286938 
L 100.408431 85.146053 
L 101.844956 85.146053 
L 101.844956 81.934726 
L 102.563218 81.934726 
L 102.563218 79.793841 
L 103.28148 79.793841 
L 103.28148 78.723398 
L 103.999743 78.723398 
L 103.999743 77.117735 
L 105.436267 77.117735 
L 105.436267 74.97685 
L 106.872792 74.97685 
L 106.872792 74.441628 
L 107.591054 74.441628 
L 107.591054 72.835965 
L 108.309316 72.835965 
L 108.309316 72.300743 
L 109.745841 72.300743 
L 109.745841 71.765522 
L 111.900628 71.765522 
L 111.900628 71.230301 
L 114.773677 71.230301 
L 114.773677 70.69508 
L 120.519775 70.69508 
L 120.519775 70.159858 
L 125.547611 70.159858 
L 125.547611 69.624637 
L 128.42066 69.624637 
L 128.42066 67.483752 
L 129.138922 67.483752 
L 129.138922 66.948531 
L 129.857184 66.948531 
L 129.857184 66.41331 
L 130.575447 66.41331 
L 130.575447 65.878088 
L 133.448496 65.878088 
L 133.448496 65.342867 
L 134.166758 65.342867 
L 134.166758 64.272425 
L 136.321545 64.272425 
L 136.321545 63.737204 
L 147.813741 63.737204 
L 147.813741 63.201982 
L 148.532003 63.201982 
L 148.532003 62.666761 
L 152.123315 62.666761 
L 152.123315 62.13154 
L 154.996364 62.13154 
L 154.996364 61.596319 
L 157.15115 61.596319 
L 157.15115 61.061097 
L 185.881641 61.061097 
L 185.881641 60.525876 
L 215.330394 60.525876 
L 215.330394 59.990655 
L 259.862655 59.990655 
L 259.862655 59.455434 
L 295.775768 59.455434 
L 295.775768 58.920212 
L 335.998455 58.920212 
L 335.998455 58.384991 
L 370.475044 58.384991 
L 370.475044 57.84977 
L 373.348093 57.84977 
L 373.348093 57.314549 
L 374.784618 57.314549 
L 375.50288 57.314549 
L 375.50288 56.779327 
L 379.812454 56.779327 
L 381.248978 56.779327 
L 384.122027 56.779327 
L 384.122027 56.244106 
L 391.30465 56.244106 
L 391.30465 55.708885 
L 392.022912 55.708885 
L 392.022912 55.173664 
L 394.895961 55.173664 
L 394.895961 53.568 
L 398.487273 53.568 
" style="fill:none;stroke:#ff0000;stroke-linecap:square;stroke-opacity:0.8;stroke-width:1.5;"/>
   </g>
   <g id="line2d_19">
    <path clip-path="url(#p73964023ff)" d="M 73.832727 295.488 
L 73.832727 295.488 
L 93.225809 123.681982 
L 93.225809 116.188885 
L 93.944071 116.188885 
L 93.944071 112.977558 
L 94.662333 112.977558 
L 94.662333 111.907115 
L 95.380595 111.907115 
L 95.380595 106.554903 
L 97.535382 106.554903 
L 97.535382 106.019681 
L 98.253644 106.019681 
L 98.253644 104.949239 
L 98.971907 104.949239 
L 98.971907 104.414018 
L 99.690169 104.414018 
L 99.690169 101.20269 
L 100.408431 101.20269 
L 100.408431 92.103929 
L 100.408431 91.033487 
L 100.408431 87.286938 
L 102.563218 87.286938 
L 102.563218 86.216496 
L 105.436267 86.216496 
L 105.436267 85.681274 
L 106.154529 85.681274 
L 106.154529 84.075611 
L 107.591054 84.075611 
L 107.591054 83.005168 
L 108.309316 83.005168 
L 108.309316 81.934726 
L 109.027578 81.934726 
L 109.027578 80.329062 
L 111.182365 80.329062 
L 111.182365 79.258619 
L 112.61889 79.258619 
L 112.61889 77.652956 
L 113.337152 77.652956 
L 113.337152 77.117735 
L 114.055414 77.117735 
L 114.055414 76.582513 
L 114.773677 76.582513 
L 114.773677 76.047292 
L 115.491939 76.047292 
L 115.491939 74.97685 
L 116.210201 74.97685 
L 116.210201 73.906407 
L 119.08325 73.906407 
L 119.08325 73.371186 
L 129.138922 73.371186 
L 129.138922 72.835965 
L 129.857184 72.835965 
L 129.857184 72.300743 
L 132.730233 72.300743 
L 132.730233 71.765522 
L 134.88502 71.765522 
L 134.88502 71.230301 
L 135.603282 71.230301 
L 135.603282 70.69508 
L 136.321545 70.69508 
L 136.321545 70.159858 
L 139.912856 70.159858 
L 139.912856 69.624637 
L 140.631118 69.624637 
L 140.631118 69.089416 
L 144.940692 69.089416 
L 144.940692 68.554195 
L 147.095479 68.554195 
L 147.095479 68.018973 
L 148.532003 68.018973 
L 148.532003 67.483752 
L 175.107707 67.483752 
L 175.107707 66.948531 
L 193.064264 66.948531 
L 193.064264 66.41331 
L 223.949541 66.41331 
L 223.949541 65.342867 
L 228.259115 65.342867 
L 228.259115 64.807646 
L 240.469574 64.807646 
L 240.469574 64.272425 
L 284.283572 64.272425 
L 285.720097 64.272425 
L 324.506259 64.272425 
L 324.506259 63.737204 
L 341.744553 63.737204 
L 343.181078 63.737204 
L 374.066356 63.737204 
L 374.066356 63.201982 
L 376.939405 63.201982 
L 376.939405 62.666761 
L 383.403765 62.666761 
L 383.403765 61.596319 
L 386.995076 61.596319 
L 386.995076 61.061097 
L 387.713339 61.061097 
L 387.713339 60.525876 
L 388.431601 60.525876 
L 388.431601 59.990655 
L 389.149863 59.990655 
L 389.149863 59.455434 
L 394.177699 59.455434 
L 394.177699 58.920212 
L 398.487273 53.568 
" style="fill:none;stroke:#ff0000;stroke-linecap:square;stroke-opacity:0.8;stroke-width:1.5;"/>
   </g>
   <g id="line2d_20">
    <path clip-path="url(#p73964023ff)" d="M 73.832727 295.488 
L 73.832727 295.488 
L 91.789284 124.752425 
L 91.789284 121.541097 
L 92.507546 121.541097 
L 92.507546 111.371894 
L 93.225809 111.371894 
L 93.225809 106.554903 
L 95.380595 106.554903 
L 95.380595 103.878796 
L 96.098858 103.878796 
L 96.098858 102.808354 
L 96.81712 102.808354 
L 96.81712 102.273133 
L 97.535382 102.273133 
L 97.535382 101.737912 
L 98.971907 101.737912 
L 98.971907 100.667469 
L 99.690169 100.667469 
L 99.690169 93.709593 
L 100.408431 93.709593 
L 100.408431 91.568708 
L 101.126693 91.568708 
L 101.126693 90.498265 
L 102.563218 90.498265 
L 102.563218 89.427823 
L 105.436267 89.427823 
L 105.436267 88.892602 
L 106.872792 88.892602 
L 106.872792 87.822159 
L 108.309316 87.822159 
L 108.309316 84.075611 
L 109.027578 84.075611 
L 109.027578 82.469947 
L 109.745841 82.469947 
L 109.745841 81.934726 
L 110.464103 81.934726 
L 110.464103 81.399504 
L 111.182365 81.399504 
L 111.182365 79.793841 
L 111.900628 79.793841 
L 111.900628 78.723398 
L 113.337152 78.723398 
L 113.337152 77.652956 
L 114.055414 77.652956 
L 114.055414 77.117735 
L 115.491939 77.117735 
L 115.491939 76.582513 
L 116.210201 76.582513 
L 116.210201 75.512071 
L 118.364988 75.512071 
L 118.364988 74.97685 
L 119.08325 74.97685 
L 119.08325 74.441628 
L 119.801512 74.441628 
L 119.801512 71.765522 
L 121.238037 71.765522 
L 121.238037 71.230301 
L 121.956299 71.230301 
L 121.956299 70.69508 
L 126.265873 70.69508 
L 126.265873 70.159858 
L 131.293709 70.159858 
L 131.293709 69.624637 
L 132.730233 69.624637 
L 132.730233 68.018973 
L 134.166758 68.018973 
L 134.166758 67.483752 
L 137.758069 67.483752 
L 137.758069 66.948531 
L 142.067643 66.948531 
L 142.067643 66.41331 
L 151.405052 66.41331 
L 151.405052 65.342867 
L 156.432888 65.342867 
L 156.432888 64.807646 
L 167.206822 64.807646 
L 167.206822 64.272425 
L 168.643347 64.272425 
L 168.643347 63.737204 
L 171.516396 63.737204 
L 171.516396 63.201982 
L 171.516396 62.13154 
L 182.29033 62.13154 
L 182.29033 61.596319 
L 186.599903 61.596319 
L 186.599903 61.061097 
L 187.318166 61.061097 
L 187.318166 60.525876 
L 218.203443 60.525876 
L 218.203443 59.990655 
L 223.231279 59.990655 
L 223.231279 59.455434 
L 265.608753 59.455434 
L 267.76354 59.455434 
L 269.918327 59.455434 
L 269.918327 58.920212 
L 332.407144 58.920212 
L 332.407144 58.384991 
L 341.026291 58.384991 
L 341.026291 57.84977 
L 361.855897 57.84977 
L 363.292422 57.84977 
L 371.911569 57.84977 
L 371.911569 57.314549 
L 388.431601 57.314549 
L 388.431601 56.779327 
L 389.868126 56.779327 
L 389.868126 55.708885 
L 392.022912 55.708885 
L 392.022912 55.173664 
L 393.459437 55.173664 
L 393.459437 53.568 
L 394.177699 53.568 
L 398.487273 53.568 
" style="fill:none;stroke:#ff0000;stroke-linecap:square;stroke-opacity:0.8;stroke-width:1.5;"/>
   </g>
   <g id="line2d_21">
    <path clip-path="url(#p73964023ff)" d="M 73.832727 295.488 
L 73.832727 295.488 
L 88.197973 128.498973 
L 88.197973 118.32977 
L 88.916235 118.32977 
L 88.916235 110.836673 
L 89.634497 110.836673 
L 89.634497 106.019681 
L 90.352759 106.019681 
L 90.352759 96.92092 
L 91.071022 96.92092 
L 91.071022 94.244814 
L 91.789284 94.244814 
L 91.789284 93.174372 
L 92.507546 93.174372 
L 92.507546 92.63915 
L 93.225809 92.63915 
L 93.225809 92.103929 
L 93.944071 92.103929 
L 93.944071 91.568708 
L 94.662333 91.568708 
L 94.662333 88.892602 
L 94.662333 87.822159 
L 96.81712 87.822159 
L 96.81712 85.146053 
L 98.253644 85.146053 
L 98.253644 84.610832 
L 99.690169 84.610832 
L 99.690169 83.540389 
L 100.408431 83.540389 
L 100.408431 83.005168 
L 101.126693 83.005168 
L 101.126693 81.934726 
L 101.844956 81.934726 
L 101.844956 79.793841 
L 102.563218 79.793841 
L 102.563218 78.723398 
L 104.718005 78.723398 
L 104.718005 77.117735 
L 105.436267 77.117735 
L 105.436267 76.582513 
L 106.154529 76.582513 
L 106.154529 76.047292 
L 106.872792 76.047292 
L 106.872792 75.512071 
L 108.309316 75.512071 
L 108.309316 74.97685 
L 111.182365 74.97685 
L 111.182365 74.441628 
L 111.900628 74.441628 
L 111.900628 73.906407 
L 115.491939 73.906407 
L 115.491939 73.371186 
L 119.801512 73.371186 
L 119.801512 72.835965 
L 124.111086 72.835965 
L 124.111086 72.300743 
L 124.829348 72.300743 
L 124.829348 71.765522 
L 129.857184 71.765522 
L 129.857184 71.230301 
L 132.730233 71.230301 
L 132.730233 70.69508 
L 134.166758 70.69508 
L 134.166758 70.159858 
L 141.349381 70.159858 
L 141.349381 69.089416 
L 142.785905 69.089416 
L 142.785905 68.554195 
L 152.123315 68.554195 
L 152.123315 67.483752 
L 153.559839 67.483752 
L 153.559839 66.948531 
L 173.671183 66.948531 
L 173.671183 66.41331 
L 183.008592 66.41331 
L 183.008592 65.342867 
L 186.599903 65.342867 
L 186.599903 64.807646 
L 203.119936 64.807646 
L 203.119936 64.272425 
L 211.739083 64.272425 
L 211.739083 63.737204 
L 239.751311 63.737204 
L 241.187836 63.737204 
L 267.045278 63.737204 
L 267.045278 63.201982 
L 283.56531 63.201982 
L 285.001834 63.201982 
L 310.141014 63.201982 
L 311.577538 63.201982 
L 330.252357 63.201982 
L 330.252357 62.666761 
L 371.193307 62.666761 
L 371.193307 62.13154 
L 379.094191 62.13154 
L 379.094191 59.990655 
L 382.685503 59.990655 
L 382.685503 59.455434 
L 384.122027 59.455434 
L 384.122027 58.384991 
L 389.149863 58.384991 
L 389.149863 57.84977 
L 389.868126 57.84977 
L 389.868126 57.314549 
L 390.586388 57.314549 
L 390.586388 54.638442 
L 390.586388 53.568 
L 392.022912 53.568 
L 398.487273 53.568 
" style="fill:none;stroke:#ff0000;stroke-linecap:square;stroke-opacity:0.8;stroke-width:1.5;"/>
   </g>
   <g id="line2d_22">
    <path clip-path="url(#p73964023ff)" d="M 73.832727 295.488 
L 73.832727 295.488 
L 91.147636 126.144 
L 91.147636 107.8656 
L 91.869091 107.8656 
L 91.869091 101.952 
L 92.590545 101.952 
L 92.590545 101.4144 
L 93.312 101.4144 
L 93.312 99.264 
L 96.919273 99.264 
L 96.919273 98.7264 
L 97.640727 98.7264 
L 97.640727 96.0384 
L 98.362182 96.0384 
L 98.362182 85.2864 
L 99.805091 85.2864 
L 99.805091 84.7488 
L 100.526545 84.7488 
L 100.526545 84.2112 
L 101.248 84.2112 
L 101.248 82.0608 
L 101.969455 82.0608 
L 101.969455 80.9856 
L 102.690909 80.9856 
L 102.690909 78.2976 
L 103.412364 78.2976 
L 103.412364 76.6848 
L 104.855273 76.6848 
L 104.855273 76.1472 
L 104.855273 74.5344 
L 106.298182 74.5344 
L 106.298182 73.4592 
L 108.462545 73.4592 
L 108.462545 72.9216 
L 115.677091 72.9216 
L 115.677091 71.8464 
L 119.284364 71.8464 
L 119.284364 71.3088 
L 124.334545 71.3088 
L 124.334545 70.7712 
L 126.498909 70.7712 
L 126.498909 69.696 
L 127.220364 69.696 
L 127.220364 69.1584 
L 136.599273 69.1584 
L 136.599273 68.0832 
L 145.256727 68.0832 
L 145.256727 67.008 
L 145.978182 67.008 
L 145.978182 66.4704 
L 165.457455 66.4704 
L 165.457455 64.8576 
L 171.229091 64.8576 
L 171.229091 64.32 
L 174.114909 64.32 
L 174.114909 63.7824 
L 179.165091 63.7824 
L 179.165091 63.2448 
L 195.758545 63.2448 
L 195.758545 62.7072 
L 239.045818 62.7072 
L 240.488727 62.7072 
L 262.853818 62.7072 
L 264.296727 62.7072 
L 357.364364 62.7072 
L 357.364364 62.1696 
L 358.807273 62.1696 
L 358.807273 61.632 
L 372.514909 61.632 
L 372.514909 60.5568 
L 379.008 60.5568 
L 379.008 60.0192 
L 379.729455 60.0192 
L 379.729455 59.4816 
L 381.893818 59.4816 
L 381.893818 58.4064 
L 384.058182 58.4064 
L 384.058182 57.8688 
L 390.551273 57.8688 
L 390.551273 57.3312 
L 392.715636 57.3312 
L 392.715636 55.1808 
L 393.437091 55.1808 
L 393.437091 54.1056 
L 393.437091 53.568 
L 398.487273 53.568 
" style="fill:none;stroke:#ff0000;stroke-linecap:square;stroke-opacity:0.8;stroke-width:1.5;"/>
   </g>
   <g id="line2d_23">
    <path clip-path="url(#p73964023ff)" d="M 73.832727 295.488 
L 85.53199 170.238726 
L 85.85697 167.265066 
L 86.506929 159.979694 
L 88.131826 144.950828 
L 88.456806 140.062427 
L 88.781785 138.246302 
L 89.106765 134.554426 
L 89.431744 133.099238 
L 89.756724 129.342599 
L 90.081704 127.887411 
L 90.406683 124.291339 
L 91.056642 121.380963 
L 91.381622 117.467532 
L 91.706601 116.663155 
L 92.031581 113.517481 
L 92.35656 113.022103 
L 92.68154 109.475726 
L 93.006519 108.980348 
L 93.331499 106.2762 
L 93.656478 106.068726 
L 93.981458 104.148544 
L 94.631417 103.733596 
L 94.956396 102.509201 
L 95.281376 102.301727 
L 95.606355 101.130855 
L 95.931335 100.923381 
L 96.256314 99.966597 
L 96.581294 99.759123 
L 96.906274 99.016428 
L 97.231253 98.755194 
L 97.556233 97.316711 
L 97.881212 96.840437 
L 98.206192 96.632963 
L 98.531171 94.440413 
L 98.856151 94.232938 
L 99.18113 93.222633 
L 99.50611 93.015158 
L 99.831089 90.666562 
L 100.156069 90.459088 
L 100.481048 88.103567 
L 100.806028 88.049807 
L 101.131007 86.604709 
L 101.455987 86.389669 
L 101.780966 86.389669 
L 102.105946 85.372273 
L 102.430925 85.372273 
L 102.755905 83.658376 
L 103.080885 83.658376 
L 103.405864 83.123155 
L 103.730844 82.961875 
L 104.055823 82.319609 
L 104.705782 82.319609 
L 105.030762 81.462304 
L 105.355741 81.462304 
L 105.680721 80.820038 
L 106.0057 80.820038 
L 106.33068 80.284341 
L 106.655659 80.284341 
L 106.980639 80.016731 
L 107.305618 80.016731 
L 107.630598 79.267421 
L 108.280557 79.267421 
L 108.605536 78.464351 
L 108.930516 78.464351 
L 109.255495 77.447431 
L 109.580475 77.447431 
L 109.905455 76.965732 
L 110.230434 76.965732 
L 110.555414 76.484033 
L 110.880393 76.484033 
L 111.205373 76.002333 
L 111.855332 76.002333 
L 112.180311 75.788245 
L 112.505291 75.788245 
L 112.83027 75.41359 
L 113.15525 75.41359 
L 113.480229 74.771325 
L 113.805209 74.771325 
L 114.130188 74.610758 
L 114.455168 74.610758 
L 114.780147 74.39667 
L 115.430106 74.39667 
L 115.755086 73.914495 
L 116.080066 73.914495 
L 116.405045 73.593362 
L 118.354922 73.53984 
L 118.679902 73.379274 
L 119.004881 73.379274 
L 119.329861 72.897337 
L 119.65484 72.897337 
L 119.97982 72.576204 
L 120.954758 72.46916 
L 121.279738 72.201549 
L 121.929697 72.201549 
L 122.254676 71.880416 
L 123.879574 71.773372 
L 125.179492 71.398479 
L 125.504472 71.398479 
L 125.829451 71.184391 
L 126.154431 71.184391 
L 127.129369 70.80926 
L 128.104308 70.648456 
L 128.429287 70.434367 
L 129.729206 70.327323 
L 130.054185 70.113235 
L 131.029124 70.00619 
L 131.679083 69.899146 
L 132.654021 69.899146 
L 132.979001 69.578013 
L 133.953939 69.470969 
L 134.278919 69.096314 
L 135.578837 69.042792 
L 135.903817 68.882226 
L 136.228796 68.882226 
L 136.878755 68.614139 
L 138.503653 68.453573 
L 140.45353 68.346529 
L 140.778509 67.971874 
L 141.103489 67.971874 
L 141.428468 67.811308 
L 142.728387 67.704263 
L 143.378346 67.597219 
L 144.678264 67.490175 
L 145.653202 67.275611 
L 146.628141 67.221851 
L 147.603079 67.114806 
L 147.928059 66.95424 
L 148.253038 66.95424 
L 148.578018 66.740152 
L 151.177854 66.686629 
L 151.502834 66.472541 
L 151.827813 66.472541 
L 152.152793 66.311975 
L 153.452711 66.258452 
L 154.427649 66.044364 
L 156.377527 65.93732 
L 158.327404 65.723231 
L 161.902179 65.616187 
L 162.877117 65.562665 
L 165.151974 65.455621 
L 165.476953 65.294341 
L 166.451892 65.294341 
L 166.776871 65.133774 
L 169.051728 65.02673 
L 170.026667 64.973208 
L 171.326585 64.865926 
L 171.651564 64.651837 
L 173.926421 64.544793 
L 175.226339 64.437511 
L 181.40095 64.330229 
L 183.350827 64.11614 
L 186.275643 64.062618 
L 186.925602 63.955574 
L 192.775233 63.84853 
L 194.075152 63.741485 
L 198.624865 63.634203 
L 199.274824 63.527159 
L 202.849599 63.527159 
L 203.174578 63.366593 
L 212.274005 63.259548 
L 212.923964 63.152504 
L 218.123636 63.04546 
L 219.098575 62.991938 
L 223.648288 62.884893 
L 224.298247 62.777849 
L 228.847961 62.670805 
L 229.822899 62.617283 
L 240.222244 62.510239 
L 240.872203 62.403194 
L 243.797019 62.403194 
L 244.121998 62.242628 
L 263.945749 62.135584 
L 264.920688 62.082062 
L 266.870565 62.082062 
L 267.195545 61.921495 
L 293.518886 61.814451 
L 294.493825 61.760929 
L 311.39276 61.653885 
L 312.367699 61.600362 
L 324.391941 61.493318 
L 325.36688 61.439796 
L 335.766224 61.332752 
L 336.741163 61.27923 
L 350.065324 61.172185 
L 351.040262 61.118663 
L 355.264996 61.011619 
L 356.239934 60.958097 
L 358.514791 60.850815 
L 359.48973 60.797055 
L 365.339361 60.743533 
L 365.98932 60.636488 
L 366.964259 60.582966 
L 371.188993 60.475922 
L 371.513972 60.315356 
L 372.488911 60.261834 
L 373.463849 60.047269 
L 375.413726 59.940225 
L 376.063686 59.833181 
L 378.338542 59.726137 
L 379.96344 59.243962 
L 381.588337 59.19044 
L 382.888256 58.815309 
L 383.863194 58.708265 
L 384.188174 58.386894 
L 385.488092 58.333372 
L 386.138051 58.226328 
L 386.46303 57.584062 
L 387.437969 57.53054 
L 387.762948 57.369974 
L 388.412907 57.369974 
L 388.737887 57.102363 
L 389.712826 56.995319 
L 390.037805 56.727708 
L 390.362785 56.727708 
L 390.687764 55.764072 
L 391.012744 55.764072 
L 391.337723 54.96124 
L 392.637641 54.854196 
L 392.962621 54.639156 
L 393.2876 54.639156 
L 393.61258 54.31731 
L 394.587518 54.212891 
L 394.912498 54.011964 
L 398.487273 53.568 
L 398.487273 53.568 
" style="fill:none;stroke:#000000;stroke-linecap:square;stroke-width:2;"/>
   </g>
   <g id="line2d_24">
    <path clip-path="url(#p73964023ff)" d="M 73.832727 126.144 
L 73.832727 122.960842 
L 73.832727 119.777684 
L 73.832727 116.594526 
L 73.832727 113.411368 
L 73.832727 110.228211 
L 73.832727 107.045053 
L 73.832727 103.861895 
L 73.832727 100.678737 
L 73.832727 97.495579 
L 73.832727 94.312421 
L 73.832727 91.129263 
L 73.832727 87.946105 
L 73.832727 84.762947 
L 73.832727 81.579789 
L 73.832727 78.396632 
L 73.832727 75.213474 
L 73.832727 72.030316 
L 73.832727 68.847158 
L 73.832727 65.664 
" style="fill:none;stroke:#000000;stroke-dasharray:1,1.65;stroke-dashoffset:0;"/>
   </g>
   <g id="line2d_25">
    <path clip-path="url(#p73964023ff)" d="M 73.832727 126.144 
L 78.104498 126.144 
L 82.376268 126.144 
L 86.648038 126.144 
L 90.919809 126.144 
L 95.191579 126.144 
L 99.463349 126.144 
L 103.73512 126.144 
L 108.00689 126.144 
L 112.27866 126.144 
L 116.550431 126.144 
L 120.822201 126.144 
L 125.093971 126.144 
L 129.365742 126.144 
L 133.637512 126.144 
L 137.909282 126.144 
L 142.181053 126.144 
L 146.452823 126.144 
L 150.724593 126.144 
L 154.996364 126.144 
" style="fill:none;stroke:#000000;stroke-dasharray:1,1.65;stroke-dashoffset:0;"/>
   </g>
   <g id="line2d_26">
    <path clip-path="url(#p73964023ff)" d="M 154.996364 126.144 
L 154.996364 122.960842 
L 154.996364 119.777684 
L 154.996364 116.594526 
L 154.996364 113.411368 
L 154.996364 110.228211 
L 154.996364 107.045053 
L 154.996364 103.861895 
L 154.996364 100.678737 
L 154.996364 97.495579 
L 154.996364 94.312421 
L 154.996364 91.129263 
L 154.996364 87.946105 
L 154.996364 84.762947 
L 154.996364 81.579789 
L 154.996364 78.396632 
L 154.996364 75.213474 
L 154.996364 72.030316 
L 154.996364 68.847158 
L 154.996364 65.664 
" style="fill:none;stroke:#000000;stroke-dasharray:1,1.65;stroke-dashoffset:0;"/>
   </g>
   <g id="line2d_27">
    <path clip-path="url(#p73964023ff)" d="M 73.832727 65.664 
L 78.104498 65.664 
L 82.376268 65.664 
L 86.648038 65.664 
L 90.919809 65.664 
L 95.191579 65.664 
L 99.463349 65.664 
L 103.73512 65.664 
L 108.00689 65.664 
L 112.27866 65.664 
L 116.550431 65.664 
L 120.822201 65.664 
L 125.093971 65.664 
L 129.365742 65.664 
L 133.637512 65.664 
L 137.909282 65.664 
L 142.181053 65.664 
L 146.452823 65.664 
L 150.724593 65.664 
L 154.996364 65.664 
" style="fill:none;stroke:#000000;stroke-dasharray:1,1.65;stroke-dashoffset:0;"/>
   </g>
   <g id="line2d_28">
    <path clip-path="url(#p73964023ff)" d="M 236.16 295.488 
L 236.16 289.121684 
L 236.16 282.755368 
L 236.16 276.389053 
L 236.16 270.022737 
L 236.16 263.656421 
L 236.16 257.290105 
L 236.16 250.923789 
L 236.16 244.557474 
L 236.16 238.191158 
L 236.16 231.824842 
L 236.16 225.458526 
L 236.16 219.092211 
L 236.16 212.725895 
L 236.16 206.359579 
L 236.16 199.993263 
L 236.16 193.626947 
L 236.16 187.260632 
L 236.16 180.894316 
L 236.16 174.528 
" style="fill:none;stroke:#000000;stroke-dasharray:1,1.65;stroke-dashoffset:0;"/>
   </g>
   <g id="line2d_29">
    <path clip-path="url(#p73964023ff)" d="M 236.16 295.488 
L 240.43177 295.488 
L 244.703541 295.488 
L 248.975311 295.488 
L 253.247081 295.488 
L 257.518852 295.488 
L 261.790622 295.488 
L 266.062392 295.488 
L 270.334163 295.488 
L 274.605933 295.488 
L 278.877703 295.488 
L 283.149474 295.488 
L 287.421244 295.488 
L 291.693014 295.488 
L 295.964785 295.488 
L 300.236555 295.488 
L 304.508325 295.488 
L 308.780096 295.488 
L 313.051866 295.488 
L 317.323636 295.488 
" style="fill:none;stroke:#000000;stroke-dasharray:1,1.65;stroke-dashoffset:0;"/>
   </g>
   <g id="line2d_30">
    <path clip-path="url(#p73964023ff)" d="M 317.323636 295.488 
L 317.323636 289.121684 
L 317.323636 282.755368 
L 317.323636 276.389053 
L 317.323636 270.022737 
L 317.323636 263.656421 
L 317.323636 257.290105 
L 317.323636 250.923789 
L 317.323636 244.557474 
L 317.323636 238.191158 
L 317.323636 231.824842 
L 317.323636 225.458526 
L 317.323636 219.092211 
L 317.323636 212.725895 
L 317.323636 206.359579 
L 317.323636 199.993263 
L 317.323636 193.626947 
L 317.323636 187.260632 
L 317.323636 180.894316 
L 317.323636 174.528 
" style="fill:none;stroke:#000000;stroke-dasharray:1,1.65;stroke-dashoffset:0;"/>
   </g>
   <g id="line2d_31">
    <path clip-path="url(#p73964023ff)" d="M 236.16 174.528 
L 240.43177 174.528 
L 244.703541 174.528 
L 248.975311 174.528 
L 253.247081 174.528 
L 257.518852 174.528 
L 261.790622 174.528 
L 266.062392 174.528 
L 270.334163 174.528 
L 274.605933 174.528 
L 278.877703 174.528 
L 283.149474 174.528 
L 287.421244 174.528 
L 291.693014 174.528 
L 295.964785 174.528 
L 300.236555 174.528 
L 304.508325 174.528 
L 308.780096 174.528 
L 313.051866 174.528 
L 317.323636 174.528 
" style="fill:none;stroke:#000000;stroke-dasharray:1,1.65;stroke-dashoffset:0;"/>
   </g>
   <g id="line2d_32">
    <path clip-path="url(#p73964023ff)" d="M 154.996364 126.144 
L 159.268134 128.690526 
L 163.539904 131.237053 
L 167.811675 133.783579 
L 172.083445 136.330105 
L 176.355215 138.876632 
L 180.626986 141.423158 
L 184.898756 143.969684 
L 189.170526 146.516211 
L 193.442297 149.062737 
L 197.714067 151.609263 
L 201.985837 154.155789 
L 206.257608 156.702316 
L 210.529378 159.248842 
L 214.801148 161.795368 
L 219.072919 164.341895 
L 223.344689 166.888421 
L 227.616459 169.434947 
L 231.88823 171.981474 
L 236.16 174.528 
" style="fill:none;stroke:#000000;stroke-dasharray:1,1.65;stroke-dashoffset:0;"/>
   </g>
   <g id="line2d_33">
    <path clip-path="url(#p73964023ff)" d="M 269.307912 291.782677 
L 270.60783 285.961927 
L 271.257789 278.135064 
L 271.907748 276.52631 
L 272.557707 270.234963 
L 273.207666 269.244207 
L 273.857625 262.151453 
L 274.507584 261.160697 
L 275.157543 255.7524 
L 275.807502 255.337452 
L 276.457461 251.497088 
L 277.757379 250.667192 
L 278.407338 248.218403 
L 279.057297 247.803455 
L 279.707256 245.46171 
L 280.357215 245.046762 
L 281.007174 243.133194 
L 281.657133 242.718246 
L 282.307093 241.232856 
L 282.957052 240.710388 
L 283.607011 237.833422 
L 284.25697 236.880874 
L 284.906929 236.465925 
L 285.556888 232.080825 
L 286.206847 231.665877 
L 286.856806 229.645265 
L 287.506765 229.230317 
L 288.156724 224.533123 
L 288.806683 224.118175 
L 289.456642 219.407133 
L 290.106601 219.299613 
L 290.75656 216.409419 
L 291.406519 215.979339 
L 292.056478 215.979339 
L 292.706437 213.944547 
L 293.356396 213.944547 
L 294.006355 210.516752 
L 294.656314 210.516752 
L 295.306274 209.446309 
L 295.956233 209.123749 
L 296.606192 207.839218 
L 297.90611 207.839218 
L 298.556069 206.124607 
L 299.206028 206.124607 
L 299.855987 204.840076 
L 300.505946 204.840076 
L 301.155905 203.768682 
L 301.805864 203.768682 
L 302.455823 203.233461 
L 303.105782 203.233461 
L 303.755741 201.734842 
L 305.055659 201.734842 
L 305.705618 200.128702 
L 306.355577 200.128702 
L 307.005536 198.094862 
L 307.655495 198.094862 
L 308.305455 197.131463 
L 308.955414 197.131463 
L 309.605373 196.168065 
L 310.255332 196.168065 
L 310.905291 195.204667 
L 312.205209 195.204667 
L 312.855168 194.77649 
L 313.505127 194.77649 
L 314.155086 194.02718 
L 314.805045 194.02718 
L 315.455004 192.742649 
L 316.104963 192.742649 
L 316.754922 192.421516 
L 317.404881 192.421516 
L 318.05484 191.993339 
L 319.354758 191.993339 
L 320.004717 191.02899 
L 320.654676 191.02899 
L 321.304636 190.386724 
L 325.20439 190.27968 
L 325.854349 189.958547 
L 326.504308 189.958547 
L 327.154267 188.994673 
L 327.804226 188.994673 
L 328.454185 188.352408 
L 329.104144 188.352408 
L 329.754103 188.138319 
L 330.404062 188.138319 
L 331.054021 187.603098 
L 332.353939 187.603098 
L 333.003898 186.960833 
L 334.953776 186.853788 
L 337.553612 186.425136 
L 338.203571 185.996959 
L 339.503489 185.996959 
L 340.153448 185.568782 
L 340.803407 185.568782 
L 342.103325 185.032609 
L 344.053202 184.496912 
L 344.703161 184.496912 
L 345.35312 184.068735 
L 346.653038 184.068735 
L 347.302998 183.854646 
L 347.952957 183.854646 
L 348.602916 183.426469 
L 349.252875 183.426469 
L 349.902834 183.212381 
L 350.552793 183.212381 
L 351.202752 182.998292 
L 353.802588 182.998292 
L 354.452547 182.356027 
L 355.102506 182.356027 
L 355.752465 182.141938 
L 356.402424 182.141938 
L 357.052383 181.392629 
L 359.652219 181.285584 
L 360.302179 180.964452 
L 360.952138 180.964452 
L 362.252056 180.428279 
L 364.851892 180.107146 
L 368.101687 180.107146 
L 368.751646 179.893058 
L 369.401605 179.893058 
L 370.051564 179.143748 
L 370.701523 179.143748 
L 371.351482 178.822615 
L 372.001441 178.822615 
L 372.6514 178.608527 
L 373.951319 178.608527 
L 374.601278 178.394438 
L 376.551155 178.394438 
L 377.201114 178.18035 
L 377.851073 178.18035 
L 379.150991 177.751221 
L 382.400786 177.643701 
L 383.050745 177.429613 
L 383.700704 177.429613 
L 384.350663 177.10848 
L 385.000622 177.10848 
L 385.650581 176.680303 
L 390.850254 176.573259 
L 391.500213 176.145082 
L 392.150172 176.145082 
L 392.800131 175.823949 
L 395.399967 175.716905 
L 396.049926 175.502816 
L 396.699885 175.502816 
L 397.349844 175.288728 
L 397.999803 175.288728 
L 397.999803 175.288728 
" style="fill:none;stroke:#000000;stroke-linecap:square;stroke-width:2;"/>
   </g>
   <g id="patch_3">
    <path d="M 57.6 307.584 
L 57.6 41.472 
" style="fill:none;stroke:#000000;stroke-linecap:square;stroke-linejoin:miter;stroke-width:0.8;"/>
   </g>
   <g id="patch_4">
    <path d="M 414.72 307.584 
L 414.72 41.472 
" style="fill:none;stroke:#000000;stroke-linecap:square;stroke-linejoin:miter;stroke-width:0.8;"/>
   </g>
   <g id="patch_5">
    <path d="M 57.6 307.584 
L 414.72 307.584 
" style="fill:none;stroke:#000000;stroke-linecap:square;stroke-linejoin:miter;stroke-width:0.8;"/>
   </g>
   <g id="patch_6">
    <path d="M 57.6 41.472 
L 414.72 41.472 
" style="fill:none;stroke:#000000;stroke-linecap:square;stroke-linejoin:miter;stroke-width:0.8;"/>
   </g>
   <g id="legend_1">
    <g id="patch_7">
     <path d="M 64.6 302.584 
L 206.75625 302.584 
Q 208.75625 302.584 208.75625 300.584 
L 208.75625 140.124625 
Q 208.75625 138.124625 206.75625 138.124625 
L 64.6 138.124625 
Q 62.6 138.124625 62.6 140.124625 
L 62.6 300.584 
Q 62.6 302.584 64.6 302.584 
z
" style="fill:#ffffff;opacity:0.8;stroke:#cccccc;stroke-linejoin:miter;"/>
    </g>
    <g id="line2d_34">
     <path d="M 66.6 146.223062 
L 86.6 146.223062 
" style="fill:none;stroke:#ff0000;stroke-linecap:square;stroke-opacity:0.8;stroke-width:1.5;"/>
    </g>
    <g id="line2d_35"/>
    <g id="text_15">
     <!-- fold 0 (AUC = 0.9263) -->
     <defs>
      <path d="M 37.109375 75.984375 
L 37.109375 68.5 
L 28.515625 68.5 
Q 23.6875 68.5 21.796875 66.546875 
Q 19.921875 64.59375 19.921875 59.515625 
L 19.921875 54.6875 
L 34.71875 54.6875 
L 34.71875 47.703125 
L 19.921875 47.703125 
L 19.921875 0 
L 10.890625 0 
L 10.890625 47.703125 
L 2.296875 47.703125 
L 2.296875 54.6875 
L 10.890625 54.6875 
L 10.890625 58.5 
Q 10.890625 67.625 15.140625 71.796875 
Q 19.390625 75.984375 28.609375 75.984375 
z
" id="DejaVuSans-102"/>
      <path d="M 45.40625 46.390625 
L 45.40625 75.984375 
L 54.390625 75.984375 
L 54.390625 0 
L 45.40625 0 
L 45.40625 8.203125 
Q 42.578125 3.328125 38.25 0.953125 
Q 33.9375 -1.421875 27.875 -1.421875 
Q 17.96875 -1.421875 11.734375 6.484375 
Q 5.515625 14.40625 5.515625 27.296875 
Q 5.515625 40.1875 11.734375 48.09375 
Q 17.96875 56 27.875 56 
Q 33.9375 56 38.25 53.625 
Q 42.578125 51.265625 45.40625 46.390625 
z
M 14.796875 27.296875 
Q 14.796875 17.390625 18.875 11.75 
Q 22.953125 6.109375 30.078125 6.109375 
Q 37.203125 6.109375 41.296875 11.75 
Q 45.40625 17.390625 45.40625 27.296875 
Q 45.40625 37.203125 41.296875 42.84375 
Q 37.203125 48.484375 30.078125 48.484375 
Q 22.953125 48.484375 18.875 42.84375 
Q 14.796875 37.203125 14.796875 27.296875 
z
" id="DejaVuSans-100"/>
      <path d="M 31 75.875 
Q 24.46875 64.65625 21.28125 53.65625 
Q 18.109375 42.671875 18.109375 31.390625 
Q 18.109375 20.125 21.3125 9.0625 
Q 24.515625 -2 31 -13.1875 
L 23.1875 -13.1875 
Q 15.875 -1.703125 12.234375 9.375 
Q 8.59375 20.453125 8.59375 31.390625 
Q 8.59375 42.28125 12.203125 53.3125 
Q 15.828125 64.359375 23.1875 75.875 
z
" id="DejaVuSans-40"/>
      <path d="M 34.1875 63.1875 
L 20.796875 26.90625 
L 47.609375 26.90625 
z
M 28.609375 72.90625 
L 39.796875 72.90625 
L 67.578125 0 
L 57.328125 0 
L 50.6875 18.703125 
L 17.828125 18.703125 
L 11.1875 0 
L 0.78125 0 
z
" id="DejaVuSans-65"/>
      <path d="M 8.6875 72.90625 
L 18.609375 72.90625 
L 18.609375 28.609375 
Q 18.609375 16.890625 22.84375 11.734375 
Q 27.09375 6.59375 36.625 6.59375 
Q 46.09375 6.59375 50.34375 11.734375 
Q 54.59375 16.890625 54.59375 28.609375 
L 54.59375 72.90625 
L 64.5 72.90625 
L 64.5 27.390625 
Q 64.5 13.140625 57.4375 5.859375 
Q 50.390625 -1.421875 36.625 -1.421875 
Q 22.796875 -1.421875 15.734375 5.859375 
Q 8.6875 13.140625 8.6875 27.390625 
z
" id="DejaVuSans-85"/>
      <path d="M 64.40625 67.28125 
L 64.40625 56.890625 
Q 59.421875 61.53125 53.78125 63.8125 
Q 48.140625 66.109375 41.796875 66.109375 
Q 29.296875 66.109375 22.65625 58.46875 
Q 16.015625 50.828125 16.015625 36.375 
Q 16.015625 21.96875 22.65625 14.328125 
Q 29.296875 6.6875 41.796875 6.6875 
Q 48.140625 6.6875 53.78125 8.984375 
Q 59.421875 11.28125 64.40625 15.921875 
L 64.40625 5.609375 
Q 59.234375 2.09375 53.4375 0.328125 
Q 47.65625 -1.421875 41.21875 -1.421875 
Q 24.65625 -1.421875 15.125 8.703125 
Q 5.609375 18.84375 5.609375 36.375 
Q 5.609375 53.953125 15.125 64.078125 
Q 24.65625 74.21875 41.21875 74.21875 
Q 47.75 74.21875 53.53125 72.484375 
Q 59.328125 70.75 64.40625 67.28125 
z
" id="DejaVuSans-67"/>
      <path d="M 10.59375 45.40625 
L 73.1875 45.40625 
L 73.1875 37.203125 
L 10.59375 37.203125 
z
M 10.59375 25.484375 
L 73.1875 25.484375 
L 73.1875 17.1875 
L 10.59375 17.1875 
z
" id="DejaVuSans-61"/>
      <path d="M 10.984375 1.515625 
L 10.984375 10.5 
Q 14.703125 8.734375 18.5 7.8125 
Q 22.3125 6.890625 25.984375 6.890625 
Q 35.75 6.890625 40.890625 13.453125 
Q 46.046875 20.015625 46.78125 33.40625 
Q 43.953125 29.203125 39.59375 26.953125 
Q 35.25 24.703125 29.984375 24.703125 
Q 19.046875 24.703125 12.671875 31.3125 
Q 6.296875 37.9375 6.296875 49.421875 
Q 6.296875 60.640625 12.9375 67.421875 
Q 19.578125 74.21875 30.609375 74.21875 
Q 43.265625 74.21875 49.921875 64.515625 
Q 56.59375 54.828125 56.59375 36.375 
Q 56.59375 19.140625 48.40625 8.859375 
Q 40.234375 -1.421875 26.421875 -1.421875 
Q 22.703125 -1.421875 18.890625 -0.6875 
Q 15.09375 0.046875 10.984375 1.515625 
z
M 30.609375 32.421875 
Q 37.25 32.421875 41.125 36.953125 
Q 45.015625 41.5 45.015625 49.421875 
Q 45.015625 57.28125 41.125 61.84375 
Q 37.25 66.40625 30.609375 66.40625 
Q 23.96875 66.40625 20.09375 61.84375 
Q 16.21875 57.28125 16.21875 49.421875 
Q 16.21875 41.5 20.09375 36.953125 
Q 23.96875 32.421875 30.609375 32.421875 
z
" id="DejaVuSans-57"/>
      <path d="M 40.578125 39.3125 
Q 47.65625 37.796875 51.625 33 
Q 55.609375 28.21875 55.609375 21.1875 
Q 55.609375 10.40625 48.1875 4.484375 
Q 40.765625 -1.421875 27.09375 -1.421875 
Q 22.515625 -1.421875 17.65625 -0.515625 
Q 12.796875 0.390625 7.625 2.203125 
L 7.625 11.71875 
Q 11.71875 9.328125 16.59375 8.109375 
Q 21.484375 6.890625 26.8125 6.890625 
Q 36.078125 6.890625 40.9375 10.546875 
Q 45.796875 14.203125 45.796875 21.1875 
Q 45.796875 27.640625 41.28125 31.265625 
Q 36.765625 34.90625 28.71875 34.90625 
L 20.21875 34.90625 
L 20.21875 43.015625 
L 29.109375 43.015625 
Q 36.375 43.015625 40.234375 45.921875 
Q 44.09375 48.828125 44.09375 54.296875 
Q 44.09375 59.90625 40.109375 62.90625 
Q 36.140625 65.921875 28.71875 65.921875 
Q 24.65625 65.921875 20.015625 65.03125 
Q 15.375 64.15625 9.8125 62.3125 
L 9.8125 71.09375 
Q 15.4375 72.65625 20.34375 73.4375 
Q 25.25 74.21875 29.59375 74.21875 
Q 40.828125 74.21875 47.359375 69.109375 
Q 53.90625 64.015625 53.90625 55.328125 
Q 53.90625 49.265625 50.4375 45.09375 
Q 46.96875 40.921875 40.578125 39.3125 
z
" id="DejaVuSans-51"/>
      <path d="M 8.015625 75.875 
L 15.828125 75.875 
Q 23.140625 64.359375 26.78125 53.3125 
Q 30.421875 42.28125 30.421875 31.390625 
Q 30.421875 20.453125 26.78125 9.375 
Q 23.140625 -1.703125 15.828125 -13.1875 
L 8.015625 -13.1875 
Q 14.5 -2 17.703125 9.0625 
Q 20.90625 20.125 20.90625 31.390625 
Q 20.90625 42.671875 17.703125 53.65625 
Q 14.5 64.65625 8.015625 75.875 
z
" id="DejaVuSans-41"/>
     </defs>
     <g transform="translate(94.6 149.723062)scale(0.1 -0.1)">
      <use xlink:href="#DejaVuSans-102"/>
      <use x="35.205078" xlink:href="#DejaVuSans-111"/>
      <use x="96.386719" xlink:href="#DejaVuSans-108"/>
      <use x="124.169922" xlink:href="#DejaVuSans-100"/>
      <use x="187.646484" xlink:href="#DejaVuSans-32"/>
      <use x="219.433594" xlink:href="#DejaVuSans-48"/>
      <use x="283.056641" xlink:href="#DejaVuSans-32"/>
      <use x="314.84375" xlink:href="#DejaVuSans-40"/>
      <use x="353.857422" xlink:href="#DejaVuSans-65"/>
      <use x="422.265625" xlink:href="#DejaVuSans-85"/>
      <use x="495.458984" xlink:href="#DejaVuSans-67"/>
      <use x="565.283203" xlink:href="#DejaVuSans-32"/>
      <use x="597.070312" xlink:href="#DejaVuSans-61"/>
      <use x="680.859375" xlink:href="#DejaVuSans-32"/>
      <use x="712.646484" xlink:href="#DejaVuSans-48"/>
      <use x="776.269531" xlink:href="#DejaVuSans-46"/>
      <use x="808.056641" xlink:href="#DejaVuSans-57"/>
      <use x="871.679688" xlink:href="#DejaVuSans-50"/>
      <use x="935.302734" xlink:href="#DejaVuSans-54"/>
      <use x="998.925781" xlink:href="#DejaVuSans-51"/>
      <use x="1062.548828" xlink:href="#DejaVuSans-41"/>
     </g>
    </g>
    <g id="line2d_36">
     <path d="M 66.6 160.901188 
L 86.6 160.901188 
" style="fill:none;stroke:#ff0000;stroke-linecap:square;stroke-opacity:0.8;stroke-width:1.5;"/>
    </g>
    <g id="line2d_37"/>
    <g id="text_16">
     <!-- fold 1 (AUC = 0.9438) -->
     <g transform="translate(94.6 164.401188)scale(0.1 -0.1)">
      <use xlink:href="#DejaVuSans-102"/>
      <use x="35.205078" xlink:href="#DejaVuSans-111"/>
      <use x="96.386719" xlink:href="#DejaVuSans-108"/>
      <use x="124.169922" xlink:href="#DejaVuSans-100"/>
      <use x="187.646484" xlink:href="#DejaVuSans-32"/>
      <use x="219.433594" xlink:href="#DejaVuSans-49"/>
      <use x="283.056641" xlink:href="#DejaVuSans-32"/>
      <use x="314.84375" xlink:href="#DejaVuSans-40"/>
      <use x="353.857422" xlink:href="#DejaVuSans-65"/>
      <use x="422.265625" xlink:href="#DejaVuSans-85"/>
      <use x="495.458984" xlink:href="#DejaVuSans-67"/>
      <use x="565.283203" xlink:href="#DejaVuSans-32"/>
      <use x="597.070312" xlink:href="#DejaVuSans-61"/>
      <use x="680.859375" xlink:href="#DejaVuSans-32"/>
      <use x="712.646484" xlink:href="#DejaVuSans-48"/>
      <use x="776.269531" xlink:href="#DejaVuSans-46"/>
      <use x="808.056641" xlink:href="#DejaVuSans-57"/>
      <use x="871.679688" xlink:href="#DejaVuSans-52"/>
      <use x="935.302734" xlink:href="#DejaVuSans-51"/>
      <use x="998.925781" xlink:href="#DejaVuSans-56"/>
      <use x="1062.548828" xlink:href="#DejaVuSans-41"/>
     </g>
    </g>
    <g id="line2d_38">
     <path d="M 66.6 175.579313 
L 86.6 175.579313 
" style="fill:none;stroke:#ff0000;stroke-linecap:square;stroke-opacity:0.8;stroke-width:1.5;"/>
    </g>
    <g id="line2d_39"/>
    <g id="text_17">
     <!-- fold 2 (AUC = 0.9335) -->
     <defs>
      <path d="M 10.796875 72.90625 
L 49.515625 72.90625 
L 49.515625 64.59375 
L 19.828125 64.59375 
L 19.828125 46.734375 
Q 21.96875 47.46875 24.109375 47.828125 
Q 26.265625 48.1875 28.421875 48.1875 
Q 40.625 48.1875 47.75 41.5 
Q 54.890625 34.8125 54.890625 23.390625 
Q 54.890625 11.625 47.5625 5.09375 
Q 40.234375 -1.421875 26.90625 -1.421875 
Q 22.3125 -1.421875 17.546875 -0.640625 
Q 12.796875 0.140625 7.71875 1.703125 
L 7.71875 11.625 
Q 12.109375 9.234375 16.796875 8.0625 
Q 21.484375 6.890625 26.703125 6.890625 
Q 35.15625 6.890625 40.078125 11.328125 
Q 45.015625 15.765625 45.015625 23.390625 
Q 45.015625 31 40.078125 35.4375 
Q 35.15625 39.890625 26.703125 39.890625 
Q 22.75 39.890625 18.8125 39.015625 
Q 14.890625 38.140625 10.796875 36.28125 
z
" id="DejaVuSans-53"/>
     </defs>
     <g transform="translate(94.6 179.079313)scale(0.1 -0.1)">
      <use xlink:href="#DejaVuSans-102"/>
      <use x="35.205078" xlink:href="#DejaVuSans-111"/>
      <use x="96.386719" xlink:href="#DejaVuSans-108"/>
      <use x="124.169922" xlink:href="#DejaVuSans-100"/>
      <use x="187.646484" xlink:href="#DejaVuSans-32"/>
      <use x="219.433594" xlink:href="#DejaVuSans-50"/>
      <use x="283.056641" xlink:href="#DejaVuSans-32"/>
      <use x="314.84375" xlink:href="#DejaVuSans-40"/>
      <use x="353.857422" xlink:href="#DejaVuSans-65"/>
      <use x="422.265625" xlink:href="#DejaVuSans-85"/>
      <use x="495.458984" xlink:href="#DejaVuSans-67"/>
      <use x="565.283203" xlink:href="#DejaVuSans-32"/>
      <use x="597.070312" xlink:href="#DejaVuSans-61"/>
      <use x="680.859375" xlink:href="#DejaVuSans-32"/>
      <use x="712.646484" xlink:href="#DejaVuSans-48"/>
      <use x="776.269531" xlink:href="#DejaVuSans-46"/>
      <use x="808.056641" xlink:href="#DejaVuSans-57"/>
      <use x="871.679688" xlink:href="#DejaVuSans-51"/>
      <use x="935.302734" xlink:href="#DejaVuSans-51"/>
      <use x="998.925781" xlink:href="#DejaVuSans-53"/>
      <use x="1062.548828" xlink:href="#DejaVuSans-41"/>
     </g>
    </g>
    <g id="line2d_40">
     <path d="M 66.6 190.257438 
L 86.6 190.257438 
" style="fill:none;stroke:#ff0000;stroke-linecap:square;stroke-opacity:0.8;stroke-width:1.5;"/>
    </g>
    <g id="line2d_41"/>
    <g id="text_18">
     <!-- fold 3 (AUC = 0.9119) -->
     <g transform="translate(94.6 193.757438)scale(0.1 -0.1)">
      <use xlink:href="#DejaVuSans-102"/>
      <use x="35.205078" xlink:href="#DejaVuSans-111"/>
      <use x="96.386719" xlink:href="#DejaVuSans-108"/>
      <use x="124.169922" xlink:href="#DejaVuSans-100"/>
      <use x="187.646484" xlink:href="#DejaVuSans-32"/>
      <use x="219.433594" xlink:href="#DejaVuSans-51"/>
      <use x="283.056641" xlink:href="#DejaVuSans-32"/>
      <use x="314.84375" xlink:href="#DejaVuSans-40"/>
      <use x="353.857422" xlink:href="#DejaVuSans-65"/>
      <use x="422.265625" xlink:href="#DejaVuSans-85"/>
      <use x="495.458984" xlink:href="#DejaVuSans-67"/>
      <use x="565.283203" xlink:href="#DejaVuSans-32"/>
      <use x="597.070312" xlink:href="#DejaVuSans-61"/>
      <use x="680.859375" xlink:href="#DejaVuSans-32"/>
      <use x="712.646484" xlink:href="#DejaVuSans-48"/>
      <use x="776.269531" xlink:href="#DejaVuSans-46"/>
      <use x="808.056641" xlink:href="#DejaVuSans-57"/>
      <use x="871.679688" xlink:href="#DejaVuSans-49"/>
      <use x="935.302734" xlink:href="#DejaVuSans-49"/>
      <use x="998.925781" xlink:href="#DejaVuSans-57"/>
      <use x="1062.548828" xlink:href="#DejaVuSans-41"/>
     </g>
    </g>
    <g id="line2d_42">
     <path d="M 66.6 204.935563 
L 86.6 204.935563 
" style="fill:none;stroke:#ff0000;stroke-linecap:square;stroke-opacity:0.8;stroke-width:1.5;"/>
    </g>
    <g id="line2d_43"/>
    <g id="text_19">
     <!-- fold 4 (AUC = 0.8976) -->
     <defs>
      <path d="M 8.203125 72.90625 
L 55.078125 72.90625 
L 55.078125 68.703125 
L 28.609375 0 
L 18.3125 0 
L 43.21875 64.59375 
L 8.203125 64.59375 
z
" id="DejaVuSans-55"/>
     </defs>
     <g transform="translate(94.6 208.435563)scale(0.1 -0.1)">
      <use xlink:href="#DejaVuSans-102"/>
      <use x="35.205078" xlink:href="#DejaVuSans-111"/>
      <use x="96.386719" xlink:href="#DejaVuSans-108"/>
      <use x="124.169922" xlink:href="#DejaVuSans-100"/>
      <use x="187.646484" xlink:href="#DejaVuSans-32"/>
      <use x="219.433594" xlink:href="#DejaVuSans-52"/>
      <use x="283.056641" xlink:href="#DejaVuSans-32"/>
      <use x="314.84375" xlink:href="#DejaVuSans-40"/>
      <use x="353.857422" xlink:href="#DejaVuSans-65"/>
      <use x="422.265625" xlink:href="#DejaVuSans-85"/>
      <use x="495.458984" xlink:href="#DejaVuSans-67"/>
      <use x="565.283203" xlink:href="#DejaVuSans-32"/>
      <use x="597.070312" xlink:href="#DejaVuSans-61"/>
      <use x="680.859375" xlink:href="#DejaVuSans-32"/>
      <use x="712.646484" xlink:href="#DejaVuSans-48"/>
      <use x="776.269531" xlink:href="#DejaVuSans-46"/>
      <use x="808.056641" xlink:href="#DejaVuSans-56"/>
      <use x="871.679688" xlink:href="#DejaVuSans-57"/>
      <use x="935.302734" xlink:href="#DejaVuSans-55"/>
      <use x="998.925781" xlink:href="#DejaVuSans-54"/>
      <use x="1062.548828" xlink:href="#DejaVuSans-41"/>
     </g>
    </g>
    <g id="line2d_44">
     <path d="M 66.6 219.613688 
L 86.6 219.613688 
" style="fill:none;stroke:#ff0000;stroke-linecap:square;stroke-opacity:0.8;stroke-width:1.5;"/>
    </g>
    <g id="line2d_45"/>
    <g id="text_20">
     <!-- fold 5 (AUC = 0.9327) -->
     <g transform="translate(94.6 223.113688)scale(0.1 -0.1)">
      <use xlink:href="#DejaVuSans-102"/>
      <use x="35.205078" xlink:href="#DejaVuSans-111"/>
      <use x="96.386719" xlink:href="#DejaVuSans-108"/>
      <use x="124.169922" xlink:href="#DejaVuSans-100"/>
      <use x="187.646484" xlink:href="#DejaVuSans-32"/>
      <use x="219.433594" xlink:href="#DejaVuSans-53"/>
      <use x="283.056641" xlink:href="#DejaVuSans-32"/>
      <use x="314.84375" xlink:href="#DejaVuSans-40"/>
      <use x="353.857422" xlink:href="#DejaVuSans-65"/>
      <use x="422.265625" xlink:href="#DejaVuSans-85"/>
      <use x="495.458984" xlink:href="#DejaVuSans-67"/>
      <use x="565.283203" xlink:href="#DejaVuSans-32"/>
      <use x="597.070312" xlink:href="#DejaVuSans-61"/>
      <use x="680.859375" xlink:href="#DejaVuSans-32"/>
      <use x="712.646484" xlink:href="#DejaVuSans-48"/>
      <use x="776.269531" xlink:href="#DejaVuSans-46"/>
      <use x="808.056641" xlink:href="#DejaVuSans-57"/>
      <use x="871.679688" xlink:href="#DejaVuSans-51"/>
      <use x="935.302734" xlink:href="#DejaVuSans-50"/>
      <use x="998.925781" xlink:href="#DejaVuSans-55"/>
      <use x="1062.548828" xlink:href="#DejaVuSans-41"/>
     </g>
    </g>
    <g id="line2d_46">
     <path d="M 66.6 234.291812 
L 86.6 234.291812 
" style="fill:none;stroke:#ff0000;stroke-linecap:square;stroke-opacity:0.8;stroke-width:1.5;"/>
    </g>
    <g id="line2d_47"/>
    <g id="text_21">
     <!-- fold 6 (AUC = 0.9081) -->
     <g transform="translate(94.6 237.791812)scale(0.1 -0.1)">
      <use xlink:href="#DejaVuSans-102"/>
      <use x="35.205078" xlink:href="#DejaVuSans-111"/>
      <use x="96.386719" xlink:href="#DejaVuSans-108"/>
      <use x="124.169922" xlink:href="#DejaVuSans-100"/>
      <use x="187.646484" xlink:href="#DejaVuSans-32"/>
      <use x="219.433594" xlink:href="#DejaVuSans-54"/>
      <use x="283.056641" xlink:href="#DejaVuSans-32"/>
      <use x="314.84375" xlink:href="#DejaVuSans-40"/>
      <use x="353.857422" xlink:href="#DejaVuSans-65"/>
      <use x="422.265625" xlink:href="#DejaVuSans-85"/>
      <use x="495.458984" xlink:href="#DejaVuSans-67"/>
      <use x="565.283203" xlink:href="#DejaVuSans-32"/>
      <use x="597.070312" xlink:href="#DejaVuSans-61"/>
      <use x="680.859375" xlink:href="#DejaVuSans-32"/>
      <use x="712.646484" xlink:href="#DejaVuSans-48"/>
      <use x="776.269531" xlink:href="#DejaVuSans-46"/>
      <use x="808.056641" xlink:href="#DejaVuSans-57"/>
      <use x="871.679688" xlink:href="#DejaVuSans-48"/>
      <use x="935.302734" xlink:href="#DejaVuSans-56"/>
      <use x="998.925781" xlink:href="#DejaVuSans-49"/>
      <use x="1062.548828" xlink:href="#DejaVuSans-41"/>
     </g>
    </g>
    <g id="line2d_48">
     <path d="M 66.6 248.969938 
L 86.6 248.969938 
" style="fill:none;stroke:#ff0000;stroke-linecap:square;stroke-opacity:0.8;stroke-width:1.5;"/>
    </g>
    <g id="line2d_49"/>
    <g id="text_22">
     <!-- fold 7 (AUC = 0.9268) -->
     <g transform="translate(94.6 252.469938)scale(0.1 -0.1)">
      <use xlink:href="#DejaVuSans-102"/>
      <use x="35.205078" xlink:href="#DejaVuSans-111"/>
      <use x="96.386719" xlink:href="#DejaVuSans-108"/>
      <use x="124.169922" xlink:href="#DejaVuSans-100"/>
      <use x="187.646484" xlink:href="#DejaVuSans-32"/>
      <use x="219.433594" xlink:href="#DejaVuSans-55"/>
      <use x="283.056641" xlink:href="#DejaVuSans-32"/>
      <use x="314.84375" xlink:href="#DejaVuSans-40"/>
      <use x="353.857422" xlink:href="#DejaVuSans-65"/>
      <use x="422.265625" xlink:href="#DejaVuSans-85"/>
      <use x="495.458984" xlink:href="#DejaVuSans-67"/>
      <use x="565.283203" xlink:href="#DejaVuSans-32"/>
      <use x="597.070312" xlink:href="#DejaVuSans-61"/>
      <use x="680.859375" xlink:href="#DejaVuSans-32"/>
      <use x="712.646484" xlink:href="#DejaVuSans-48"/>
      <use x="776.269531" xlink:href="#DejaVuSans-46"/>
      <use x="808.056641" xlink:href="#DejaVuSans-57"/>
      <use x="871.679688" xlink:href="#DejaVuSans-50"/>
      <use x="935.302734" xlink:href="#DejaVuSans-54"/>
      <use x="998.925781" xlink:href="#DejaVuSans-56"/>
      <use x="1062.548828" xlink:href="#DejaVuSans-41"/>
     </g>
    </g>
    <g id="line2d_50">
     <path d="M 66.6 263.648062 
L 86.6 263.648062 
" style="fill:none;stroke:#ff0000;stroke-linecap:square;stroke-opacity:0.8;stroke-width:1.5;"/>
    </g>
    <g id="line2d_51"/>
    <g id="text_23">
     <!-- fold 8 (AUC = 0.9219) -->
     <g transform="translate(94.6 267.148062)scale(0.1 -0.1)">
      <use xlink:href="#DejaVuSans-102"/>
      <use x="35.205078" xlink:href="#DejaVuSans-111"/>
      <use x="96.386719" xlink:href="#DejaVuSans-108"/>
      <use x="124.169922" xlink:href="#DejaVuSans-100"/>
      <use x="187.646484" xlink:href="#DejaVuSans-32"/>
      <use x="219.433594" xlink:href="#DejaVuSans-56"/>
      <use x="283.056641" xlink:href="#DejaVuSans-32"/>
      <use x="314.84375" xlink:href="#DejaVuSans-40"/>
      <use x="353.857422" xlink:href="#DejaVuSans-65"/>
      <use x="422.265625" xlink:href="#DejaVuSans-85"/>
      <use x="495.458984" xlink:href="#DejaVuSans-67"/>
      <use x="565.283203" xlink:href="#DejaVuSans-32"/>
      <use x="597.070312" xlink:href="#DejaVuSans-61"/>
      <use x="680.859375" xlink:href="#DejaVuSans-32"/>
      <use x="712.646484" xlink:href="#DejaVuSans-48"/>
      <use x="776.269531" xlink:href="#DejaVuSans-46"/>
      <use x="808.056641" xlink:href="#DejaVuSans-57"/>
      <use x="871.679688" xlink:href="#DejaVuSans-50"/>
      <use x="935.302734" xlink:href="#DejaVuSans-49"/>
      <use x="998.925781" xlink:href="#DejaVuSans-57"/>
      <use x="1062.548828" xlink:href="#DejaVuSans-41"/>
     </g>
    </g>
    <g id="line2d_52">
     <path d="M 66.6 278.326187 
L 86.6 278.326187 
" style="fill:none;stroke:#ff0000;stroke-linecap:square;stroke-opacity:0.8;stroke-width:1.5;"/>
    </g>
    <g id="line2d_53"/>
    <g id="text_24">
     <!-- fold 9 (AUC = 0.9209) -->
     <g transform="translate(94.6 281.826187)scale(0.1 -0.1)">
      <use xlink:href="#DejaVuSans-102"/>
      <use x="35.205078" xlink:href="#DejaVuSans-111"/>
      <use x="96.386719" xlink:href="#DejaVuSans-108"/>
      <use x="124.169922" xlink:href="#DejaVuSans-100"/>
      <use x="187.646484" xlink:href="#DejaVuSans-32"/>
      <use x="219.433594" xlink:href="#DejaVuSans-57"/>
      <use x="283.056641" xlink:href="#DejaVuSans-32"/>
      <use x="314.84375" xlink:href="#DejaVuSans-40"/>
      <use x="353.857422" xlink:href="#DejaVuSans-65"/>
      <use x="422.265625" xlink:href="#DejaVuSans-85"/>
      <use x="495.458984" xlink:href="#DejaVuSans-67"/>
      <use x="565.283203" xlink:href="#DejaVuSans-32"/>
      <use x="597.070312" xlink:href="#DejaVuSans-61"/>
      <use x="680.859375" xlink:href="#DejaVuSans-32"/>
      <use x="712.646484" xlink:href="#DejaVuSans-48"/>
      <use x="776.269531" xlink:href="#DejaVuSans-46"/>
      <use x="808.056641" xlink:href="#DejaVuSans-57"/>
      <use x="871.679688" xlink:href="#DejaVuSans-50"/>
      <use x="935.302734" xlink:href="#DejaVuSans-48"/>
      <use x="998.925781" xlink:href="#DejaVuSans-57"/>
      <use x="1062.548828" xlink:href="#DejaVuSans-41"/>
     </g>
    </g>
    <g id="line2d_54">
     <path d="M 66.6 293.004312 
L 86.6 293.004312 
" style="fill:none;stroke:#000000;stroke-linecap:square;stroke-width:2;"/>
    </g>
    <g id="line2d_55"/>
    <g id="text_25">
     <!-- Mean (AUC = 0.9224) -->
     <defs>
      <path d="M 9.8125 72.90625 
L 24.515625 72.90625 
L 43.109375 23.296875 
L 61.8125 72.90625 
L 76.515625 72.90625 
L 76.515625 0 
L 66.890625 0 
L 66.890625 64.015625 
L 48.09375 14.015625 
L 38.1875 14.015625 
L 19.390625 64.015625 
L 19.390625 0 
L 9.8125 0 
z
" id="DejaVuSans-77"/>
      <path d="M 54.890625 33.015625 
L 54.890625 0 
L 45.90625 0 
L 45.90625 32.71875 
Q 45.90625 40.484375 42.875 44.328125 
Q 39.84375 48.1875 33.796875 48.1875 
Q 26.515625 48.1875 22.3125 43.546875 
Q 18.109375 38.921875 18.109375 30.90625 
L 18.109375 0 
L 9.078125 0 
L 9.078125 54.6875 
L 18.109375 54.6875 
L 18.109375 46.1875 
Q 21.34375 51.125 25.703125 53.5625 
Q 30.078125 56 35.796875 56 
Q 45.21875 56 50.046875 50.171875 
Q 54.890625 44.34375 54.890625 33.015625 
z
" id="DejaVuSans-110"/>
     </defs>
     <g transform="translate(94.6 296.504312)scale(0.1 -0.1)">
      <use xlink:href="#DejaVuSans-77"/>
      <use x="86.279297" xlink:href="#DejaVuSans-101"/>
      <use x="147.802734" xlink:href="#DejaVuSans-97"/>
      <use x="209.082031" xlink:href="#DejaVuSans-110"/>
      <use x="272.460938" xlink:href="#DejaVuSans-32"/>
      <use x="304.248047" xlink:href="#DejaVuSans-40"/>
      <use x="343.261719" xlink:href="#DejaVuSans-65"/>
      <use x="411.669922" xlink:href="#DejaVuSans-85"/>
      <use x="484.863281" xlink:href="#DejaVuSans-67"/>
      <use x="554.6875" xlink:href="#DejaVuSans-32"/>
      <use x="586.474609" xlink:href="#DejaVuSans-61"/>
      <use x="670.263672" xlink:href="#DejaVuSans-32"/>
      <use x="702.050781" xlink:href="#DejaVuSans-48"/>
      <use x="765.673828" xlink:href="#DejaVuSans-46"/>
      <use x="797.460938" xlink:href="#DejaVuSans-57"/>
      <use x="861.083984" xlink:href="#DejaVuSans-50"/>
      <use x="924.707031" xlink:href="#DejaVuSans-50"/>
      <use x="988.330078" xlink:href="#DejaVuSans-52"/>
      <use x="1051.953125" xlink:href="#DejaVuSans-41"/>
     </g>
    </g>
   </g>
  </g>
 </g>
 <defs>
  <clipPath id="p73964023ff">
   <rect height="266.112" width="357.12" x="57.6" y="41.472"/>
  </clipPath>
 </defs>
</svg>
